<?xml version="1.0" encoding="UTF-8" standalone="no"?>
<svg
   xmlns:dc="http://purl.org/dc/elements/1.1/"
   xmlns:cc="http://creativecommons.org/ns#"
   xmlns:rdf="http://www.w3.org/1999/02/22-rdf-syntax-ns#"
   xmlns:svg="http://www.w3.org/2000/svg"
   xmlns="http://www.w3.org/2000/svg"
   width="76.348022mm"
   height="91.551514mm"
   viewBox="0 0 76.348022 91.551514"
   version="1.1"
   id="svg8">
  <defs
     id="defs2">
    <clipPath
       clipPathUnits="userSpaceOnUse"
       id="clipEmfPath1">
      <path
         d="M 4.4797673,6.8796427 H 285.58517 V 345.42206 H 4.4797673 Z"
         id="path833" />
    </clipPath>
    <pattern
       id="EMFhbasepattern"
       patternUnits="userSpaceOnUse"
       width="6"
       height="6"
       x="0"
       y="0" />
  </defs>
  <metadata
     id="metadata5">
    <rdf:RDF>
      <cc:Work
         rdf:about="">
        <dc:format>image/svg+xml</dc:format>
        <dc:type
           rdf:resource="http://purl.org/dc/dcmitype/StillImage" />
        <dc:title></dc:title>
      </cc:Work>
    </rdf:RDF>
  </metadata>
  <g
     id="layer1"
     transform="translate(-16.254561,-104.65877)">
    <path
       style="fill:#000000;fill-opacity:1;fill-rule:nonzero;stroke:#000000;stroke-width:0.00529139px;stroke-linecap:butt;stroke-linejoin:round;stroke-miterlimit:4;stroke-dasharray:none;stroke-opacity:1"
       d="m 81.206322,185.69107 -1.243476,0.54501 -0.132286,-0.3069 1.238186,-0.54501 z m -2.174762,0.95774 -1.254058,0.50797 -0.126995,-0.31219 1.254061,-0.51326 z m -2.201219,0.89425 -1.269934,0.47622 -0.116411,-0.31748 1.264644,-0.47623 z m -2.222384,0.83074 -1.280517,0.44448 -0.11112,-0.32277 1.280518,-0.43919 z m -2.248842,0.77255 -1.2911,0.40743 -0.100537,-0.32277 1.291101,-0.40744 z m -2.264717,0.70904 -1.301681,0.37569 -0.09524,-0.32807 1.301681,-0.37039 z m -2.285881,0.65085 -1.312264,0.33335 -0.08466,-0.32806 1.312264,-0.33336 z m -2.301753,0.58205 -1.32285,0.30161 -0.07408,-0.32807 1.322848,-0.3069 z m -2.317631,0.52385 -1.328139,0.26457 -0.06879,-0.33336 1.328139,-0.26457 z m -2.328211,0.45505 -1.338723,0.22754 -0.05821,-0.33336 1.338723,-0.22753 z m -2.344087,0.39157 -1.338723,0.19578 -0.05291,-0.33336 1.344015,-0.19578 z m -2.35467,0.33336 -1.344014,0.15345 -0.03704,-0.33336 1.344015,-0.15874 z m -2.359962,0.26457 -1.349303,0.1217 -0.02646,-0.33865 1.349306,-0.1217 z m -2.36525,0.20107 -1.349306,0.0794 -0.02116,-0.33336 1.349303,-0.0847 z m -2.370545,0.13228 -1.354595,0.0476 -0.01058,-0.33865 1.354595,-0.0476 z m -2.370542,0.0741 -0.693174,0.0106 h -0.666716 v -0.33865 h 0.666716 -0.0053 l 0.693174,-0.0106 z"
       id="path839" />
    <path
       style="fill:none;stroke:#000000;stroke-width:3.99979px;stroke-linecap:butt;stroke-linejoin:miter;stroke-miterlimit:8;stroke-dasharray:none;stroke-opacity:1"
       clip-path="url(#clipEmfPath1)"
       d="M 109.15433,7.5196094 108.63436,338.26243"
       id="path841"
       transform="matrix(0.26458333,0,0,0.26458333,16.069289,103.83853)" />
    <path
       style="fill:#000000;fill-opacity:1;fill-rule:evenodd;stroke:none;stroke-width:0.264583"
       d="m 17.402719,105.80693 v 2.62453 h 55.072808 v -2.62453 z"
       id="path843" />
    <path
       style="fill:none;stroke:#000000;stroke-width:1.27993px;stroke-linecap:butt;stroke-linejoin:miter;stroke-miterlimit:8;stroke-dasharray:none;stroke-opacity:1"
       clip-path="url(#clipEmfPath1)"
       d="M 5.0397382,17.359098 H 213.18893 V 7.4396136 H 5.0397382 Z"
       id="path845"
       transform="matrix(0.26458333,0,0,0.26458333,16.069289,103.83853)" />
    <path
       style="fill:none;stroke:#afabab;stroke-width:1.05828px;stroke-linecap:butt;stroke-linejoin:miter;stroke-miterlimit:8;stroke-dasharray:none;stroke-opacity:1"
       d="m 45.346559,108.41558 35.772455,76.98446"
       id="path847" />
    <path
       style="fill:#000000;fill-opacity:1;fill-rule:nonzero;stroke:#000000;stroke-width:0.00999948px;stroke-linecap:butt;stroke-linejoin:round;stroke-miterlimit:10;stroke-dasharray:none;stroke-opacity:1"
       clip-path="url(#clipEmfPath1)"
       d="m 285.47517,307.58402 h -5.11973 v 1.27994 h 5.11973 z m -8.95953,0 h -5.11974 v 1.27994 h 5.11974 z m -8.95954,0 h -5.11973 v 1.27994 h 5.11973 z m -8.95953,0 h -5.11974 v 1.27994 h 5.11974 z m -8.95954,0 h -5.11973 v 1.27994 h 5.11973 z m -8.95953,0 h -5.11973 v 1.27994 h 5.11973 z m -8.95954,0 h -5.11973 v 1.27994 h 5.11973 z m -8.95953,0 h -5.11973 v 1.27994 h 5.11973 z m -8.95953,0 h -5.11974 v 1.27994 h 5.11974 z m -8.95954,0 h -5.11973 v 1.27994 h 5.11973 z m -8.95953,0 h -5.11974 v 1.27994 h 5.11974 z m -8.95954,0 h -5.11973 v 1.27994 h 5.11973 z m -8.95953,0 h -5.11974 v 1.27994 h 5.11974 z m -8.95954,0 h -5.11973 v 1.27994 h 5.11973 z m -8.95953,0 h -5.11974 v 1.27994 h 5.11974 z m -8.95954,0 h -5.11973 v 1.27994 h 5.11973 z m -8.95953,0 h -5.11974 v 1.27994 h 5.11974 z m -8.95954,0 h -5.11973 v 1.27994 h 5.11973 z m -8.95953,0 h -5.11974 v 1.27994 h 5.11974 z m -8.95954,0 h -5.11973 v 1.27994 h 5.11973 z m -8.95953,0 h -5.11973 v 1.27994 h 5.11973 z m -8.959535,0 h -5.119734 v 1.27994 h 5.119734 z m -8.959535,0 h -5.119734 v 1.27994 h 5.119734 z m -8.959534,0 h -5.119734 v 1.27994 h 5.119734 z m -8.959535,0 h -5.119734 v 1.27994 h 5.119734 z m -8.959535,0 h -5.119734 v 1.27994 h 5.119734 z m -8.959534,0 h -5.119734 v 1.27994 h 5.119734 z m -8.959535,0 h -5.119734 v 1.27994 h 5.119734 z m -8.959535,0 h -5.119734 v 1.27994 h 5.119734 z m -8.959534,0 h -5.119734 v 1.27994 h 5.119734 z m -8.959535,0 h -5.119734 v 1.27994 h 5.119734 z m -8.9595345,0 H 5.0397382 v 1.27994 h 2.6898603 z"
       id="path849"
       transform="matrix(0.26458333,0,0,0.26458333,16.069289,103.83853)" />
    <path
       style="fill:#000000;fill-opacity:1;fill-rule:evenodd;stroke:none;stroke-width:0.264583"
       d="m 67.427539,142.5186 h 0.243403 l -1.018593,4.57441 c -0.05821,0.27251 -0.08995,0.47623 -0.08995,0.6138 0,0.10848 0.01852,0.18785 0.05291,0.23811 0.03704,0.0503 0.0926,0.0741 0.169323,0.0741 0.08466,0 0.171971,-0.0318 0.26457,-0.10053 0.09524,-0.0688 0.227531,-0.19578 0.396854,-0.38628 l 0.238114,0.23018 c -0.269862,0.28309 -0.486809,0.47358 -0.656132,0.57676 -0.169325,0.10318 -0.359815,0.1561 -0.568825,0.1561 -0.179909,0 -0.322776,-0.0661 -0.428604,-0.19578 -0.108474,-0.13229 -0.161388,-0.29897 -0.161388,-0.50269 0,-0.18519 0.03704,-0.45241 0.113766,-0.80164 l 0.740796,-3.31241 c 0.03439,-0.14552 0.05556,-0.26193 0.07143,-0.34923 0.01323,-0.0873 0.01852,-0.16668 0.01852,-0.24076 0,-0.082 -0.01323,-0.14552 -0.04498,-0.18785 -0.02911,-0.0423 -0.07408,-0.0741 -0.129641,-0.0926 -0.05556,-0.0212 -0.158742,-0.0344 -0.304255,-0.0423 l 0.05027,-0.2143 z"
       id="path851" />
    <path
       style="fill:#000000;fill-opacity:1;fill-rule:evenodd;stroke:none;stroke-width:0.264583"
       d="m 26.443063,152.77596 h 0.243404 l -1.015948,4.57706 c -0.06085,0.27251 -0.0926,0.47622 -0.0926,0.61115 0,0.11112 0.01852,0.1905 0.05556,0.24076 0.03439,0.0476 0.08995,0.0741 0.169325,0.0741 0.08202,0 0.169324,-0.0344 0.264569,-0.10318 0.0926,-0.0661 0.224885,-0.19578 0.396855,-0.38627 l 0.235467,0.23282 c -0.267215,0.28045 -0.486808,0.47358 -0.656133,0.57676 -0.169325,0.10319 -0.359815,0.15345 -0.568825,0.15345 -0.177261,0 -0.322775,-0.0635 -0.428602,-0.19578 -0.108474,-0.12964 -0.161388,-0.29896 -0.161388,-0.50268 0,-0.18255 0.03704,-0.44977 0.116411,-0.80165 l 0.738149,-3.30976 c 0.03439,-0.14552 0.0582,-0.26457 0.07143,-0.34923 0.01323,-0.0873 0.02117,-0.16933 0.02117,-0.24341 0,-0.082 -0.01587,-0.14551 -0.04762,-0.18784 -0.0291,-0.0423 -0.07143,-0.0741 -0.129639,-0.0926 -0.05556,-0.0185 -0.156096,-0.0317 -0.304255,-0.0423 l 0.05027,-0.2143 z"
       id="path853" />
    <path
       style="fill:#000000;fill-opacity:1;fill-rule:evenodd;stroke:none;stroke-width:0.264583"
       d="m 29.755474,155.99313 v 0.5503 h 5.092965 v -0.5503 z"
       id="path855" />
    <path
       style="fill:#000000;fill-opacity:1;fill-rule:evenodd;stroke:none;stroke-width:0.264583"
       d="m 39.462532,152.77596 h 0.240758 l -0.711692,2.86529 0.05027,0.0159 c 0.261924,-0.34658 0.507973,-0.59792 0.740795,-0.75402 0.232821,-0.1561 0.468288,-0.23282 0.7064,-0.23282 0.256633,0 0.452414,0.0741 0.58999,0.21959 0.137577,0.14816 0.206365,0.35188 0.206365,0.6138 0,0.17462 -0.03969,0.42067 -0.119057,0.7408 l -0.269861,1.08209 c -0.07408,0.30161 -0.111119,0.51326 -0.111119,0.63761 0,0.11112 0.01852,0.19049 0.05556,0.24076 0.03439,0.0476 0.08995,0.0741 0.169324,0.0741 0.08202,0 0.169325,-0.0344 0.26457,-0.10318 0.0926,-0.0661 0.224884,-0.19578 0.396854,-0.38627 l 0.235467,0.23282 c -0.264569,0.2778 -0.481516,0.47093 -0.650841,0.57411 -0.169324,0.10583 -0.36246,0.1561 -0.574116,0.1561 -0.179907,0 -0.320129,-0.0608 -0.428603,-0.18784 -0.105828,-0.127 -0.158741,-0.29103 -0.158741,-0.49211 0,-0.1799 0.04498,-0.44447 0.137576,-0.79106 l 0.177261,-0.71434 c 0.0635,-0.25663 0.105828,-0.44976 0.126994,-0.57676 0.02381,-0.12964 0.03439,-0.22753 0.03439,-0.29896 0,-0.19578 -0.03175,-0.336 -0.09524,-0.41538 -0.0635,-0.082 -0.166679,-0.1217 -0.309546,-0.1217 -0.113765,0 -0.238113,0.045 -0.375689,0.14022 -0.137577,0.0926 -0.28309,0.23547 -0.433894,0.42596 -0.153451,0.19314 -0.272507,0.37569 -0.362461,0.55031 -0.08995,0.17461 -0.161387,0.38362 -0.214301,0.62703 l -0.375689,1.78849 h -0.714338 l 1.060924,-4.72257 c 0.06614,-0.29632 0.100537,-0.50004 0.100537,-0.6138 0,-0.11377 -0.03439,-0.19578 -0.105828,-0.24341 -0.06879,-0.0476 -0.195782,-0.0741 -0.378335,-0.0794 l 0.05027,-0.21429 z"
       id="path857" />
    <path
       style="fill:#000000;fill-opacity:1;fill-rule:evenodd;stroke:none;stroke-width:0.264583"
       d="m 61.551447,179.08212 c 0.256633,0 0.492099,0.0159 0.701109,0.045 0.211656,0.0317 0.420666,0.0847 0.632322,0.15874 l -0.187843,0.86779 h -0.333359 c -0.03175,-0.24605 -0.11112,-0.43125 -0.243404,-0.55824 -0.129638,-0.127 -0.336002,-0.19049 -0.616447,-0.19049 -0.219594,0 -0.394208,0.0556 -0.52914,0.16668 -0.13493,0.11376 -0.203719,0.25927 -0.203719,0.44183 0,0.0979 0.01852,0.1852 0.05291,0.26192 0.0344,0.0767 0.103182,0.15874 0.20901,0.25134 0.103182,0.09 0.267216,0.20108 0.48681,0.33336 0.174614,0.10583 0.312192,0.20107 0.41802,0.28838 0.103182,0.0873 0.187844,0.17197 0.24605,0.25663 0.06085,0.0873 0.105828,0.17727 0.132283,0.27251 0.0291,0.0952 0.04233,0.20901 0.04233,0.34394 0,0.24605 -0.06614,0.45506 -0.195781,0.62968 -0.132284,0.17726 -0.309547,0.3069 -0.534429,0.39156 -0.224886,0.0847 -0.478872,0.12964 -0.767252,0.12964 -0.227531,0 -0.452414,-0.0185 -0.672008,-0.0529 -0.222239,-0.0344 -0.465642,-0.0926 -0.735504,-0.17462 l 0.198427,-0.90218 h 0.322775 c 0.01058,0.26457 0.08466,0.46564 0.22224,0.60057 0.137575,0.13493 0.357169,0.20108 0.656132,0.20108 0.261924,0 0.468289,-0.0582 0.613802,-0.17462 0.148158,-0.11906 0.222236,-0.28309 0.222236,-0.50004 0,-0.1217 -0.02116,-0.23017 -0.06085,-0.32012 -0.04233,-0.09 -0.11112,-0.17462 -0.203719,-0.25664 -0.0926,-0.0847 -0.243406,-0.18784 -0.447125,-0.31219 -0.214299,-0.12699 -0.380978,-0.24605 -0.502682,-0.34923 -0.119054,-0.10583 -0.20901,-0.21959 -0.269859,-0.3413 -0.06085,-0.12434 -0.08996,-0.26457 -0.08996,-0.42331 0,-0.21959 0.05821,-0.41008 0.174617,-0.57411 0.116411,-0.16404 0.285734,-0.28838 0.502682,-0.37834 0.216947,-0.0873 0.470934,-0.13228 0.759314,-0.13228 z"
       id="path859" />
    <path
       style="fill:#000000;fill-opacity:1;fill-rule:evenodd;stroke:none;stroke-width:0.264583"
       d="m 43.055387,191.5698 v 3.47116 h 3.513484 v -3.47116 z"
       id="path861" />
    <path
       style="fill:none;stroke:#000000;stroke-width:1.27993px;stroke-linecap:butt;stroke-linejoin:miter;stroke-miterlimit:8;stroke-dasharray:none;stroke-opacity:1"
       clip-path="url(#clipEmfPath1)"
       d="m 101.9947,331.58278 h 13.27931 V 344.7021 H 101.9947 Z"
       id="path863"
       transform="matrix(0.26458333,0,0,0.26458333,16.069289,103.83853)" />
    <path
       style="fill:none;stroke:#000000;stroke-width:0.169325px;stroke-linecap:butt;stroke-linejoin:miter;stroke-miterlimit:8;stroke-dasharray:none;stroke-opacity:1"
       d="m 44.727466,174.76434 c 5.600938,0 10.138307,4.54002 10.138307,10.13831"
       id="path865" />
    <path
       style="fill:#000000;fill-opacity:1;fill-rule:evenodd;stroke:none;stroke-width:0.264583"
       d="m 47.881138,181.4315 c 0,-0.71169 0.589989,-1.2911 1.312265,-1.2911 0.724921,0 1.312264,0.57941 1.312264,1.2911 0,0.71434 -0.587343,1.2911 -1.312264,1.2911 -0.722276,0 -1.312265,-0.57676 -1.312265,-1.2911 z"
       id="path867" />
    <path
       style="fill:none;stroke:#000000;stroke-width:0.338649px;stroke-linecap:butt;stroke-linejoin:miter;stroke-miterlimit:8;stroke-dasharray:none;stroke-opacity:1"
       d="m 47.881138,181.4315 c 0,-0.71169 0.589989,-1.2911 1.312265,-1.2911 0.724921,0 1.312264,0.57941 1.312264,1.2911 0,0.71434 -0.587343,1.2911 -1.312264,1.2911 -0.722276,0 -1.312265,-0.57676 -1.312265,-1.2911"
       id="path869" />
  </g>
</svg>
