<?xml version="1.0" encoding="UTF-8" standalone="no"?>
<svg
   width="203.77167mm"
   height="95.00415mm"
   viewBox="0 0 203.77167 95.00415"
   version="1.1"
   id="svg1016"
   sodipodi:docname="Bildkonstruktion-Lösung.svg"
   inkscape:export-filename="C:\Users\herbs\Lehre\Elementarkurs\elementarkurs-exphy\grafik\V12_Bildkonstruktion-Lupe.png"
   inkscape:export-xdpi="96"
   inkscape:export-ydpi="96"
   inkscape:version="1.2.2 (732a01da63, 2022-12-09)"
   xmlns:inkscape="http://www.inkscape.org/namespaces/inkscape"
   xmlns:sodipodi="http://sodipodi.sourceforge.net/DTD/sodipodi-0.dtd"
   xmlns="http://www.w3.org/2000/svg"
   xmlns:svg="http://www.w3.org/2000/svg"
   xmlns:rdf="http://www.w3.org/1999/02/22-rdf-syntax-ns#"
   xmlns:cc="http://creativecommons.org/ns#"
   xmlns:dc="http://purl.org/dc/elements/1.1/">
  <sodipodi:namedview
     pagecolor="#ffffff"
     bordercolor="#666666"
     borderopacity="1"
     objecttolerance="10"
     gridtolerance="10"
     guidetolerance="10"
     inkscape:pageopacity="0"
     inkscape:pageshadow="2"
     inkscape:window-width="2400"
     inkscape:window-height="1271"
     id="namedview38"
     showgrid="false"
     inkscape:zoom="7.851184"
     inkscape:cx="188.25186"
     inkscape:cy="183.85762"
     inkscape:window-x="-9"
     inkscape:window-y="-9"
     inkscape:window-maximized="1"
     inkscape:current-layer="svg1016"
     inkscape:showpageshadow="2"
     inkscape:pagecheckerboard="0"
     inkscape:deskcolor="#d1d1d1"
     inkscape:document-units="mm" />
  <defs
     id="defs1010">
    <clipPath
       clipPathUnits="userSpaceOnUse"
       id="clipEmfPath1">
      <path
         d="M 2.079892,2.079892 H 765.88022 V 356.78147 H 2.079892 Z"
         id="path1579" />
    </clipPath>
    <pattern
       id="EMFhbasepattern"
       patternUnits="userSpaceOnUse"
       width="6"
       height="6"
       x="0"
       y="0" />
  </defs>
  <metadata
     id="metadata1013">
    <rdf:RDF>
      <cc:Work
         rdf:about="">
        <dc:format>image/svg+xml</dc:format>
        <dc:type
           rdf:resource="http://purl.org/dc/dcmitype/StillImage" />
        <dc:title />
      </cc:Work>
    </rdf:RDF>
  </metadata>
  <path
     style="fill:none;stroke:#000000;stroke-width:2.07989px;stroke-linecap:butt;stroke-linejoin:miter;stroke-miterlimit:8;stroke-dasharray:none;stroke-opacity:1"
     clip-path="url(#clipEmfPath1)"
     d="m 2.079892,187.67025 762.600388,0.87996"
     id="path1585"
     transform="matrix(0.26458333,0,0,0.26458333,0.449695,0.449695)" />
  <path
     style="fill:#000000;fill-opacity:1;fill-rule:nonzero;stroke:#000000;stroke-width:0.019999px;stroke-linecap:butt;stroke-linejoin:round;stroke-miterlimit:10;stroke-dasharray:none;stroke-opacity:1"
     clip-path="url(#clipEmfPath1)"
     d="m 376.22046,2.079892 v 8.319568 h -2.07989 V 2.079892 Z m 0,14.559244 v 2.079892 h -2.07989 v -2.079892 z m 0,8.319568 v 8.319568 h -2.07989 v -8.319568 z m 0,14.559243 v 2.079892 h -2.07989 v -2.079892 z m 0,8.319568 v 8.319568 h -2.07989 v -8.319568 z m 0,14.559244 v 2.079892 h -2.07989 v -2.079892 z m 0,8.319568 v 8.319568 h -2.07989 v -8.319568 z m 0,14.559244 v 2.079892 h -2.07989 v -2.079892 z m 0,8.319568 v 8.319571 h -2.07989 v -8.319571 z m 0,14.559241 v 2.07989 h -2.07989 v -2.07989 z m 0,8.31957 v 8.31957 h -2.07989 v -8.31957 z m 0,14.55924 v 2.0799 h -2.07989 v -2.0799 z m 0,8.31957 v 8.31957 h -2.07989 v -8.31957 z m 0,14.55925 v 2.07989 h -2.07989 v -2.07989 z m 0,8.31956 v 8.31957 h -2.07989 v -8.31957 z m 0,14.55925 v 2.07989 h -2.07989 v -2.07989 z m 0,8.31957 v 8.31956 h -2.07989 v -8.31956 z m 0,14.55924 v 2.07989 h -2.07989 v -2.07989 z m 0,8.31957 v 8.31957 h -2.07989 v -8.31957 z m 0,14.55924 v 2.07989 h -2.07989 v -2.07989 z m 0,8.31957 v 8.31957 h -2.07989 v -8.31957 z m 0,14.55924 v 2.07989 h -2.07989 v -2.07989 z m 0,8.31957 v 8.31957 h -2.07989 v -8.31957 z m 0,14.55924 v 2.0799 h -2.07989 v -2.0799 z m 0,8.31957 v 8.31957 h -2.07989 v -8.31957 z m 0,14.55925 v 2.07989 h -2.07989 v -2.07989 z m 0,8.31956 v 8.31957 h -2.07989 v -8.31957 z m 0,14.55925 v 2.07989 h -2.07989 v -2.07989 z m 0,8.31957 v 8.31956 h -2.07989 v -8.31956 z m 0,14.55924 v 2.07989 h -2.07989 v -2.07989 z m 0,8.31957 v 8.31957 h -2.07989 v -8.31957 z"
     id="path1587"
     transform="matrix(0.26458333,0,0,0.26458333,0.449695,0.449695)" />
  <path
     style="fill:#000000;fill-opacity:0.41999999;fill-rule:evenodd;stroke:none;stroke-width:0.264583"
     d="m 73.449737,36.687797 1.947233,-3.74896 1.947232,3.74896 h -1.452488 v 13.39515 h -0.986846 v -13.39515 z"
     id="path1589" />
  <path
     style="fill:none;stroke:#000000;stroke-width:0.804292px;stroke-linecap:butt;stroke-linejoin:miter;stroke-miterlimit:8;stroke-dasharray:none;stroke-opacity:1"
     d="m 160.37673,45.447697 v 9.35518"
     id="path1593" />
  <path
     style="fill:none;stroke:#000000;stroke-width:0.804292px;stroke-linecap:butt;stroke-linejoin:miter;stroke-miterlimit:8;stroke-dasharray:none;stroke-opacity:1"
     d="m 39.352007,45.193707 v 9.35518"
     id="path1595" />
  <text
     xml:space="preserve"
     style="font-style:normal;font-variant:normal;font-weight:400;font-size:7.06107px;line-height:125%;font-family:Arial;text-align:start;letter-spacing:0px;word-spacing:0px;text-anchor:start;fill:#000000;fill-opacity:1;stroke:none;stroke-width:0.264583"
     x="155.80115"
     y="41.095585"
     id="text1613"><tspan
       x="155.80115"
       y="41.095585"
       id="tspan1611"
       style="stroke-width:0.264583"><tspan
         dx="0"
         dy="0"
         style="font-style:normal;font-variant:normal;font-weight:400;font-size:7.06107px;font-family:Arial;fill:#000000;stroke-width:0.264583"
         id="tspan1609">F</tspan></tspan></text>
  <text
     xml:space="preserve"
     style="font-style:normal;font-variant:normal;font-weight:400;font-size:4.69635px;line-height:125%;font-family:Arial;text-align:start;letter-spacing:0px;word-spacing:0px;text-anchor:start;fill:#000000;fill-opacity:1;stroke:none;stroke-width:0.264583"
     x="160.11893"
     y="42.831165"
     id="text1619"><tspan
       x="160.11893"
       y="42.831165"
       id="tspan1617"
       style="stroke-width:0.264583"><tspan
         dx="0"
         dy="0"
         style="font-style:normal;font-variant:normal;font-weight:400;font-size:4.69635px;font-family:Arial;fill:#000000;stroke-width:0.264583"
         id="tspan1615">B</tspan></tspan></text>
  <text
     xml:space="preserve"
     style="font-style:normal;font-variant:normal;font-weight:400;font-size:7.06107px;line-height:125%;font-family:Arial;text-align:start;letter-spacing:0px;word-spacing:0px;text-anchor:start;fill:#000000;fill-opacity:1;stroke:none;stroke-width:0.264583"
     x="35.76506"
     y="43.710777"
     id="text1613-3"><tspan
       x="35.76506"
       y="43.710777"
       id="tspan1611-4"
       style="stroke-width:0.264583"><tspan
         dx="0"
         dy="0"
         style="font-style:normal;font-variant:normal;font-weight:400;font-size:7.06107px;font-family:Arial;fill:#000000;stroke-width:0.264583"
         id="tspan1609-1">F</tspan></tspan></text>
  <text
     xml:space="preserve"
     style="font-style:normal;font-variant:normal;font-weight:400;font-size:4.69635px;line-height:125%;font-family:Arial;text-align:start;letter-spacing:0px;word-spacing:0px;text-anchor:start;fill:#000000;fill-opacity:1;stroke:none;stroke-width:0.264583"
     x="40.08284"
     y="45.446358"
     id="text1619-9"><tspan
       x="40.08284"
       y="45.446358"
       id="tspan1617-3"
       style="stroke-width:0.264583"><tspan
         style="font-style:normal;font-variant:normal;font-weight:400;font-size:4.69635px;font-family:Arial;fill:#000000;stroke-width:0.264583"
         id="tspan1615-2">G</tspan></tspan></text>
  <path
     style="fill:none;stroke:#f1ae22;stroke-width:0.804292px;stroke-linecap:butt;stroke-linejoin:miter;stroke-miterlimit:8;stroke-dasharray:none;stroke-opacity:0.41666663"
     d="m 75.418134,32.960007 77.852246,53.98807"
     id="path1621" />
  <path
     style="fill:none;stroke:#f1ae22;stroke-width:0.804;stroke-linecap:butt;stroke-linejoin:miter;stroke-miterlimit:8;stroke-dasharray:1.60800004,0.80400002;stroke-opacity:1;stroke-dashoffset:0"
     d="M 50.873238,16.205581 75.418134,32.991757"
     id="path1621-4" />
  <path
     style="fill:none;stroke:#f1ae22;stroke-width:0.804292px;stroke-linecap:butt;stroke-linejoin:miter;stroke-miterlimit:8;stroke-dasharray:none;stroke-opacity:0.41666663"
     d="M 75.418134,32.991757 99.726788,21.911577"
     id="path1623" />
  <path
     style="fill:none;stroke:#f1ae22;stroke-width:0.804292px;stroke-linecap:butt;stroke-linejoin:miter;stroke-miterlimit:8;stroke-dasharray:none;stroke-opacity:0.41666663"
     d="M 99.716205,21.911577 H 174.52591"
     id="path1625" />
  <path
     style="fill:none;stroke:#f1ae22;stroke-width:0.804;stroke-linecap:butt;stroke-linejoin:miter;stroke-miterlimit:8;stroke-dasharray:1.60800004,0.80400002;stroke-opacity:1;stroke-dashoffset:0"
     d="M 49.716207,21.911577 H 99.716205"
     id="path1625-6" />
  <path
     style="fill:none;stroke:#f1ae22;stroke-width:0.804292px;stroke-linecap:butt;stroke-linejoin:miter;stroke-miterlimit:8;stroke-dasharray:none;stroke-opacity:0.41999999"
     d="M 75.418134,32.960007 H 99.726788"
     id="path1627" />
  <path
     style="fill:none;stroke:#f1ae22;stroke-width:0.804292px;stroke-linecap:butt;stroke-linejoin:miter;stroke-miterlimit:8;stroke-dasharray:none;stroke-opacity:0.41666663"
     d="m 99.716205,32.960007 93.901045,26.50987"
     id="path1629" />
  <path
     style="fill:none;stroke:#f1ae22;stroke-width:0.804;stroke-linecap:butt;stroke-linejoin:miter;stroke-miterlimit:8;stroke-dasharray:1.60800004,0.80400002;stroke-opacity:1;stroke-dashoffset:0"
     d="m 49.939344,19.237657 49.787444,13.72235"
     id="path1629-3" />
  <path
     style="fill:#000000;fill-opacity:1;fill-rule:evenodd;stroke:none;stroke-width:0.264583"
     d="m 57.321576,25.639367 1.94723,-3.74895 1.947233,3.74895 h -1.452486 v 24.44358 h -0.986846 v -24.44358 z"
     id="path1639" />
  <path
     style="fill:none;stroke:#000000;stroke-width:0.338649px;stroke-linecap:butt;stroke-linejoin:miter;stroke-miterlimit:8;stroke-dasharray:none;stroke-opacity:1"
     d="m 57.321576,25.639367 1.94723,-3.74895 1.947233,3.74895 h -1.452486 v 24.44358 h -0.986846 v -24.44358 z"
     id="path1641" />
</svg>
