<?xml version="1.0" encoding="UTF-8" standalone="no"?>
<svg
   xmlns:dc="http://purl.org/dc/elements/1.1/"
   xmlns:cc="http://creativecommons.org/ns#"
   xmlns:rdf="http://www.w3.org/1999/02/22-rdf-syntax-ns#"
   xmlns:svg="http://www.w3.org/2000/svg"
   xmlns="http://www.w3.org/2000/svg"
   width="295.3493mm"
   height="88.99472mm"
   viewBox="0 0 295.3493 88.99472"
   version="1.1"
   id="svg8">
  <defs
     id="defs2">
    <clipPath
       clipPathUnits="userSpaceOnUse"
       id="clipEmfPath1">
      <path
         d="M 1.5999169,4.3197756 H 1109.0624 V 335.34258 H 1.5999169 Z"
         id="path833" />
    </clipPath>
    <pattern
       id="EMFhbasepattern"
       patternUnits="userSpaceOnUse"
       width="6"
       height="6"
       x="0"
       y="0" />
  </defs>
  <metadata
     id="metadata5">
    <rdf:RDF>
      <cc:Work
         rdf:about="">
        <dc:format>image/svg+xml</dc:format>
        <dc:type
           rdf:resource="http://purl.org/dc/dcmitype/StillImage" />
        <dc:title></dc:title>
      </cc:Work>
    </rdf:RDF>
  </metadata>
  <g
     id="layer1"
     transform="translate(18.40679,-121.05621)">
    <path
       style="fill:#000000;fill-opacity:1;fill-rule:nonzero;stroke:#000000;stroke-width:0.0399979px;stroke-linecap:butt;stroke-linejoin:round;stroke-miterlimit:4;stroke-dasharray:none;stroke-opacity:1"
       clip-path="url(#clipEmfPath1)"
       d="M 1.5199211,218.94863 H 14.319256 v 1.59991 H 1.5199211 Z m 17.5990859,0 h 12.799335 v 1.59991 H 19.119007 Z m 17.599086,0 h 12.799335 v 1.59991 H 36.718093 Z m 17.599086,0 h 12.799335 v 1.59991 H 54.317179 Z m 17.599086,0 H 84.7156 v 1.59991 H 71.916265 Z m 17.599086,0 h 12.799339 v 1.59991 H 89.515351 Z m 17.599089,0 h 12.79933 v 1.59991 h -12.79933 z m 17.59908,0 h 12.79934 v 1.59991 h -12.79934 z m 17.59909,0 h 12.79933 v 1.59991 h -12.79933 z m 17.59908,0 h 12.79934 v 1.59991 h -12.79934 z m 17.59909,0 h 12.79934 v 1.59991 h -12.79934 z m 17.59909,0 h 12.79933 v 1.59991 h -12.79933 z m 17.59908,0 h 12.79934 v 1.59991 h -12.79934 z m 17.59909,0 h 12.79933 v 1.59991 h -12.79933 z m 17.59908,0 h 12.79934 v 1.59991 h -12.79934 z m 17.59909,0 h 12.79933 v 1.59991 h -12.79933 z m 17.59909,0 h 12.79933 v 1.59991 H 283.1053 Z m 17.59908,0 h 12.79934 v 1.59991 h -12.79934 z m 17.59909,0 h 12.79933 v 1.59991 h -12.79933 z m 17.59908,0 h 12.79934 v 1.59991 h -12.79934 z m 17.59909,0 h 12.79933 v 1.59991 h -12.79933 z m 17.59909,0 h 12.79933 v 1.59991 h -12.79933 z m 17.59908,0 h 12.79934 v 1.59991 h -12.79934 z m 17.59909,0 h 12.79933 v 1.59991 H 406.2989 Z m 17.59908,0 h 12.79934 v 1.59991 h -12.79934 z m 17.59909,0 h 12.79933 v 1.59991 h -12.79933 z m 17.59908,0 h 12.79934 v 1.59991 h -12.79934 z m 17.59909,0 h 12.79934 v 1.59991 h -12.79934 z m 17.59909,0 h 12.79933 v 1.59991 h -12.79933 z m 17.59908,0 h 12.79934 v 1.59991 h -12.79934 z m 17.59909,0 h 12.79933 v 1.59991 H 529.4925 Z m 17.59908,0 h 12.79934 v 1.59991 h -12.79934 z m 17.59909,0 h 12.79934 v 1.59991 h -12.79934 z m 17.59909,0 h 12.79933 v 1.59991 h -12.79933 z m 17.59908,0 h 12.79934 v 1.59991 h -12.79934 z m 17.59909,0 h 12.79933 v 1.59991 h -12.79933 z m 17.59908,0 h 12.79934 v 1.59991 h -12.79934 z m 17.59909,0 h 12.79934 v 1.59991 H 652.6861 Z m 17.59909,0 h 12.79933 v 1.59991 h -12.79933 z m 17.59908,0 h 12.79934 v 1.59991 h -12.79934 z m 17.59909,0 h 12.79933 v 1.59991 h -12.79933 z m 17.59908,0 h 12.79934 v 1.59991 h -12.79934 z m 17.59909,0 h 12.79933 v 1.59991 h -12.79933 z m 17.59909,0 h 12.79933 v 1.59991 h -12.79933 z m 17.59908,0 h 12.79934 v 1.59991 H 775.8797 Z m 17.59909,0 h 12.79933 v 1.59991 h -12.79933 z m 17.59908,0 h 12.79934 v 1.59991 h -12.79934 z m 17.59909,0 h 12.79933 v 1.59991 h -12.79933 z m 17.59908,0 h 12.79934 v 1.59991 h -12.79934 z"
       id="path839"
       transform="matrix(0.26458333,0,0,0.26458333,-17.830101,120.89634)" />
    <path
       style="fill:none;stroke:#000000;stroke-width:0.804292px;stroke-linecap:butt;stroke-linejoin:miter;stroke-miterlimit:8;stroke-dasharray:none;stroke-opacity:1"
       d="m -11.988411,167.4606 23.89064,11.75482"
       id="path841" />
    <path
       style="fill:none;stroke:#000000;stroke-width:0.804292px;stroke-linecap:butt;stroke-linejoin:miter;stroke-miterlimit:8;stroke-dasharray:none;stroke-opacity:1"
       d="m 11.759359,179.27098 26.075978,8.40538"
       id="path843" />
    <path
       style="fill:#000000;fill-opacity:1;fill-rule:nonzero;stroke:#000000;stroke-width:0.019999px;stroke-linecap:butt;stroke-linejoin:round;stroke-miterlimit:10;stroke-dasharray:none;stroke-opacity:1"
       clip-path="url(#clipEmfPath1)"
       d="m 457.97621,106.39447 v 8.31957 h -2.07989 v -8.31957 z m 0,14.55925 v 2.07989 h -2.07989 v -2.07989 z m 0,8.31957 v 8.31956 h -2.07989 v -8.31956 z m 0,14.55924 v 2.07989 h -2.07989 v -2.07989 z m 0,8.31957 v 8.31957 h -2.07989 v -8.31957 z m 0,14.55924 v 2.07989 h -2.07989 v -2.07989 z m 0,8.31957 v 8.31957 h -2.07989 v -8.31957 z m 0,14.55924 v 2.07989 h -2.07989 v -2.07989 z m 0,8.31957 v 8.31957 h -2.07989 v -8.31957 z m 0,14.55924 v 2.0799 h -2.07989 v -2.0799 z m 0,8.31957 v 8.31957 h -2.07989 v -8.31957 z m 0,14.55925 v 2.07989 h -2.07989 v -2.07989 z m 0,8.31956 v 8.31957 h -2.07989 v -8.31957 z m 0,14.55925 v 2.07989 h -2.07989 v -2.07989 z m 0,8.31957 v 8.31956 h -2.07989 v -8.31956 z m 0,14.55924 v 2.07989 h -2.07989 v -2.07989 z m 0,8.31957 v 8.31957 h -2.07989 v -8.31957 z m 0,14.55924 v 2.07989 h -2.07989 v -2.07989 z m 0,8.31957 v 8.31957 h -2.07989 v -8.31957 z m 0,14.55924 v 2.07989 h -2.07989 v -2.07989 z"
       id="path845"
       transform="matrix(0.26458333,0,0,0.26458333,-17.830101,120.89634)" />
    <path
       style="fill:none;stroke:#000000;stroke-width:0.338649px;stroke-linecap:butt;stroke-linejoin:miter;stroke-miterlimit:8;stroke-dasharray:none;stroke-opacity:1"
       d="m 103.16287,150.6181 c 3.60343,5.29139 5.5295,22.14447 4.3019,37.64296 -0.71434,8.93187 -2.37055,15.87946 -4.46065,18.70507"
       id="path847" />
    <path
       style="fill:none;stroke:#000000;stroke-width:0.338649px;stroke-linecap:butt;stroke-linejoin:miter;stroke-miterlimit:8;stroke-dasharray:none;stroke-opacity:1"
       d="m 103.09937,150.30061 c -3.545234,5.94223 -5.317854,23.30329 -3.952674,38.78061 0.74609,8.50327 2.338804,15.0593 4.328364,17.83199"
       id="path849" />
    <path
       style="fill:none;stroke:#000000;stroke-width:3.99979px;stroke-linecap:butt;stroke-linejoin:miter;stroke-miterlimit:8;stroke-dasharray:none;stroke-opacity:1"
       clip-path="url(#clipEmfPath1)"
       d="M 850.35583,106.39447 V 333.18269"
       id="path851"
       transform="matrix(0.26458333,0,0,0.26458333,-17.830101,120.89634)" />
    <path
       style="fill:none;stroke:#70ad47;stroke-width:0.550305px;stroke-linecap:butt;stroke-linejoin:miter;stroke-miterlimit:8;stroke-dasharray:none;stroke-opacity:1"
       d="m 11.547699,179.02229 91.541091,-25.5733"
       id="path853" />
    <path
       style="fill:none;stroke:#70ad47;stroke-width:0.550305px;stroke-linecap:butt;stroke-linejoin:miter;stroke-miterlimit:8;stroke-dasharray:none;stroke-opacity:1"
       d="M 18.236023,181.36108 103.28457,157.34346"
       id="path855" />
    <path
       style="fill:none;stroke:#ff0000;stroke-width:0.550305px;stroke-linecap:butt;stroke-linejoin:miter;stroke-miterlimit:8;stroke-dasharray:none;stroke-opacity:1"
       d="m 12.436659,178.97466 90.636251,25.55213"
       id="path857" />
    <path
       style="fill:none;stroke:#ff0000;stroke-width:0.550305px;stroke-linecap:butt;stroke-linejoin:miter;stroke-miterlimit:8;stroke-dasharray:none;stroke-opacity:1"
       d="M -2.887211,171.65138 103.0782,200.86515"
       id="path859" />
    <path
       style="fill:#ffffff;fill-opacity:1;fill-rule:evenodd;stroke:none;stroke-width:0.264583"
       d="m -1.278631,122.26946 3.88388,15.57257 -7.18835,1.79114 -3.88388,-15.57257 z"
       id="path861" />
    <path
       style="fill:none;stroke:#000000;stroke-width:1.32993px;stroke-linecap:butt;stroke-linejoin:miter;stroke-miterlimit:8;stroke-dasharray:none;stroke-opacity:1"
       clip-path="url(#clipEmfPath1)"
       d="M 62.556751,5.1897304 77.235988,64.046673 50.0674,70.816322 35.388162,11.959379 Z"
       id="path863"
       transform="matrix(0.26458333,0,0,0.26458333,-17.830101,120.89634)" />
    <path
       style="fill:none;stroke:#ffd966;stroke-width:0.550305px;stroke-linecap:butt;stroke-linejoin:miter;stroke-miterlimit:8;stroke-dasharray:none;stroke-opacity:1"
       d="M 18.254544,181.27907 1.938539,137.87113"
       id="path865" />
    <path
       style="fill:none;stroke:#ffd966;stroke-width:0.550305px;stroke-linecap:butt;stroke-linejoin:miter;stroke-miterlimit:8;stroke-dasharray:none;stroke-opacity:1"
       d="m -2.897791,171.6408 -0.28574,-32.11875"
       id="path867" />
    <path
       style="fill:none;stroke:#70ad47;stroke-width:0.550305px;stroke-linecap:butt;stroke-linejoin:miter;stroke-miterlimit:8;stroke-dasharray:none;stroke-opacity:1"
       d="m 103.06762,153.44899 104.0711,15.91651"
       id="path869" />
    <path
       style="fill:none;stroke:#70ad47;stroke-width:0.550305px;stroke-linecap:butt;stroke-linejoin:miter;stroke-miterlimit:8;stroke-dasharray:none;stroke-opacity:1"
       d="m 103.06762,157.34346 104.0711,44.871"
       id="path871" />
    <path
       style="fill:none;stroke:#ff0000;stroke-width:0.550305px;stroke-linecap:butt;stroke-linejoin:miter;stroke-miterlimit:8;stroke-dasharray:none;stroke-opacity:1"
       d="m 103.27928,204.44742 103.60545,-18.1918"
       id="path873" />
    <path
       style="fill:none;stroke:#ff0000;stroke-width:0.550305px;stroke-linecap:butt;stroke-linejoin:miter;stroke-miterlimit:8;stroke-dasharray:none;stroke-opacity:1"
       d="M 103.06762,200.75403 206.87415,154.93058"
       id="path875" />
    <path
       style="fill:none;stroke:#5b9bd5;stroke-width:0.550305px;stroke-linecap:butt;stroke-linejoin:miter;stroke-miterlimit:8;stroke-dasharray:none;stroke-opacity:1"
       d="m 208.09117,169.3655 c 1.65091,0 2.98434,1.06886 2.98434,2.37054 v 3.58757 c 0,1.30168 1.34401,2.37054 2.98435,2.37054 -1.64034,0 -2.98435,1.05828 -2.98435,2.35996 v 3.84155 c 0,1.30168 -1.33343,2.35996 -2.98434,2.35996"
       id="path877" />
    <text
       xml:space="preserve"
       style="font-style:normal;font-variant:normal;font-weight:700;font-size:8.46667px;line-height:125%;font-family:Arial;text-align:start;letter-spacing:0px;word-spacing:0px;text-anchor:start;fill:#000000;fill-opacity:1;stroke:none;stroke-width:0.264583"
       x="3.8433802"
       y="132.98965"
       id="text883"><tspan
         x="3.8433802"
         y="132.98965"
         id="tspan881"
         style="stroke-width:0.264583"><tspan
           dx="0"
           dy="0"
           style="font-style:normal;font-variant:normal;font-weight:700;font-size:8.46667px;font-family:Arial;fill:#000000;stroke-width:0.264583"
           id="tspan879">Laser</tspan></tspan></text>
    <text
       xml:space="preserve"
       style="font-style:normal;font-variant:normal;font-weight:700;font-size:8.46667px;line-height:125%;font-family:Arial;text-align:start;letter-spacing:0px;word-spacing:0px;text-anchor:start;fill:#000000;fill-opacity:1;stroke:none;stroke-width:0.264583"
       x="-10.758518"
       y="196.75305"
       id="text889"><tspan
         x="-10.758518"
         y="196.75305"
         id="tspan887"
         style="stroke-width:0.264583"><tspan
           dx="0"
           dy="0"
           style="font-style:normal;font-variant:normal;font-weight:700;font-size:8.46667px;font-family:Arial;fill:#000000;stroke-width:0.264583"
           id="tspan885">Doppelspiegel</tspan></tspan></text>
    <text
       xml:space="preserve"
       style="font-style:normal;font-variant:normal;font-weight:700;font-size:8.46667px;line-height:125%;font-family:Arial;text-align:start;letter-spacing:0px;word-spacing:0px;text-anchor:start;fill:#000000;fill-opacity:1;stroke:none;stroke-width:0.264583"
       x="78.842773"
       y="145.93251"
       id="text895"><tspan
         x="78.842773"
         y="145.93251"
         id="tspan893"
         style="stroke-width:0.264583"><tspan
           dx="0"
           dy="0"
           style="font-style:normal;font-variant:normal;font-weight:700;font-size:8.46667px;font-family:Arial;fill:#000000;stroke-width:0.264583"
           id="tspan891">Sammellinse</tspan></tspan></text>
    <text
       xml:space="preserve"
       style="font-style:normal;font-variant:normal;font-weight:700;font-size:8.46667px;line-height:125%;font-family:Arial;text-align:start;letter-spacing:0px;word-spacing:0px;text-anchor:start;fill:#000000;fill-opacity:1;stroke:none;stroke-width:0.264583"
       x="192.43744"
       y="142.77174"
       id="text901"><tspan
         x="192.43744"
         y="142.77174"
         id="tspan899"
         style="stroke-width:0.264583"><tspan
           dx="0"
           dy="0"
           style="font-style:normal;font-variant:normal;font-weight:700;font-size:8.46667px;font-family:Arial;fill:#000000;stroke-width:0.264583"
           id="tspan897">Schirm</tspan></tspan></text>
    <text
       xml:space="preserve"
       style="font-style:normal;font-variant:normal;font-weight:700;font-size:8.46667px;line-height:125%;font-family:Arial;text-align:start;letter-spacing:0px;word-spacing:0px;text-anchor:start;fill:#000000;fill-opacity:1;stroke:none;stroke-width:0.264583"
       x="216.60139"
       y="176.62943"
       id="text907"><tspan
         x="216.60139"
         y="176.62943"
         id="tspan905"
         style="stroke-width:0.264583"><tspan
           dx="0"
           dy="0"
           style="font-style:normal;font-variant:normal;font-weight:700;font-size:8.46667px;font-family:Arial;fill:#5b9bd5;stroke-width:0.264583"
           id="tspan903">Überlagerungs</tspan></tspan></text>
    <text
       xml:space="preserve"
       style="font-style:normal;font-variant:normal;font-weight:700;font-size:8.46667px;line-height:125%;font-family:Arial;text-align:start;letter-spacing:0px;word-spacing:0px;text-anchor:start;fill:#000000;fill-opacity:1;stroke:none;stroke-width:0.264583"
       x="267.90674"
       y="176.62943"
       id="text913"><tspan
         x="267.90674"
         y="176.62943"
         id="tspan911"
         style="stroke-width:0.264583"><tspan
           dx="0"
           dy="0"
           style="font-style:normal;font-variant:normal;font-weight:700;font-size:8.46667px;font-family:Arial;fill:#5b9bd5;stroke-width:0.264583"
           id="tspan909">-</tspan></tspan></text>
    <text
       xml:space="preserve"
       style="font-style:normal;font-variant:normal;font-weight:700;font-size:8.46667px;line-height:125%;font-family:Arial;text-align:start;letter-spacing:0px;word-spacing:0px;text-anchor:start;fill:#000000;fill-opacity:1;stroke:none;stroke-width:0.264583"
       x="216.60139"
       y="186.78889"
       id="text919"><tspan
         x="216.60139"
         y="186.78889"
         id="tspan917"
         style="stroke-width:0.264583"><tspan
           dx="0"
           dy="0"
           style="font-style:normal;font-variant:normal;font-weight:700;font-size:8.46667px;font-family:Arial;fill:#5b9bd5;stroke-width:0.264583"
           id="tspan915">bereich</tspan></tspan></text>
  </g>
</svg>
