<?xml version="1.0" encoding="UTF-8" standalone="no"?>
<svg
   xmlns:dc="http://purl.org/dc/elements/1.1/"
   xmlns:cc="http://creativecommons.org/ns#"
   xmlns:rdf="http://www.w3.org/1999/02/22-rdf-syntax-ns#"
   xmlns:svg="http://www.w3.org/2000/svg"
   xmlns="http://www.w3.org/2000/svg"
   viewBox="0 0 650 400"
   version="1.1"
   id="svg53">
  <metadata
     id="metadata59">
    <rdf:RDF>
      <cc:Work
         rdf:about="">
        <dc:format>image/svg+xml</dc:format>
        <dc:type
           rdf:resource="http://purl.org/dc/dcmitype/StillImage" />
        <dc:title></dc:title>
      </cc:Work>
    </rdf:RDF>
  </metadata>
  <defs
     id="defs57" />
  <clipPath
     id="box">
    <rect
       x="0"
       y="0"
       width="650"
       height="400"
       style="fill:none;stroke:none;"
       id="rect2" />
  </clipPath>
  <g
     clip-path="url(#box)"
     id="g51">
    <rect
       x="0.00"
       y="0.00"
       width="650.00"
       height="400.00"
       style="fill:#FFFFFF;stroke:none;"
       id="rect5" />
    <path
       d="M0.00 400.00 L650.00 400.00 M0.00 336.00 L650.00 336.00 M0.00 272.00 L650.00 272.00 M0.00 208.00 L650.00 208.00 M0.00 144.00 L650.00 144.00 M0.00 79.00 L650.00 79.00 M0.00 16.00 L650.00 16.00 M0.00 0.00 L0.00 400.00 M65.00 0.00 L65.00 400.00 M130.00 0.00 L130.00 400.00 M195.00 0.00 L195.00 400.00 M260.00 0.00 L260.00 400.00 M325.00 0.00 L325.00 400.00 M390.00 0.00 L390.00 400.00 M454.00 0.00 L454.00 400.00 M520.00 0.00 L520.00 400.00 M585.00 0.00 L585.00 400.00 M650.00 0.00 L650.00 400.00 "
       style="fill:none;stroke:#D0D0D0;stroke-width:1;"
       id="path7" />
    <path
       d="M0.00 0.00 L0.00 400.00 "
       style="fill:none;stroke:#000000;stroke-width:1;"
       id="path9" />
    <path
       d="M-6.50 400.00 L6.50 400.00 M-6.50 336.00 L6.50 336.00 M-6.50 272.00 L6.50 272.00 M-6.50 208.00 L6.50 208.00 M-6.50 144.00 L6.50 144.00 M-6.50 80.00 L6.50 80.00 M-6.50 16.00 L6.50 16.00 "
       style="fill:none;stroke:#000000;stroke-width:1;"
       id="path11" />
    <path
       d="M0.00 400.00 L650.00 400.00 "
       style="fill:none;stroke:#000000;stroke-width:1;"
       id="path13" />
    <path
       d="M0.00 393.50 L0.00 406.50 M65.00 393.50 L65.00 406.50 M130.00 393.50 L130.00 406.50 M195.00 393.50 L195.00 406.50 M260.00 393.50 L260.00 406.50 M325.00 393.50 L325.00 406.50 M390.00 393.50 L390.00 406.50 M455.00 393.50 L455.00 406.50 M520.00 393.50 L520.00 406.50 M585.00 393.50 L585.00 406.50 M650.00 393.50 L650.00 406.50 "
       style="fill:none;stroke:#000000;stroke-width:1;"
       id="path15" />
    <text
       x="8.125"
       y="338.5"
       text-anchor="start"
       style="font:10px Droid Sans,Trebuchet MS,Arial,Helvetica,sans-serif;stroke:none;fill:#000000"
       id="text17">200</text>
    <text
       x="8.125"
       y="274.5"
       text-anchor="start"
       style="font:10px Droid Sans,Trebuchet MS,Arial,Helvetica,sans-serif;stroke:none;fill:#000000"
       id="text19">400</text>
    <text
       x="8.125"
       y="210.5"
       text-anchor="start"
       style="font:10px Droid Sans,Trebuchet MS,Arial,Helvetica,sans-serif;stroke:none;fill:#000000"
       id="text21">600</text>
    <text
       x="8.125"
       y="146.5"
       text-anchor="start"
       style="font:10px Droid Sans,Trebuchet MS,Arial,Helvetica,sans-serif;stroke:none;fill:#000000"
       id="text23">800</text>
    <text
       x="8.125"
       y="82.5"
       text-anchor="start"
       style="font:10px Droid Sans,Trebuchet MS,Arial,Helvetica,sans-serif;stroke:none;fill:#000000"
       id="text25">1000</text>
    <text
       x="8.125"
       y="18.5"
       text-anchor="start"
       style="font:10px Droid Sans,Trebuchet MS,Arial,Helvetica,sans-serif;stroke:none;fill:#000000"
       id="text27">1200</text>
    <text
       x="65"
       y="389.625"
       text-anchor="middle"
       style="font:10px Droid Sans,Trebuchet MS,Arial,Helvetica,sans-serif;stroke:none;fill:#000000"
       id="text29">5</text>
    <text
       x="130"
       y="389.625"
       text-anchor="middle"
       style="font:10px Droid Sans,Trebuchet MS,Arial,Helvetica,sans-serif;stroke:none;fill:#000000"
       id="text31">10</text>
    <text
       x="195"
       y="389.625"
       text-anchor="middle"
       style="font:10px Droid Sans,Trebuchet MS,Arial,Helvetica,sans-serif;stroke:none;fill:#000000"
       id="text33">15</text>
    <text
       x="260"
       y="389.625"
       text-anchor="middle"
       style="font:10px Droid Sans,Trebuchet MS,Arial,Helvetica,sans-serif;stroke:none;fill:#000000"
       id="text35">20</text>
    <text
       x="325"
       y="389.625"
       text-anchor="middle"
       style="font:10px Droid Sans,Trebuchet MS,Arial,Helvetica,sans-serif;stroke:none;fill:#000000"
       id="text37">25</text>
    <text
       x="390"
       y="389.625"
       text-anchor="middle"
       style="font:10px Droid Sans,Trebuchet MS,Arial,Helvetica,sans-serif;stroke:none;fill:#000000"
       id="text39">30</text>
    <text
       x="454.99999999999994"
       y="389.625"
       text-anchor="middle"
       style="font:10px Droid Sans,Trebuchet MS,Arial,Helvetica,sans-serif;stroke:none;fill:#000000"
       id="text41">35</text>
    <text
       x="520"
       y="389.625"
       text-anchor="middle"
       style="font:10px Droid Sans,Trebuchet MS,Arial,Helvetica,sans-serif;stroke:none;fill:#000000"
       id="text43">40</text>
    <text
       x="585"
       y="389.625"
       text-anchor="middle"
       style="font:10px Droid Sans,Trebuchet MS,Arial,Helvetica,sans-serif;stroke:none;fill:#000000"
       id="text45">45</text>
    <path
       d="M-0.00 400.00 L-0.00 400.00 L2.00 399.02 L4.00 398.03 L6.00 397.05 L8.00 396.06 L10.00 395.08 L12.00 394.09 L14.00 393.11 L16.00 392.12 L18.00 391.14 L20.00 390.15 L22.00 389.17 L24.00 388.18 L26.00 387.20 L28.00 386.22 L30.00 385.23 L32.00 384.25 L34.00 383.26 L36.00 382.28 L38.00 381.29 L40.00 380.31 L42.00 379.32 L44.00 378.34 L46.00 377.35 L48.00 376.37 L50.00 375.38 L52.00 374.40 L54.00 373.42 L56.00 372.43 L58.00 371.45 L60.00 370.46 L62.00 369.48 L64.00 368.49 L66.00 367.51 L68.00 366.52 L70.00 365.54 L72.00 364.55 L74.00 363.57 L76.00 362.58 L78.00 361.60 L80.00 360.62 L82.00 359.63 L84.00 358.65 L86.00 357.66 L88.00 356.68 L90.00 355.69 L92.00 354.71 L94.00 353.72 L96.00 352.74 L98.00 351.75 L100.00 350.77 L102.00 349.78 L104.00 348.80 L106.00 347.82 L108.00 346.83 L110.00 345.85 L112.00 344.86 L114.00 343.88 L116.00 342.89 L118.00 341.91 L120.00 340.92 L122.00 339.94 L124.00 338.95 L126.00 337.97 L128.00 336.98 L130.00 336.00 L132.00 335.02 L134.00 334.03 L136.00 333.05 L138.00 332.06 L140.00 331.08 L142.00 330.09 L144.00 329.11 L146.00 328.12 L148.00 327.14 L150.00 326.15 L152.00 325.17 L154.00 324.18 L156.00 323.20 L158.00 322.22 L160.00 321.23 L162.00 320.25 L164.00 319.26 L166.00 318.28 L168.00 317.29 L170.00 316.31 L172.00 315.32 L174.00 314.34 L176.00 313.35 L178.00 312.37 L180.00 311.38 L182.00 310.40 L184.00 309.42 L186.00 308.43 L188.00 307.45 L190.00 306.46 L192.00 305.48 L194.00 304.49 L196.00 303.51 L198.00 302.52 L200.00 301.54 L202.00 300.55 L204.00 299.57 L206.00 298.58 L208.00 297.60 L210.00 296.62 L212.00 295.63 L214.00 294.65 L216.00 293.66 L218.00 292.68 L220.00 291.69 L222.00 290.71 L224.00 289.72 L226.00 288.74 L228.00 287.75 L230.00 286.77 L232.00 285.78 L234.00 284.80 L236.00 283.82 L238.00 282.83 L240.00 281.85 L242.00 280.86 L244.00 279.88 L246.00 278.89 L248.00 277.91 L250.00 276.92 L252.00 275.94 L254.00 274.95 L256.00 273.97 L258.00 272.98 L260.00 272.00 L262.00 271.02 L264.00 270.03 L266.00 269.05 L268.00 268.06 L270.00 267.08 L272.00 266.09 L274.00 265.11 L276.00 264.12 L278.00 263.14 L280.00 262.15 L282.00 261.17 L284.00 260.18 L286.00 259.20 L288.00 258.22 L290.00 257.23 L292.00 256.25 L294.00 255.26 L296.00 254.28 L298.00 253.29 L300.00 252.31 L302.00 251.32 L304.00 250.34 L306.00 249.35 L308.00 248.37 L310.00 247.38 L312.00 246.40 L314.00 245.42 L316.00 244.43 L318.00 243.45 L320.00 242.46 L322.00 241.48 L324.00 240.49 L326.00 239.51 L328.00 238.52 L330.00 237.54 L332.00 236.55 L334.00 235.57 L336.00 234.58 L338.00 233.60 L340.00 232.62 L342.00 231.63 L344.00 230.65 L346.00 229.66 L348.00 228.68 L350.00 227.69 L352.00 226.71 L354.00 225.72 L356.00 224.74 L358.00 223.75 L360.00 222.77 L362.00 221.78 L364.00 220.80 L366.00 219.82 L368.00 218.83 L370.00 217.85 L372.00 216.86 L374.00 215.88 L376.00 214.89 L378.00 213.91 L380.00 212.92 L382.00 211.94 L384.00 210.95 L386.00 209.97 L388.00 208.98 L390.00 208.00 L392.00 207.02 L394.00 206.03 L396.00 205.05 L398.00 204.06 L400.00 203.08 L402.00 202.09 L404.00 201.11 L406.00 200.12 L408.00 199.14 L410.00 198.15 L412.00 197.17 L414.00 196.18 L416.00 195.20 L418.00 194.22 L420.00 193.23 L422.00 192.25 L424.00 191.26 L426.00 190.28 L428.00 189.29 L430.00 188.31 L432.00 187.32 L434.00 186.34 L436.00 185.35 L438.00 184.37 L440.00 183.38 L442.00 182.40 L444.00 181.42 L446.00 180.43 L448.00 179.45 L450.00 178.46 L452.00 177.48 L454.00 176.49 L456.00 175.51 L458.00 174.52 L460.00 173.54 L462.00 172.55 L464.00 171.57 L466.00 170.58 L468.00 169.60 L470.00 168.62 L472.00 167.63 L474.00 166.65 L476.00 165.66 L478.00 164.68 L480.00 163.69 L482.00 162.71 L484.00 161.72 L486.00 160.74 L488.00 159.75 L490.00 158.77 L492.00 157.78 L494.00 156.80 L496.00 155.82 L498.00 154.83 L500.00 153.85 L502.00 152.86 L504.00 151.88 L506.00 150.89 L508.00 149.91 L510.00 148.92 L512.00 147.94 L514.00 146.95 L516.00 145.97 L518.00 144.98 L520.00 144.00 L522.00 143.02 L524.00 142.03 L526.00 141.05 L528.00 140.06 L530.00 139.08 L532.00 138.09 L534.00 137.11 L536.00 136.12 L538.00 135.14 L540.00 134.15 L542.00 133.17 L544.00 132.18 L546.00 131.20 L548.00 130.22 L550.00 129.23 L552.00 128.25 L554.00 127.26 L556.00 126.28 L558.00 125.29 L560.00 124.31 L562.00 123.32 L564.00 122.34 L566.00 121.35 L568.00 120.37 L570.00 119.38 L572.00 118.40 L574.00 117.42 L576.00 116.43 L578.00 115.45 L580.00 114.46 L582.00 113.48 L584.00 112.49 L586.00 111.51 L588.00 110.52 L590.00 109.54 L592.00 108.55 L594.00 107.57 L596.00 106.58 L598.00 105.60 L600.00 104.62 L602.00 103.63 L604.00 102.65 L606.00 101.66 L608.00 100.68 L610.00 99.69 L612.00 98.71 L614.00 97.72 L616.00 96.74 L618.00 95.75 L620.00 94.77 L622.00 93.78 L624.00 92.80 L626.00 91.82 L628.00 90.83 L630.00 89.85 L632.00 88.86 L634.00 87.88 L636.00 86.89 L638.00 85.91 L640.00 84.92 L642.00 83.94 L644.00 82.95 L646.00 81.97 L648.00 80.98 "
       style="fill:none;stroke:#0000FF;stroke-width:1;"
       id="path47" />
    <path
       d="M-10.00 200.00 L-0.25 400.00 L0.75 400.00 L2.75 399.99 L4.75 399.98 L6.75 399.96 L8.75 399.93 L10.75 399.89 L12.75 399.85 L14.75 399.79 L16.75 399.73 L18.75 399.67 L20.75 399.59 L22.75 399.51 L24.75 399.42 L26.75 399.32 L28.75 399.22 L30.75 399.10 L32.75 398.98 L34.75 398.86 L36.75 398.72 L38.75 398.58 L40.75 398.43 L42.75 398.27 L44.75 398.10 L46.75 397.93 L48.75 397.75 L50.75 397.56 L52.75 397.37 L54.75 397.16 L56.75 396.95 L58.75 396.73 L60.75 396.51 L62.75 396.27 L64.75 396.03 L66.75 395.78 L68.75 395.53 L70.75 395.26 L72.75 394.99 L74.75 394.71 L76.75 394.42 L78.75 394.13 L80.75 393.83 L82.75 393.52 L84.75 393.20 L86.75 392.88 L88.75 392.54 L90.75 392.20 L92.75 391.86 L94.75 391.50 L96.75 391.14 L98.75 390.77 L100.75 390.39 L102.75 390.00 L104.75 389.61 L106.75 389.21 L108.75 388.80 L110.75 388.39 L112.75 387.96 L114.75 387.53 L116.75 387.10 L118.75 386.65 L120.75 386.20 L122.75 385.73 L124.75 385.27 L126.75 384.79 L128.75 384.31 L130.75 383.81 L132.75 383.32 L134.75 382.81 L136.75 382.30 L138.75 381.77 L140.75 381.24 L142.75 380.71 L144.75 380.16 L146.75 379.61 L148.75 379.05 L150.75 378.48 L152.75 377.91 L154.75 377.33 L156.75 376.74 L158.75 376.14 L160.75 375.54 L162.75 374.92 L164.75 374.30 L166.75 373.68 L168.75 373.04 L170.75 372.40 L172.75 371.75 L174.75 371.09 L176.75 370.42 L178.75 369.75 L180.75 369.07 L182.75 368.38 L184.75 367.69 L186.75 366.98 L188.75 366.27 L190.75 365.55 L192.75 364.83 L194.75 364.09 L196.75 363.35 L198.75 362.60 L200.75 361.85 L202.75 361.08 L204.75 360.31 L206.75 359.53 L208.75 358.74 L210.75 357.95 L212.75 357.15 L214.75 356.34 L216.75 355.52 L218.75 354.70 L220.75 353.86 L222.75 353.02 L224.75 352.18 L226.75 351.32 L228.75 350.46 L230.75 349.59 L232.75 348.71 L234.75 347.83 L236.75 346.93 L238.75 346.03 L240.75 345.13 L242.75 344.21 L244.75 343.29 L246.75 342.36 L248.75 341.42 L250.75 340.47 L252.75 339.52 L254.75 338.56 L256.75 337.59 L258.75 336.61 L260.75 335.63 L262.75 334.64 L264.75 333.64 L266.75 332.63 L268.74 331.63 L270.71 330.62 L272.67 329.61 L274.61 328.60 L276.54 327.60 L278.46 326.59 L280.36 325.58 L282.25 324.58 L284.13 323.57 L285.99 322.56 L287.85 321.56 L289.69 320.55 L291.52 319.54 L293.33 318.54 L295.14 317.53 L296.93 316.53 L298.72 315.52 L300.49 314.51 L302.25 313.51 L304.01 312.50 L305.75 311.50 L307.48 310.49 L309.20 309.48 L310.92 308.48 L312.62 307.47 L314.31 306.47 L316.00 305.46 L317.67 304.46 L319.34 303.45 L321.00 302.45 L322.65 301.44 L324.29 300.44 L325.92 299.43 L327.55 298.43 L329.16 297.42 L330.77 296.42 L332.37 295.41 L333.97 294.41 L335.55 293.40 L337.13 292.40 L338.70 291.39 L340.26 290.39 L341.82 289.38 L343.37 288.38 L344.91 287.37 L346.44 286.37 L347.97 285.37 L349.49 284.36 L351.00 283.36 L352.51 282.35 L354.01 281.35 L355.51 280.34 L357.00 279.34 L358.48 278.34 L359.96 277.33 L361.43 276.33 L362.89 275.32 L364.35 274.32 L365.80 273.32 L367.25 272.31 L368.69 271.31 L370.12 270.30 L371.55 269.30 L372.98 268.30 L374.40 267.29 L375.81 266.29 L377.22 265.28 L378.62 264.28 L380.02 263.28 L381.41 262.27 L382.80 261.27 L384.18 260.27 L385.56 259.26 L386.93 258.26 L388.30 257.26 L389.66 256.25 L391.02 255.25 L392.37 254.24 L393.72 253.24 L395.06 252.24 L396.40 251.23 L397.74 250.23 L399.07 249.23 L400.39 248.22 L401.71 247.22 L403.03 246.22 L404.34 245.21 L405.65 244.21 L406.95 243.21 L408.25 242.20 L409.55 241.20 L410.84 240.20 L412.13 239.20 L413.41 238.19 L414.69 237.19 L415.97 236.19 L417.24 235.18 L418.51 234.18 L419.77 233.18 L421.03 232.17 L422.29 231.17 L423.54 230.17 L424.79 229.16 L426.03 228.16 L427.27 227.16 L428.51 226.16 L429.75 225.15 L430.98 224.15 L432.20 223.15 L433.43 222.14 L434.65 221.14 L435.86 220.14 L437.08 219.14 L438.29 218.13 L439.49 217.13 L440.70 216.13 L441.90 215.13 L443.09 214.12 L444.29 213.12 L445.48 212.12 L446.67 211.11 L447.85 210.11 L449.03 209.11 L450.21 208.11 L451.38 207.10 L452.55 206.10 L453.72 205.10 L454.89 204.10 L456.05 203.09 L457.21 202.09 L458.37 201.09 L459.52 200.09 L460.67 199.08 L461.82 198.08 L462.96 197.08 L464.11 196.08 L465.25 195.07 L466.38 194.07 L467.52 193.07 L468.65 192.07 L469.78 191.06 L470.90 190.06 L472.02 189.06 L473.14 188.06 L474.26 187.05 L475.38 186.05 L476.49 185.05 L477.60 184.05 L478.71 183.04 L479.81 182.04 L480.91 181.04 L482.01 180.04 L483.11 179.04 L484.20 178.03 L485.29 177.03 L486.38 176.03 L487.47 175.03 L488.56 174.02 L489.64 173.02 L490.72 172.02 L491.79 171.02 L492.87 170.02 L493.94 169.01 L495.01 168.01 L496.08 167.01 L497.15 166.01 L498.21 165.00 L499.27 164.00 L500.33 163.00 L501.39 162.00 L502.44 161.00 L503.49 159.99 L504.54 158.99 L505.59 157.99 L506.64 156.99 L507.68 155.99 L508.72 154.98 L509.76 153.98 L510.80 152.98 L511.83 151.98 L512.87 150.98 L513.90 149.97 L514.93 148.97 L515.95 147.97 L516.98 146.97 L518.00 145.97 L519.02 144.96 L520.04 143.96 L521.06 142.96 L522.07 141.96 L523.08 140.96 L524.09 139.95 L525.10 138.95 L526.11 137.95 L527.11 136.95 L528.12 135.95 L529.12 134.94 L530.12 133.94 L531.11 132.94 L532.11 131.94 L533.10 130.94 L534.09 129.94 L535.08 128.93 L536.07 127.93 L537.06 126.93 L538.04 125.93 L539.02 124.93 L540.00 123.92 L540.98 122.92 L541.96 121.92 L542.94 120.92 L543.91 119.92 L544.88 118.92 L545.85 117.91 L546.82 116.91 L547.79 115.91 L548.75 114.91 L549.71 113.91 L550.68 112.90 L551.64 111.90 L552.59 110.90 L553.55 109.90 L554.51 108.90 L555.46 107.90 L556.41 106.89 L557.36 105.89 L558.31 104.89 L559.26 103.89 L560.20 102.89 L561.14 101.89 L562.09 100.88 L563.03 99.88 L563.97 98.88 L564.90 97.88 L565.84 96.88 L566.77 95.88 L567.71 94.87 L568.64 93.87 L569.57 92.87 L570.49 91.87 L571.42 90.87 L572.35 89.87 L573.27 88.86 L574.19 87.86 L575.11 86.86 L576.03 85.86 L576.95 84.86 L577.86 83.86 L578.78 82.85 L579.69 81.85 L580.60 80.85 L581.51 79.85 L582.42 78.85 L583.33 77.85 L584.24 76.85 L585.14 75.84 L586.04 74.84 L586.95 73.84 L587.85 72.84 L588.75 71.84 L589.64 70.84 L590.54 69.83 L591.43 68.83 L592.33 67.83 L593.22 66.83 L594.11 65.83 L595.00 64.83 L595.89 63.83 L596.78 62.82 L597.66 61.82 L598.55 60.82 L599.43 59.82 L600.31 58.82 L601.19 57.82 L602.07 56.82 L602.95 55.81 L603.83 54.81 L604.70 53.81 L605.57 52.81 L606.45 51.81 L607.32 50.81 L608.19 49.80 L609.06 48.80 L609.93 47.80 L610.79 46.80 L611.66 45.80 L612.52 44.80 L613.38 43.80 L614.25 42.79 L615.11 41.79 L615.97 40.79 L616.82 39.79 L617.68 38.79 L618.54 37.79 L619.39 36.79 L620.24 35.79 L621.10 34.78 L621.95 33.78 L622.80 32.78 L623.64 31.78 L624.49 30.78 L625.34 29.78 L626.18 28.78 L627.03 27.77 L627.87 26.77 L628.71 25.77 L629.55 24.77 L630.39 23.77 L631.23 22.77 L632.07 21.77 L632.90 20.77 L633.74 19.76 L634.57 18.76 L635.41 17.76 L636.24 16.76 L637.07 15.76 L637.90 14.76 L638.73 13.76 L639.55 12.75 L640.38 11.75 L641.20 10.75 L642.03 9.75 L642.85 8.75 L643.67 7.75 L644.49 6.75 L645.31 5.75 L646.13 4.74 L646.95 3.74 L647.77 2.74 L648.58 1.74 L649.40 0.74 "
       style="fill:none;stroke:#00AA00;stroke-width:1;"
       id="path49" />
  </g>
  <text
     xml:space="preserve"
     style="font-style:normal;font-weight:normal;font-size:24px;line-height:1.25;font-family:sans-serif;fill:#000000;fill-opacity:1;stroke:none"
     x="478.61365"
     y="40.422886"
     id="text886"><tspan
       id="tspan884"
       x="478.61365"
       y="40.422886"
       style="font-size:24px;text-align:end;text-anchor:end">Güterzug</tspan><tspan
       x="478.61365"
       y="70.422882"
       id="tspan888"
       style="font-size:24px;text-align:end;text-anchor:end">ICE</tspan></text>
  <path
     style="fill:none;stroke:#0000ff;stroke-width:1.5;stroke-linecap:butt;stroke-linejoin:miter;stroke-miterlimit:4;stroke-dasharray:none;stroke-opacity:1"
     d="M 488.88889,35 H 525"
     id="path890" />
  <path
     style="fill:none;stroke:#00aa00;stroke-width:1.5;stroke-linecap:butt;stroke-linejoin:miter;stroke-miterlimit:4;stroke-dasharray:none;stroke-opacity:1"
     d="m 490,60 h 36.11111"
     id="path890-9" />
</svg>
