<svg version="1.1" xmlns="http://www.w3.org/2000/svg" xmlns:xlink="http://www.w3.org/1999/xlink" width="1137" height="964"><defs><clipPath id="MuTQSmGfbTmm"><path fill="none" stroke="none" d=" M 0 0 L 1137 0 L 1137 964 L 0 964 L 0 0 Z"/></clipPath></defs><g transform="scale(1,1)" clip-path="url(#MuTQSmGfbTmm)"><g><rect fill="rgb(255,255,255)" stroke="none" x="0" y="0" width="1137" height="964" fill-opacity="1"/><path fill="none" stroke="rgb(192,192,192)" paint-order="fill stroke markers" d=" M 115.5 0.5 L 115.5 918.5 M 168.5 0.5 L 168.5 918.5 M 222.5 0.5 L 222.5 918.5 M 276.5 0.5 L 276.5 918.5 M 330.5 0.5 L 330.5 918.5 M 383.5 0.5 L 383.5 918.5 M 437.5 0.5 L 437.5 918.5 M 491.5 0.5 L 491.5 918.5 M 545.5 0.5 L 545.5 918.5 M 599.5 0.5 L 599.5 918.5 M 652.5 0.5 L 652.5 918.5 M 706.5 0.5 L 706.5 918.5 M 760.5 0.5 L 760.5 918.5 M 814.5 0.5 L 814.5 918.5 M 868.5 0.5 L 868.5 918.5 M 921.5 0.5 L 921.5 918.5 M 975.5 0.5 L 975.5 918.5 M 1029.5 0.5 L 1029.5 918.5 M 1083.5 0.5 L 1083.5 918.5 M 1137.5 0.5 L 1137.5 918.5" stroke-opacity="1" stroke-linecap="round" stroke-linejoin="round" stroke-miterlimit="10"/><path fill="none" stroke="rgb(192,192,192)" paint-order="fill stroke markers" d=" M 71.5 0.5 L 71.5 918.5 M 82.5 0.5 L 82.5 918.5 M 93.5 0.5 L 93.5 918.5 M 104.5 0.5 L 104.5 918.5 M 125.5 0.5 L 125.5 918.5 M 136.5 0.5 L 136.5 918.5 M 147.5 0.5 L 147.5 918.5 M 158.5 0.5 L 158.5 918.5 M 179.5 0.5 L 179.5 918.5 M 190.5 0.5 L 190.5 918.5 M 201.5 0.5 L 201.5 918.5 M 211.5 0.5 L 211.5 918.5 M 233.5 0.5 L 233.5 918.5 M 244.5 0.5 L 244.5 918.5 M 254.5 0.5 L 254.5 918.5 M 265.5 0.5 L 265.5 918.5 M 287.5 0.5 L 287.5 918.5 M 297.5 0.5 L 297.5 918.5 M 308.5 0.5 L 308.5 918.5 M 319.5 0.5 L 319.5 918.5 M 340.5 0.5 L 340.5 918.5 M 351.5 0.5 L 351.5 918.5 M 362.5 0.5 L 362.5 918.5 M 373.5 0.5 L 373.5 918.5 M 394.5 0.5 L 394.5 918.5 M 405.5 0.5 L 405.5 918.5 M 416.5 0.5 L 416.5 918.5 M 426.5 0.5 L 426.5 918.5 M 448.5 0.5 L 448.5 918.5 M 459.5 0.5 L 459.5 918.5 M 470.5 0.5 L 470.5 918.5 M 480.5 0.5 L 480.5 918.5 M 502.5 0.5 L 502.5 918.5 M 513.5 0.5 L 513.5 918.5 M 523.5 0.5 L 523.5 918.5 M 534.5 0.5 L 534.5 918.5 M 556.5 0.5 L 556.5 918.5 M 566.5 0.5 L 566.5 918.5 M 577.5 0.5 L 577.5 918.5 M 588.5 0.5 L 588.5 918.5 M 609.5 0.5 L 609.5 918.5 M 620.5 0.5 L 620.5 918.5 M 631.5 0.5 L 631.5 918.5 M 642.5 0.5 L 642.5 918.5 M 663.5 0.5 L 663.5 918.5 M 674.5 0.5 L 674.5 918.5 M 685.5 0.5 L 685.5 918.5 M 695.5 0.5 L 695.5 918.5 M 717.5 0.5 L 717.5 918.5 M 728.5 0.5 L 728.5 918.5 M 738.5 0.5 L 738.5 918.5 M 749.5 0.5 L 749.5 918.5 M 771.5 0.5 L 771.5 918.5 M 781.5 0.5 L 781.5 918.5 M 792.5 0.5 L 792.5 918.5 M 803.5 0.5 L 803.5 918.5 M 825.5 0.5 L 825.5 918.5 M 835.5 0.5 L 835.5 918.5 M 846.5 0.5 L 846.5 918.5 M 857.5 0.5 L 857.5 918.5 M 878.5 0.5 L 878.5 918.5 M 889.5 0.5 L 889.5 918.5 M 900.5 0.5 L 900.5 918.5 M 911.5 0.5 L 911.5 918.5 M 932.5 0.5 L 932.5 918.5 M 943.5 0.5 L 943.5 918.5 M 954.5 0.5 L 954.5 918.5 M 964.5 0.5 L 964.5 918.5 M 986.5 0.5 L 986.5 918.5 M 997.5 0.5 L 997.5 918.5 M 1007.5 0.5 L 1007.5 918.5 M 1018.5 0.5 L 1018.5 918.5 M 1040.5 0.5 L 1040.5 918.5 M 1050.5 0.5 L 1050.5 918.5 M 1061.5 0.5 L 1061.5 918.5 M 1072.5 0.5 L 1072.5 918.5 M 1093.5 0.5 L 1093.5 918.5 M 1104.5 0.5 L 1104.5 918.5 M 1115.5 0.5 L 1115.5 918.5 M 1126.5 0.5 L 1126.5 918.5" stroke-opacity="0.23529411764705882" stroke-linecap="round" stroke-linejoin="round" stroke-miterlimit="10"/><path fill="none" stroke="rgb(192,192,192)" paint-order="fill stroke markers" d=" M 61.5 91.5 L 1137.5 91.5 M 61.5 91.5 L 1137.5 91.5 M 61.5 183.5 L 1137.5 183.5 M 61.5 275.5 L 1137.5 275.5 M 61.5 367.5 L 1137.5 367.5 M 61.5 459.5 L 1137.5 459.5 M 61.5 550.5 L 1137.5 550.5 M 61.5 642.5 L 1137.5 642.5 M 61.5 734.5 L 1137.5 734.5 M 61.5 826.5 L 1137.5 826.5" stroke-opacity="1" stroke-linecap="round" stroke-linejoin="round" stroke-miterlimit="10"/><path fill="none" stroke="rgb(192,192,192)" paint-order="fill stroke markers" d=" M 61.5 0.5 L 1137.5 0.5 M 61.5 18.5 L 1137.5 18.5 M 61.5 36.5 L 1137.5 36.5 M 61.5 55.5 L 1137.5 55.5 M 61.5 73.5 L 1137.5 73.5 M 61.5 110.5 L 1137.5 110.5 M 61.5 128.5 L 1137.5 128.5 M 61.5 146.5 L 1137.5 146.5 M 61.5 165.5 L 1137.5 165.5 M 61.5 201.5 L 1137.5 201.5 M 61.5 220.5 L 1137.5 220.5 M 61.5 238.5 L 1137.5 238.5 M 61.5 257.5 L 1137.5 257.5 M 61.5 293.5 L 1137.5 293.5 M 61.5 312.5 L 1137.5 312.5 M 61.5 330.5 L 1137.5 330.5 M 61.5 348.5 L 1137.5 348.5 M 61.5 385.5 L 1137.5 385.5 M 61.5 403.5 L 1137.5 403.5 M 61.5 422.5 L 1137.5 422.5 M 61.5 440.5 L 1137.5 440.5 M 61.5 477.5 L 1137.5 477.5 M 61.5 495.5 L 1137.5 495.5 M 61.5 514.5 L 1137.5 514.5 M 61.5 532.5 L 1137.5 532.5 M 61.5 569.5 L 1137.5 569.5 M 61.5 587.5 L 1137.5 587.5 M 61.5 605.5 L 1137.5 605.5 M 61.5 624.5 L 1137.5 624.5 M 61.5 661.5 L 1137.5 661.5 M 61.5 679.5 L 1137.5 679.5 M 61.5 697.5 L 1137.5 697.5 M 61.5 716.5 L 1137.5 716.5 M 61.5 752.5 L 1137.5 752.5 M 61.5 771.5 L 1137.5 771.5 M 61.5 789.5 L 1137.5 789.5 M 61.5 807.5 L 1137.5 807.5 M 61.5 844.5 L 1137.5 844.5 M 61.5 863.5 L 1137.5 863.5 M 61.5 881.5 L 1137.5 881.5 M 61.5 899.5 L 1137.5 899.5" stroke-opacity="0.23529411764705882" stroke-linecap="round" stroke-linejoin="round" stroke-miterlimit="10"/><path fill="none" stroke="rgb(37,37,37)" paint-order="fill stroke markers" d=" M 61.5 2.5 L 61.5 918.5" stroke-opacity="1" stroke-miterlimit="10"/><path fill="none" stroke="rgb(37,37,37)" paint-order="fill stroke markers" d=" M 61.5 1.5 L 55.5 7.5" stroke-opacity="1" stroke-miterlimit="10"/><path fill="none" stroke="rgb(37,37,37)" paint-order="fill stroke markers" d=" M 61.5 1.5 L 67.5 7.5" stroke-opacity="1" stroke-miterlimit="10"/><text fill="rgb(37,37,37)" stroke="none" font-family="geogebra-sans-serif, sans-serif" font-size="24px" font-style="normal" font-weight="normal" text-decoration="normal" x="1120" y="914" text-anchor="start" dominant-baseline="alphabetic" fill-opacity="1">t</text><path fill="none" stroke="rgb(37,37,37)" paint-order="fill stroke markers" d=" M 61.5 918.5 L 1135.5 918.5" stroke-opacity="1" stroke-miterlimit="10"/><path fill="none" stroke="rgb(37,37,37)" paint-order="fill stroke markers" d=" M 1136.5 918.5 L 1130.5 912.5" stroke-opacity="1" stroke-miterlimit="10"/><path fill="none" stroke="rgb(37,37,37)" paint-order="fill stroke markers" d=" M 1136.5 918.5 L 1130.5 924.5" stroke-opacity="1" stroke-miterlimit="10"/><text fill="rgb(37,37,37)" stroke="none" font-family="geogebra-sans-serif, sans-serif" font-size="18px" font-style="normal" font-weight="normal" text-decoration="normal" x="98" y="940" text-anchor="start" dominant-baseline="alphabetic" fill-opacity="1">0.2s</text><text fill="none" stroke="rgb(255,255,255)" font-family="geogebra-sans-serif, sans-serif" font-size="18px" font-style="normal" font-weight="normal" text-decoration="normal" x="98" y="940" text-anchor="start" dominant-baseline="alphabetic" stroke-opacity="1" stroke-linejoin="bevel" stroke-miterlimit="10" stroke-width="3">0.2s</text><text fill="rgb(37,37,37)" stroke="none" font-family="geogebra-sans-serif, sans-serif" font-size="18px" font-style="normal" font-weight="normal" text-decoration="normal" x="98" y="940" text-anchor="start" dominant-baseline="alphabetic" fill-opacity="1">0.2s</text><text fill="rgb(37,37,37)" stroke="none" font-family="geogebra-sans-serif, sans-serif" font-size="18px" font-style="normal" font-weight="normal" text-decoration="normal" x="151" y="940" text-anchor="start" dominant-baseline="alphabetic" fill-opacity="1">0.4s</text><text fill="none" stroke="rgb(255,255,255)" font-family="geogebra-sans-serif, sans-serif" font-size="18px" font-style="normal" font-weight="normal" text-decoration="normal" x="151" y="940" text-anchor="start" dominant-baseline="alphabetic" stroke-opacity="1" stroke-linejoin="bevel" stroke-miterlimit="10" stroke-width="3">0.4s</text><text fill="rgb(37,37,37)" stroke="none" font-family="geogebra-sans-serif, sans-serif" font-size="18px" font-style="normal" font-weight="normal" text-decoration="normal" x="151" y="940" text-anchor="start" dominant-baseline="alphabetic" fill-opacity="1">0.4s</text><text fill="rgb(37,37,37)" stroke="none" font-family="geogebra-sans-serif, sans-serif" font-size="18px" font-style="normal" font-weight="normal" text-decoration="normal" x="205" y="940" text-anchor="start" dominant-baseline="alphabetic" fill-opacity="1">0.6s</text><text fill="none" stroke="rgb(255,255,255)" font-family="geogebra-sans-serif, sans-serif" font-size="18px" font-style="normal" font-weight="normal" text-decoration="normal" x="205" y="940" text-anchor="start" dominant-baseline="alphabetic" stroke-opacity="1" stroke-linejoin="bevel" stroke-miterlimit="10" stroke-width="3">0.6s</text><text fill="rgb(37,37,37)" stroke="none" font-family="geogebra-sans-serif, sans-serif" font-size="18px" font-style="normal" font-weight="normal" text-decoration="normal" x="205" y="940" text-anchor="start" dominant-baseline="alphabetic" fill-opacity="1">0.6s</text><text fill="rgb(37,37,37)" stroke="none" font-family="geogebra-sans-serif, sans-serif" font-size="18px" font-style="normal" font-weight="normal" text-decoration="normal" x="259" y="940" text-anchor="start" dominant-baseline="alphabetic" fill-opacity="1">0.8s</text><text fill="none" stroke="rgb(255,255,255)" font-family="geogebra-sans-serif, sans-serif" font-size="18px" font-style="normal" font-weight="normal" text-decoration="normal" x="259" y="940" text-anchor="start" dominant-baseline="alphabetic" stroke-opacity="1" stroke-linejoin="bevel" stroke-miterlimit="10" stroke-width="3">0.8s</text><text fill="rgb(37,37,37)" stroke="none" font-family="geogebra-sans-serif, sans-serif" font-size="18px" font-style="normal" font-weight="normal" text-decoration="normal" x="259" y="940" text-anchor="start" dominant-baseline="alphabetic" fill-opacity="1">0.8s</text><text fill="rgb(37,37,37)" stroke="none" font-family="geogebra-sans-serif, sans-serif" font-size="18px" font-style="normal" font-weight="normal" text-decoration="normal" x="322" y="940" text-anchor="start" dominant-baseline="alphabetic" fill-opacity="1">1s</text><text fill="none" stroke="rgb(255,255,255)" font-family="geogebra-sans-serif, sans-serif" font-size="18px" font-style="normal" font-weight="normal" text-decoration="normal" x="322" y="940" text-anchor="start" dominant-baseline="alphabetic" stroke-opacity="1" stroke-linejoin="bevel" stroke-miterlimit="10" stroke-width="3">1s</text><text fill="rgb(37,37,37)" stroke="none" font-family="geogebra-sans-serif, sans-serif" font-size="18px" font-style="normal" font-weight="normal" text-decoration="normal" x="322" y="940" text-anchor="start" dominant-baseline="alphabetic" fill-opacity="1">1s</text><text fill="rgb(37,37,37)" stroke="none" font-family="geogebra-sans-serif, sans-serif" font-size="18px" font-style="normal" font-weight="normal" text-decoration="normal" x="366" y="940" text-anchor="start" dominant-baseline="alphabetic" fill-opacity="1">1.2s</text><text fill="none" stroke="rgb(255,255,255)" font-family="geogebra-sans-serif, sans-serif" font-size="18px" font-style="normal" font-weight="normal" text-decoration="normal" x="366" y="940" text-anchor="start" dominant-baseline="alphabetic" stroke-opacity="1" stroke-linejoin="bevel" stroke-miterlimit="10" stroke-width="3">1.2s</text><text fill="rgb(37,37,37)" stroke="none" font-family="geogebra-sans-serif, sans-serif" font-size="18px" font-style="normal" font-weight="normal" text-decoration="normal" x="366" y="940" text-anchor="start" dominant-baseline="alphabetic" fill-opacity="1">1.2s</text><text fill="rgb(37,37,37)" stroke="none" font-family="geogebra-sans-serif, sans-serif" font-size="18px" font-style="normal" font-weight="normal" text-decoration="normal" x="420" y="940" text-anchor="start" dominant-baseline="alphabetic" fill-opacity="1">1.4s</text><text fill="none" stroke="rgb(255,255,255)" font-family="geogebra-sans-serif, sans-serif" font-size="18px" font-style="normal" font-weight="normal" text-decoration="normal" x="420" y="940" text-anchor="start" dominant-baseline="alphabetic" stroke-opacity="1" stroke-linejoin="bevel" stroke-miterlimit="10" stroke-width="3">1.4s</text><text fill="rgb(37,37,37)" stroke="none" font-family="geogebra-sans-serif, sans-serif" font-size="18px" font-style="normal" font-weight="normal" text-decoration="normal" x="420" y="940" text-anchor="start" dominant-baseline="alphabetic" fill-opacity="1">1.4s</text><text fill="rgb(37,37,37)" stroke="none" font-family="geogebra-sans-serif, sans-serif" font-size="18px" font-style="normal" font-weight="normal" text-decoration="normal" x="474" y="940" text-anchor="start" dominant-baseline="alphabetic" fill-opacity="1">1.6s</text><text fill="none" stroke="rgb(255,255,255)" font-family="geogebra-sans-serif, sans-serif" font-size="18px" font-style="normal" font-weight="normal" text-decoration="normal" x="474" y="940" text-anchor="start" dominant-baseline="alphabetic" stroke-opacity="1" stroke-linejoin="bevel" stroke-miterlimit="10" stroke-width="3">1.6s</text><text fill="rgb(37,37,37)" stroke="none" font-family="geogebra-sans-serif, sans-serif" font-size="18px" font-style="normal" font-weight="normal" text-decoration="normal" x="474" y="940" text-anchor="start" dominant-baseline="alphabetic" fill-opacity="1">1.6s</text><text fill="rgb(37,37,37)" stroke="none" font-family="geogebra-sans-serif, sans-serif" font-size="18px" font-style="normal" font-weight="normal" text-decoration="normal" x="528" y="940" text-anchor="start" dominant-baseline="alphabetic" fill-opacity="1">1.8s</text><text fill="none" stroke="rgb(255,255,255)" font-family="geogebra-sans-serif, sans-serif" font-size="18px" font-style="normal" font-weight="normal" text-decoration="normal" x="528" y="940" text-anchor="start" dominant-baseline="alphabetic" stroke-opacity="1" stroke-linejoin="bevel" stroke-miterlimit="10" stroke-width="3">1.8s</text><text fill="rgb(37,37,37)" stroke="none" font-family="geogebra-sans-serif, sans-serif" font-size="18px" font-style="normal" font-weight="normal" text-decoration="normal" x="528" y="940" text-anchor="start" dominant-baseline="alphabetic" fill-opacity="1">1.8s</text><text fill="rgb(37,37,37)" stroke="none" font-family="geogebra-sans-serif, sans-serif" font-size="18px" font-style="normal" font-weight="normal" text-decoration="normal" x="591" y="940" text-anchor="start" dominant-baseline="alphabetic" fill-opacity="1">2s</text><text fill="none" stroke="rgb(255,255,255)" font-family="geogebra-sans-serif, sans-serif" font-size="18px" font-style="normal" font-weight="normal" text-decoration="normal" x="591" y="940" text-anchor="start" dominant-baseline="alphabetic" stroke-opacity="1" stroke-linejoin="bevel" stroke-miterlimit="10" stroke-width="3">2s</text><text fill="rgb(37,37,37)" stroke="none" font-family="geogebra-sans-serif, sans-serif" font-size="18px" font-style="normal" font-weight="normal" text-decoration="normal" x="591" y="940" text-anchor="start" dominant-baseline="alphabetic" fill-opacity="1">2s</text><text fill="rgb(37,37,37)" stroke="none" font-family="geogebra-sans-serif, sans-serif" font-size="18px" font-style="normal" font-weight="normal" text-decoration="normal" x="635" y="940" text-anchor="start" dominant-baseline="alphabetic" fill-opacity="1">2.2s</text><text fill="none" stroke="rgb(255,255,255)" font-family="geogebra-sans-serif, sans-serif" font-size="18px" font-style="normal" font-weight="normal" text-decoration="normal" x="635" y="940" text-anchor="start" dominant-baseline="alphabetic" stroke-opacity="1" stroke-linejoin="bevel" stroke-miterlimit="10" stroke-width="3">2.2s</text><text fill="rgb(37,37,37)" stroke="none" font-family="geogebra-sans-serif, sans-serif" font-size="18px" font-style="normal" font-weight="normal" text-decoration="normal" x="635" y="940" text-anchor="start" dominant-baseline="alphabetic" fill-opacity="1">2.2s</text><text fill="rgb(37,37,37)" stroke="none" font-family="geogebra-sans-serif, sans-serif" font-size="18px" font-style="normal" font-weight="normal" text-decoration="normal" x="689" y="940" text-anchor="start" dominant-baseline="alphabetic" fill-opacity="1">2.4s</text><text fill="none" stroke="rgb(255,255,255)" font-family="geogebra-sans-serif, sans-serif" font-size="18px" font-style="normal" font-weight="normal" text-decoration="normal" x="689" y="940" text-anchor="start" dominant-baseline="alphabetic" stroke-opacity="1" stroke-linejoin="bevel" stroke-miterlimit="10" stroke-width="3">2.4s</text><text fill="rgb(37,37,37)" stroke="none" font-family="geogebra-sans-serif, sans-serif" font-size="18px" font-style="normal" font-weight="normal" text-decoration="normal" x="689" y="940" text-anchor="start" dominant-baseline="alphabetic" fill-opacity="1">2.4s</text><text fill="rgb(37,37,37)" stroke="none" font-family="geogebra-sans-serif, sans-serif" font-size="18px" font-style="normal" font-weight="normal" text-decoration="normal" x="743" y="940" text-anchor="start" dominant-baseline="alphabetic" fill-opacity="1">2.6s</text><text fill="none" stroke="rgb(255,255,255)" font-family="geogebra-sans-serif, sans-serif" font-size="18px" font-style="normal" font-weight="normal" text-decoration="normal" x="743" y="940" text-anchor="start" dominant-baseline="alphabetic" stroke-opacity="1" stroke-linejoin="bevel" stroke-miterlimit="10" stroke-width="3">2.6s</text><text fill="rgb(37,37,37)" stroke="none" font-family="geogebra-sans-serif, sans-serif" font-size="18px" font-style="normal" font-weight="normal" text-decoration="normal" x="743" y="940" text-anchor="start" dominant-baseline="alphabetic" fill-opacity="1">2.6s</text><text fill="rgb(37,37,37)" stroke="none" font-family="geogebra-sans-serif, sans-serif" font-size="18px" font-style="normal" font-weight="normal" text-decoration="normal" x="797" y="940" text-anchor="start" dominant-baseline="alphabetic" fill-opacity="1">2.8s</text><text fill="none" stroke="rgb(255,255,255)" font-family="geogebra-sans-serif, sans-serif" font-size="18px" font-style="normal" font-weight="normal" text-decoration="normal" x="797" y="940" text-anchor="start" dominant-baseline="alphabetic" stroke-opacity="1" stroke-linejoin="bevel" stroke-miterlimit="10" stroke-width="3">2.8s</text><text fill="rgb(37,37,37)" stroke="none" font-family="geogebra-sans-serif, sans-serif" font-size="18px" font-style="normal" font-weight="normal" text-decoration="normal" x="797" y="940" text-anchor="start" dominant-baseline="alphabetic" fill-opacity="1">2.8s</text><text fill="rgb(37,37,37)" stroke="none" font-family="geogebra-sans-serif, sans-serif" font-size="18px" font-style="normal" font-weight="normal" text-decoration="normal" x="860" y="940" text-anchor="start" dominant-baseline="alphabetic" fill-opacity="1">3s</text><text fill="none" stroke="rgb(255,255,255)" font-family="geogebra-sans-serif, sans-serif" font-size="18px" font-style="normal" font-weight="normal" text-decoration="normal" x="860" y="940" text-anchor="start" dominant-baseline="alphabetic" stroke-opacity="1" stroke-linejoin="bevel" stroke-miterlimit="10" stroke-width="3">3s</text><text fill="rgb(37,37,37)" stroke="none" font-family="geogebra-sans-serif, sans-serif" font-size="18px" font-style="normal" font-weight="normal" text-decoration="normal" x="860" y="940" text-anchor="start" dominant-baseline="alphabetic" fill-opacity="1">3s</text><text fill="rgb(37,37,37)" stroke="none" font-family="geogebra-sans-serif, sans-serif" font-size="18px" font-style="normal" font-weight="normal" text-decoration="normal" x="904" y="940" text-anchor="start" dominant-baseline="alphabetic" fill-opacity="1">3.2s</text><text fill="none" stroke="rgb(255,255,255)" font-family="geogebra-sans-serif, sans-serif" font-size="18px" font-style="normal" font-weight="normal" text-decoration="normal" x="904" y="940" text-anchor="start" dominant-baseline="alphabetic" stroke-opacity="1" stroke-linejoin="bevel" stroke-miterlimit="10" stroke-width="3">3.2s</text><text fill="rgb(37,37,37)" stroke="none" font-family="geogebra-sans-serif, sans-serif" font-size="18px" font-style="normal" font-weight="normal" text-decoration="normal" x="904" y="940" text-anchor="start" dominant-baseline="alphabetic" fill-opacity="1">3.2s</text><text fill="rgb(37,37,37)" stroke="none" font-family="geogebra-sans-serif, sans-serif" font-size="18px" font-style="normal" font-weight="normal" text-decoration="normal" x="958" y="940" text-anchor="start" dominant-baseline="alphabetic" fill-opacity="1">3.4s</text><text fill="none" stroke="rgb(255,255,255)" font-family="geogebra-sans-serif, sans-serif" font-size="18px" font-style="normal" font-weight="normal" text-decoration="normal" x="958" y="940" text-anchor="start" dominant-baseline="alphabetic" stroke-opacity="1" stroke-linejoin="bevel" stroke-miterlimit="10" stroke-width="3">3.4s</text><text fill="rgb(37,37,37)" stroke="none" font-family="geogebra-sans-serif, sans-serif" font-size="18px" font-style="normal" font-weight="normal" text-decoration="normal" x="958" y="940" text-anchor="start" dominant-baseline="alphabetic" fill-opacity="1">3.4s</text><text fill="rgb(37,37,37)" stroke="none" font-family="geogebra-sans-serif, sans-serif" font-size="18px" font-style="normal" font-weight="normal" text-decoration="normal" x="1012" y="940" text-anchor="start" dominant-baseline="alphabetic" fill-opacity="1">3.6s</text><text fill="none" stroke="rgb(255,255,255)" font-family="geogebra-sans-serif, sans-serif" font-size="18px" font-style="normal" font-weight="normal" text-decoration="normal" x="1012" y="940" text-anchor="start" dominant-baseline="alphabetic" stroke-opacity="1" stroke-linejoin="bevel" stroke-miterlimit="10" stroke-width="3">3.6s</text><text fill="rgb(37,37,37)" stroke="none" font-family="geogebra-sans-serif, sans-serif" font-size="18px" font-style="normal" font-weight="normal" text-decoration="normal" x="1012" y="940" text-anchor="start" dominant-baseline="alphabetic" fill-opacity="1">3.6s</text><text fill="rgb(37,37,37)" stroke="none" font-family="geogebra-sans-serif, sans-serif" font-size="18px" font-style="normal" font-weight="normal" text-decoration="normal" x="1066" y="940" text-anchor="start" dominant-baseline="alphabetic" fill-opacity="1">3.8s</text><text fill="none" stroke="rgb(255,255,255)" font-family="geogebra-sans-serif, sans-serif" font-size="18px" font-style="normal" font-weight="normal" text-decoration="normal" x="1066" y="940" text-anchor="start" dominant-baseline="alphabetic" stroke-opacity="1" stroke-linejoin="bevel" stroke-miterlimit="10" stroke-width="3">3.8s</text><text fill="rgb(37,37,37)" stroke="none" font-family="geogebra-sans-serif, sans-serif" font-size="18px" font-style="normal" font-weight="normal" text-decoration="normal" x="1066" y="940" text-anchor="start" dominant-baseline="alphabetic" fill-opacity="1">3.8s</text><text fill="rgb(37,37,37)" stroke="none" font-family="geogebra-sans-serif, sans-serif" font-size="24px" font-style="normal" font-weight="normal" text-decoration="normal" x="66" y="24" text-anchor="start" dominant-baseline="alphabetic" fill-opacity="1">x</text><text fill="rgb(37,37,37)" stroke="none" font-family="geogebra-sans-serif, sans-serif" font-size="18px" font-style="normal" font-weight="normal" text-decoration="normal" x="12" y="834" text-anchor="start" dominant-baseline="alphabetic" fill-opacity="1">0.2m</text><text fill="none" stroke="rgb(255,255,255)" font-family="geogebra-sans-serif, sans-serif" font-size="18px" font-style="normal" font-weight="normal" text-decoration="normal" x="12" y="834" text-anchor="start" dominant-baseline="alphabetic" stroke-opacity="1" stroke-linejoin="bevel" stroke-miterlimit="10" stroke-width="3">0.2m</text><text fill="rgb(37,37,37)" stroke="none" font-family="geogebra-sans-serif, sans-serif" font-size="18px" font-style="normal" font-weight="normal" text-decoration="normal" x="12" y="834" text-anchor="start" dominant-baseline="alphabetic" fill-opacity="1">0.2m</text><text fill="rgb(37,37,37)" stroke="none" font-family="geogebra-sans-serif, sans-serif" font-size="18px" font-style="normal" font-weight="normal" text-decoration="normal" x="12" y="742" text-anchor="start" dominant-baseline="alphabetic" fill-opacity="1">0.4m</text><text fill="none" stroke="rgb(255,255,255)" font-family="geogebra-sans-serif, sans-serif" font-size="18px" font-style="normal" font-weight="normal" text-decoration="normal" x="12" y="742" text-anchor="start" dominant-baseline="alphabetic" stroke-opacity="1" stroke-linejoin="bevel" stroke-miterlimit="10" stroke-width="3">0.4m</text><text fill="rgb(37,37,37)" stroke="none" font-family="geogebra-sans-serif, sans-serif" font-size="18px" font-style="normal" font-weight="normal" text-decoration="normal" x="12" y="742" text-anchor="start" dominant-baseline="alphabetic" fill-opacity="1">0.4m</text><text fill="rgb(37,37,37)" stroke="none" font-family="geogebra-sans-serif, sans-serif" font-size="18px" font-style="normal" font-weight="normal" text-decoration="normal" x="12" y="650" text-anchor="start" dominant-baseline="alphabetic" fill-opacity="1">0.6m</text><text fill="none" stroke="rgb(255,255,255)" font-family="geogebra-sans-serif, sans-serif" font-size="18px" font-style="normal" font-weight="normal" text-decoration="normal" x="12" y="650" text-anchor="start" dominant-baseline="alphabetic" stroke-opacity="1" stroke-linejoin="bevel" stroke-miterlimit="10" stroke-width="3">0.6m</text><text fill="rgb(37,37,37)" stroke="none" font-family="geogebra-sans-serif, sans-serif" font-size="18px" font-style="normal" font-weight="normal" text-decoration="normal" x="12" y="650" text-anchor="start" dominant-baseline="alphabetic" fill-opacity="1">0.6m</text><text fill="rgb(37,37,37)" stroke="none" font-family="geogebra-sans-serif, sans-serif" font-size="18px" font-style="normal" font-weight="normal" text-decoration="normal" x="12" y="558" text-anchor="start" dominant-baseline="alphabetic" fill-opacity="1">0.8m</text><text fill="none" stroke="rgb(255,255,255)" font-family="geogebra-sans-serif, sans-serif" font-size="18px" font-style="normal" font-weight="normal" text-decoration="normal" x="12" y="558" text-anchor="start" dominant-baseline="alphabetic" stroke-opacity="1" stroke-linejoin="bevel" stroke-miterlimit="10" stroke-width="3">0.8m</text><text fill="rgb(37,37,37)" stroke="none" font-family="geogebra-sans-serif, sans-serif" font-size="18px" font-style="normal" font-weight="normal" text-decoration="normal" x="12" y="558" text-anchor="start" dominant-baseline="alphabetic" fill-opacity="1">0.8m</text><text fill="rgb(37,37,37)" stroke="none" font-family="geogebra-sans-serif, sans-serif" font-size="18px" font-style="normal" font-weight="normal" text-decoration="normal" x="27" y="467" text-anchor="start" dominant-baseline="alphabetic" fill-opacity="1">1m</text><text fill="none" stroke="rgb(255,255,255)" font-family="geogebra-sans-serif, sans-serif" font-size="18px" font-style="normal" font-weight="normal" text-decoration="normal" x="27" y="467" text-anchor="start" dominant-baseline="alphabetic" stroke-opacity="1" stroke-linejoin="bevel" stroke-miterlimit="10" stroke-width="3">1m</text><text fill="rgb(37,37,37)" stroke="none" font-family="geogebra-sans-serif, sans-serif" font-size="18px" font-style="normal" font-weight="normal" text-decoration="normal" x="27" y="467" text-anchor="start" dominant-baseline="alphabetic" fill-opacity="1">1m</text><text fill="rgb(37,37,37)" stroke="none" font-family="geogebra-sans-serif, sans-serif" font-size="18px" font-style="normal" font-weight="normal" text-decoration="normal" x="12" y="375" text-anchor="start" dominant-baseline="alphabetic" fill-opacity="1">1.2m</text><text fill="none" stroke="rgb(255,255,255)" font-family="geogebra-sans-serif, sans-serif" font-size="18px" font-style="normal" font-weight="normal" text-decoration="normal" x="12" y="375" text-anchor="start" dominant-baseline="alphabetic" stroke-opacity="1" stroke-linejoin="bevel" stroke-miterlimit="10" stroke-width="3">1.2m</text><text fill="rgb(37,37,37)" stroke="none" font-family="geogebra-sans-serif, sans-serif" font-size="18px" font-style="normal" font-weight="normal" text-decoration="normal" x="12" y="375" text-anchor="start" dominant-baseline="alphabetic" fill-opacity="1">1.2m</text><text fill="rgb(37,37,37)" stroke="none" font-family="geogebra-sans-serif, sans-serif" font-size="18px" font-style="normal" font-weight="normal" text-decoration="normal" x="12" y="283" text-anchor="start" dominant-baseline="alphabetic" fill-opacity="1">1.4m</text><text fill="none" stroke="rgb(255,255,255)" font-family="geogebra-sans-serif, sans-serif" font-size="18px" font-style="normal" font-weight="normal" text-decoration="normal" x="12" y="283" text-anchor="start" dominant-baseline="alphabetic" stroke-opacity="1" stroke-linejoin="bevel" stroke-miterlimit="10" stroke-width="3">1.4m</text><text fill="rgb(37,37,37)" stroke="none" font-family="geogebra-sans-serif, sans-serif" font-size="18px" font-style="normal" font-weight="normal" text-decoration="normal" x="12" y="283" text-anchor="start" dominant-baseline="alphabetic" fill-opacity="1">1.4m</text><text fill="rgb(37,37,37)" stroke="none" font-family="geogebra-sans-serif, sans-serif" font-size="18px" font-style="normal" font-weight="normal" text-decoration="normal" x="12" y="191" text-anchor="start" dominant-baseline="alphabetic" fill-opacity="1">1.6m</text><text fill="none" stroke="rgb(255,255,255)" font-family="geogebra-sans-serif, sans-serif" font-size="18px" font-style="normal" font-weight="normal" text-decoration="normal" x="12" y="191" text-anchor="start" dominant-baseline="alphabetic" stroke-opacity="1" stroke-linejoin="bevel" stroke-miterlimit="10" stroke-width="3">1.6m</text><text fill="rgb(37,37,37)" stroke="none" font-family="geogebra-sans-serif, sans-serif" font-size="18px" font-style="normal" font-weight="normal" text-decoration="normal" x="12" y="191" text-anchor="start" dominant-baseline="alphabetic" fill-opacity="1">1.6m</text><text fill="rgb(37,37,37)" stroke="none" font-family="geogebra-sans-serif, sans-serif" font-size="18px" font-style="normal" font-weight="normal" text-decoration="normal" x="12" y="99" text-anchor="start" dominant-baseline="alphabetic" fill-opacity="1">1.8m</text><text fill="none" stroke="rgb(255,255,255)" font-family="geogebra-sans-serif, sans-serif" font-size="18px" font-style="normal" font-weight="normal" text-decoration="normal" x="12" y="99" text-anchor="start" dominant-baseline="alphabetic" stroke-opacity="1" stroke-linejoin="bevel" stroke-miterlimit="10" stroke-width="3">1.8m</text><text fill="rgb(37,37,37)" stroke="none" font-family="geogebra-sans-serif, sans-serif" font-size="18px" font-style="normal" font-weight="normal" text-decoration="normal" x="12" y="99" text-anchor="start" dominant-baseline="alphabetic" fill-opacity="1">1.8m</text><text fill="rgb(37,37,37)" stroke="none" font-family="geogebra-sans-serif, sans-serif" font-size="18px" font-style="normal" font-weight="normal" text-decoration="normal" x="33" y="940" text-anchor="start" dominant-baseline="alphabetic" fill-opacity="1">0s</text><text fill="none" stroke="rgb(255,255,255)" font-family="geogebra-sans-serif, sans-serif" font-size="18px" font-style="normal" font-weight="normal" text-decoration="normal" x="33" y="940" text-anchor="start" dominant-baseline="alphabetic" stroke-opacity="1" stroke-linejoin="bevel" stroke-miterlimit="10" stroke-width="3">0s</text><text fill="rgb(37,37,37)" stroke="none" font-family="geogebra-sans-serif, sans-serif" font-size="18px" font-style="normal" font-weight="normal" text-decoration="normal" x="33" y="940" text-anchor="start" dominant-baseline="alphabetic" fill-opacity="1">0s</text><path fill="none" stroke="rgb(0,100,0)" paint-order="fill stroke markers" d=" M 61.21821366004594 872.1904826171428 L 62.17968750000001 869.8950447786294 M 62.17968750000001 869.8950447786294 L 64.400390625 864.609209846475 L 66.62109375 859.3455762437034 L 68.841796875 854.1041439703149 L 71.0625 848.8849130263093 M 71.0625 848.8849130263093 L 73.283203125 843.6878834116868 L 75.50390625 838.5130551264473 L 77.724609375 833.3604281705907 L 79.9453125 828.2300025441172 L 82.166015625 823.1217782470266 L 84.38671875 818.035755279319 L 86.607421875 812.9719336409945 L 88.828125 807.930313332053 L 91.048828125 802.9108943524943 L 93.26953125 797.9136767023188 L 97.7109375 787.9858453901167 L 102.15234375 778.1468193954465 L 106.59375 768.3965987183084 L 111.03515625 758.7351833587022 L 115.4765625 749.162573316628 L 119.91796875 739.6787685920858 L 124.359375 730.2837691850757 L 128.80078125 720.9775750955974 L 133.2421875 711.7601863236512 L 137.68359375 702.631602869237 L 142.125 693.5918247323548 M 142.125 693.5918247323548 L 146.56640625 684.6408519130046 L 151.0078125 675.7786844111863 L 155.44921875 667.0053222269 L 159.890625 658.3207653601457 L 164.33203125 649.7250138109234 L 168.7734375 641.2180675792332 L 173.21484375 632.799926665075 L 177.65625 624.4705910684486 L 182.09765625 616.2300607893542 L 186.5390625 608.078335827792 L 190.98046875 600.0154161837615 L 195.42187500000003 592.0413018572632 L 199.86328125000003 584.1559928482968 L 204.30468750000003 576.3594891568625 L 208.74609375000003 568.6517907829601 L 213.18750000000003 561.0328977265897 L 217.62890625000003 553.5028099877513 L 222.07031250000003 546.061527566445 L 226.51171875 538.7090504626706 L 230.95312500000003 531.4453786764282 L 235.39453125000003 524.2705122077176 L 239.8359375 517.1844510565393 L 244.27734375 510.1871952228928 L 248.71875 503.2787447067783 L 253.16015625 496.45909950819583 L 257.6015625 489.72825962714523 L 262.04296875 483.0862250636267 L 266.484375 476.5329958176403 L 270.92578125 470.06857188918576 L 275.3671875 463.69295327826325 L 279.80859375 457.4061399848727 L 284.25 451.2081320090142 M 284.25 451.2081320090142 L 288.69140625 445.09892935068757 L 293.1328125 439.078532009893 L 297.57421875 433.14693998663046 L 302.015625 427.3041532808999 L 306.45703125 421.5501718927013 L 310.8984375 415.8849958220347 L 315.33984375 410.30862506890014 L 319.78125 404.8210596332975 L 324.22265625 399.42229951522677 L 328.6640625 394.1123447146881 L 333.10546875 388.89119523168154 L 337.546875 383.75885106620683 L 341.98828125 378.7153122182641 L 346.4296875 373.76057868785347 L 350.87109374999994 368.8946504749748 L 355.3125 364.11752757962813 L 359.75390624999994 359.42921000181343 L 364.1953125 354.8296977415307 L 368.63671874999994 350.31899079877996 L 373.07812499999994 345.8970891735612 L 377.51953125 341.5639928658744 L 381.9609375 337.3197018757197 L 386.40234375 333.1642162030969 L 390.84375 329.09753584800615 L 395.28515625 325.1196608104474 L 399.7265625 321.2305910904207 L 404.16796875 317.4303266879258 L 408.609375 313.7188676029631 L 413.05078125 310.0962138355321 L 417.49218749999994 306.56236538563337 L 421.93359375 303.1173222532665 L 426.37499999999994 299.7610844384317 L 430.81640625 296.49365194112886 L 435.25781249999994 293.315024761358 L 439.69921875 290.22520289911915 L 444.140625 287.22418635441215 L 448.58203125 284.31197512723725 L 453.0234375 281.4885692175941 L 457.46484375 278.7539686254835 L 461.90625 276.1081733509043 L 466.34765625 273.5511833938575 L 470.7890625 271.0829987543426 L 475.23046875 268.70361943235946 L 479.671875 266.41304542790874 L 484.11328124999994 264.21127674098966 L 488.5546875 262.0983133716028 L 492.99609374999994 260.07415531974766 L 497.4375 258.13880258542474 L 501.87890624999994 256.2922551686337 L 506.3203125 254.5345130693746 L 510.76171875 252.8655762876475 L 515.2031250000001 251.28544482345262 L 519.64453125 249.79411867678948 L 524.0859375 248.39159784765832 L 528.52734375 247.07788233605936 L 532.96875 245.85297214199215 L 537.41015625 244.71686726545715 L 541.8515625 243.6695677064539 L 546.29296875 242.71107346498286 L 550.734375 241.84138454104368 L 555.17578125 241.0605009346367 L 559.6171875 240.36842264576148 L 564.05859375 239.76514967441835 L 568.5 239.2506820206071 M 568.5 239.2506820206071 L 572.94140625 238.8250196843279 L 577.3828125 238.48816266558072 L 581.82421875 238.2401109643655 L 586.265625 238.08086458068237 L 590.70703125 238.010423514531 L 595.1484375 238.02878776591194 L 599.5898437499999 238.13595733482464 L 604.03125 238.33193222126943 L 608.4726562499999 238.61671242524608 L 612.9140625 238.99029794675494 L 617.35546875 239.45268878579554 L 621.796875 240.00388494236836 L 626.23828125 240.64388641647304 L 630.6796875 241.3726932081097 L 635.12109375 242.19030531727833 L 639.5625 243.09672274397906 L 644.00390625 244.09194548821188 L 648.4453124999999 245.17597354997633 L 652.88671875 246.348806929273 L 657.3281249999999 247.61044562610175 L 661.76953125 248.96088964046237 L 666.2109374999999 250.40013897235485 L 670.65234375 251.92819362177954 L 675.0937499999999 253.5450535887361 L 679.53515625 255.25071887322486 L 683.9765625 257.04518947524525 L 688.41796875 258.92846539479797 L 692.859375 260.90054663188243 L 697.30078125 262.961433186499 L 701.7421875 265.11112505864753 L 706.18359375 267.34962224832805 L 710.625 269.67692475554054 L 715.0664062499999 272.09303258028524 L 719.5078125 274.5979457225616 L 723.94921875 277.1916641823701 L 728.390625 279.8741879597105 L 732.8320312499999 282.64551705458314 L 737.2734375 285.5056514669875 L 741.7148437499999 288.45459119692407 L 746.15625 291.4923362443925 L 750.59765625 294.61888660939314 L 755.0390625 297.8342422919254 L 759.48046875 301.1384032919898 L 763.9218749999999 304.53136960958614 L 768.36328125 308.01314124471446 L 772.8046875 311.5837181973751 L 777.24609375 315.2431004675674 L 781.6874999999999 318.99128805529165 L 786.12890625 322.8282809605481 L 790.5703125 326.75407918333667 L 795.01171875 330.76868272365687 L 799.4531249999999 334.87209158150904 L 803.89453125 339.0643057568934 L 808.3359374999999 343.34532524980955 L 812.77734375 347.7151500602582 L 817.21875 352.1737801882383 L 821.66015625 356.72121563375094 L 826.1015625 361.357456396795 L 830.54296875 366.08250247737135 L 834.984375 370.89635387547935 L 839.42578125 375.7990105911199 L 843.8671875 380.79047262429185 L 848.3085937499999 385.87073997499624 L 852.75 391.03981264323215 L 857.19140625 396.29769062900084 L 861.6328125 401.6443739323008 L 866.0742187499999 407.0798625531329 L 870.515625 412.60415649149735 L 874.9570312500001 418.2172557473935 L 879.3984375 423.91916032082156 L 883.83984375 429.7098702117814 L 888.28125 435.5893854202739 L 892.72265625 441.5577059462982 L 897.1640624999999 447.61483178985395 L 901.60546875 453.7607629509421 L 906.046875 459.9954994295623 L 910.48828125 466.31904122571433 L 914.9296874999999 472.7313883393982 L 919.37109375 479.23254077061443 L 923.8125 485.8224985193628 L 928.25390625 492.5012615856427 L 932.6953124999999 499.2688299694545 L 937.13671875 506.1252036707986 L 941.5781250000001 513.0703826896752 L 946.01953125 520.1043670260829 L 950.4609375 527.2271566800226 L 954.90234375 534.4387516514946 L 959.34375 541.7391519404985 L 963.7851562499999 549.1283575470343 L 968.2265625 556.6063684711028 L 972.66796875 564.1731847127026 L 977.109375 571.8288062718343 L 981.5507812499999 579.5732331484978 L 985.9921875 587.4064653426947 L 990.43359375 595.3285028544225 L 994.875 603.3393456836818 L 999.3164062499999 611.4389938304736 L 1003.7578125 619.627447294798 L 1008.1992187500001 627.9047060766536 L 1012.640625 636.2707701760415 L 1017.08203125 644.7256395929614 L 1021.5234375 653.2693143274136 L 1025.9648437500002 661.9017943793972 L 1030.40625 670.6230797489129 L 1034.84765625 679.4331704359604 L 1039.2890625 688.3320664405408 L 1043.73046875 697.3197677626525 L 1048.171875 706.3962744022958 L 1052.61328125 715.5615863594714 L 1057.0546875 724.81570363418 L 1061.49609375 734.1586262264194 L 1065.9375 743.5903541361909 L 1070.37890625 753.1108873634946 L 1074.8203125000002 762.7202259083308 L 1079.26171875 772.4183697706984 L 1083.703125 782.205318950598 L 1088.14453125 792.0810734480294 L 1092.5859375 802.0456332629936 L 1094.806640625 807.0612151645499 L 1097.02734375 812.0989983954894 L 1099.248046875 817.1589829558114 L 1101.46875 822.2411688455167 L 1103.689453125 827.3455560646053 L 1105.91015625 832.4721446130762 L 1108.130859375 837.6209344909303 L 1110.3515625 842.7919256981677 L 1112.572265625 847.9851182347887 L 1114.79296875 853.2005121007916 L 1117.013671875 858.4381072961779 L 1119.234375 863.6979038209473 L 1121.455078125 868.9799016750999 L 1123.67578125 874.284100858635 L 1125.896484375 879.6105013715529 L 1128.1171875 884.9591032138543 L 1130.337890625 890.3299063855392 L 1132.55859375 895.7229108866063 L 1134.779296875 901.1381167170565 L 1137 906.5755238768897" stroke-opacity="0.6980392156862745" stroke-linecap="round" stroke-linejoin="round" stroke-miterlimit="10" stroke-width="2.5"/></g></g></svg>