<?xml version="1.0" encoding="UTF-8" standalone="no"?>
<svg
   xmlns:dc="http://purl.org/dc/elements/1.1/"
   xmlns:cc="http://creativecommons.org/ns#"
   xmlns:rdf="http://www.w3.org/1999/02/22-rdf-syntax-ns#"
   xmlns:svg="http://www.w3.org/2000/svg"
   xmlns="http://www.w3.org/2000/svg"
   width="173.39569mm"
   height="86.164383mm"
   viewBox="0 0 173.39569 86.164383"
   version="1.1"
   id="svg8">
  <defs
     id="defs2">
    <clipPath
       clipPathUnits="userSpaceOnUse"
       id="clipEmfPath1">
      <path
         d="M -14.559244,-9.5995014 H 649.88625 V 323.18321 H -14.559244 Z"
         id="path833" />
    </clipPath>
    <pattern
       id="EMFhbasepattern"
       patternUnits="userSpaceOnUse"
       width="6"
       height="6"
       x="0"
       y="0" />
  </defs>
  <metadata
     id="metadata5">
    <rdf:RDF>
      <cc:Work
         rdf:about="">
        <dc:format>image/svg+xml</dc:format>
        <dc:type
           rdf:resource="http://purl.org/dc/dcmitype/StillImage" />
        <dc:title></dc:title>
      </cc:Work>
    </rdf:RDF>
  </metadata>
  <g
     id="layer1"
     transform="translate(9.5907061,-132.29877)">
    <path
       style="fill:#a5a5a5;fill-opacity:1;fill-rule:evenodd;stroke:none;stroke-width:0.264583"
       d="m 87.898535,217.28198 -0.201073,-1.9049 74.714458,-7.77834 0.20107,1.9049 z"
       id="path839" />
    <path
       style="fill:#858585;fill-opacity:1;fill-rule:evenodd;stroke:none;stroke-width:0.264583"
       d="M 87.697462,215.37708 5.7338009,148.87487 80.448255,141.09652 162.41192,207.59874 Z"
       id="path841" />
    <path
       style="fill:#b7b7b7;fill-opacity:1;fill-rule:evenodd;stroke:none;stroke-width:0.264583"
       d="M 87.893243,217.28198 5.9295829,150.77448 5.7285099,148.87487 87.692171,215.37708 Z"
       id="path843" />
    <path
       style="fill:none;stroke:#787878;stroke-width:1.31993px;stroke-linecap:butt;stroke-linejoin:miter;stroke-miterlimit:8;stroke-dasharray:none;stroke-opacity:1"
       clip-path="url(#clipEmfPath1)"
       d="M 366.66096,322.38326 56.877046,71.03631 56.117085,63.836684 338.50242,34.438211 648.28633,285.78516 l 0.75996,7.19962 z"
       id="path845"
       transform="matrix(0.26458333,0,0,0.26458333,-9.1138441,131.98475)" />
    <path
       style="fill:none;stroke:#787878;stroke-width:1.31993px;stroke-linecap:butt;stroke-linejoin:miter;stroke-miterlimit:8;stroke-dasharray:none;stroke-opacity:1"
       clip-path="url(#clipEmfPath1)"
       d="M 366.66096,322.38326 365.901,315.18363 56.117085,63.836684"
       id="path847"
       transform="matrix(0.26458333,0,0,0.26458333,-9.1138441,131.98475)" />
    <path
       style="fill:none;stroke:#787878;stroke-width:1.31993px;stroke-linecap:butt;stroke-linejoin:miter;stroke-miterlimit:8;stroke-dasharray:none;stroke-opacity:1"
       clip-path="url(#clipEmfPath1)"
       d="M 365.901,315.18363 648.28633,285.78516"
       id="path849"
       transform="matrix(0.26458333,0,0,0.26458333,-9.1138441,131.98475)" />
    <path
       style="fill:#2f5597;fill-opacity:1;fill-rule:evenodd;stroke:none;stroke-width:0.264583"
       d="m 57.049719,155.76955 c 2.111267,-0.20636 3.555815,-3.069 3.22775,-6.38671 -0.328067,-3.3177 -2.301756,-5.84169 -4.413022,-5.63004 l 23.816556,-2.34938 c 2.111264,-0.21165 4.084955,2.31234 4.413019,5.63004 0.328068,3.31771 -1.116483,6.18035 -3.227747,6.38671 z"
       id="path851" />
    <path
       style="fill:#8299c1;fill-opacity:1;fill-rule:evenodd;stroke:none;stroke-width:0.264583"
       d="m 57.049719,155.76691 c -2.105972,0.20901 -4.079663,-2.31234 -4.407728,-5.63269 -0.328068,-3.3177 1.116483,-6.1777 3.222456,-6.38406 2.10862,-0.20901 4.082309,2.31233 4.410376,5.63268 0.328065,3.31771 -1.116483,6.1777 -3.225104,6.38407 z"
       id="path853" />
    <path
       style="fill:none;stroke:#000000;stroke-width:0.174616px;stroke-linecap:butt;stroke-linejoin:miter;stroke-miterlimit:8;stroke-dasharray:none;stroke-opacity:1"
       d="m 55.864447,143.7528 c 2.111266,-0.21165 4.084955,2.31234 4.413022,5.63004 0.328065,3.31771 -1.116483,6.18035 -3.22775,6.38671 -2.105972,0.20637 -4.079663,-2.31234 -4.407728,-5.63533 -0.328068,-3.3177 1.116483,-6.17505 3.222456,-6.38142 z m 0,0 23.816556,-2.34938 c 2.111264,-0.21165 4.084955,2.31234 4.413019,5.63004 0.328068,3.31771 -1.116483,6.18035 -3.227747,6.38671 l -23.816556,2.34938"
       id="path855" />
    <path
       style="fill:#ff0000;fill-opacity:1;fill-rule:evenodd;stroke:none;stroke-width:0.264583"
       d="m 22.708586,159.63227 c 2.10862,-0.20637 3.553171,-3.06636 3.225104,-6.38407 -0.328068,-3.32034 -2.301756,-5.84169 -4.407728,-5.63268 l 23.816553,-2.34938 c 2.105975,-0.20901 4.079663,2.31234 4.407728,5.63269 0.328068,3.3177 -1.116483,6.1777 -3.222455,6.38406 z"
       id="path861" />
    <path
       style="fill:#ff6666;fill-opacity:1;fill-rule:evenodd;stroke:none;stroke-width:0.264583"
       d="m 22.708586,159.63227 c -2.105973,0.20901 -4.079664,-2.31499 -4.407728,-5.63269 -0.328068,-3.3177 1.116483,-6.1777 3.225104,-6.38406 2.105972,-0.20901 4.07966,2.31234 4.407728,5.63268 0.328067,3.31771 -1.116484,6.1777 -3.225104,6.38407 z"
       id="path863" />
    <path
       style="fill:none;stroke:#000000;stroke-width:0.177262px;stroke-linecap:butt;stroke-linejoin:miter;stroke-miterlimit:8;stroke-dasharray:none;stroke-opacity:1"
       d="m 21.525962,147.61552 c 2.105972,-0.20901 4.07966,2.31234 4.407728,5.63268 0.328067,3.31771 -1.116484,6.1777 -3.225104,6.38407 -2.105973,0.20901 -4.079664,-2.31499 -4.407728,-5.63269 -0.328068,-3.3177 1.116483,-6.1777 3.225104,-6.38406 z m 0,0 23.816553,-2.34938 c 2.105975,-0.20901 4.079663,2.31234 4.407728,5.63269 0.328068,3.3177 -1.116483,6.1777 -3.222455,6.38406 l -23.819202,2.34938"
       id="path865" />
    <path
       style="fill:#000000;fill-opacity:1;fill-rule:nonzero;stroke:none;stroke-width:0.264583"
       d="m 20.367145,142.29767 -1.052986,0.11376 0.198427,1.81495 -0.595281,0.0661 -0.492101,-4.4871 1.486881,-0.16403 c 0.505328,-0.0556 0.907474,0.0185 1.203794,0.21959 0.296317,0.19843 0.470932,0.51856 0.518554,0.95774 0.03175,0.28045 -0.01852,0.53179 -0.145513,0.75667 -0.129638,0.22489 -0.322773,0.40215 -0.579406,0.53443 l 1.261997,1.78849 0.0026,0.037 -0.634968,0.0688 z m -1.1059,-0.3704 0.907473,-0.0979 c 0.293672,-0.0317 0.521203,-0.13493 0.677299,-0.3069 0.156096,-0.16932 0.222239,-0.38363 0.193135,-0.64026 -0.0291,-0.2778 -0.137575,-0.48151 -0.317484,-0.61115 -0.182552,-0.12964 -0.428601,-0.17991 -0.740794,-0.14552 l -0.907473,0.0979 z m 3.103401,0.26986 c -0.03439,-0.32806 -0.0026,-0.62967 0.09789,-0.90218 0.09789,-0.27515 0.256633,-0.49739 0.468289,-0.66407 0.214302,-0.16668 0.468289,-0.26721 0.76196,-0.29896 0.45506,-0.0503 0.838687,0.0688 1.153523,0.35187 0.314838,0.28309 0.500039,0.68524 0.558242,1.20644 l 0.0053,0.0423 c 0.0344,0.32278 0.0053,0.62174 -0.0926,0.89425 -0.09524,0.26986 -0.251341,0.48945 -0.465642,0.65878 -0.216948,0.16932 -0.473578,0.26986 -0.772544,0.30425 -0.452414,0.0503 -0.836038,-0.0688 -1.150877,-0.35188 -0.314838,-0.28309 -0.502682,-0.68259 -0.558241,-1.20114 z m 0.582054,0.005 c 0.03968,0.36775 0.158742,0.65613 0.354523,0.8625 0.195781,0.20372 0.439185,0.29103 0.724919,0.25928 0.291028,-0.0317 0.507973,-0.16933 0.653489,-0.41538 0.145513,-0.24605 0.195781,-0.57411 0.150805,-0.98155 -0.03969,-0.36775 -0.158743,-0.65349 -0.357169,-0.8625 -0.198427,-0.20636 -0.441833,-0.29631 -0.730213,-0.26457 -0.280443,0.0318 -0.494745,0.16933 -0.642904,0.41009 -0.148158,0.2434 -0.198426,0.57411 -0.15345,0.99213 z m 3.994999,1.21173 -0.57147,0.0608 -0.518555,-4.73315 0.571469,-0.0635 z m 1.513338,-0.16668 -0.568823,0.0635 -0.518557,-4.73579 0.568825,-0.0608 z m 2.285883,-0.18784 c -0.452413,0.0503 -0.836041,-0.0582 -1.150879,-0.32542 -0.317484,-0.26457 -0.502682,-0.64555 -0.555596,-1.14294 l -0.01323,-0.10584 c -0.03439,-0.33071 -0.0053,-0.63232 0.0926,-0.90747 0.09789,-0.27251 0.253987,-0.49475 0.462995,-0.66672 0.211656,-0.17197 0.44977,-0.27251 0.714338,-0.30161 0.433895,-0.0476 0.785773,0.0582 1.05828,0.31749 0.272505,0.25927 0.436539,0.65348 0.494745,1.18791 l 0.02645,0.23547 -2.259422,0.2487 c 0.04498,0.32806 0.169322,0.58205 0.375687,0.7646 0.206364,0.18255 0.452416,0.25663 0.735504,0.22753 0.201073,-0.0238 0.367753,-0.082 0.497391,-0.17991 0.12964,-0.0979 0.240757,-0.21959 0.330713,-0.36775 l 0.378333,0.23282 c -0.23282,0.46035 -0.627028,0.72228 -1.187916,0.78313 z m -0.396856,-2.98171 c -0.230174,0.0238 -0.415372,0.12964 -0.55295,0.31484 -0.137576,0.1852 -0.209011,0.4286 -0.211656,0.7355 l 1.669436,-0.18255 -0.0053,-0.0423 c -0.04761,-0.28838 -0.150796,-0.50533 -0.306893,-0.6482 -0.156096,-0.14551 -0.354523,-0.20372 -0.592637,-0.17726 z m 5.788784,2.32821 -0.574117,0.0635 -0.415374,-3.79922 -1.103255,0.54766 -0.05821,-0.51855 1.566251,-0.79107 0.08995,-0.0106 z"
       id="path871" />
    <path
       style="fill:#000000;fill-opacity:1;fill-rule:nonzero;stroke:none;stroke-width:0.264583"
       d="m 56.838063,137.45075 -1.052986,0.0952 0.169325,1.82024 -0.597929,0.0529 -0.418018,-4.49239 1.486879,-0.13758 c 0.507974,-0.0476 0.910122,0.0318 1.201148,0.23283 0.296317,0.20636 0.460351,0.52913 0.502681,0.97361 0.02646,0.27515 -0.02646,0.52914 -0.158742,0.75138 -0.132283,0.22224 -0.328064,0.39685 -0.587343,0.52385 l 1.232892,1.80965 0.0053,0.037 -0.634966,0.0582 z m -1.100608,-0.38627 0.910119,-0.0847 c 0.296317,-0.0317 0.523848,-0.12699 0.68259,-0.29632 0.158742,-0.16932 0.227529,-0.38098 0.206365,-0.63496 -0.02646,-0.28045 -0.132287,-0.48681 -0.312193,-0.6191 -0.179909,-0.13228 -0.423312,-0.1852 -0.735505,-0.15874 l -0.910119,0.0847 z m 3.100755,0.31749 c -0.03175,-0.32807 0.0053,-0.62968 0.111119,-0.89954 0.105829,-0.27515 0.264571,-0.4921 0.481516,-0.65613 0.216947,-0.16404 0.470934,-0.25928 0.767252,-0.28574 0.455059,-0.0423 0.836041,0.0794 1.148233,0.3704 0.306901,0.28573 0.486807,0.69317 0.534429,1.21702 l 0.0053,0.037 c 0.03175,0.32807 -0.0053,0.62438 -0.105828,0.89424 -0.100536,0.26987 -0.259278,0.48681 -0.476224,0.65085 -0.222239,0.16932 -0.481517,0.26457 -0.777835,0.29102 -0.455059,0.0423 -0.836041,-0.0794 -1.148233,-0.3704 -0.306901,-0.28573 -0.486807,-0.69317 -0.53443,-1.21172 z m 0.582054,0.0159 c 0.03175,0.3704 0.148159,0.65613 0.338648,0.86779 0.195781,0.20636 0.433893,0.29632 0.71963,0.26986 0.291026,-0.0265 0.513265,-0.15874 0.661424,-0.40215 0.148158,-0.2434 0.206364,-0.57147 0.169325,-0.9789 -0.03704,-0.3704 -0.148161,-0.65614 -0.343942,-0.86779 -0.195781,-0.21166 -0.439185,-0.3069 -0.724919,-0.28045 -0.280445,0.0265 -0.497393,0.16404 -0.650843,0.40215 -0.153451,0.23811 -0.211656,0.57147 -0.169323,0.98949 z m 3.973835,1.27523 -0.571471,0.0529 -0.439187,-4.74109 0.571471,-0.0529 z m 1.518629,-0.13758 -0.571471,0.0529 -0.444476,-4.74638 0.571471,-0.0529 z m 2.285881,-0.15345 c -0.449768,0.0423 -0.836041,-0.0741 -1.148233,-0.34394 -0.306901,-0.26986 -0.486807,-0.65613 -0.534429,-1.15352 l -0.01058,-0.10583 c -0.03175,-0.32807 0.0053,-0.62968 0.105828,-0.90483 0.105828,-0.26986 0.26457,-0.4921 0.476226,-0.66142 0.211656,-0.16404 0.45506,-0.26457 0.71963,-0.28574 0.433893,-0.0423 0.783124,0.0688 1.052986,0.33336 0.26457,0.26457 0.423312,0.66142 0.476226,1.19585 l 0.02116,0.23812 -2.264714,0.21165 c 0.04233,0.32807 0.158742,0.58205 0.365104,0.76725 0.201075,0.1852 0.444479,0.26457 0.730213,0.23812 0.201073,-0.0159 0.370398,-0.0741 0.502682,-0.16933 0.132286,-0.0952 0.243403,-0.21695 0.333359,-0.35981 l 0.375687,0.23811 c -0.238108,0.45506 -0.640253,0.70905 -1.201141,0.76196 z m -0.349231,-2.98964 c -0.227531,0.0265 -0.412729,0.127 -0.555596,0.3069 -0.142867,0.1852 -0.216948,0.42861 -0.227531,0.73551 l 1.677371,-0.15874 -0.0053,-0.0423 c -0.04232,-0.28573 -0.142859,-0.50797 -0.296309,-0.65084 -0.158742,-0.14816 -0.354524,-0.21165 -0.592635,-0.19049 z m 6.820604,2.32822 -2.947305,0.27515 -0.03704,-0.41273 1.391637,-1.87315 c 0.206364,-0.28574 0.349231,-0.51327 0.41802,-0.68259 0.07408,-0.16933 0.100537,-0.34394 0.08466,-0.51856 -0.02116,-0.23811 -0.11112,-0.42331 -0.26457,-0.56089 -0.15874,-0.13228 -0.354524,-0.19049 -0.587344,-0.16932 -0.285734,0.0265 -0.49739,0.12699 -0.640257,0.30161 -0.14287,0.17991 -0.201073,0.40743 -0.174617,0.69846 l -0.571471,0.0529 c -0.03704,-0.41273 0.0635,-0.76196 0.306901,-1.04241 0.243403,-0.28044 0.587346,-0.43918 1.031822,-0.48152 0.418021,-0.037 0.76196,0.0423 1.021239,0.23812 0.26457,0.19578 0.412729,0.47622 0.449768,0.84133 0.03704,0.43918 -0.195781,0.99478 -0.698463,1.6562 l -1.084736,1.4181 2.254133,-0.20637 z"
       id="path873" />
    <text
       xml:space="preserve"
       style="font-style:normal;font-variant:normal;font-weight:400;font-size:6.35px;line-height:125%;font-family:Roboto;text-align:start;letter-spacing:0px;word-spacing:0px;text-anchor:start;fill:#000000;fill-opacity:1;stroke:none;stroke-width:0.264583"
       x="-9.1109829"
       y="145.26277"
       id="text879"><tspan
         x="-9.1109829"
         y="145.26277"
         id="tspan877"
         style="stroke-width:0.264583"><tspan
           dx="0"
           dy="0"
           style="font-style:normal;font-variant:normal;font-weight:400;font-size:6.35px;font-family:Roboto;fill:#ff0000;stroke-width:0.264583"
           id="tspan875">Holz</tspan></tspan></text>
    <text
       xml:space="preserve"
       style="font-style:normal;font-variant:normal;font-weight:400;font-size:6.35px;line-height:125%;font-family:Roboto;text-align:start;letter-spacing:0px;word-spacing:0px;text-anchor:start;fill:#000000;fill-opacity:1;stroke:none;stroke-width:0.264583"
       x="-9.1147051"
       y="164.61047"
       id="text885"><tspan
         x="-9.1147051"
         y="164.61047"
         id="tspan883"
         style="stroke-width:0.264583"><tspan
           dx="0"
           dy="0"
           style="font-style:normal;font-variant:normal;font-weight:400;font-size:6.35px;font-family:Roboto;fill:#2f5597;stroke-width:0.264583"
           id="tspan881">Eisen</tspan></tspan></text>
    <path
       style="fill:none;stroke:#ff0000;stroke-width:0.338649px;stroke-linecap:butt;stroke-linejoin:miter;stroke-miterlimit:8;stroke-dasharray:none;stroke-opacity:1"
       d="m 4.9189269,145.55188 17.0806121,3.66164"
       id="path887" />
    <ellipse
       style="fill:#8299c1;fill-opacity:1;stroke:#f55597;stroke-width:0;stroke-miterlimit:4;stroke-dasharray:none;stroke-opacity:1"
       id="path926"
       cx="8.5484695"
       cy="154.88058"
       rx="1.6491258"
       ry="2.9645925"
       transform="matrix(0.99620697,-0.08701536,0.08619126,0.99627861,0,0)" />
    <path
       style="fill:none;stroke:#2f5597;stroke-width:0.338649px;stroke-linecap:butt;stroke-linejoin:miter;stroke-miterlimit:8;stroke-dasharray:none;stroke-opacity:1"
       d="M 7.4164639,161.34139 21.928107,154.56841"
       id="path889" />
    <ellipse
       style="fill:#ff6c6c;fill-opacity:1;stroke:#f55597;stroke-width:0;stroke-miterlimit:4;stroke-dasharray:none;stroke-opacity:1"
       id="path930"
       cx="42.347675"
       cy="154.61244"
       rx="2.9248381"
       ry="4.8929696"
       transform="matrix(0.99510139,-0.0988596,0.09226614,0.99573438,0,0)" />
  </g>
</svg>
