<?xml version="1.0" encoding="UTF-8" standalone="no"?>
<!DOCTYPE svg PUBLIC "-//W3C//DTD SVG 1.1//EN" "http://www.w3.org/Graphics/SVG/1.1/DTD/svg11.dtd">
<svg xmlns="http://www.w3.org/2000/svg" viewBox="0 0 650 400" version="1.1"><clipPath id="box"><rect x="0" y="0" width="650" height="400" style="fill:none;stroke:none;"/></clipPath><g clip-path="url(#box)"><rect x="0.00" y="0.00" width="650.00" height="400.00" style="fill:#FFFFFF;stroke:none;"/><path d="M0.00 400.00 L650.00 400.00 M0.00 360.00 L650.00 360.00 M0.00 320.00 L650.00 320.00 M0.00 280.00 L650.00 280.00 M0.00 240.00 L650.00 240.00 M0.00 200.00 L650.00 200.00 M0.00 160.00 L650.00 160.00 M0.00 120.00 L650.00 120.00 M0.00 79.00 L650.00 79.00 M0.00 39.00 L650.00 39.00 M0.00 0.00 L650.00 0.00 M0.00 0.00 L0.00 400.00 M43.00 0.00 L43.00 400.00 M86.00 0.00 L86.00 400.00 M130.00 0.00 L130.00 400.00 M173.00 0.00 L173.00 400.00 M216.00 0.00 L216.00 400.00 M260.00 0.00 L260.00 400.00 M303.00 0.00 L303.00 400.00 M346.00 0.00 L346.00 400.00 M390.00 0.00 L390.00 400.00 M433.00 0.00 L433.00 400.00 M476.00 0.00 L476.00 400.00 M520.00 0.00 L520.00 400.00 M563.00 0.00 L563.00 400.00 M606.00 0.00 L606.00 400.00 " style="fill:none;stroke:#D0D0D0;stroke-width:1;"/><path d="M0.00 0.00 L0.00 400.00 " style="fill:none;stroke:#000000;stroke-width:1;"/><path d="M-6.50 400.00 L6.50 400.00 M-6.50 360.00 L6.50 360.00 M-6.50 320.00 L6.50 320.00 M-6.50 280.00 L6.50 280.00 M-6.50 240.00 L6.50 240.00 M-6.50 200.00 L6.50 200.00 M-6.50 160.00 L6.50 160.00 M-6.50 120.00 L6.50 120.00 M-6.50 80.00 L6.50 80.00 M-6.50 40.00 L6.50 40.00 M-6.50 0.00 L6.50 0.00 " style="fill:none;stroke:#000000;stroke-width:1;"/><path d="M0.00 400.00 L650.00 400.00 " style="fill:none;stroke:#000000;stroke-width:1;"/><path d="M0.00 393.50 L0.00 406.50 M43.33 393.50 L43.33 406.50 M86.67 393.50 L86.67 406.50 M130.00 393.50 L130.00 406.50 M173.33 393.50 L173.33 406.50 M216.67 393.50 L216.67 406.50 M260.00 393.50 L260.00 406.50 M303.33 393.50 L303.33 406.50 M346.67 393.50 L346.67 406.50 M390.00 393.50 L390.00 406.50 M433.33 393.50 L433.33 406.50 M476.67 393.50 L476.67 406.50 M520.00 393.50 L520.00 406.50 M563.33 393.50 L563.33 406.50 M606.67 393.50 L606.67 406.50 " style="fill:none;stroke:#000000;stroke-width:1;"/><text x="8.125" y="362.5" text-anchor="start" style="font:10px Droid Sans,Trebuchet MS,Arial,Helvetica,sans-serif;stroke:none;fill:#000000">2</text><text x="8.125" y="322.5" text-anchor="start" style="font:10px Droid Sans,Trebuchet MS,Arial,Helvetica,sans-serif;stroke:none;fill:#000000">4</text><text x="8.125" y="282.5" text-anchor="start" style="font:10px Droid Sans,Trebuchet MS,Arial,Helvetica,sans-serif;stroke:none;fill:#000000">6</text><text x="8.125" y="242.5" text-anchor="start" style="font:10px Droid Sans,Trebuchet MS,Arial,Helvetica,sans-serif;stroke:none;fill:#000000">8</text><text x="8.125" y="202.5" text-anchor="start" style="font:10px Droid Sans,Trebuchet MS,Arial,Helvetica,sans-serif;stroke:none;fill:#000000">10</text><text x="8.125" y="162.5" text-anchor="start" style="font:10px Droid Sans,Trebuchet MS,Arial,Helvetica,sans-serif;stroke:none;fill:#000000">12</text><text x="8.125" y="122.5" text-anchor="start" style="font:10px Droid Sans,Trebuchet MS,Arial,Helvetica,sans-serif;stroke:none;fill:#000000">14</text><text x="8.125" y="82.5" text-anchor="start" style="font:10px Droid Sans,Trebuchet MS,Arial,Helvetica,sans-serif;stroke:none;fill:#000000">16</text><text x="8.125" y="42.5" text-anchor="start" style="font:10px Droid Sans,Trebuchet MS,Arial,Helvetica,sans-serif;stroke:none;fill:#000000">18</text><text x="43.333333333333336" y="389.625" text-anchor="middle" style="font:10px Droid Sans,Trebuchet MS,Arial,Helvetica,sans-serif;stroke:none;fill:#000000">0.2</text><text x="86.66666666666667" y="389.625" text-anchor="middle" style="font:10px Droid Sans,Trebuchet MS,Arial,Helvetica,sans-serif;stroke:none;fill:#000000">0.4</text><text x="130.00000000000003" y="389.625" text-anchor="middle" style="font:10px Droid Sans,Trebuchet MS,Arial,Helvetica,sans-serif;stroke:none;fill:#000000">0.6</text><text x="173.33333333333334" y="389.625" text-anchor="middle" style="font:10px Droid Sans,Trebuchet MS,Arial,Helvetica,sans-serif;stroke:none;fill:#000000">0.8</text><text x="216.66666666666666" y="389.625" text-anchor="middle" style="font:10px Droid Sans,Trebuchet MS,Arial,Helvetica,sans-serif;stroke:none;fill:#000000">1</text><text x="260" y="389.625" text-anchor="middle" style="font:10px Droid Sans,Trebuchet MS,Arial,Helvetica,sans-serif;stroke:none;fill:#000000">1.2</text><text x="303.3333333333333" y="389.625" text-anchor="middle" style="font:10px Droid Sans,Trebuchet MS,Arial,Helvetica,sans-serif;stroke:none;fill:#000000">1.4</text><text x="346.6666666666667" y="389.625" text-anchor="middle" style="font:10px Droid Sans,Trebuchet MS,Arial,Helvetica,sans-serif;stroke:none;fill:#000000">1.6</text><text x="390" y="389.625" text-anchor="middle" style="font:10px Droid Sans,Trebuchet MS,Arial,Helvetica,sans-serif;stroke:none;fill:#000000">1.8</text><text x="433.3333333333333" y="389.625" text-anchor="middle" style="font:10px Droid Sans,Trebuchet MS,Arial,Helvetica,sans-serif;stroke:none;fill:#000000">2</text><text x="476.66666666666663" y="389.625" text-anchor="middle" style="font:10px Droid Sans,Trebuchet MS,Arial,Helvetica,sans-serif;stroke:none;fill:#000000">2.2</text><text x="520" y="389.625" text-anchor="middle" style="font:10px Droid Sans,Trebuchet MS,Arial,Helvetica,sans-serif;stroke:none;fill:#000000">2.4</text><text x="563.3333333333334" y="389.625" text-anchor="middle" style="font:10px Droid Sans,Trebuchet MS,Arial,Helvetica,sans-serif;stroke:none;fill:#000000">2.6</text><text x="606.6666666666667" y="389.625" text-anchor="middle" style="font:10px Droid Sans,Trebuchet MS,Arial,Helvetica,sans-serif;stroke:none;fill:#000000">2.8</text><path d="M-10.00 200.00 L-0.25 240.28 L0.75 239.17 L1.65 238.17 L2.56 237.18 L3.47 236.18 L4.38 235.18 L5.30 234.19 L6.22 233.19 L7.14 232.19 L8.07 231.20 L9.00 230.20 L9.93 229.21 L10.87 228.21 L11.81 227.21 L12.75 226.22 L13.70 225.22 L14.65 224.22 L15.60 223.23 L16.56 222.23 L17.52 221.24 L18.48 220.24 L19.45 219.24 L20.42 218.25 L21.40 217.25 L22.38 216.26 L23.37 215.26 L24.35 214.26 L25.35 213.27 L26.34 212.27 L27.34 211.28 L28.35 210.28 L29.36 209.28 L30.37 208.29 L31.39 207.29 L32.41 206.30 L33.43 205.30 L34.46 204.31 L35.50 203.31 L36.54 202.31 L37.58 201.32 L38.63 200.32 L39.69 199.33 L40.75 198.33 L41.81 197.34 L42.88 196.34 L43.96 195.35 L45.04 194.35 L46.12 193.36 L47.21 192.36 L48.31 191.37 L49.41 190.37 L50.51 189.38 L51.63 188.38 L52.75 187.39 L53.87 186.39 L55.00 185.40 L56.14 184.40 L57.28 183.41 L58.43 182.41 L59.58 181.42 L60.74 180.43 L61.91 179.43 L63.09 178.44 L64.27 177.44 L65.45 176.45 L66.65 175.46 L67.85 174.46 L69.06 173.47 L70.28 172.47 L71.50 171.48 L72.74 170.49 L73.98 169.49 L75.23 168.50 L76.48 167.51 L77.75 166.51 L79.02 165.52 L80.30 164.53 L81.59 163.53 L82.89 162.54 L84.20 161.55 L85.52 160.55 L86.85 159.56 L88.19 158.57 L89.53 157.58 L90.89 156.58 L92.26 155.59 L93.64 154.60 L95.03 153.61 L96.43 152.62 L97.84 151.62 L99.27 150.63 L100.71 149.64 L102.16 148.65 L103.62 147.66 L105.09 146.67 L106.58 145.68 L108.09 144.69 L109.60 143.70 L111.14 142.71 L112.68 141.72 L114.25 140.73 L115.82 139.74 L117.42 138.75 L119.03 137.76 L120.66 136.77 L122.31 135.78 L123.98 134.79 L125.66 133.80 L127.37 132.82 L129.10 131.83 L130.84 130.84 L132.62 129.85 L134.41 128.87 L136.23 127.88 L138.07 126.90 L139.95 125.91 L141.84 124.92 L143.77 123.94 L145.73 122.96 L147.72 121.97 L149.72 121.00 L151.72 120.04 L153.72 119.11 L155.72 118.18 L157.72 117.28 L159.72 116.39 L161.72 115.52 L163.72 114.66 L165.72 113.82 L167.72 113.00 L169.72 112.20 L171.72 111.41 L173.72 110.64 L175.72 109.88 L177.72 109.14 L179.72 108.42 L181.72 107.72 L183.72 107.03 L185.72 106.36 L187.72 105.70 L189.72 105.07 L191.72 104.44 L193.72 103.84 L195.72 103.25 L197.72 102.68 L199.72 102.13 L201.72 101.59 L203.72 101.07 L205.72 100.56 L207.72 100.08 L209.72 99.61 L211.72 99.15 L213.72 98.71 L215.72 98.29 L217.72 97.89 L219.72 97.50 L221.72 97.13 L223.72 96.78 L225.72 96.44 L227.72 96.12 L229.72 95.82 L231.72 95.53 L233.72 95.26 L235.72 95.01 L237.72 94.77 L239.72 94.55 L241.72 94.35 L243.72 94.16 L245.72 93.99 L247.72 93.84 L249.72 93.70 L251.72 93.58 L253.72 93.48 L255.72 93.39 L257.72 93.32 L259.72 93.27 L261.72 93.23 L263.72 93.21 L265.72 93.21 L267.72 93.23 L269.72 93.26 L271.72 93.30 L273.72 93.37 L275.72 93.45 L277.72 93.55 L279.72 93.66 L281.72 93.79 L283.72 93.94 L285.72 94.10 L287.72 94.29 L289.72 94.48 L291.72 94.70 L293.72 94.93 L295.72 95.18 L297.72 95.44 L299.72 95.72 L301.72 96.02 L303.72 96.34 L305.72 96.67 L307.72 97.02 L309.72 97.38 L311.72 97.77 L313.72 98.16 L315.72 98.58 L317.72 99.01 L319.72 99.46 L321.72 99.93 L323.72 100.41 L325.72 100.91 L327.72 101.42 L329.72 101.95 L331.72 102.50 L333.72 103.07 L335.72 103.65 L337.72 104.25 L339.72 104.87 L341.72 105.50 L343.72 106.15 L345.72 106.81 L347.72 107.50 L349.72 108.20 L351.72 108.91 L353.72 109.65 L355.72 110.40 L357.72 111.16 L359.72 111.94 L361.72 112.74 L363.72 113.56 L365.72 114.39 L367.72 115.24 L369.72 116.11 L371.72 116.99 L373.72 117.89 L375.72 118.81 L377.72 119.74 L379.72 120.70 L381.72 121.66 L383.72 122.65 L385.72 123.65 L387.72 124.66 L389.68 125.68 L391.62 126.69 L393.52 127.71 L395.40 128.72 L397.25 129.74 L399.07 130.75 L400.87 131.77 L402.64 132.78 L404.39 133.79 L406.12 134.81 L407.83 135.82 L409.51 136.83 L411.18 137.84 L412.82 138.85 L414.45 139.86 L416.06 140.87 L417.65 141.89 L419.23 142.90 L420.79 143.91 L422.33 144.92 L423.86 145.93 L425.38 146.94 L426.88 147.95 L428.36 148.95 L429.83 149.96 L431.29 150.97 L432.74 151.98 L434.17 152.99 L435.59 154.00 L437.00 155.01 L438.40 156.01 L439.78 157.02 L441.16 158.03 L442.52 159.04 L443.87 160.05 L445.22 161.05 L446.55 162.06 L447.87 163.07 L449.19 164.08 L450.49 165.08 L451.78 166.09 L453.07 167.10 L454.35 168.10 L455.62 169.11 L456.88 170.12 L458.13 171.12 L459.37 172.13 L460.60 173.14 L461.83 174.14 L463.05 175.15 L464.26 176.16 L465.47 177.16 L466.67 178.17 L467.86 179.17 L469.04 180.18 L470.22 181.19 L471.39 182.19 L472.55 183.20 L473.70 184.20 L474.85 185.21 L476.00 186.21 L477.13 187.22 L478.27 188.22 L479.39 189.23 L480.51 190.23 L481.62 191.24 L482.73 192.24 L483.83 193.25 L484.93 194.25 L486.02 195.26 L487.11 196.26 L488.19 197.27 L489.26 198.27 L490.33 199.28 L491.39 200.28 L492.45 201.29 L493.51 202.29 L494.56 203.30 L495.60 204.30 L496.64 205.31 L497.68 206.31 L498.71 207.32 L499.74 208.32 L500.76 209.32 L501.77 210.33 L502.79 211.33 L503.80 212.34 L504.80 213.34 L505.80 214.35 L506.80 215.35 L507.79 216.35 L508.78 217.36 L509.76 218.36 L510.74 219.37 L511.71 220.37 L512.69 221.37 L513.65 222.38 L514.62 223.38 L515.58 224.39 L516.54 225.39 L517.49 226.39 L518.44 227.40 L519.38 228.40 L520.33 229.41 L521.27 230.41 L522.20 231.41 L523.13 232.42 L524.06 233.42 L524.99 234.42 L525.91 235.43 L526.83 236.43 L527.74 237.43 L528.66 238.44 L529.57 239.44 L530.47 240.44 L531.38 241.45 L532.27 242.45 L533.17 243.45 L534.07 244.46 L534.96 245.46 L535.84 246.46 L536.73 247.47 L537.61 248.47 L538.49 249.47 L539.37 250.48 L540.24 251.48 L541.11 252.48 L541.98 253.49 L542.84 254.49 L543.71 255.49 L544.57 256.50 L545.42 257.50 L546.28 258.50 L547.13 259.51 L547.98 260.51 L548.83 261.51 L549.67 262.51 L550.51 263.52 L551.35 264.52 L552.19 265.52 L553.02 266.53 L553.86 267.53 L554.69 268.53 L555.51 269.53 L556.34 270.54 L557.16 271.54 L557.98 272.54 L558.80 273.55 L559.61 274.55 L560.43 275.55 L561.24 276.55 L562.05 277.56 L562.85 278.56 L563.66 279.56 L564.46 280.57 L565.26 281.57 L566.06 282.57 L566.86 283.57 L567.65 284.58 L568.44 285.58 L569.23 286.58 L570.02 287.58 L570.80 288.59 L571.59 289.59 L572.37 290.59 L573.15 291.59 L573.93 292.60 L574.70 293.60 L575.48 294.60 L576.25 295.60 L577.02 296.61 L577.78 297.61 L578.55 298.61 L579.31 299.61 L580.08 300.62 L580.84 301.62 L581.60 302.62 L582.35 303.62 L583.11 304.63 L583.86 305.63 L584.61 306.63 L585.36 307.63 L586.11 308.64 L586.86 309.64 L587.60 310.64 L588.34 311.64 L589.08 312.64 L589.82 313.65 L590.56 314.65 L591.30 315.65 L592.03 316.65 L592.76 317.66 L593.49 318.66 L594.22 319.66 L594.95 320.66 L595.68 321.66 L596.40 322.67 L597.12 323.67 L597.85 324.67 L598.57 325.67 L599.28 326.68 L600.00 327.68 L600.71 328.68 L601.43 329.68 L602.14 330.68 L602.85 331.69 L603.56 332.69 L604.27 333.69 L604.97 334.69 L605.68 335.69 L606.38 336.70 L607.08 337.70 L607.78 338.70 L608.48 339.70 L609.18 340.71 L609.88 341.71 L610.57 342.71 L611.26 343.71 L611.95 344.71 L612.65 345.72 L613.33 346.72 L614.02 347.72 L614.71 348.72 L615.39 349.72 L616.08 350.72 L616.76 351.73 L617.44 352.73 L618.12 353.73 L618.80 354.73 L619.47 355.73 L620.15 356.74 L620.83 357.74 L621.50 358.74 L622.17 359.74 L622.84 360.74 L623.51 361.75 L624.18 362.75 L624.84 363.75 L625.51 364.75 L626.17 365.75 L626.84 366.76 L627.50 367.76 L628.16 368.76 L628.82 369.76 L629.48 370.76 L630.14 371.76 L630.79 372.77 L631.45 373.77 L632.10 374.77 L632.75 375.77 L633.40 376.77 L634.05 377.78 L634.70 378.78 L635.35 379.78 L636.00 380.78 L636.64 381.78 L637.29 382.78 L637.93 383.79 L638.57 384.79 L639.21 385.79 L639.85 386.79 L640.49 387.79 L641.13 388.79 L641.77 389.80 L642.40 390.80 L643.04 391.80 L643.67 392.80 L644.30 393.80 L644.93 394.80 L645.57 395.81 L646.19 396.81 L646.82 397.81 L647.45 398.81 L648.08 399.81 L648.70 400.81 " style="fill:none;stroke:#0000FF;stroke-width:1;"/></g></svg>