<?xml version="1.0" encoding="UTF-8" standalone="no"?>
<!DOCTYPE svg PUBLIC "-//W3C//DTD SVG 1.1//EN" "http://www.w3.org/Graphics/SVG/1.1/DTD/svg11.dtd">
<svg xmlns="http://www.w3.org/2000/svg" viewBox="0 0 650 400" version="1.1"><clipPath id="box"><rect x="0" y="0" width="650" height="400" style="fill:none;stroke:none;"/></clipPath><g clip-path="url(#box)"><rect x="0.00" y="0.00" width="650.00" height="400.00" style="fill:#FFFFFF;stroke:none;"/><path d="M0.00 400.00 L650.00 400.00 M0.00 366.00 L650.00 366.00 M0.00 333.00 L650.00 333.00 M0.00 300.00 L650.00 300.00 M0.00 266.00 L650.00 266.00 M0.00 233.00 L650.00 233.00 M0.00 200.00 L650.00 200.00 M0.00 166.00 L650.00 166.00 M0.00 133.00 L650.00 133.00 M0.00 100.00 L650.00 100.00 M0.00 66.00 L650.00 66.00 M0.00 33.00 L650.00 33.00 M0.00 0.00 L650.00 0.00 M0.00 0.00 L0.00 400.00 M43.00 0.00 L43.00 400.00 M86.00 0.00 L86.00 400.00 M130.00 0.00 L130.00 400.00 M173.00 0.00 L173.00 400.00 M216.00 0.00 L216.00 400.00 M260.00 0.00 L260.00 400.00 M303.00 0.00 L303.00 400.00 M346.00 0.00 L346.00 400.00 M390.00 0.00 L390.00 400.00 M433.00 0.00 L433.00 400.00 M476.00 0.00 L476.00 400.00 M520.00 0.00 L520.00 400.00 M563.00 0.00 L563.00 400.00 M606.00 0.00 L606.00 400.00 " style="fill:none;stroke:#D0D0D0;stroke-width:1;"/><path d="M0.00 0.00 L0.00 400.00 " style="fill:none;stroke:#000000;stroke-width:1;"/><path d="M-6.50 400.00 L6.50 400.00 M-6.50 366.67 L6.50 366.67 M-6.50 333.33 L6.50 333.33 M-6.50 300.00 L6.50 300.00 M-6.50 266.67 L6.50 266.67 M-6.50 233.33 L6.50 233.33 M-6.50 200.00 L6.50 200.00 M-6.50 166.67 L6.50 166.67 M-6.50 133.33 L6.50 133.33 M-6.50 100.00 L6.50 100.00 M-6.50 66.67 L6.50 66.67 M-6.50 33.33 L6.50 33.33 M-6.50 0.00 L6.50 0.00 " style="fill:none;stroke:#000000;stroke-width:1;"/><path d="M0.00 200.00 L650.00 200.00 " style="fill:none;stroke:#000000;stroke-width:1;"/><path d="M0.00 193.50 L0.00 206.50 M43.33 193.50 L43.33 206.50 M86.67 193.50 L86.67 206.50 M130.00 193.50 L130.00 206.50 M173.33 193.50 L173.33 206.50 M216.67 193.50 L216.67 206.50 M260.00 193.50 L260.00 206.50 M303.33 193.50 L303.33 206.50 M346.67 193.50 L346.67 206.50 M390.00 193.50 L390.00 206.50 M433.33 193.50 L433.33 206.50 M476.67 193.50 L476.67 206.50 M520.00 193.50 L520.00 206.50 M563.33 193.50 L563.33 206.50 M606.67 193.50 L606.67 206.50 " style="fill:none;stroke:#000000;stroke-width:1;"/><text x="8.125" y="369.16666666666663" text-anchor="start" style="font:10px Droid Sans,Trebuchet MS,Arial,Helvetica,sans-serif;stroke:none;fill:#000000">-10</text><text x="8.125" y="335.83333333333337" text-anchor="start" style="font:10px Droid Sans,Trebuchet MS,Arial,Helvetica,sans-serif;stroke:none;fill:#000000">-8</text><text x="8.125" y="302.5" text-anchor="start" style="font:10px Droid Sans,Trebuchet MS,Arial,Helvetica,sans-serif;stroke:none;fill:#000000">-6</text><text x="8.125" y="269.16666666666663" text-anchor="start" style="font:10px Droid Sans,Trebuchet MS,Arial,Helvetica,sans-serif;stroke:none;fill:#000000">-4</text><text x="8.125" y="235.83333333333334" text-anchor="start" style="font:10px Droid Sans,Trebuchet MS,Arial,Helvetica,sans-serif;stroke:none;fill:#000000">-2</text><text x="8.125" y="202.5" text-anchor="start" style="font:10px Droid Sans,Trebuchet MS,Arial,Helvetica,sans-serif;stroke:none;fill:#000000">0</text><text x="8.125" y="169.16666666666669" text-anchor="start" style="font:10px Droid Sans,Trebuchet MS,Arial,Helvetica,sans-serif;stroke:none;fill:#000000">2</text><text x="8.125" y="135.83333333333331" text-anchor="start" style="font:10px Droid Sans,Trebuchet MS,Arial,Helvetica,sans-serif;stroke:none;fill:#000000">4</text><text x="8.125" y="102.5" text-anchor="start" style="font:10px Droid Sans,Trebuchet MS,Arial,Helvetica,sans-serif;stroke:none;fill:#000000">6</text><text x="8.125" y="69.16666666666666" text-anchor="start" style="font:10px Droid Sans,Trebuchet MS,Arial,Helvetica,sans-serif;stroke:none;fill:#000000">8</text><text x="8.125" y="35.83333333333333" text-anchor="start" style="font:10px Droid Sans,Trebuchet MS,Arial,Helvetica,sans-serif;stroke:none;fill:#000000">10</text><text x="43.333333333333336" y="216.125" text-anchor="middle" style="font:10px Droid Sans,Trebuchet MS,Arial,Helvetica,sans-serif;stroke:none;fill:#000000">0.2</text><text x="86.66666666666667" y="216.125" text-anchor="middle" style="font:10px Droid Sans,Trebuchet MS,Arial,Helvetica,sans-serif;stroke:none;fill:#000000">0.4</text><text x="130.00000000000003" y="216.125" text-anchor="middle" style="font:10px Droid Sans,Trebuchet MS,Arial,Helvetica,sans-serif;stroke:none;fill:#000000">0.6</text><text x="173.33333333333334" y="216.125" text-anchor="middle" style="font:10px Droid Sans,Trebuchet MS,Arial,Helvetica,sans-serif;stroke:none;fill:#000000">0.8</text><text x="216.66666666666666" y="216.125" text-anchor="middle" style="font:10px Droid Sans,Trebuchet MS,Arial,Helvetica,sans-serif;stroke:none;fill:#000000">1</text><text x="260" y="216.125" text-anchor="middle" style="font:10px Droid Sans,Trebuchet MS,Arial,Helvetica,sans-serif;stroke:none;fill:#000000">1.2</text><text x="303.3333333333333" y="216.125" text-anchor="middle" style="font:10px Droid Sans,Trebuchet MS,Arial,Helvetica,sans-serif;stroke:none;fill:#000000">1.4</text><text x="346.6666666666667" y="216.125" text-anchor="middle" style="font:10px Droid Sans,Trebuchet MS,Arial,Helvetica,sans-serif;stroke:none;fill:#000000">1.6</text><text x="390" y="216.125" text-anchor="middle" style="font:10px Droid Sans,Trebuchet MS,Arial,Helvetica,sans-serif;stroke:none;fill:#000000">1.8</text><text x="433.3333333333333" y="216.125" text-anchor="middle" style="font:10px Droid Sans,Trebuchet MS,Arial,Helvetica,sans-serif;stroke:none;fill:#000000">2</text><text x="476.66666666666663" y="216.125" text-anchor="middle" style="font:10px Droid Sans,Trebuchet MS,Arial,Helvetica,sans-serif;stroke:none;fill:#000000">2.2</text><text x="520" y="216.125" text-anchor="middle" style="font:10px Droid Sans,Trebuchet MS,Arial,Helvetica,sans-serif;stroke:none;fill:#000000">2.4</text><text x="563.3333333333334" y="216.125" text-anchor="middle" style="font:10px Droid Sans,Trebuchet MS,Arial,Helvetica,sans-serif;stroke:none;fill:#000000">2.6</text><text x="606.6666666666667" y="216.125" text-anchor="middle" style="font:10px Droid Sans,Trebuchet MS,Arial,Helvetica,sans-serif;stroke:none;fill:#000000">2.8</text><path d="M0.00 36.50 L2.17 36.50 L4.33 36.50 L6.50 36.50 L8.67 36.50 L10.83 36.50 L13.00 36.50 L15.17 36.50 L17.33 36.50 L19.50 36.50 L21.67 36.50 L23.83 36.50 L26.00 36.50 L28.17 36.50 L30.33 36.50 L32.50 36.50 L34.67 36.50 L36.83 36.50 L39.00 36.50 L41.17 36.50 L43.33 36.50 L45.50 36.50 L47.67 36.50 L49.83 36.50 L52.00 36.50 L54.17 36.50 L56.33 36.50 L58.50 36.50 L60.67 36.50 L62.83 36.50 L65.00 36.50 L67.17 36.50 L69.33 36.50 L71.50 36.50 L73.67 36.50 L75.83 36.50 L78.00 36.50 L80.17 36.50 L82.33 36.50 L84.50 36.50 L86.67 36.50 L88.83 36.50 L91.00 36.50 L93.17 36.50 L95.33 36.50 L97.50 36.50 L99.67 36.50 L101.83 36.50 L104.00 36.50 L106.17 36.50 L108.33 36.50 L110.50 36.50 L112.67 36.50 L114.83 36.50 L117.00 36.50 L119.17 36.50 L121.33 36.50 L123.50 36.50 L125.67 36.50 L127.83 36.50 L130.00 36.50 L132.17 36.50 L134.33 36.50 L136.50 36.50 L138.67 36.50 L140.83 36.50 L143.00 36.50 L145.17 36.50 L147.33 36.50 L149.50 36.50 L151.67 36.50 L153.83 36.50 L156.00 36.50 L158.17 36.50 L160.33 36.50 L162.50 36.50 L164.67 36.50 L166.83 36.50 L169.00 36.50 L171.17 36.50 L173.33 36.50 L175.50 36.50 L177.67 36.50 L179.83 36.50 L182.00 36.50 L184.17 36.50 L186.33 36.50 L188.50 36.50 L190.67 36.50 L192.83 36.50 L195.00 36.50 L197.17 36.50 L199.33 36.50 L201.50 36.50 L203.67 36.50 L205.83 36.50 L208.00 36.50 L210.17 36.50 L212.33 36.50 L214.50 36.50 L216.67 36.50 L218.83 36.50 L221.00 36.50 L223.17 36.50 L225.33 36.50 L227.50 36.50 L229.67 36.50 L231.83 36.50 L234.00 36.50 L236.17 36.50 L238.33 36.50 L240.50 36.50 L242.67 36.50 L244.83 36.50 L247.00 36.50 L249.17 36.50 L251.33 36.50 L253.50 36.50 L255.67 36.50 L257.83 36.50 L260.00 36.50 L262.17 36.50 L264.33 36.50 " style="fill:none;stroke:#0000FF;stroke-width:1;"/><path d="M266.50 363.50 L266.50 363.50 L268.67 363.50 L270.83 363.50 L273.00 363.50 L275.17 363.50 L277.33 363.50 L279.50 363.50 L281.67 363.50 L283.83 363.50 L286.00 363.50 L288.17 363.50 L290.33 363.50 L292.50 363.50 L294.67 363.50 L296.83 363.50 L299.00 363.50 L301.17 363.50 L303.33 363.50 L305.50 363.50 L307.67 363.50 L309.83 363.50 L312.00 363.50 L314.17 363.50 L316.33 363.50 L318.50 363.50 L320.67 363.50 L322.83 363.50 L325.00 363.50 L327.17 363.50 L329.33 363.50 L331.50 363.50 L333.67 363.50 L335.83 363.50 L338.00 363.50 L340.17 363.50 L342.33 363.50 L344.50 363.50 L346.67 363.50 L348.83 363.50 L351.00 363.50 L353.17 363.50 L355.33 363.50 L357.50 363.50 L359.67 363.50 L361.83 363.50 L364.00 363.50 L366.17 363.50 L368.33 363.50 L370.50 363.50 L372.67 363.50 L374.83 363.50 L377.00 363.50 L379.17 363.50 L381.33 363.50 L383.50 363.50 L385.67 363.50 L387.83 363.50 L390.00 363.50 L392.17 363.50 L394.33 363.50 L396.50 363.50 L398.67 363.50 L400.83 363.50 L403.00 363.50 L405.17 363.50 L407.33 363.50 L409.50 363.50 L411.67 363.50 L413.83 363.50 L416.00 363.50 L418.17 363.50 L420.33 363.50 L422.50 363.50 L424.67 363.50 L426.83 363.50 L429.00 363.50 L431.17 363.50 L433.33 363.50 L435.50 363.50 L437.67 363.50 L439.83 363.50 L442.00 363.50 L444.17 363.50 L446.33 363.50 L448.50 363.50 L450.67 363.50 L452.83 363.50 L455.00 363.50 L457.17 363.50 L459.33 363.50 L461.50 363.50 L463.67 363.50 L465.83 363.50 L468.00 363.50 L470.17 363.50 L472.33 363.50 L474.50 363.50 L476.67 363.50 L478.83 363.50 L481.00 363.50 L483.17 363.50 L485.33 363.50 L487.50 363.50 L489.67 363.50 L491.83 363.50 L494.00 363.50 L496.17 363.50 L498.33 363.50 L500.50 363.50 L502.67 363.50 L504.83 363.50 L507.00 363.50 L509.17 363.50 L511.33 363.50 L513.50 363.50 L515.67 363.50 L517.83 363.50 L520.00 363.50 L522.17 363.50 L524.33 363.50 L526.50 363.50 L528.67 363.50 L530.83 363.50 L533.00 363.50 L535.17 363.50 L537.33 363.50 L539.50 363.50 L541.67 363.50 L543.83 363.50 L546.00 363.50 L548.17 363.50 L550.33 363.50 L552.50 363.50 L554.67 363.50 L556.83 363.50 L559.00 363.50 L561.17 363.50 L563.33 363.50 L565.50 363.50 L567.67 363.50 L569.83 363.50 L572.00 363.50 L574.17 363.50 L576.33 363.50 L578.50 363.50 L580.67 363.50 L582.83 363.50 L585.00 363.50 L587.17 363.50 L589.33 363.50 L591.50 363.50 L593.67 363.50 L595.83 363.50 L598.00 363.50 L600.17 363.50 L602.33 363.50 L604.50 363.50 L606.67 363.50 L608.83 363.50 L611.00 363.50 L613.17 363.50 L615.33 363.50 L617.50 363.50 L619.67 363.50 L621.83 363.50 L624.00 363.50 L626.17 363.50 L628.33 363.50 L630.50 363.50 L632.67 363.50 L634.83 363.50 L637.00 363.50 L639.17 363.50 L641.33 363.50 L643.50 363.50 L645.67 363.50 L647.83 363.50 L650.00 363.50 " style="fill:none;stroke:#0000FF;stroke-width:1;"/></g></svg>