<?xml version="1.0" encoding="UTF-8" standalone="no"?>
<!DOCTYPE svg PUBLIC "-//W3C//DTD SVG 1.1//EN" "http://www.w3.org/Graphics/SVG/1.1/DTD/svg11.dtd">
<svg xmlns="http://www.w3.org/2000/svg" viewBox="0 0 650 400" version="1.1"><clipPath id="box"><rect x="0" y="0" width="650" height="400" style="fill:none;stroke:none;"/></clipPath><g clip-path="url(#box)"><rect x="0.00" y="0.00" width="650.00" height="400.00" style="fill:#FFFFFF;stroke:none;"/><path d="M0.00 400.00 L650.00 400.00 M0.00 366.00 L650.00 366.00 M0.00 333.00 L650.00 333.00 M0.00 300.00 L650.00 300.00 M0.00 266.00 L650.00 266.00 M0.00 233.00 L650.00 233.00 M0.00 200.00 L650.00 200.00 M0.00 166.00 L650.00 166.00 M0.00 133.00 L650.00 133.00 M0.00 100.00 L650.00 100.00 M0.00 66.00 L650.00 66.00 M0.00 33.00 L650.00 33.00 M0.00 0.00 L650.00 0.00 M0.00 0.00 L0.00 400.00 M43.00 0.00 L43.00 400.00 M86.00 0.00 L86.00 400.00 M130.00 0.00 L130.00 400.00 M173.00 0.00 L173.00 400.00 M216.00 0.00 L216.00 400.00 M260.00 0.00 L260.00 400.00 M303.00 0.00 L303.00 400.00 M346.00 0.00 L346.00 400.00 M390.00 0.00 L390.00 400.00 M433.00 0.00 L433.00 400.00 M476.00 0.00 L476.00 400.00 M520.00 0.00 L520.00 400.00 M563.00 0.00 L563.00 400.00 M606.00 0.00 L606.00 400.00 " style="fill:none;stroke:#D0D0D0;stroke-width:1;"/><path d="M0.00 0.00 L0.00 400.00 " style="fill:none;stroke:#000000;stroke-width:1;"/><path d="M-6.50 400.00 L6.50 400.00 M-6.50 366.67 L6.50 366.67 M-6.50 333.33 L6.50 333.33 M-6.50 300.00 L6.50 300.00 M-6.50 266.67 L6.50 266.67 M-6.50 233.33 L6.50 233.33 M-6.50 200.00 L6.50 200.00 M-6.50 166.67 L6.50 166.67 M-6.50 133.33 L6.50 133.33 M-6.50 100.00 L6.50 100.00 M-6.50 66.67 L6.50 66.67 M-6.50 33.33 L6.50 33.33 M-6.50 0.00 L6.50 0.00 " style="fill:none;stroke:#000000;stroke-width:1;"/><path d="M0.00 200.00 L650.00 200.00 " style="fill:none;stroke:#000000;stroke-width:1;"/><path d="M0.00 193.50 L0.00 206.50 M43.33 193.50 L43.33 206.50 M86.67 193.50 L86.67 206.50 M130.00 193.50 L130.00 206.50 M173.33 193.50 L173.33 206.50 M216.67 193.50 L216.67 206.50 M260.00 193.50 L260.00 206.50 M303.33 193.50 L303.33 206.50 M346.67 193.50 L346.67 206.50 M390.00 193.50 L390.00 206.50 M433.33 193.50 L433.33 206.50 M476.67 193.50 L476.67 206.50 M520.00 193.50 L520.00 206.50 M563.33 193.50 L563.33 206.50 M606.67 193.50 L606.67 206.50 " style="fill:none;stroke:#000000;stroke-width:1;"/><text x="8.125" y="369.16666666666663" text-anchor="start" style="font:10px Droid Sans,Trebuchet MS,Arial,Helvetica,sans-serif;stroke:none;fill:#000000">-10</text><text x="8.125" y="335.83333333333337" text-anchor="start" style="font:10px Droid Sans,Trebuchet MS,Arial,Helvetica,sans-serif;stroke:none;fill:#000000">-8</text><text x="8.125" y="302.5" text-anchor="start" style="font:10px Droid Sans,Trebuchet MS,Arial,Helvetica,sans-serif;stroke:none;fill:#000000">-6</text><text x="8.125" y="269.16666666666663" text-anchor="start" style="font:10px Droid Sans,Trebuchet MS,Arial,Helvetica,sans-serif;stroke:none;fill:#000000">-4</text><text x="8.125" y="235.83333333333334" text-anchor="start" style="font:10px Droid Sans,Trebuchet MS,Arial,Helvetica,sans-serif;stroke:none;fill:#000000">-2</text><text x="8.125" y="202.5" text-anchor="start" style="font:10px Droid Sans,Trebuchet MS,Arial,Helvetica,sans-serif;stroke:none;fill:#000000">0</text><text x="8.125" y="169.16666666666669" text-anchor="start" style="font:10px Droid Sans,Trebuchet MS,Arial,Helvetica,sans-serif;stroke:none;fill:#000000">2</text><text x="8.125" y="135.83333333333331" text-anchor="start" style="font:10px Droid Sans,Trebuchet MS,Arial,Helvetica,sans-serif;stroke:none;fill:#000000">4</text><text x="8.125" y="102.5" text-anchor="start" style="font:10px Droid Sans,Trebuchet MS,Arial,Helvetica,sans-serif;stroke:none;fill:#000000">6</text><text x="8.125" y="69.16666666666666" text-anchor="start" style="font:10px Droid Sans,Trebuchet MS,Arial,Helvetica,sans-serif;stroke:none;fill:#000000">8</text><text x="8.125" y="35.83333333333333" text-anchor="start" style="font:10px Droid Sans,Trebuchet MS,Arial,Helvetica,sans-serif;stroke:none;fill:#000000">10</text><text x="43.333333333333336" y="216.125" text-anchor="middle" style="font:10px Droid Sans,Trebuchet MS,Arial,Helvetica,sans-serif;stroke:none;fill:#000000">0.2</text><text x="86.66666666666667" y="216.125" text-anchor="middle" style="font:10px Droid Sans,Trebuchet MS,Arial,Helvetica,sans-serif;stroke:none;fill:#000000">0.4</text><text x="130.00000000000003" y="216.125" text-anchor="middle" style="font:10px Droid Sans,Trebuchet MS,Arial,Helvetica,sans-serif;stroke:none;fill:#000000">0.6</text><text x="173.33333333333334" y="216.125" text-anchor="middle" style="font:10px Droid Sans,Trebuchet MS,Arial,Helvetica,sans-serif;stroke:none;fill:#000000">0.8</text><text x="216.66666666666666" y="216.125" text-anchor="middle" style="font:10px Droid Sans,Trebuchet MS,Arial,Helvetica,sans-serif;stroke:none;fill:#000000">1</text><text x="260" y="216.125" text-anchor="middle" style="font:10px Droid Sans,Trebuchet MS,Arial,Helvetica,sans-serif;stroke:none;fill:#000000">1.2</text><text x="303.3333333333333" y="216.125" text-anchor="middle" style="font:10px Droid Sans,Trebuchet MS,Arial,Helvetica,sans-serif;stroke:none;fill:#000000">1.4</text><text x="346.6666666666667" y="216.125" text-anchor="middle" style="font:10px Droid Sans,Trebuchet MS,Arial,Helvetica,sans-serif;stroke:none;fill:#000000">1.6</text><text x="390" y="216.125" text-anchor="middle" style="font:10px Droid Sans,Trebuchet MS,Arial,Helvetica,sans-serif;stroke:none;fill:#000000">1.8</text><text x="433.3333333333333" y="216.125" text-anchor="middle" style="font:10px Droid Sans,Trebuchet MS,Arial,Helvetica,sans-serif;stroke:none;fill:#000000">2</text><text x="476.66666666666663" y="216.125" text-anchor="middle" style="font:10px Droid Sans,Trebuchet MS,Arial,Helvetica,sans-serif;stroke:none;fill:#000000">2.2</text><text x="520" y="216.125" text-anchor="middle" style="font:10px Droid Sans,Trebuchet MS,Arial,Helvetica,sans-serif;stroke:none;fill:#000000">2.4</text><text x="563.3333333333334" y="216.125" text-anchor="middle" style="font:10px Droid Sans,Trebuchet MS,Arial,Helvetica,sans-serif;stroke:none;fill:#000000">2.6</text><text x="606.6666666666667" y="216.125" text-anchor="middle" style="font:10px Droid Sans,Trebuchet MS,Arial,Helvetica,sans-serif;stroke:none;fill:#000000">2.8</text><path d="M-10.00 200.00 L-0.25 200.00 L0.75 200.00 L2.75 200.00 L4.75 200.00 L6.75 200.00 L8.75 200.00 L10.75 200.00 L12.75 200.00 L14.75 200.00 L16.75 200.00 L18.75 200.00 L20.75 200.00 L22.75 200.00 L24.75 200.00 L26.75 200.00 L28.75 200.00 L30.75 200.00 L32.75 200.00 L34.75 200.00 L36.75 200.00 L38.75 200.00 L40.75 200.00 L42.75 200.00 L44.75 200.00 L46.75 200.00 L48.75 200.00 L50.75 200.00 L52.75 200.00 L54.75 200.00 L56.75 200.00 L58.75 200.00 L60.75 200.00 L62.75 200.00 L64.75 200.00 L66.75 200.00 L68.75 200.00 L70.75 200.00 L72.75 200.00 L74.75 200.00 L76.75 200.00 L78.75 200.00 L80.75 200.00 L82.75 200.00 L84.75 200.00 L86.75 200.00 L88.75 200.00 L90.75 200.00 L92.75 200.00 L94.75 200.00 L96.75 200.00 L98.75 200.00 L100.75 200.00 L102.75 200.00 L104.75 200.00 L106.75 200.00 L108.75 200.00 L110.75 200.00 L112.75 200.00 L114.75 200.00 L116.75 200.00 L118.75 200.00 L120.75 200.00 L122.75 200.00 L124.75 200.00 L126.75 200.00 L128.75 200.00 L130.75 200.00 L132.75 200.00 L134.75 200.00 L136.75 200.00 L138.75 200.00 L140.75 200.00 L142.75 200.00 L144.75 200.00 L146.75 200.00 L148.75 200.00 L150.75 200.00 L152.75 200.00 L154.75 200.00 L156.75 200.00 L158.75 200.00 L160.75 200.00 L162.75 200.00 L164.75 200.00 L166.75 200.00 L168.75 200.00 L170.75 200.00 L172.75 200.00 L174.75 200.00 L176.75 200.00 L178.75 200.00 L180.75 200.00 L182.75 200.00 L184.75 200.00 L186.75 200.00 L188.75 200.00 L190.75 200.00 L192.75 200.00 L194.75 200.00 L196.75 200.00 L198.75 200.00 L200.75 200.00 L202.75 200.00 L204.75 200.00 L206.75 200.00 L208.75 200.00 L210.75 200.00 L212.75 200.00 L214.75 200.00 L216.75 200.00 L218.75 200.00 L220.75 200.00 L222.75 200.00 L224.75 200.00 L226.75 200.00 L228.75 200.00 L230.75 200.00 L232.75 200.00 L234.75 200.00 L236.75 200.00 L238.75 200.00 L240.75 200.00 L242.75 200.00 L244.75 200.00 L246.75 200.00 L248.75 200.00 L250.75 200.00 L252.75 200.00 L254.75 200.00 L256.75 200.00 L258.75 200.00 L260.75 200.00 L262.75 200.00 L264.75 200.00 L266.75 200.00 L268.75 200.00 L270.75 200.00 L272.75 200.00 L274.75 200.00 L276.75 200.00 L278.75 200.00 L280.75 200.00 L282.75 200.00 L284.75 200.00 L286.75 200.00 L288.75 200.00 L290.75 200.00 L292.75 200.00 L294.75 200.00 L296.75 200.00 L298.75 200.00 L300.75 200.00 L302.75 200.00 L304.75 200.00 L306.75 200.00 L308.75 200.00 L310.75 200.00 L312.75 200.00 L314.75 200.00 L316.75 200.00 L318.75 200.00 L320.75 200.00 L322.75 200.00 L324.75 200.00 L326.75 200.00 L328.75 200.00 L330.75 200.00 L332.75 200.00 L334.75 200.00 L336.75 200.00 L338.75 200.00 L340.75 200.00 L342.75 200.00 L344.75 200.00 L346.75 200.00 L348.75 200.00 L350.75 200.00 L352.75 200.00 L354.75 200.00 L356.75 200.00 L358.75 200.00 L360.75 200.00 L362.75 200.00 L364.75 200.00 L366.75 200.00 L368.75 200.00 L370.75 200.00 L372.75 200.00 L374.75 200.00 L376.75 200.00 L378.75 200.00 L380.75 200.00 L382.75 200.00 L384.75 200.00 L386.75 200.00 L388.75 200.00 L390.75 200.00 L392.75 200.00 L394.75 200.00 L396.75 200.00 L398.75 200.00 L400.75 200.00 L402.75 200.00 L404.75 200.00 L406.75 200.00 L408.75 200.00 L410.75 200.00 L412.75 200.00 L414.75 200.00 L416.75 200.00 L418.75 200.00 L420.75 200.00 L422.75 200.00 L424.75 200.00 L426.75 200.00 L428.75 200.00 L430.75 200.00 L432.75 200.00 L434.75 200.00 L436.75 200.00 L438.75 200.00 L440.75 200.00 L442.75 200.00 L444.75 200.00 L446.75 200.00 L448.75 200.00 L450.75 200.00 L452.75 200.00 L454.75 200.00 L456.75 200.00 L458.75 200.00 L460.75 200.00 L462.75 200.00 L464.75 200.00 L466.75 200.00 L468.75 200.00 L470.75 200.00 L472.75 200.00 L474.75 200.00 L476.75 200.00 L478.75 200.00 L480.75 200.00 L482.75 200.00 L484.75 200.00 L486.75 200.00 L488.75 200.00 L490.75 200.00 L492.75 200.00 L494.75 200.00 L496.75 200.00 L498.75 200.00 L500.75 200.00 L502.75 200.00 L504.75 200.00 L506.75 200.00 L508.75 200.00 L510.75 200.00 L512.75 200.00 L514.75 200.00 L516.75 200.00 L518.75 200.00 L520.75 200.00 L522.75 200.00 L524.75 200.00 L526.75 200.00 L528.75 200.00 L530.75 200.00 L532.75 200.00 L534.75 200.00 L536.75 200.00 L538.75 200.00 L540.75 200.00 L542.75 200.00 L544.75 200.00 L546.75 200.00 L548.75 200.00 L550.75 200.00 L552.75 200.00 L554.75 200.00 L556.75 200.00 L558.75 200.00 L560.75 200.00 L562.75 200.00 L564.75 200.00 L566.75 200.00 L568.75 200.00 L570.75 200.00 L572.75 200.00 L574.75 200.00 L576.75 200.00 L578.75 200.00 L580.75 200.00 L582.75 200.00 L584.75 200.00 L586.75 200.00 L588.75 200.00 L590.75 200.00 L592.75 200.00 L594.75 200.00 L596.75 200.00 L598.75 200.00 L600.75 200.00 L602.75 200.00 L604.75 200.00 L606.75 200.00 L608.75 200.00 L610.75 200.00 L612.75 200.00 L614.75 200.00 L616.75 200.00 L618.75 200.00 L620.75 200.00 L622.75 200.00 L624.75 200.00 L626.75 200.00 L628.75 200.00 L630.75 200.00 L632.75 200.00 L634.75 200.00 L636.75 200.00 L638.75 200.00 L640.75 200.00 L642.75 200.00 L644.75 200.00 L646.75 200.00 L648.75 200.00 " style="fill:none;stroke:#0000FF;stroke-width:1;"/></g></svg>