<?xml version="1.0" encoding="UTF-8" standalone="no"?>
<!DOCTYPE svg PUBLIC "-//W3C//DTD SVG 1.1//EN" "http://www.w3.org/Graphics/SVG/1.1/DTD/svg11.dtd">
<svg xmlns="http://www.w3.org/2000/svg" viewBox="0 0 650 400" version="1.1"><clipPath id="box"><rect x="0" y="0" width="650" height="400" style="fill:none;stroke:none;"/></clipPath><g clip-path="url(#box)"><rect x="0.00" y="0.00" width="650.00" height="400.00" style="fill:#FFFFFF;stroke:none;"/><path d="M0.00 400.00 L650.00 400.00 M0.00 342.00 L650.00 342.00 M0.00 285.00 L650.00 285.00 M0.00 228.00 L650.00 228.00 M0.00 171.00 L650.00 171.00 M0.00 114.00 L650.00 114.00 M0.00 57.00 L650.00 57.00 M0.00 0.00 L650.00 0.00 M0.00 0.00 L0.00 400.00 M43.00 0.00 L43.00 400.00 M86.00 0.00 L86.00 400.00 M130.00 0.00 L130.00 400.00 M173.00 0.00 L173.00 400.00 M216.00 0.00 L216.00 400.00 M260.00 0.00 L260.00 400.00 M303.00 0.00 L303.00 400.00 M346.00 0.00 L346.00 400.00 M390.00 0.00 L390.00 400.00 M433.00 0.00 L433.00 400.00 M476.00 0.00 L476.00 400.00 M520.00 0.00 L520.00 400.00 M563.00 0.00 L563.00 400.00 M606.00 0.00 L606.00 400.00 " style="fill:none;stroke:#D0D0D0;stroke-width:1;"/><path d="M0.00 0.00 L0.00 400.00 " style="fill:none;stroke:#000000;stroke-width:1;"/><path d="M-6.50 400.00 L6.50 400.00 M-6.50 342.86 L6.50 342.86 M-6.50 285.71 L6.50 285.71 M-6.50 228.57 L6.50 228.57 M-6.50 171.43 L6.50 171.43 M-6.50 114.29 L6.50 114.29 M-6.50 57.14 L6.50 57.14 M-6.50 0.00 L6.50 0.00 " style="fill:none;stroke:#000000;stroke-width:1;"/><path d="M0.00 171.43 L650.00 171.43 " style="fill:none;stroke:#000000;stroke-width:1;"/><path d="M0.00 164.93 L0.00 177.93 M43.33 164.93 L43.33 177.93 M86.67 164.93 L86.67 177.93 M130.00 164.93 L130.00 177.93 M173.33 164.93 L173.33 177.93 M216.67 164.93 L216.67 177.93 M260.00 164.93 L260.00 177.93 M303.33 164.93 L303.33 177.93 M346.67 164.93 L346.67 177.93 M390.00 164.93 L390.00 177.93 M433.33 164.93 L433.33 177.93 M476.67 164.93 L476.67 177.93 M520.00 164.93 L520.00 177.93 M563.33 164.93 L563.33 177.93 M606.67 164.93 L606.67 177.93 " style="fill:none;stroke:#000000;stroke-width:1;"/><text x="8.125" y="345.35714285714283" text-anchor="start" style="font:10px Droid Sans,Trebuchet MS,Arial,Helvetica,sans-serif;stroke:none;fill:#000000">-15</text><text x="8.125" y="288.2142857142857" text-anchor="start" style="font:10px Droid Sans,Trebuchet MS,Arial,Helvetica,sans-serif;stroke:none;fill:#000000">-10</text><text x="8.125" y="231.07142857142856" text-anchor="start" style="font:10px Droid Sans,Trebuchet MS,Arial,Helvetica,sans-serif;stroke:none;fill:#000000">-5</text><text x="8.125" y="173.92857142857142" text-anchor="start" style="font:10px Droid Sans,Trebuchet MS,Arial,Helvetica,sans-serif;stroke:none;fill:#000000">0</text><text x="8.125" y="116.78571428571428" text-anchor="start" style="font:10px Droid Sans,Trebuchet MS,Arial,Helvetica,sans-serif;stroke:none;fill:#000000">5</text><text x="8.125" y="59.64285714285714" text-anchor="start" style="font:10px Droid Sans,Trebuchet MS,Arial,Helvetica,sans-serif;stroke:none;fill:#000000">10</text><text x="43.333333333333336" y="187.55357142857142" text-anchor="middle" style="font:10px Droid Sans,Trebuchet MS,Arial,Helvetica,sans-serif;stroke:none;fill:#000000">0.2</text><text x="86.66666666666667" y="187.55357142857142" text-anchor="middle" style="font:10px Droid Sans,Trebuchet MS,Arial,Helvetica,sans-serif;stroke:none;fill:#000000">0.4</text><text x="130.00000000000003" y="187.55357142857142" text-anchor="middle" style="font:10px Droid Sans,Trebuchet MS,Arial,Helvetica,sans-serif;stroke:none;fill:#000000">0.6</text><text x="173.33333333333334" y="187.55357142857142" text-anchor="middle" style="font:10px Droid Sans,Trebuchet MS,Arial,Helvetica,sans-serif;stroke:none;fill:#000000">0.8</text><text x="216.66666666666666" y="187.55357142857142" text-anchor="middle" style="font:10px Droid Sans,Trebuchet MS,Arial,Helvetica,sans-serif;stroke:none;fill:#000000">1</text><text x="260" y="187.55357142857142" text-anchor="middle" style="font:10px Droid Sans,Trebuchet MS,Arial,Helvetica,sans-serif;stroke:none;fill:#000000">1.2</text><text x="303.3333333333333" y="187.55357142857142" text-anchor="middle" style="font:10px Droid Sans,Trebuchet MS,Arial,Helvetica,sans-serif;stroke:none;fill:#000000">1.4</text><text x="346.6666666666667" y="187.55357142857142" text-anchor="middle" style="font:10px Droid Sans,Trebuchet MS,Arial,Helvetica,sans-serif;stroke:none;fill:#000000">1.6</text><text x="390" y="187.55357142857142" text-anchor="middle" style="font:10px Droid Sans,Trebuchet MS,Arial,Helvetica,sans-serif;stroke:none;fill:#000000">1.8</text><text x="433.3333333333333" y="187.55357142857142" text-anchor="middle" style="font:10px Droid Sans,Trebuchet MS,Arial,Helvetica,sans-serif;stroke:none;fill:#000000">2</text><text x="476.66666666666663" y="187.55357142857142" text-anchor="middle" style="font:10px Droid Sans,Trebuchet MS,Arial,Helvetica,sans-serif;stroke:none;fill:#000000">2.2</text><text x="520" y="187.55357142857142" text-anchor="middle" style="font:10px Droid Sans,Trebuchet MS,Arial,Helvetica,sans-serif;stroke:none;fill:#000000">2.4</text><text x="563.3333333333334" y="187.55357142857142" text-anchor="middle" style="font:10px Droid Sans,Trebuchet MS,Arial,Helvetica,sans-serif;stroke:none;fill:#000000">2.6</text><text x="606.6666666666667" y="187.55357142857142" text-anchor="middle" style="font:10px Droid Sans,Trebuchet MS,Arial,Helvetica,sans-serif;stroke:none;fill:#000000">2.8</text><path d="M-10.00 200.00 L-0.25 34.16 L0.75 34.67 L2.68 35.67 L4.62 36.67 L6.55 37.67 L8.48 38.67 L10.41 39.67 L12.35 40.67 L14.28 41.67 L16.21 42.67 L18.14 43.67 L20.08 44.67 L22.01 45.67 L23.94 46.67 L25.87 47.67 L27.81 48.67 L29.74 49.67 L31.67 50.67 L33.60 51.67 L35.54 52.67 L37.47 53.67 L39.40 54.67 L41.33 55.67 L43.27 56.67 L45.20 57.67 L47.13 58.67 L49.06 59.67 L51.00 60.67 L52.93 61.67 L54.86 62.67 L56.79 63.67 L58.73 64.67 L60.66 65.67 L62.59 66.67 L64.52 67.67 L66.46 68.67 L68.39 69.67 L70.32 70.67 L72.25 71.67 L74.19 72.67 L76.12 73.67 L78.05 74.67 L79.98 75.67 L81.92 76.67 L83.85 77.67 L85.78 78.67 L87.72 79.67 L89.65 80.67 L91.58 81.67 L93.51 82.67 L95.45 83.67 L97.38 84.67 L99.31 85.67 L101.24 86.67 L103.18 87.67 L105.11 88.67 L107.04 89.67 L108.97 90.67 L110.91 91.67 L112.84 92.67 L114.77 93.67 L116.70 94.67 L118.64 95.67 L120.57 96.67 L122.50 97.67 L124.43 98.67 L126.37 99.67 L128.30 100.67 L130.23 101.67 L132.16 102.67 L134.10 103.67 L136.03 104.67 L137.96 105.67 L139.89 106.67 L141.83 107.67 L143.76 108.67 L145.69 109.67 L147.62 110.67 L149.56 111.67 L151.49 112.67 L153.42 113.67 L155.35 114.67 L157.29 115.67 L159.22 116.67 L161.15 117.67 L163.08 118.67 L165.02 119.67 L166.95 120.67 L168.88 121.67 L170.81 122.67 L172.75 123.67 L174.68 124.67 L176.61 125.67 L178.55 126.67 L180.48 127.67 L182.41 128.67 L184.34 129.67 L186.28 130.67 L188.21 131.67 L190.14 132.67 L192.07 133.67 L194.01 134.67 L195.94 135.67 L197.87 136.67 L199.80 137.67 L201.74 138.67 L203.67 139.67 L205.60 140.67 L207.53 141.67 L209.47 142.67 L211.40 143.67 L213.33 144.67 L215.26 145.67 L217.20 146.67 L219.13 147.67 L221.06 148.67 L222.99 149.67 L224.93 150.67 L226.86 151.67 L228.79 152.67 L230.72 153.67 L232.66 154.67 L234.59 155.67 L236.52 156.67 L238.45 157.67 L240.39 158.67 L242.32 159.67 L244.25 160.67 L246.18 161.67 L248.12 162.67 L250.05 163.67 L251.98 164.67 L253.91 165.67 L255.85 166.67 L257.78 167.67 L259.71 168.67 L261.64 169.67 L263.58 170.67 L265.51 171.67 L267.44 172.67 L269.37 173.67 L271.31 174.67 L273.24 175.67 L275.17 176.67 L277.11 177.67 L279.04 178.67 L280.97 179.67 L282.90 180.67 L284.84 181.67 L286.77 182.67 L288.70 183.67 L290.63 184.67 L292.57 185.67 L294.50 186.67 L296.43 187.67 L298.36 188.67 L300.30 189.67 L302.23 190.67 L304.16 191.67 L306.09 192.67 L308.03 193.67 L309.96 194.67 L311.89 195.67 L313.82 196.67 L315.76 197.67 L317.69 198.67 L319.62 199.67 L321.55 200.67 L323.49 201.67 L325.42 202.67 L327.35 203.67 L329.28 204.67 L331.22 205.67 L333.15 206.67 L335.08 207.67 L337.01 208.67 L338.95 209.67 L340.88 210.67 L342.81 211.67 L344.74 212.67 L346.68 213.67 L348.61 214.67 L350.54 215.67 L352.47 216.67 L354.41 217.67 L356.34 218.67 L358.27 219.67 L360.20 220.67 L362.14 221.67 L364.07 222.67 L366.00 223.67 L367.94 224.67 L369.87 225.67 L371.80 226.67 L373.73 227.67 L375.67 228.67 L377.60 229.67 L379.53 230.67 L381.46 231.67 L383.40 232.67 L385.33 233.67 L387.26 234.67 L389.19 235.67 L391.13 236.67 L393.06 237.67 L394.99 238.67 L396.92 239.67 L398.86 240.67 L400.79 241.67 L402.72 242.67 L404.65 243.67 L406.59 244.67 L408.52 245.67 L410.45 246.67 L412.38 247.67 L414.32 248.67 L416.25 249.67 L418.18 250.67 L420.11 251.67 L422.05 252.67 L423.98 253.67 L425.91 254.67 L427.84 255.67 L429.78 256.67 L431.71 257.67 L433.64 258.67 L435.57 259.67 L437.51 260.67 L439.44 261.67 L441.37 262.67 L443.30 263.67 L445.24 264.67 L447.17 265.67 L449.10 266.67 L451.03 267.67 L452.97 268.67 L454.90 269.67 L456.83 270.67 L458.77 271.67 L460.70 272.67 L462.63 273.67 L464.56 274.67 L466.50 275.67 L468.43 276.67 L470.36 277.67 L472.29 278.67 L474.23 279.67 L476.16 280.67 L478.09 281.67 L480.02 282.67 L481.96 283.67 L483.89 284.67 L485.82 285.67 L487.75 286.67 L489.69 287.67 L491.62 288.67 L493.55 289.67 L495.48 290.67 L497.42 291.67 L499.35 292.67 L501.28 293.67 L503.21 294.67 L505.15 295.67 L507.08 296.67 L509.01 297.67 L510.94 298.67 L512.88 299.67 L514.81 300.67 L516.74 301.67 L518.67 302.67 L520.61 303.67 L522.54 304.67 L524.47 305.67 L526.40 306.67 L528.34 307.67 L530.27 308.67 L532.20 309.67 L534.13 310.67 L536.07 311.67 L538.00 312.67 L539.93 313.67 L541.86 314.67 L543.80 315.67 L545.73 316.67 L547.66 317.67 L549.59 318.67 L551.53 319.67 L553.46 320.67 L555.39 321.67 L557.33 322.67 L559.26 323.67 L561.19 324.67 L563.12 325.67 L565.06 326.67 L566.99 327.67 L568.92 328.67 L570.85 329.67 L572.79 330.67 L574.72 331.67 L576.65 332.67 L578.58 333.67 L580.52 334.67 L582.45 335.67 L584.38 336.67 L586.31 337.67 L588.25 338.67 L590.18 339.67 L592.11 340.67 L594.04 341.67 L595.98 342.67 L597.91 343.67 L599.84 344.67 L601.77 345.67 L603.71 346.67 L605.64 347.67 L607.57 348.67 L609.50 349.67 L611.44 350.67 L613.37 351.67 L615.30 352.67 L617.23 353.67 L619.17 354.67 L621.10 355.67 L623.03 356.67 L624.96 357.67 L626.90 358.67 L628.83 359.67 L630.76 360.67 L632.69 361.67 L634.63 362.67 L636.56 363.67 L638.49 364.67 L640.42 365.67 L642.36 366.67 L644.29 367.67 L646.22 368.67 L648.16 369.67 " style="fill:none;stroke:#0000FF;stroke-width:1;"/></g></svg>