<?xml version="1.0" encoding="UTF-8" standalone="no"?>
<!DOCTYPE svg PUBLIC "-//W3C//DTD SVG 1.1//EN" "http://www.w3.org/Graphics/SVG/1.1/DTD/svg11.dtd">
<svg xmlns="http://www.w3.org/2000/svg" viewBox="0 0 650 400" version="1.1"><clipPath id="box"><rect x="0" y="0" width="650" height="400" style="fill:none;stroke:none;"/></clipPath><g clip-path="url(#box)"><rect x="0.00" y="0.00" width="650.00" height="400.00" style="fill:#FFFFFF;stroke:none;"/><path d="M0.00 400.00 L650.00 400.00 M0.00 366.00 L650.00 366.00 M0.00 333.00 L650.00 333.00 M0.00 300.00 L650.00 300.00 M0.00 266.00 L650.00 266.00 M0.00 233.00 L650.00 233.00 M0.00 200.00 L650.00 200.00 M0.00 166.00 L650.00 166.00 M0.00 133.00 L650.00 133.00 M0.00 100.00 L650.00 100.00 M0.00 66.00 L650.00 66.00 M0.00 33.00 L650.00 33.00 M0.00 0.00 L650.00 0.00 M0.00 0.00 L0.00 400.00 M43.00 0.00 L43.00 400.00 M86.00 0.00 L86.00 400.00 M130.00 0.00 L130.00 400.00 M173.00 0.00 L173.00 400.00 M216.00 0.00 L216.00 400.00 M260.00 0.00 L260.00 400.00 M303.00 0.00 L303.00 400.00 M346.00 0.00 L346.00 400.00 M390.00 0.00 L390.00 400.00 M433.00 0.00 L433.00 400.00 M476.00 0.00 L476.00 400.00 M520.00 0.00 L520.00 400.00 M563.00 0.00 L563.00 400.00 M606.00 0.00 L606.00 400.00 " style="fill:none;stroke:#D0D0D0;stroke-width:1;"/><path d="M0.00 0.00 L0.00 400.00 " style="fill:none;stroke:#000000;stroke-width:1;"/><path d="M-6.50 400.00 L6.50 400.00 M-6.50 366.67 L6.50 366.67 M-6.50 333.33 L6.50 333.33 M-6.50 300.00 L6.50 300.00 M-6.50 266.67 L6.50 266.67 M-6.50 233.33 L6.50 233.33 M-6.50 200.00 L6.50 200.00 M-6.50 166.67 L6.50 166.67 M-6.50 133.33 L6.50 133.33 M-6.50 100.00 L6.50 100.00 M-6.50 66.67 L6.50 66.67 M-6.50 33.33 L6.50 33.33 M-6.50 0.00 L6.50 0.00 " style="fill:none;stroke:#000000;stroke-width:1;"/><path d="M0.00 200.00 L650.00 200.00 " style="fill:none;stroke:#000000;stroke-width:1;"/><path d="M0.00 193.50 L0.00 206.50 M43.33 193.50 L43.33 206.50 M86.67 193.50 L86.67 206.50 M130.00 193.50 L130.00 206.50 M173.33 193.50 L173.33 206.50 M216.67 193.50 L216.67 206.50 M260.00 193.50 L260.00 206.50 M303.33 193.50 L303.33 206.50 M346.67 193.50 L346.67 206.50 M390.00 193.50 L390.00 206.50 M433.33 193.50 L433.33 206.50 M476.67 193.50 L476.67 206.50 M520.00 193.50 L520.00 206.50 M563.33 193.50 L563.33 206.50 M606.67 193.50 L606.67 206.50 " style="fill:none;stroke:#000000;stroke-width:1;"/><text x="8.125" y="369.16666666666663" text-anchor="start" style="font:10px Droid Sans,Trebuchet MS,Arial,Helvetica,sans-serif;stroke:none;fill:#000000">-10</text><text x="8.125" y="335.83333333333337" text-anchor="start" style="font:10px Droid Sans,Trebuchet MS,Arial,Helvetica,sans-serif;stroke:none;fill:#000000">-8</text><text x="8.125" y="302.5" text-anchor="start" style="font:10px Droid Sans,Trebuchet MS,Arial,Helvetica,sans-serif;stroke:none;fill:#000000">-6</text><text x="8.125" y="269.16666666666663" text-anchor="start" style="font:10px Droid Sans,Trebuchet MS,Arial,Helvetica,sans-serif;stroke:none;fill:#000000">-4</text><text x="8.125" y="235.83333333333334" text-anchor="start" style="font:10px Droid Sans,Trebuchet MS,Arial,Helvetica,sans-serif;stroke:none;fill:#000000">-2</text><text x="8.125" y="202.5" text-anchor="start" style="font:10px Droid Sans,Trebuchet MS,Arial,Helvetica,sans-serif;stroke:none;fill:#000000">0</text><text x="8.125" y="169.16666666666669" text-anchor="start" style="font:10px Droid Sans,Trebuchet MS,Arial,Helvetica,sans-serif;stroke:none;fill:#000000">2</text><text x="8.125" y="135.83333333333331" text-anchor="start" style="font:10px Droid Sans,Trebuchet MS,Arial,Helvetica,sans-serif;stroke:none;fill:#000000">4</text><text x="8.125" y="102.5" text-anchor="start" style="font:10px Droid Sans,Trebuchet MS,Arial,Helvetica,sans-serif;stroke:none;fill:#000000">6</text><text x="8.125" y="69.16666666666666" text-anchor="start" style="font:10px Droid Sans,Trebuchet MS,Arial,Helvetica,sans-serif;stroke:none;fill:#000000">8</text><text x="8.125" y="35.83333333333333" text-anchor="start" style="font:10px Droid Sans,Trebuchet MS,Arial,Helvetica,sans-serif;stroke:none;fill:#000000">10</text><text x="43.333333333333336" y="216.125" text-anchor="middle" style="font:10px Droid Sans,Trebuchet MS,Arial,Helvetica,sans-serif;stroke:none;fill:#000000">0.2</text><text x="86.66666666666667" y="216.125" text-anchor="middle" style="font:10px Droid Sans,Trebuchet MS,Arial,Helvetica,sans-serif;stroke:none;fill:#000000">0.4</text><text x="130.00000000000003" y="216.125" text-anchor="middle" style="font:10px Droid Sans,Trebuchet MS,Arial,Helvetica,sans-serif;stroke:none;fill:#000000">0.6</text><text x="173.33333333333334" y="216.125" text-anchor="middle" style="font:10px Droid Sans,Trebuchet MS,Arial,Helvetica,sans-serif;stroke:none;fill:#000000">0.8</text><text x="216.66666666666666" y="216.125" text-anchor="middle" style="font:10px Droid Sans,Trebuchet MS,Arial,Helvetica,sans-serif;stroke:none;fill:#000000">1</text><text x="260" y="216.125" text-anchor="middle" style="font:10px Droid Sans,Trebuchet MS,Arial,Helvetica,sans-serif;stroke:none;fill:#000000">1.2</text><text x="303.3333333333333" y="216.125" text-anchor="middle" style="font:10px Droid Sans,Trebuchet MS,Arial,Helvetica,sans-serif;stroke:none;fill:#000000">1.4</text><text x="346.6666666666667" y="216.125" text-anchor="middle" style="font:10px Droid Sans,Trebuchet MS,Arial,Helvetica,sans-serif;stroke:none;fill:#000000">1.6</text><text x="390" y="216.125" text-anchor="middle" style="font:10px Droid Sans,Trebuchet MS,Arial,Helvetica,sans-serif;stroke:none;fill:#000000">1.8</text><text x="433.3333333333333" y="216.125" text-anchor="middle" style="font:10px Droid Sans,Trebuchet MS,Arial,Helvetica,sans-serif;stroke:none;fill:#000000">2</text><text x="476.66666666666663" y="216.125" text-anchor="middle" style="font:10px Droid Sans,Trebuchet MS,Arial,Helvetica,sans-serif;stroke:none;fill:#000000">2.2</text><text x="520" y="216.125" text-anchor="middle" style="font:10px Droid Sans,Trebuchet MS,Arial,Helvetica,sans-serif;stroke:none;fill:#000000">2.4</text><text x="563.3333333333334" y="216.125" text-anchor="middle" style="font:10px Droid Sans,Trebuchet MS,Arial,Helvetica,sans-serif;stroke:none;fill:#000000">2.6</text><text x="606.6666666666667" y="216.125" text-anchor="middle" style="font:10px Droid Sans,Trebuchet MS,Arial,Helvetica,sans-serif;stroke:none;fill:#000000">2.8</text><path d="M-10.00 200.00 L-0.25 363.50 L0.75 363.50 L2.75 363.50 L4.75 363.50 L6.75 363.50 L8.75 363.50 L10.75 363.50 L12.75 363.50 L14.75 363.50 L16.75 363.50 L18.75 363.50 L20.75 363.50 L22.75 363.50 L24.75 363.50 L26.75 363.50 L28.75 363.50 L30.75 363.50 L32.75 363.50 L34.75 363.50 L36.75 363.50 L38.75 363.50 L40.75 363.50 L42.75 363.50 L44.75 363.50 L46.75 363.50 L48.75 363.50 L50.75 363.50 L52.75 363.50 L54.75 363.50 L56.75 363.50 L58.75 363.50 L60.75 363.50 L62.75 363.50 L64.75 363.50 L66.75 363.50 L68.75 363.50 L70.75 363.50 L72.75 363.50 L74.75 363.50 L76.75 363.50 L78.75 363.50 L80.75 363.50 L82.75 363.50 L84.75 363.50 L86.75 363.50 L88.75 363.50 L90.75 363.50 L92.75 363.50 L94.75 363.50 L96.75 363.50 L98.75 363.50 L100.75 363.50 L102.75 363.50 L104.75 363.50 L106.75 363.50 L108.75 363.50 L110.75 363.50 L112.75 363.50 L114.75 363.50 L116.75 363.50 L118.75 363.50 L120.75 363.50 L122.75 363.50 L124.75 363.50 L126.75 363.50 L128.75 363.50 L130.75 363.50 L132.75 363.50 L134.75 363.50 L136.75 363.50 L138.75 363.50 L140.75 363.50 L142.75 363.50 L144.75 363.50 L146.75 363.50 L148.75 363.50 L150.75 363.50 L152.75 363.50 L154.75 363.50 L156.75 363.50 L158.75 363.50 L160.75 363.50 L162.75 363.50 L164.75 363.50 L166.75 363.50 L168.75 363.50 L170.75 363.50 L172.75 363.50 L174.75 363.50 L176.75 363.50 L178.75 363.50 L180.75 363.50 L182.75 363.50 L184.75 363.50 L186.75 363.50 L188.75 363.50 L190.75 363.50 L192.75 363.50 L194.75 363.50 L196.75 363.50 L198.75 363.50 L200.75 363.50 L202.75 363.50 L204.75 363.50 L206.75 363.50 L208.75 363.50 L210.75 363.50 L212.75 363.50 L214.75 363.50 L216.75 363.50 L218.75 363.50 L220.75 363.50 L222.75 363.50 L224.75 363.50 L226.75 363.50 L228.75 363.50 L230.75 363.50 L232.75 363.50 L234.75 363.50 L236.75 363.50 L238.75 363.50 L240.75 363.50 L242.75 363.50 L244.75 363.50 L246.75 363.50 L248.75 363.50 L250.75 363.50 L252.75 363.50 L254.75 363.50 L256.75 363.50 L258.75 363.50 L260.75 363.50 L262.75 363.50 L264.75 363.50 L266.75 363.50 L268.75 363.50 L270.75 363.50 L272.75 363.50 L274.75 363.50 L276.75 363.50 L278.75 363.50 L280.75 363.50 L282.75 363.50 L284.75 363.50 L286.75 363.50 L288.75 363.50 L290.75 363.50 L292.75 363.50 L294.75 363.50 L296.75 363.50 L298.75 363.50 L300.75 363.50 L302.75 363.50 L304.75 363.50 L306.75 363.50 L308.75 363.50 L310.75 363.50 L312.75 363.50 L314.75 363.50 L316.75 363.50 L318.75 363.50 L320.75 363.50 L322.75 363.50 L324.75 363.50 L326.75 363.50 L328.75 363.50 L330.75 363.50 L332.75 363.50 L334.75 363.50 L336.75 363.50 L338.75 363.50 L340.75 363.50 L342.75 363.50 L344.75 363.50 L346.75 363.50 L348.75 363.50 L350.75 363.50 L352.75 363.50 L354.75 363.50 L356.75 363.50 L358.75 363.50 L360.75 363.50 L362.75 363.50 L364.75 363.50 L366.75 363.50 L368.75 363.50 L370.75 363.50 L372.75 363.50 L374.75 363.50 L376.75 363.50 L378.75 363.50 L380.75 363.50 L382.75 363.50 L384.75 363.50 L386.75 363.50 L388.75 363.50 L390.75 363.50 L392.75 363.50 L394.75 363.50 L396.75 363.50 L398.75 363.50 L400.75 363.50 L402.75 363.50 L404.75 363.50 L406.75 363.50 L408.75 363.50 L410.75 363.50 L412.75 363.50 L414.75 363.50 L416.75 363.50 L418.75 363.50 L420.75 363.50 L422.75 363.50 L424.75 363.50 L426.75 363.50 L428.75 363.50 L430.75 363.50 L432.75 363.50 L434.75 363.50 L436.75 363.50 L438.75 363.50 L440.75 363.50 L442.75 363.50 L444.75 363.50 L446.75 363.50 L448.75 363.50 L450.75 363.50 L452.75 363.50 L454.75 363.50 L456.75 363.50 L458.75 363.50 L460.75 363.50 L462.75 363.50 L464.75 363.50 L466.75 363.50 L468.75 363.50 L470.75 363.50 L472.75 363.50 L474.75 363.50 L476.75 363.50 L478.75 363.50 L480.75 363.50 L482.75 363.50 L484.75 363.50 L486.75 363.50 L488.75 363.50 L490.75 363.50 L492.75 363.50 L494.75 363.50 L496.75 363.50 L498.75 363.50 L500.75 363.50 L502.75 363.50 L504.75 363.50 L506.75 363.50 L508.75 363.50 L510.75 363.50 L512.75 363.50 L514.75 363.50 L516.75 363.50 L518.75 363.50 L520.75 363.50 L522.75 363.50 L524.75 363.50 L526.75 363.50 L528.75 363.50 L530.75 363.50 L532.75 363.50 L534.75 363.50 L536.75 363.50 L538.75 363.50 L540.75 363.50 L542.75 363.50 L544.75 363.50 L546.75 363.50 L548.75 363.50 L550.75 363.50 L552.75 363.50 L554.75 363.50 L556.75 363.50 L558.75 363.50 L560.75 363.50 L562.75 363.50 L564.75 363.50 L566.75 363.50 L568.75 363.50 L570.75 363.50 L572.75 363.50 L574.75 363.50 L576.75 363.50 L578.75 363.50 L580.75 363.50 L582.75 363.50 L584.75 363.50 L586.75 363.50 L588.75 363.50 L590.75 363.50 L592.75 363.50 L594.75 363.50 L596.75 363.50 L598.75 363.50 L600.75 363.50 L602.75 363.50 L604.75 363.50 L606.75 363.50 L608.75 363.50 L610.75 363.50 L612.75 363.50 L614.75 363.50 L616.75 363.50 L618.75 363.50 L620.75 363.50 L622.75 363.50 L624.75 363.50 L626.75 363.50 L628.75 363.50 L630.75 363.50 L632.75 363.50 L634.75 363.50 L636.75 363.50 L638.75 363.50 L640.75 363.50 L642.75 363.50 L644.75 363.50 L646.75 363.50 L648.75 363.50 " style="fill:none;stroke:#0000FF;stroke-width:1;"/></g></svg>