<?xml version="1.0" encoding="UTF-8" standalone="no"?>
<!DOCTYPE svg PUBLIC "-//W3C//DTD SVG 1.1//EN" "http://www.w3.org/Graphics/SVG/1.1/DTD/svg11.dtd">
<svg xmlns="http://www.w3.org/2000/svg" viewBox="0 0 650 400" version="1.1"><clipPath id="box"><rect x="0" y="0" width="650" height="400" style="fill:none;stroke:none;"/></clipPath><g clip-path="url(#box)"><rect x="0.00" y="0.00" width="650.00" height="400.00" style="fill:#FFFFFF;stroke:none;"/><path d="M0.00 400.00 L650.00 400.00 M0.00 360.00 L650.00 360.00 M0.00 320.00 L650.00 320.00 M0.00 280.00 L650.00 280.00 M0.00 240.00 L650.00 240.00 M0.00 200.00 L650.00 200.00 M0.00 160.00 L650.00 160.00 M0.00 120.00 L650.00 120.00 M0.00 79.00 L650.00 79.00 M0.00 39.00 L650.00 39.00 M0.00 0.00 L650.00 0.00 M0.00 0.00 L0.00 400.00 M43.00 0.00 L43.00 400.00 M86.00 0.00 L86.00 400.00 M130.00 0.00 L130.00 400.00 M173.00 0.00 L173.00 400.00 M216.00 0.00 L216.00 400.00 M260.00 0.00 L260.00 400.00 M303.00 0.00 L303.00 400.00 M346.00 0.00 L346.00 400.00 M390.00 0.00 L390.00 400.00 M433.00 0.00 L433.00 400.00 M476.00 0.00 L476.00 400.00 M520.00 0.00 L520.00 400.00 M563.00 0.00 L563.00 400.00 M606.00 0.00 L606.00 400.00 " style="fill:none;stroke:#D0D0D0;stroke-width:1;"/><path d="M0.00 0.00 L0.00 400.00 " style="fill:none;stroke:#000000;stroke-width:1;"/><path d="M-6.50 400.00 L6.50 400.00 M-6.50 360.00 L6.50 360.00 M-6.50 320.00 L6.50 320.00 M-6.50 280.00 L6.50 280.00 M-6.50 240.00 L6.50 240.00 M-6.50 200.00 L6.50 200.00 M-6.50 160.00 L6.50 160.00 M-6.50 120.00 L6.50 120.00 M-6.50 80.00 L6.50 80.00 M-6.50 40.00 L6.50 40.00 M-6.50 0.00 L6.50 0.00 " style="fill:none;stroke:#000000;stroke-width:1;"/><path d="M0.00 400.00 L650.00 400.00 " style="fill:none;stroke:#000000;stroke-width:1;"/><path d="M0.00 393.50 L0.00 406.50 M43.33 393.50 L43.33 406.50 M86.67 393.50 L86.67 406.50 M130.00 393.50 L130.00 406.50 M173.33 393.50 L173.33 406.50 M216.67 393.50 L216.67 406.50 M260.00 393.50 L260.00 406.50 M303.33 393.50 L303.33 406.50 M346.67 393.50 L346.67 406.50 M390.00 393.50 L390.00 406.50 M433.33 393.50 L433.33 406.50 M476.67 393.50 L476.67 406.50 M520.00 393.50 L520.00 406.50 M563.33 393.50 L563.33 406.50 M606.67 393.50 L606.67 406.50 " style="fill:none;stroke:#000000;stroke-width:1;"/><text x="8.125" y="362.5" text-anchor="start" style="font:10px Droid Sans,Trebuchet MS,Arial,Helvetica,sans-serif;stroke:none;fill:#000000">2</text><text x="8.125" y="322.5" text-anchor="start" style="font:10px Droid Sans,Trebuchet MS,Arial,Helvetica,sans-serif;stroke:none;fill:#000000">4</text><text x="8.125" y="282.5" text-anchor="start" style="font:10px Droid Sans,Trebuchet MS,Arial,Helvetica,sans-serif;stroke:none;fill:#000000">6</text><text x="8.125" y="242.5" text-anchor="start" style="font:10px Droid Sans,Trebuchet MS,Arial,Helvetica,sans-serif;stroke:none;fill:#000000">8</text><text x="8.125" y="202.5" text-anchor="start" style="font:10px Droid Sans,Trebuchet MS,Arial,Helvetica,sans-serif;stroke:none;fill:#000000">10</text><text x="8.125" y="162.5" text-anchor="start" style="font:10px Droid Sans,Trebuchet MS,Arial,Helvetica,sans-serif;stroke:none;fill:#000000">12</text><text x="8.125" y="122.5" text-anchor="start" style="font:10px Droid Sans,Trebuchet MS,Arial,Helvetica,sans-serif;stroke:none;fill:#000000">14</text><text x="8.125" y="82.5" text-anchor="start" style="font:10px Droid Sans,Trebuchet MS,Arial,Helvetica,sans-serif;stroke:none;fill:#000000">16</text><text x="8.125" y="42.5" text-anchor="start" style="font:10px Droid Sans,Trebuchet MS,Arial,Helvetica,sans-serif;stroke:none;fill:#000000">18</text><text x="43.333333333333336" y="389.625" text-anchor="middle" style="font:10px Droid Sans,Trebuchet MS,Arial,Helvetica,sans-serif;stroke:none;fill:#000000">0.2</text><text x="86.66666666666667" y="389.625" text-anchor="middle" style="font:10px Droid Sans,Trebuchet MS,Arial,Helvetica,sans-serif;stroke:none;fill:#000000">0.4</text><text x="130.00000000000003" y="389.625" text-anchor="middle" style="font:10px Droid Sans,Trebuchet MS,Arial,Helvetica,sans-serif;stroke:none;fill:#000000">0.6</text><text x="173.33333333333334" y="389.625" text-anchor="middle" style="font:10px Droid Sans,Trebuchet MS,Arial,Helvetica,sans-serif;stroke:none;fill:#000000">0.8</text><text x="216.66666666666666" y="389.625" text-anchor="middle" style="font:10px Droid Sans,Trebuchet MS,Arial,Helvetica,sans-serif;stroke:none;fill:#000000">1</text><text x="260" y="389.625" text-anchor="middle" style="font:10px Droid Sans,Trebuchet MS,Arial,Helvetica,sans-serif;stroke:none;fill:#000000">1.2</text><text x="303.3333333333333" y="389.625" text-anchor="middle" style="font:10px Droid Sans,Trebuchet MS,Arial,Helvetica,sans-serif;stroke:none;fill:#000000">1.4</text><text x="346.6666666666667" y="389.625" text-anchor="middle" style="font:10px Droid Sans,Trebuchet MS,Arial,Helvetica,sans-serif;stroke:none;fill:#000000">1.6</text><text x="390" y="389.625" text-anchor="middle" style="font:10px Droid Sans,Trebuchet MS,Arial,Helvetica,sans-serif;stroke:none;fill:#000000">1.8</text><text x="433.3333333333333" y="389.625" text-anchor="middle" style="font:10px Droid Sans,Trebuchet MS,Arial,Helvetica,sans-serif;stroke:none;fill:#000000">2</text><text x="476.66666666666663" y="389.625" text-anchor="middle" style="font:10px Droid Sans,Trebuchet MS,Arial,Helvetica,sans-serif;stroke:none;fill:#000000">2.2</text><text x="520" y="389.625" text-anchor="middle" style="font:10px Droid Sans,Trebuchet MS,Arial,Helvetica,sans-serif;stroke:none;fill:#000000">2.4</text><text x="563.3333333333334" y="389.625" text-anchor="middle" style="font:10px Droid Sans,Trebuchet MS,Arial,Helvetica,sans-serif;stroke:none;fill:#000000">2.6</text><text x="606.6666666666667" y="389.625" text-anchor="middle" style="font:10px Droid Sans,Trebuchet MS,Arial,Helvetica,sans-serif;stroke:none;fill:#000000">2.8</text><path d="M-10.00 200.00 L-0.25 159.77 L0.75 160.68 L1.85 161.68 L2.96 162.68 L4.06 163.68 L5.17 164.68 L6.27 165.68 L7.38 166.68 L8.48 167.68 L9.58 168.68 L10.69 169.68 L11.79 170.68 L12.90 171.68 L14.00 172.68 L15.11 173.68 L16.21 174.68 L17.31 175.68 L18.42 176.68 L19.52 177.68 L20.63 178.68 L21.73 179.68 L22.84 180.68 L23.94 181.68 L25.05 182.68 L26.15 183.68 L27.25 184.68 L28.36 185.68 L29.46 186.68 L30.57 187.68 L31.67 188.68 L32.78 189.68 L33.88 190.68 L34.98 191.68 L36.09 192.68 L37.19 193.68 L38.30 194.68 L39.40 195.68 L40.51 196.68 L41.61 197.68 L42.71 198.68 L43.82 199.68 L44.92 200.68 L46.03 201.68 L47.13 202.68 L48.24 203.68 L49.34 204.68 L50.44 205.68 L51.55 206.68 L52.65 207.68 L53.76 208.68 L54.86 209.68 L55.97 210.68 L57.07 211.68 L58.17 212.68 L59.28 213.68 L60.38 214.68 L61.49 215.68 L62.59 216.68 L63.70 217.68 L64.80 218.68 L65.90 219.68 L67.01 220.68 L68.11 221.68 L69.22 222.68 L70.32 223.68 L71.43 224.68 L72.53 225.68 L73.64 226.68 L74.74 227.68 L75.84 228.68 L76.95 229.68 L78.05 230.68 L79.16 231.68 L80.26 232.68 L81.37 233.68 L82.47 234.68 L83.57 235.68 L84.68 236.68 L85.78 237.68 L86.89 238.68 L87.99 239.68 L89.10 240.68 L90.20 241.68 L91.30 242.68 L92.41 243.68 L93.51 244.68 L94.62 245.68 L95.72 246.68 L96.83 247.68 L97.93 248.68 L99.03 249.68 L100.14 250.68 L101.24 251.68 L102.35 252.68 L103.45 253.68 L104.56 254.68 L105.66 255.68 L106.76 256.68 L107.87 257.68 L108.97 258.68 L110.08 259.68 L111.18 260.68 L112.29 261.68 L113.39 262.68 L114.49 263.68 L115.60 264.68 L116.70 265.68 L117.81 266.68 L118.91 267.68 L120.02 268.68 L121.12 269.68 L122.22 270.68 L123.33 271.68 L124.43 272.68 L125.54 273.68 L126.64 274.68 L127.75 275.68 L128.85 276.68 L129.96 277.68 L131.06 278.68 L132.16 279.68 L133.27 280.68 L134.37 281.68 L135.48 282.68 L136.58 283.68 L137.69 284.68 L138.79 285.68 L139.89 286.68 L141.00 287.68 L142.10 288.68 L143.21 289.68 L144.31 290.68 L145.42 291.68 L146.52 292.68 L147.62 293.68 L148.73 294.68 L149.83 295.68 L150.94 296.68 L152.04 297.68 L153.15 298.68 L154.25 299.68 L155.35 300.68 L156.46 301.68 L157.56 302.68 L158.67 303.68 L159.77 304.68 L160.88 305.68 L161.98 306.68 L163.08 307.68 L164.19 308.68 L165.29 309.68 L166.40 310.68 L167.50 311.68 L168.61 312.68 L169.71 313.68 L170.81 314.68 L171.92 315.68 L173.02 316.68 L174.13 317.68 L175.23 318.68 L176.34 319.68 L177.44 320.68 L178.55 321.68 L179.65 322.68 L180.75 323.68 L181.86 324.68 L182.96 325.68 L184.07 326.68 L185.17 327.68 L186.28 328.68 L187.38 329.68 L188.48 330.68 L189.59 331.68 L190.69 332.68 L191.80 333.68 L192.90 334.68 L194.01 335.68 L195.11 336.68 L196.21 337.68 L197.32 338.68 L198.42 339.68 L199.53 340.68 L200.63 341.68 L201.74 342.68 L202.84 343.68 L203.94 344.68 L205.05 345.68 L206.15 346.68 L207.26 347.68 L208.36 348.68 L209.47 349.68 L210.57 350.68 L211.67 351.68 L212.78 352.68 L213.88 353.68 L214.99 354.68 L216.09 355.68 L217.20 356.68 L218.30 357.68 L219.40 358.68 L220.51 359.68 L221.61 360.68 L222.72 361.68 L223.82 362.68 L224.93 363.68 L226.03 364.68 L227.13 365.68 L228.24 366.68 L229.34 367.68 L230.45 368.68 L231.55 369.68 L232.66 370.68 L233.76 371.68 L234.87 372.68 L235.97 373.68 L237.07 374.68 L238.18 375.68 L239.28 376.68 L240.39 377.68 L241.49 378.68 L242.60 379.68 L243.70 380.68 L244.80 381.68 L245.91 382.68 L247.01 383.68 L248.12 384.68 L249.22 385.68 L250.33 386.68 L251.43 387.68 L252.53 388.68 L253.64 389.68 L254.74 390.68 L255.85 391.68 L256.95 392.68 L258.06 393.68 L259.16 394.68 L260.26 395.68 L261.37 396.68 L262.47 397.68 L263.58 398.68 L264.68 399.68 L265.79 399.32 L267.79 397.51 L268.89 396.51 L269.99 395.51 L271.10 394.51 L272.20 393.51 L273.31 392.51 L274.41 391.51 L275.52 390.51 L276.62 389.51 L277.72 388.51 L278.83 387.51 L279.93 386.51 L281.04 385.51 L282.14 384.51 L283.25 383.51 L284.35 382.51 L285.45 381.51 L286.56 380.51 L287.66 379.51 L288.77 378.51 L289.87 377.51 L290.98 376.51 L292.08 375.51 L293.19 374.51 L294.29 373.51 L295.39 372.51 L296.50 371.51 L297.60 370.51 L298.71 369.51 L299.81 368.51 L300.92 367.51 L302.02 366.51 L303.12 365.51 L304.23 364.51 L305.33 363.51 L306.44 362.51 L307.54 361.51 L308.65 360.51 L309.75 359.51 L310.85 358.51 L311.96 357.51 L313.06 356.51 L314.17 355.51 L315.27 354.51 L316.38 353.51 L317.48 352.51 L318.58 351.51 L319.69 350.51 L320.79 349.51 L321.90 348.51 L323.00 347.51 L324.11 346.51 L325.21 345.51 L326.31 344.51 L327.42 343.51 L328.52 342.51 L329.63 341.51 L330.73 340.51 L331.84 339.51 L332.94 338.51 L334.04 337.51 L335.15 336.51 L336.25 335.51 L337.36 334.51 L338.46 333.51 L339.57 332.51 L340.67 331.51 L341.78 330.51 L342.88 329.51 L343.98 328.51 L345.09 327.51 L346.19 326.51 L347.30 325.51 L348.40 324.51 L349.51 323.51 L350.61 322.51 L351.71 321.51 L352.82 320.51 L353.92 319.51 L355.03 318.51 L356.13 317.51 L357.24 316.51 L358.34 315.51 L359.44 314.51 L360.55 313.51 L361.65 312.51 L362.76 311.51 L363.86 310.51 L364.97 309.51 L366.07 308.51 L367.17 307.51 L368.28 306.51 L369.38 305.51 L370.49 304.51 L371.59 303.51 L372.70 302.51 L373.80 301.51 L374.90 300.51 L376.01 299.51 L377.11 298.51 L378.22 297.51 L379.32 296.51 L380.43 295.51 L381.53 294.51 L382.63 293.51 L383.74 292.51 L384.84 291.51 L385.95 290.51 L387.05 289.51 L388.16 288.51 L389.26 287.51 L390.36 286.51 L391.47 285.51 L392.57 284.51 L393.68 283.51 L394.78 282.51 L395.89 281.51 L396.99 280.51 L398.10 279.51 L399.20 278.51 L400.30 277.51 L401.41 276.51 L402.51 275.51 L403.62 274.51 L404.72 273.51 L405.83 272.51 L406.93 271.51 L408.03 270.51 L409.14 269.51 L410.24 268.51 L411.35 267.51 L412.45 266.51 L413.56 265.51 L414.66 264.51 L415.76 263.51 L416.87 262.51 L417.97 261.51 L419.08 260.51 L420.18 259.51 L421.29 258.51 L422.39 257.51 L423.49 256.51 L424.60 255.51 L425.70 254.51 L426.81 253.51 L427.91 252.51 L429.02 251.51 L430.12 250.51 L431.22 249.51 L432.33 248.51 L433.43 247.51 L434.54 246.51 L435.64 245.51 L436.75 244.51 L437.85 243.51 L438.95 242.51 L440.06 241.51 L441.16 240.51 L442.27 239.51 L443.37 238.51 L444.48 237.51 L445.58 236.51 L446.69 235.51 L447.79 234.51 L448.89 233.51 L450.00 232.51 L451.10 231.51 L452.21 230.51 L453.31 229.51 L454.42 228.51 L455.52 227.51 L456.62 226.51 L457.73 225.51 L458.83 224.51 L459.94 223.51 L461.04 222.51 L462.15 221.51 L463.25 220.51 L464.35 219.51 L465.46 218.51 L466.56 217.51 L467.67 216.51 L468.77 215.51 L469.88 214.51 L470.98 213.51 L472.08 212.51 L473.19 211.51 L474.29 210.51 L475.40 209.51 L476.50 208.51 L477.61 207.51 L478.71 206.51 L479.81 205.51 L480.92 204.51 L482.02 203.51 L483.13 202.51 L484.23 201.51 L485.34 200.51 L486.44 199.51 L487.54 198.51 L488.65 197.51 L489.75 196.51 L490.86 195.51 L491.96 194.51 L493.07 193.51 L494.17 192.51 L495.27 191.51 L496.38 190.51 L497.48 189.51 L498.59 188.51 L499.69 187.51 L500.80 186.51 L501.90 185.51 L503.01 184.51 L504.11 183.51 L505.21 182.51 L506.32 181.51 L507.42 180.51 L508.53 179.51 L509.63 178.51 L510.74 177.51 L511.84 176.51 L512.94 175.51 L514.05 174.51 L515.15 173.51 L516.26 172.51 L517.36 171.51 L518.47 170.51 L519.57 169.51 L520.67 168.51 L521.78 167.51 L522.88 166.51 L523.99 165.51 L525.09 164.51 L526.20 163.51 L527.30 162.51 L528.40 161.51 L529.51 160.51 L530.61 159.51 L531.72 158.51 L532.82 157.51 L533.93 156.51 L535.03 155.51 L536.13 154.51 L537.24 153.51 L538.34 152.51 L539.45 151.51 L540.55 150.51 L541.66 149.51 L542.76 148.51 L543.86 147.51 L544.97 146.51 L546.07 145.51 L547.18 144.51 L548.28 143.51 L549.39 142.51 L550.49 141.51 L551.59 140.51 L552.70 139.51 L553.80 138.51 L554.91 137.51 L556.01 136.51 L557.12 135.51 L558.22 134.51 L559.33 133.51 L560.43 132.51 L561.53 131.51 L562.64 130.51 L563.74 129.51 L564.85 128.51 L565.95 127.51 L567.06 126.51 L568.16 125.51 L569.26 124.51 L570.37 123.51 L571.47 122.51 L572.58 121.51 L573.68 120.51 L574.79 119.51 L575.89 118.51 L576.99 117.51 L578.10 116.51 L579.20 115.51 L580.31 114.51 L581.41 113.51 L582.52 112.51 L583.62 111.51 L584.72 110.51 L585.83 109.51 L586.93 108.51 L588.04 107.51 L589.14 106.51 L590.25 105.51 L591.35 104.51 L592.45 103.51 L593.56 102.51 L594.66 101.51 L595.77 100.51 L596.87 99.51 L597.98 98.51 L599.08 97.51 L600.18 96.51 L601.29 95.51 L602.39 94.51 L603.50 93.51 L604.60 92.51 L605.71 91.51 L606.81 90.51 L607.92 89.51 L609.02 88.51 L610.12 87.51 L611.23 86.51 L612.33 85.51 L613.44 84.51 L614.54 83.51 L615.65 82.51 L616.75 81.51 L617.85 80.51 L618.96 79.51 L620.06 78.51 L621.17 77.51 L622.27 76.51 L623.38 75.51 L624.48 74.51 L625.58 73.51 L626.69 72.51 L627.79 71.51 L628.90 70.51 L630.00 69.51 L631.11 68.51 L632.21 67.51 L633.31 66.51 L634.42 65.51 L635.52 64.51 L636.63 63.51 L637.73 62.51 L638.84 61.51 L639.94 60.51 L641.04 59.51 L642.15 58.51 L643.25 57.51 L644.36 56.51 L645.46 55.51 L646.57 54.51 L647.67 53.51 L648.77 52.51 L649.88 51.51 " style="fill:none;stroke:#0000FF;stroke-width:1;"/></g></svg>