<?xml version="1.0" encoding="UTF-8" standalone="no"?>
<!DOCTYPE svg PUBLIC "-//W3C//DTD SVG 1.1//EN" "http://www.w3.org/Graphics/SVG/1.1/DTD/svg11.dtd">
<svg xmlns="http://www.w3.org/2000/svg" viewBox="0 0 650 400" version="1.1"><clipPath id="box"><rect x="0" y="0" width="650" height="400" style="fill:none;stroke:none;"/></clipPath><g clip-path="url(#box)"><rect x="0.00" y="0.00" width="650.00" height="400.00" style="fill:#FFFFFF;stroke:none;"/><path d="M0.00 400.00 L650.00 400.00 M0.00 333.00 L650.00 333.00 M0.00 266.00 L650.00 266.00 M0.00 200.00 L650.00 200.00 M0.00 133.00 L650.00 133.00 M0.00 66.00 L650.00 66.00 M0.00 0.00 L650.00 0.00 M0.00 0.00 L0.00 400.00 M43.00 0.00 L43.00 400.00 M86.00 0.00 L86.00 400.00 M130.00 0.00 L130.00 400.00 M173.00 0.00 L173.00 400.00 M216.00 0.00 L216.00 400.00 M260.00 0.00 L260.00 400.00 M303.00 0.00 L303.00 400.00 M346.00 0.00 L346.00 400.00 M390.00 0.00 L390.00 400.00 M433.00 0.00 L433.00 400.00 M476.00 0.00 L476.00 400.00 M520.00 0.00 L520.00 400.00 M563.00 0.00 L563.00 400.00 M606.00 0.00 L606.00 400.00 " style="fill:none;stroke:#D0D0D0;stroke-width:1;"/><path d="M0.00 0.00 L0.00 400.00 " style="fill:none;stroke:#000000;stroke-width:1;"/><path d="M-6.50 400.00 L6.50 400.00 M-6.50 333.33 L6.50 333.33 M-6.50 266.67 L6.50 266.67 M-6.50 200.00 L6.50 200.00 M-6.50 133.33 L6.50 133.33 M-6.50 66.67 L6.50 66.67 M-6.50 0.00 L6.50 0.00 " style="fill:none;stroke:#000000;stroke-width:1;"/><path d="M0.00 400.00 L650.00 400.00 " style="fill:none;stroke:#000000;stroke-width:1;"/><path d="M0.00 393.50 L0.00 406.50 M43.33 393.50 L43.33 406.50 M86.67 393.50 L86.67 406.50 M130.00 393.50 L130.00 406.50 M173.33 393.50 L173.33 406.50 M216.67 393.50 L216.67 406.50 M260.00 393.50 L260.00 406.50 M303.33 393.50 L303.33 406.50 M346.67 393.50 L346.67 406.50 M390.00 393.50 L390.00 406.50 M433.33 393.50 L433.33 406.50 M476.67 393.50 L476.67 406.50 M520.00 393.50 L520.00 406.50 M563.33 393.50 L563.33 406.50 M606.67 393.50 L606.67 406.50 " style="fill:none;stroke:#000000;stroke-width:1;"/><text x="8.125" y="335.83333333333337" text-anchor="start" style="font:10px Droid Sans,Trebuchet MS,Arial,Helvetica,sans-serif;stroke:none;fill:#000000">2</text><text x="8.125" y="269.16666666666663" text-anchor="start" style="font:10px Droid Sans,Trebuchet MS,Arial,Helvetica,sans-serif;stroke:none;fill:#000000">4</text><text x="8.125" y="202.5" text-anchor="start" style="font:10px Droid Sans,Trebuchet MS,Arial,Helvetica,sans-serif;stroke:none;fill:#000000">6</text><text x="8.125" y="135.83333333333331" text-anchor="start" style="font:10px Droid Sans,Trebuchet MS,Arial,Helvetica,sans-serif;stroke:none;fill:#000000">8</text><text x="8.125" y="69.16666666666666" text-anchor="start" style="font:10px Droid Sans,Trebuchet MS,Arial,Helvetica,sans-serif;stroke:none;fill:#000000">10</text><text x="43.333333333333336" y="389.625" text-anchor="middle" style="font:10px Droid Sans,Trebuchet MS,Arial,Helvetica,sans-serif;stroke:none;fill:#000000">0.2</text><text x="86.66666666666667" y="389.625" text-anchor="middle" style="font:10px Droid Sans,Trebuchet MS,Arial,Helvetica,sans-serif;stroke:none;fill:#000000">0.4</text><text x="130.00000000000003" y="389.625" text-anchor="middle" style="font:10px Droid Sans,Trebuchet MS,Arial,Helvetica,sans-serif;stroke:none;fill:#000000">0.6</text><text x="173.33333333333334" y="389.625" text-anchor="middle" style="font:10px Droid Sans,Trebuchet MS,Arial,Helvetica,sans-serif;stroke:none;fill:#000000">0.8</text><text x="216.66666666666666" y="389.625" text-anchor="middle" style="font:10px Droid Sans,Trebuchet MS,Arial,Helvetica,sans-serif;stroke:none;fill:#000000">1</text><text x="260" y="389.625" text-anchor="middle" style="font:10px Droid Sans,Trebuchet MS,Arial,Helvetica,sans-serif;stroke:none;fill:#000000">1.2</text><text x="303.3333333333333" y="389.625" text-anchor="middle" style="font:10px Droid Sans,Trebuchet MS,Arial,Helvetica,sans-serif;stroke:none;fill:#000000">1.4</text><text x="346.6666666666667" y="389.625" text-anchor="middle" style="font:10px Droid Sans,Trebuchet MS,Arial,Helvetica,sans-serif;stroke:none;fill:#000000">1.6</text><text x="390" y="389.625" text-anchor="middle" style="font:10px Droid Sans,Trebuchet MS,Arial,Helvetica,sans-serif;stroke:none;fill:#000000">1.8</text><text x="433.3333333333333" y="389.625" text-anchor="middle" style="font:10px Droid Sans,Trebuchet MS,Arial,Helvetica,sans-serif;stroke:none;fill:#000000">2</text><text x="476.66666666666663" y="389.625" text-anchor="middle" style="font:10px Droid Sans,Trebuchet MS,Arial,Helvetica,sans-serif;stroke:none;fill:#000000">2.2</text><text x="520" y="389.625" text-anchor="middle" style="font:10px Droid Sans,Trebuchet MS,Arial,Helvetica,sans-serif;stroke:none;fill:#000000">2.4</text><text x="563.3333333333334" y="389.625" text-anchor="middle" style="font:10px Droid Sans,Trebuchet MS,Arial,Helvetica,sans-serif;stroke:none;fill:#000000">2.6</text><text x="606.6666666666667" y="389.625" text-anchor="middle" style="font:10px Droid Sans,Trebuchet MS,Arial,Helvetica,sans-serif;stroke:none;fill:#000000">2.8</text><path d="M-0.00 400.00 L-0.00 400.00 L0.54 399.00 L1.08 398.00 L1.63 397.01 L2.17 396.01 L2.72 395.01 L3.26 394.01 L3.81 393.01 L4.36 392.02 L4.91 391.02 L5.46 390.02 L6.01 389.02 L6.57 388.02 L7.12 387.03 L7.68 386.03 L8.24 385.03 L8.79 384.03 L9.35 383.03 L9.92 382.04 L10.48 381.04 L11.04 380.04 L11.61 379.04 L12.17 378.05 L12.74 377.05 L13.31 376.05 L13.88 375.05 L14.45 374.05 L15.02 373.06 L15.59 372.06 L16.17 371.06 L16.74 370.06 L17.32 369.07 L17.90 368.07 L18.48 367.07 L19.06 366.07 L19.65 365.08 L20.23 364.08 L20.82 363.08 L21.40 362.08 L21.99 361.09 L22.58 360.09 L23.17 359.09 L23.77 358.09 L24.36 357.10 L24.96 356.10 L25.55 355.10 L26.15 354.10 L26.75 353.11 L27.35 352.11 L27.96 351.11 L28.56 350.11 L29.17 349.12 L29.78 348.12 L30.38 347.12 L31.00 346.12 L31.61 345.13 L32.22 344.13 L32.84 343.13 L33.46 342.13 L34.08 341.14 L34.70 340.14 L35.32 339.14 L35.94 338.14 L36.57 337.15 L37.20 336.15 L37.82 335.15 L38.46 334.16 L39.09 333.16 L39.72 332.16 L40.36 331.16 L41.00 330.17 L41.64 329.17 L42.28 328.17 L42.92 327.18 L43.57 326.18 L44.22 325.18 L44.86 324.18 L45.52 323.19 L46.17 322.19 L46.82 321.19 L47.48 320.20 L48.14 319.20 L48.80 318.20 L49.46 317.20 L50.13 316.21 L50.79 315.21 L51.46 314.21 L52.14 313.22 L52.81 312.22 L53.48 311.22 L54.16 310.23 L54.84 309.23 L55.52 308.23 L56.21 307.24 L56.89 306.24 L57.58 305.24 L58.27 304.25 L58.97 303.25 L59.66 302.25 L60.36 301.26 L61.06 300.26 L61.76 299.26 L62.47 298.27 L63.17 297.27 L63.88 296.27 L64.60 295.28 L65.31 294.28 L66.03 293.28 L66.75 292.29 L67.47 291.29 L68.20 290.30 L68.93 289.30 L69.66 288.30 L70.39 287.31 L71.13 286.31 L71.86 285.31 L72.61 284.32 L73.35 283.32 L74.10 282.33 L74.85 281.33 L75.60 280.33 L76.36 279.34 L77.12 278.34 L77.88 277.35 L78.65 276.35 L79.41 275.35 L80.19 274.36 L80.96 273.36 L81.74 272.37 L82.52 271.37 L83.31 270.37 L84.09 269.38 L84.89 268.38 L85.68 267.39 L86.48 266.39 L87.28 265.40 L88.09 264.40 L88.90 263.41 L89.71 262.41 L90.53 261.41 L91.35 260.42 L92.17 259.42 L93.00 258.43 L93.83 257.43 L94.67 256.44 L95.51 255.44 L96.36 254.45 L97.20 253.45 L98.06 252.46 L98.92 251.46 L99.78 250.47 L100.64 249.47 L101.51 248.48 L102.39 247.48 L103.27 246.49 L104.16 245.50 L105.05 244.50 L105.94 243.51 L106.84 242.51 L107.75 241.52 L108.66 240.52 L109.57 239.53 L110.49 238.54 L111.42 237.54 L112.35 236.55 L113.29 235.55 L114.23 234.56 L115.18 233.57 L116.13 232.57 L117.09 231.58 L118.06 230.59 L119.04 229.59 L120.02 228.60 L121.00 227.61 L122.00 226.61 L123.00 225.62 L124.00 224.63 L125.02 223.63 L126.04 222.64 L127.07 221.65 L128.10 220.66 L129.15 219.66 L130.20 218.67 L131.26 217.68 L132.33 216.69 L133.41 215.69 L134.49 214.70 L135.59 213.71 L136.69 212.72 L137.81 211.73 L138.93 210.74 L140.07 209.75 L141.21 208.75 L142.36 207.76 L143.53 206.77 L144.70 205.78 L145.89 204.79 L147.09 203.80 L148.30 202.81 L149.52 201.82 L150.76 200.83 L152.01 199.84 L153.27 198.86 L154.55 197.87 L155.84 196.88 L157.15 195.89 L158.47 194.90 L159.81 193.91 L161.17 192.93 L162.54 191.94 L163.93 190.95 L165.34 189.97 L166.77 188.98 L168.22 188.00 L169.69 187.01 L171.19 186.03 L172.71 185.04 L174.25 184.06 L175.82 183.08 L177.41 182.09 L179.03 181.11 L180.69 180.13 L182.37 179.15 L184.09 178.17 L185.85 177.19 L187.64 176.21 L189.47 175.24 L191.35 174.26 L193.27 173.29 L195.25 172.31 L197.25 171.36 L199.25 170.43 L201.25 169.52 L203.25 168.65 L205.25 167.80 L207.25 166.98 L209.25 166.19 L211.25 165.43 L213.25 164.69 L215.25 163.98 L217.25 163.31 L219.25 162.65 L221.25 162.03 L223.25 161.43 L225.25 160.87 L227.25 160.32 L229.25 159.81 L231.25 159.33 L233.25 158.87 L235.25 158.44 L237.25 158.04 L239.25 157.67 L241.25 157.32 L243.25 157.00 L245.25 156.72 L247.25 156.45 L249.25 156.22 L251.25 156.01 L253.25 155.84 L255.25 155.69 L257.25 155.56 L259.25 155.47 L261.25 155.40 L263.25 155.36 L265.25 155.35 L267.25 155.37 L269.25 155.41 L271.25 155.49 L273.25 155.59 L275.25 155.71 L277.25 155.87 L279.25 156.06 L281.25 156.27 L283.25 156.51 L285.25 156.77 L287.25 157.07 L289.25 157.39 L291.25 157.74 L293.25 158.12 L295.25 158.53 L297.25 158.97 L299.25 159.43 L301.25 159.92 L303.25 160.44 L305.25 160.98 L307.25 161.56 L309.25 162.16 L311.25 162.79 L313.25 163.45 L315.25 164.13 L317.25 164.85 L319.25 165.59 L321.25 166.36 L323.25 167.15 L325.25 167.98 L327.25 168.83 L329.25 169.71 L331.25 170.62 L333.25 171.56 L335.25 172.52 L337.25 173.51 L339.25 174.53 L341.21 175.56 L343.12 176.59 L344.98 177.61 L346.80 178.63 L348.57 179.66 L350.31 180.68 L352.01 181.70 L353.68 182.72 L355.31 183.74 L356.92 184.75 L358.49 185.77 L360.04 186.79 L361.57 187.81 L363.07 188.82 L364.54 189.84 L365.99 190.85 L367.43 191.87 L368.84 192.88 L370.23 193.89 L371.60 194.91 L372.96 195.92 L374.30 196.93 L375.62 197.94 L376.93 198.96 L378.22 199.97 L379.49 200.98 L380.75 201.99 L382.00 203.00 L383.24 204.01 L384.46 205.02 L385.67 206.03 L386.86 207.04 L388.05 208.05 L389.22 209.06 L390.38 210.07 L391.53 211.08 L392.67 212.09 L393.80 213.10 L394.92 214.11 L396.03 215.12 L397.13 216.12 L398.22 217.13 L399.30 218.14 L400.38 219.15 L401.44 220.16 L402.50 221.16 L403.55 222.17 L404.59 223.18 L405.62 224.19 L406.65 225.19 L407.66 226.20 L408.67 227.21 L409.68 228.22 L410.67 229.22 L411.66 230.23 L412.64 231.24 L413.62 232.24 L414.59 233.25 L415.55 234.26 L416.51 235.26 L417.46 236.27 L418.40 237.28 L419.34 238.28 L420.28 239.29 L421.20 240.29 L422.13 241.30 L423.04 242.31 L423.95 243.31 L424.86 244.32 L425.76 245.32 L426.66 246.33 L427.55 247.33 L428.43 248.34 L429.31 249.34 L430.19 250.35 L431.06 251.36 L431.93 252.36 L432.79 253.37 L433.65 254.37 L434.50 255.38 L435.35 256.38 L436.20 257.39 L437.04 258.39 L437.87 259.40 L438.71 260.40 L439.54 261.41 L440.36 262.41 L441.18 263.41 L442.00 264.42 L442.81 265.42 L443.62 266.43 L444.43 267.43 L445.23 268.44 L446.03 269.44 L446.82 270.45 L447.61 271.45 L448.40 272.46 L449.19 273.46 L449.97 274.46 L450.75 275.47 L451.52 276.47 L452.29 277.48 L453.06 278.48 L453.82 279.48 L454.59 280.49 L455.35 281.49 L456.10 282.50 L456.85 283.50 L457.60 284.50 L458.35 285.51 L459.10 286.51 L459.84 287.52 L460.57 288.52 L461.31 289.52 L462.04 290.53 L462.77 291.53 L463.50 292.54 L464.23 293.54 L464.95 294.54 L465.67 295.55 L466.38 296.55 L467.10 297.55 L467.81 298.56 L468.52 299.56 L469.23 300.56 L469.93 301.57 L470.63 302.57 L471.33 303.57 L472.03 304.58 L472.72 305.58 L473.42 306.58 L474.11 307.59 L474.79 308.59 L475.48 309.59 L476.16 310.60 L476.84 311.60 L477.52 312.60 L478.20 313.61 L478.87 314.61 L479.55 315.61 L480.22 316.62 L480.88 317.62 L481.55 318.62 L482.21 319.63 L482.88 320.63 L483.54 321.63 L484.19 322.63 L484.85 323.64 L485.50 324.64 L486.16 325.64 L486.81 326.65 L487.46 327.65 L488.10 328.65 L488.75 329.66 L489.39 330.66 L490.03 331.66 L490.67 332.66 L491.31 333.67 L491.94 334.67 L492.57 335.67 L493.21 336.68 L493.84 337.68 L494.46 338.68 L495.09 339.68 L495.72 340.69 L496.34 341.69 L496.96 342.69 L497.58 343.69 L498.20 344.70 L498.82 345.70 L499.43 346.70 L500.04 347.70 L500.66 348.71 L501.27 349.71 L501.87 350.71 L502.48 351.72 L503.09 352.72 L503.69 353.72 L504.29 354.72 L504.89 355.73 L505.49 356.73 L506.09 357.73 L506.69 358.73 L507.28 359.74 L507.87 360.74 L508.47 361.74 L509.06 362.74 L509.65 363.75 L510.23 364.75 L510.82 365.75 L511.40 366.75 L511.99 367.75 L512.57 368.76 L513.15 369.76 L513.73 370.76 L514.31 371.76 L514.88 372.77 L515.46 373.77 L516.03 374.77 L516.61 375.77 L517.18 376.78 L517.75 377.78 L518.32 378.78 L518.88 379.78 L519.45 380.78 L520.02 381.79 L520.58 382.79 L521.14 383.79 L521.70 384.79 L522.26 385.80 L522.82 386.80 L523.38 387.80 L523.93 388.80 L524.49 389.80 L525.04 390.81 L525.60 391.81 L526.15 392.81 L526.70 393.81 L527.25 394.81 L527.80 395.82 L528.34 396.82 L528.89 397.82 L529.43 398.82 L529.98 399.83 L530.52 400.83 " style="fill:none;stroke:#0000FF;stroke-width:1;"/></g></svg>