<?xml version="1.0" encoding="UTF-8" standalone="no"?>
<svg
   xmlns:dc="http://purl.org/dc/elements/1.1/"
   xmlns:cc="http://creativecommons.org/ns#"
   xmlns:rdf="http://www.w3.org/1999/02/22-rdf-syntax-ns#"
   xmlns:svg="http://www.w3.org/2000/svg"
   xmlns="http://www.w3.org/2000/svg"
   viewBox="0 0 866.76971 604.32922"
   version="1.1"
   id="svg91"
   width="866.76971"
   height="604.32922">
  <metadata
     id="metadata97">
    <rdf:RDF>
      <cc:Work
         rdf:about="">
        <dc:format>image/svg+xml</dc:format>
        <dc:type
           rdf:resource="http://purl.org/dc/dcmitype/StillImage" />
        <dc:title></dc:title>
      </cc:Work>
    </rdf:RDF>
  </metadata>
  <defs
     id="defs95" />
  <clipPath
     id="box">
    <rect
       x="0"
       y="0"
       width="800"
       height="550"
       style="fill:none;stroke:none"
       id="rect2" />
  </clipPath>
  <rect
     x="65.269684"
     y="1.5"
     width="800"
     height="550"
     style="fill:#ffffff;stroke:none"
     id="rect5" />
  <path
     d="M 65.269684,551.5 H 865.26968 M 65.269684,514.5 H 865.26968 M 65.269684,477.5 H 865.26968 M 65.269684,441.5 H 865.26968 M 65.269684,404.5 H 865.26968 M 65.269684,367.5 H 865.26968 M 65.269684,331.5 H 865.26968 M 65.269684,294.5 H 865.26968 M 65.269684,257.5 H 865.26968 M 65.269684,221.5 H 865.26968 M 65.269684,184.5 H 865.26968 M 65.269684,147.5 H 865.26968 M 65.269684,110.5 H 865.26968 M 65.269684,74.5 H 865.26968 M 65.269684,37.5 H 865.26968 M 65.269684,1.5 H 865.26968 m -799.999996,0 v 550 M 101.26968,1.5 v 550 m 36,-550 v 550 m 37,-550 v 550 m 36,-550 v 550 m 36,-550 v 550 m 37,-550 v 550 m 36,-550 v 550 m 36,-550 v 550 m 37,-550 v 550 m 36,-550 v 550 m 37,-550 v 550 m 36,-550 v 550 m 36,-550 v 550 m 37,-550 v 550 m 36,-550 v 550 m 36,-550 v 550 m 37,-550 v 550 m 36,-550 v 550 m 36,-550 v 550 m 37,-550 v 550 m 36,-550 v 550 m 37,-550 v 550"
     style="fill:none;stroke:#d0d0d0;stroke-width:1"
     id="path7" />
  <path
     d="m 65.269684,1.5 v 550"
     style="fill:none;stroke:#000000;stroke-width:1"
     id="path9" />
  <path
     d="m 57.269684,551.5 h 16 m -16,-36.67 h 16 m -16,-36.66 h 16 m -16,-36.67 h 16 m -16,-36.67 h 16 m -16,-36.66 h 16 m -16,-36.67 h 16 m -16,-36.67 h 16 m -16,-36.66 h 16 m -16,-36.67 h 16 m -16,-36.67 h 16 m -16,-36.66 h 16 m -16,-36.67 h 16 m -16,-36.67 h 16 m -16,-36.66 h 16 m -16,-36.67 h 16"
     style="fill:none;stroke:#000000;stroke-width:1"
     id="path11" />
  <path
     d="M 65.269684,551.5 H 865.26968"
     style="fill:none;stroke:#000000;stroke-width:1"
     id="path13" />
  <path
     d="m 65.269684,543.5 v 16 m 36.359996,-16 v 16 m 36.37,-16 v 16 m 36.36,-16 v 16 m 36.36,-16 v 16 m 36.37,-16 v 16 m 36.36,-16 v 16 m 36.37,-16 v 16 m 36.36,-16 v 16 m 36.36,-16 v 16 m 36.37,-16 v 16 m 36.36,-16 v 16 m 36.36,-16 v 16 m 36.37,-16 v 16 m 36.36,-16 v 16 m 36.36,-16 v 16 m 36.37,-16 v 16 m 36.36,-16 v 16 m 36.37,-16 v 16 m 36.36,-16 v 16 m 36.36,-16 v 16 m 36.37,-16 v 16 m 36.36,-16 v 16"
     style="fill:none;stroke:#000000;stroke-width:1"
     id="path15" />
  <text
     x="28.83519"
     y="519.98669"
     text-anchor="start"
     style="font-style:normal;font-variant:normal;font-weight:normal;font-stretch:normal;font-size:16px;line-height:normal;font-family:'Droid Sans', 'Trebuchet MS', Arial, Helvetica, sans-serif;-inkscape-font-specification:'Droid Sans, Trebuchet MS, Arial, Helvetica, sans-serif, Normal';font-variant-ligatures:normal;font-variant-caps:normal;font-variant-numeric:normal;font-variant-east-asian:normal;fill:#000000;stroke:none"
     id="text17">10</text>
  <text
     x="28.83519"
     y="483.32007"
     text-anchor="start"
     style="font-style:normal;font-variant:normal;font-weight:normal;font-stretch:normal;font-size:16px;line-height:normal;font-family:'Droid Sans', 'Trebuchet MS', Arial, Helvetica, sans-serif;-inkscape-font-specification:'Droid Sans, Trebuchet MS, Arial, Helvetica, sans-serif, Normal';font-variant-ligatures:normal;font-variant-caps:normal;font-variant-numeric:normal;font-variant-east-asian:normal;fill:#000000;stroke:none"
     id="text19">20</text>
  <text
     x="28.83519"
     y="446.65341"
     text-anchor="start"
     style="font-style:normal;font-variant:normal;font-weight:normal;font-stretch:normal;font-size:16px;line-height:normal;font-family:'Droid Sans', 'Trebuchet MS', Arial, Helvetica, sans-serif;-inkscape-font-specification:'Droid Sans, Trebuchet MS, Arial, Helvetica, sans-serif, Normal';font-variant-ligatures:normal;font-variant-caps:normal;font-variant-numeric:normal;font-variant-east-asian:normal;fill:#000000;stroke:none"
     id="text21">30</text>
  <text
     x="28.83519"
     y="409.98676"
     text-anchor="start"
     style="font-style:normal;font-variant:normal;font-weight:normal;font-stretch:normal;font-size:16px;line-height:normal;font-family:'Droid Sans', 'Trebuchet MS', Arial, Helvetica, sans-serif;-inkscape-font-specification:'Droid Sans, Trebuchet MS, Arial, Helvetica, sans-serif, Normal';font-variant-ligatures:normal;font-variant-caps:normal;font-variant-numeric:normal;font-variant-east-asian:normal;fill:#000000;stroke:none"
     id="text23">40</text>
  <text
     x="28.83519"
     y="373.32007"
     text-anchor="start"
     style="font-style:normal;font-variant:normal;font-weight:normal;font-stretch:normal;font-size:16px;line-height:normal;font-family:'Droid Sans', 'Trebuchet MS', Arial, Helvetica, sans-serif;-inkscape-font-specification:'Droid Sans, Trebuchet MS, Arial, Helvetica, sans-serif, Normal';font-variant-ligatures:normal;font-variant-caps:normal;font-variant-numeric:normal;font-variant-east-asian:normal;fill:#000000;stroke:none"
     id="text25">50</text>
  <text
     x="28.83519"
     y="336.65341"
     text-anchor="start"
     style="font-style:normal;font-variant:normal;font-weight:normal;font-stretch:normal;font-size:16px;line-height:normal;font-family:'Droid Sans', 'Trebuchet MS', Arial, Helvetica, sans-serif;-inkscape-font-specification:'Droid Sans, Trebuchet MS, Arial, Helvetica, sans-serif, Normal';font-variant-ligatures:normal;font-variant-caps:normal;font-variant-numeric:normal;font-variant-east-asian:normal;fill:#000000;stroke:none"
     id="text27">60</text>
  <text
     x="28.83519"
     y="299.98676"
     text-anchor="start"
     style="font-style:normal;font-variant:normal;font-weight:normal;font-stretch:normal;font-size:16px;line-height:normal;font-family:'Droid Sans', 'Trebuchet MS', Arial, Helvetica, sans-serif;-inkscape-font-specification:'Droid Sans, Trebuchet MS, Arial, Helvetica, sans-serif, Normal';font-variant-ligatures:normal;font-variant-caps:normal;font-variant-numeric:normal;font-variant-east-asian:normal;fill:#000000;stroke:none"
     id="text29">70</text>
  <text
     x="28.83519"
     y="263.32007"
     text-anchor="start"
     style="font-style:normal;font-variant:normal;font-weight:normal;font-stretch:normal;font-size:16px;line-height:normal;font-family:'Droid Sans', 'Trebuchet MS', Arial, Helvetica, sans-serif;-inkscape-font-specification:'Droid Sans, Trebuchet MS, Arial, Helvetica, sans-serif, Normal';font-variant-ligatures:normal;font-variant-caps:normal;font-variant-numeric:normal;font-variant-east-asian:normal;fill:#000000;stroke:none"
     id="text31">80</text>
  <text
     x="28.83519"
     y="226.6534"
     text-anchor="start"
     style="font-style:normal;font-variant:normal;font-weight:normal;font-stretch:normal;font-size:16px;line-height:normal;font-family:'Droid Sans', 'Trebuchet MS', Arial, Helvetica, sans-serif;-inkscape-font-specification:'Droid Sans, Trebuchet MS, Arial, Helvetica, sans-serif, Normal';font-variant-ligatures:normal;font-variant-caps:normal;font-variant-numeric:normal;font-variant-east-asian:normal;fill:#000000;stroke:none"
     id="text33">90</text>
  <text
     x="28.83519"
     y="189.98672"
     text-anchor="start"
     style="font-style:normal;font-variant:normal;font-weight:normal;font-stretch:normal;font-size:16px;line-height:normal;font-family:'Droid Sans', 'Trebuchet MS', Arial, Helvetica, sans-serif;-inkscape-font-specification:'Droid Sans, Trebuchet MS, Arial, Helvetica, sans-serif, Normal';font-variant-ligatures:normal;font-variant-caps:normal;font-variant-numeric:normal;font-variant-east-asian:normal;fill:#000000;stroke:none"
     id="text35">100</text>
  <text
     x="28.83519"
     y="153.32007"
     text-anchor="start"
     style="font-style:normal;font-variant:normal;font-weight:normal;font-stretch:normal;font-size:16px;line-height:normal;font-family:'Droid Sans', 'Trebuchet MS', Arial, Helvetica, sans-serif;-inkscape-font-specification:'Droid Sans, Trebuchet MS, Arial, Helvetica, sans-serif, Normal';font-variant-ligatures:normal;font-variant-caps:normal;font-variant-numeric:normal;font-variant-east-asian:normal;fill:#000000;stroke:none"
     id="text37">110</text>
  <text
     x="28.83519"
     y="116.6534"
     text-anchor="start"
     style="font-style:normal;font-variant:normal;font-weight:normal;font-stretch:normal;font-size:16px;line-height:normal;font-family:'Droid Sans', 'Trebuchet MS', Arial, Helvetica, sans-serif;-inkscape-font-specification:'Droid Sans, Trebuchet MS, Arial, Helvetica, sans-serif, Normal';font-variant-ligatures:normal;font-variant-caps:normal;font-variant-numeric:normal;font-variant-east-asian:normal;fill:#000000;stroke:none"
     id="text39">120</text>
  <text
     x="28.83519"
     y="79.986732"
     text-anchor="start"
     style="font-style:normal;font-variant:normal;font-weight:normal;font-stretch:normal;font-size:16px;line-height:normal;font-family:'Droid Sans', 'Trebuchet MS', Arial, Helvetica, sans-serif;-inkscape-font-specification:'Droid Sans, Trebuchet MS, Arial, Helvetica, sans-serif, Normal';font-variant-ligatures:normal;font-variant-caps:normal;font-variant-numeric:normal;font-variant-east-asian:normal;fill:#000000;stroke:none"
     id="text41">130</text>
  <text
     x="28.83519"
     y="43.320068"
     text-anchor="start"
     style="font-style:normal;font-variant:normal;font-weight:normal;font-stretch:normal;font-size:16px;line-height:normal;font-family:'Droid Sans', 'Trebuchet MS', Arial, Helvetica, sans-serif;-inkscape-font-specification:'Droid Sans, Trebuchet MS, Arial, Helvetica, sans-serif, Normal';font-variant-ligatures:normal;font-variant-caps:normal;font-variant-numeric:normal;font-variant-east-asian:normal;fill:#000000;stroke:none"
     id="text43">140</text>
  <text
     x="137.99696"
     y="575.9942"
     text-anchor="middle"
     style="font-style:normal;font-variant:normal;font-weight:normal;font-stretch:normal;font-size:16px;line-height:normal;font-family:'Droid Sans', 'Trebuchet MS', Arial, Helvetica, sans-serif;-inkscape-font-specification:'Droid Sans, Trebuchet MS, Arial, Helvetica, sans-serif, Normal';font-variant-ligatures:normal;font-variant-caps:normal;font-variant-numeric:normal;font-variant-east-asian:normal;fill:#000000;stroke:none"
     id="text47">100</text>
  <text
     x="210.72423"
     y="575.9942"
     text-anchor="middle"
     style="font-style:normal;font-variant:normal;font-weight:normal;font-stretch:normal;font-size:16px;line-height:normal;font-family:'Droid Sans', 'Trebuchet MS', Arial, Helvetica, sans-serif;-inkscape-font-specification:'Droid Sans, Trebuchet MS, Arial, Helvetica, sans-serif, Normal';font-variant-ligatures:normal;font-variant-caps:normal;font-variant-numeric:normal;font-variant-east-asian:normal;fill:#000000;stroke:none"
     id="text51">200</text>
  <text
     x="283.45151"
     y="575.9942"
     text-anchor="middle"
     style="font-style:normal;font-variant:normal;font-weight:normal;font-stretch:normal;font-size:16px;line-height:normal;font-family:'Droid Sans', 'Trebuchet MS', Arial, Helvetica, sans-serif;-inkscape-font-specification:'Droid Sans, Trebuchet MS, Arial, Helvetica, sans-serif, Normal';font-variant-ligatures:normal;font-variant-caps:normal;font-variant-numeric:normal;font-variant-east-asian:normal;fill:#000000;stroke:none"
     id="text55">300</text>
  <text
     x="356.17877"
     y="575.9942"
     text-anchor="middle"
     style="font-style:normal;font-variant:normal;font-weight:normal;font-stretch:normal;font-size:16px;line-height:normal;font-family:'Droid Sans', 'Trebuchet MS', Arial, Helvetica, sans-serif;-inkscape-font-specification:'Droid Sans, Trebuchet MS, Arial, Helvetica, sans-serif, Normal';font-variant-ligatures:normal;font-variant-caps:normal;font-variant-numeric:normal;font-variant-east-asian:normal;fill:#000000;stroke:none"
     id="text59">400</text>
  <text
     x="428.90604"
     y="575.9942"
     text-anchor="middle"
     style="font-style:normal;font-variant:normal;font-weight:normal;font-stretch:normal;font-size:16px;line-height:normal;font-family:'Droid Sans', 'Trebuchet MS', Arial, Helvetica, sans-serif;-inkscape-font-specification:'Droid Sans, Trebuchet MS, Arial, Helvetica, sans-serif, Normal';font-variant-ligatures:normal;font-variant-caps:normal;font-variant-numeric:normal;font-variant-east-asian:normal;fill:#000000;stroke:none"
     id="text63">500</text>
  <text
     x="501.63333"
     y="575.9942"
     text-anchor="middle"
     style="font-style:normal;font-variant:normal;font-weight:normal;font-stretch:normal;font-size:16px;line-height:normal;font-family:'Droid Sans', 'Trebuchet MS', Arial, Helvetica, sans-serif;-inkscape-font-specification:'Droid Sans, Trebuchet MS, Arial, Helvetica, sans-serif, Normal';font-variant-ligatures:normal;font-variant-caps:normal;font-variant-numeric:normal;font-variant-east-asian:normal;fill:#000000;stroke:none"
     id="text67">600</text>
  <text
     x="574.3606"
     y="575.9942"
     text-anchor="middle"
     style="font-style:normal;font-variant:normal;font-weight:normal;font-stretch:normal;font-size:16px;line-height:normal;font-family:'Droid Sans', 'Trebuchet MS', Arial, Helvetica, sans-serif;-inkscape-font-specification:'Droid Sans, Trebuchet MS, Arial, Helvetica, sans-serif, Normal';font-variant-ligatures:normal;font-variant-caps:normal;font-variant-numeric:normal;font-variant-east-asian:normal;fill:#000000;stroke:none"
     id="text71">700</text>
  <text
     x="647.08789"
     y="575.9942"
     text-anchor="middle"
     style="font-style:normal;font-variant:normal;font-weight:normal;font-stretch:normal;font-size:16px;line-height:normal;font-family:'Droid Sans', 'Trebuchet MS', Arial, Helvetica, sans-serif;-inkscape-font-specification:'Droid Sans, Trebuchet MS, Arial, Helvetica, sans-serif, Normal';font-variant-ligatures:normal;font-variant-caps:normal;font-variant-numeric:normal;font-variant-east-asian:normal;fill:#000000;stroke:none"
     id="text75">800</text>
  <text
     x="719.81519"
     y="575.9942"
     text-anchor="middle"
     style="font-style:normal;font-variant:normal;font-weight:normal;font-stretch:normal;font-size:16px;line-height:normal;font-family:'Droid Sans', 'Trebuchet MS', Arial, Helvetica, sans-serif;-inkscape-font-specification:'Droid Sans, Trebuchet MS, Arial, Helvetica, sans-serif, Normal';font-variant-ligatures:normal;font-variant-caps:normal;font-variant-numeric:normal;font-variant-east-asian:normal;fill:#000000;stroke:none"
     id="text79">900</text>
  <text
     x="792.54242"
     y="575.9942"
     text-anchor="middle"
     style="font-style:normal;font-variant:normal;font-weight:normal;font-stretch:normal;font-size:16px;line-height:normal;font-family:'Droid Sans', 'Trebuchet MS', Arial, Helvetica, sans-serif;-inkscape-font-specification:'Droid Sans, Trebuchet MS, Arial, Helvetica, sans-serif, Normal';font-variant-ligatures:normal;font-variant-caps:normal;font-variant-numeric:normal;font-variant-east-asian:normal;fill:#000000;stroke:none"
     id="text83">1000</text>
  <text
     x="465.08218"
     y="598.95422"
     text-anchor="middle"
     style="font-style:normal;font-variant:normal;font-weight:normal;font-stretch:normal;font-size:21.3333px;line-height:normal;font-family:'Droid Sans', 'Trebuchet MS', Arial, Helvetica, sans-serif;-inkscape-font-specification:'Droid Sans, Trebuchet MS, Arial, Helvetica, sans-serif, Normal';font-variant-ligatures:normal;font-variant-caps:normal;font-variant-numeric:normal;font-variant-east-asian:normal;text-anchor:middle;fill:#000000;stroke:none"
     id="text55-2"><tspan
   style="font-style:normal;font-variant:normal;font-weight:normal;font-stretch:normal;font-size:21.3333px;font-family:'Droid Sans', 'Trebuchet MS', Arial, Helvetica, sans-serif;-inkscape-font-specification:'Droid Sans, Trebuchet MS, Arial, Helvetica, sans-serif, Normal';font-variant-ligatures:normal;font-variant-caps:normal;font-variant-numeric:normal;font-variant-east-asian:normal"
   id="tspan984">s</tspan> [m]</text>
  <text
     x="-276.25369"
     y="16.729141"
     text-anchor="middle"
     style="font-style:normal;font-variant:normal;font-weight:normal;font-stretch:normal;font-size:21.3333px;line-height:normal;font-family:'Droid Sans', 'Trebuchet MS', Arial, Helvetica, sans-serif;-inkscape-font-specification:'Droid Sans, Trebuchet MS, Arial, Helvetica, sans-serif, Normal';font-variant-ligatures:normal;font-variant-caps:normal;font-variant-numeric:normal;font-variant-east-asian:normal;text-anchor:middle;fill:#000000;stroke:none"
     id="text55-2-2"
     transform="rotate(-90)"><tspan
   style="font-style:italic;font-variant:normal;font-weight:normal;font-stretch:normal;font-size:21.3333px;font-family:'Droid Sans', 'Trebuchet MS', Arial, Helvetica, sans-serif;-inkscape-font-specification:'Droid Sans, Trebuchet MS, Arial, Helvetica, sans-serif, Italic';font-variant-ligatures:normal;font-variant-caps:normal;font-variant-numeric:normal;font-variant-east-asian:normal"
   id="tspan1010">v</tspan> [km/h]</text>
  <path
     d="m 64.46968,37.790002 1,0.71 1.42,1 1.41,1 1.42,1 1.42,1 1.41,1 1.42,1 1.42,1 1.41,1 1.42,1 1.42,1 1.41,1 1.42,1 1.42,1 1.41,1 1.42,1 1.42,1 1.42,1 1.41,1 1.42,1 1.42,1 1.41,1 1.42,1 1.42,1 1.41,1 1.42,1 1.42,1 1.41,1 1.42,1 1.42,1 1.41,1 1.42,1 1.42,1 1.41,1 1.42,1 1.42,1 1.41,1 1.42,1 1.42,1 1.41,1 1.42,1 1.42,1 1.41,1 1.42,1 1.42,1 1.41,1 1.42,1 1.42,1 1.41,1 1.42,1 1.42,1 1.42,1 1.41,1 1.42,1 1.42,1 1.41,1 1.42,1 1.42,1 1.41,1 1.42,1 1.42,1 1.41,1 1.42,0.999998 1.42,1 1.41,1 1.42,1 1.42,1 1.41,1 1.42,1 1.42,1 1.41,1 1.42,1 1.42,1 1.41,1 1.42,1 1.42,1 1.41,1 1.42,1 1.42,1 1.41,1 1.42,1 1.42,1 1.41,1 1.42,1 1.42,1 1.42,1 1.41,1 1.42,1 1.42,1 1.41,1 1.42,1 1.42,1 1.41,1 1.42,1 1.42,1 1.41,1 1.42,1 1.42,1 1.41,1 1.42,1 1.42,1 1.41,1 1.42,1 1.42,1 1.41,1 1.42,1 1.42,1 1.41,1 1.42,1 1.42,1 1.41,1 1.42,1 1.42,1 1.41,1 1.42,1 1.42,1 1.41,1 1.42,1 1.42,1 1.42,1 1.41,1 1.42,1 1.42,1 1.41,1 1.42,1 1.42,1 1.41,1 1.42,1 1.42,1 1.41,1 1.42,1 1.42,1 1.41,1 1.42,1 1.42,1 1.41,1 1.42,1 1.42,1 1.41,1 1.42,1 1.42,1 1.41,1 1.42,1 1.42,1 1.41,1 1.42,1 1.42,1 1.41,1 1.42,1 1.42,1 1.42,1 1.41,1 1.42,1 1.42,1 1.41,1 1.42,1 1.42,1 1.41,1 1.42,1 1.42,1 1.41,1 1.42,1 1.42,1 1.41,1 1.42,1 1.42,1 1.41,1 1.42,1 1.42,1 1.41,1 1.42,1 1.42,1 1.41,1 1.42,1 1.42,1 1.41,1 1.42,1 1.42,1 1.41,1 1.42,1 1.42,1 1.41,1 1.42,1 1.42,1 1.42,1 1.41,1 1.42,1 1.42,1 1.41,1 1.42,1 1.42,1 1.41,1 1.42,1 1.42,1 1.41,1 1.42,1 1.42,1 1.41,1 1.42,1 1.42,1 1.41,1 1.42,1 1.42,1 1.41,1 1.42,1 1.42,1 1.41,1 1.42,1 1.42,1 1.41,1 1.42,1 1.42,1 1.41,1 1.42,1 1.42,1 1.41,1 1.42,1 1.42,1 1.42,1 1.41,1 1.42,1 1.42,1 1.41,1 1.42,1 1.42,1 1.41,1 1.42,1 1.42,1 1.41,1 1.42,1 1.42,1 1.41,1 1.42,1 1.42,1 1.41,1 1.42,1 1.42,1 1.41,1 1.42,1 1.42,1 1.41,1 1.42,1 1.42,1 1.41,1 1.42,1 1.42,1 1.41,1 1.42,1 1.42,1 1.41,1 1.42,1 1.42,1 1.42,1 1.41,1 1.42,1 1.42,1 1.41,1 1.42,1 1.42,1 1.41,1 1.42,1 1.42,1 1.41,1 1.42,1 1.42,1 1.41,1 1.42,1 1.42,1 1.41,1 1.42,1 1.42,1 1.41,1 1.42,1 1.42,1 1.41,1 1.42,1 1.42,1 1.41,1 1.42,1 1.42,1 1.41,1 1.42,1 1.42,1 1.41,1 1.42,1 1.42,1 1.42,1 1.41,1 1.42,1 1.42,1 1.41,1 1.42,1 1.42,1 1.41,1 1.42,1 1.42,1 1.41,1 1.42,1 1.42,1 1.41,1 1.42,1 1.42,1 1.41,1 1.42,1 1.42,1 1.41,1 1.42,1 1.42,1 1.41,1 1.42,1 1.42,1 1.41,1 1.42,1 1.42,1 1.41,1 1.42,1 1.42,1 1.41,1 1.42,1 1.42,1 1.42,1 1.41,1 1.42,1 1.42,1 1.41,1 1.42,1 1.42,1 1.41,1 1.42,1 1.42,1 1.41,1 1.42,1 1.42,1 1.41,1 1.42,1 1.42,1 1.41,1 1.42,1 1.42,1 1.41,1 1.42,1 1.42,1 1.41,1 1.42,1 1.42,1 1.41,1 1.42,1 1.42,1 1.41,1 1.42,1 1.42,1 1.41,1 1.42,1 1.42,1 1.42,1 1.41,1 1.42,1 1.42,1 1.41,1 1.42,1 1.42,1 1.41,1 1.42,1 1.42,1 1.41,1 1.42,1 1.42,1 1.41,1 1.42,1 1.42,1 1.41,1 1.42,1 1.42,1 1.41,1 1.42,1 1.42,1 1.41,1 1.42,1 1.42,1 1.41,1 1.42,1 1.42,1 1.41,1 1.42,1 1.42,1 1.41,1 1.42,1 1.42,1 1.42,1 1.41,1 1.42,1 1.42,1 1.41,1 1.42,1 1.42,1 1.41,1 1.42,1 1.42,1 1.41,1 1.42,1 1.42,1 1.41,1 1.42,1 1.42,1 1.41,1 1.42,1 1.42,1 1.41,1 1.42,1 1.42,1 1.41,1 1.42,1 1.42,1 1.41,1 1.42,1 1.42,1 1.41,1 1.42,1 1.42,1 1.41,1 1.42,1 1.42,1 1.42,1 1.41,1 1.42,1 1.42,1 1.41,1 1.42,1 1.42,1 1.41,1 1.42,1 1.42,1 1.41,1 1.42,1 1.42,1 1.41,1 1.42,1 1.42,1 1.41,1 1.42,1 1.42,1 1.41,1 1.42,1 1.42,1 1.41,1 1.42,1 1.42,1 1.41,1 1.42,1 1.42,1 1.41,1 1.42,1 1.42,1 1.41,1 1.42,1 1.42,1 1.42,1 1.41,1 1.42,1 1.42,1 1.41,1 1.42,1 1.42,1 1.41,1 1.42,1 1.42,1 1.41,1 1.42,1 1.42,1 1.41,1 1.42,1 1.42,1 1.41,1 1.42,1 1.42,1 1.41,1 1.42,1 1.42,1 1.41,1 1.42,1 1.42,1 1.41,1 1.42,1 1.42,1 1.41,1 1.42,1 1.42,1 1.41,1 1.42,1 1.42,1 1.42,1 1.41,1 1.42,1 1.42,1 1.41,1 1.42,1 1.42,1 1.41,1 1.42,1 1.42,1 1.41,1 1.42,1 1.42,1 1.41,1 1.42,1 1.42,1 1.41,1 1.42,1 1.42,1 1.41,1 1.42,1 1.42,1 1.41,1 1.42,1"
     style="fill:none;stroke:#ff0000;stroke-width:1"
     id="path87" />
</svg>
