<?xml version="1.0" encoding="UTF-8" standalone="no"?>
<svg
   xmlns:dc="http://purl.org/dc/elements/1.1/"
   xmlns:cc="http://creativecommons.org/ns#"
   xmlns:rdf="http://www.w3.org/1999/02/22-rdf-syntax-ns#"
   xmlns:svg="http://www.w3.org/2000/svg"
   xmlns="http://www.w3.org/2000/svg"
   viewBox="0 0 866.76971 604.32922"
   version="1.1"
   id="svg91"
   width="866.76971"
   height="604.32922">
  <metadata
     id="metadata97">
    <rdf:RDF>
      <cc:Work
         rdf:about="">
        <dc:format>image/svg+xml</dc:format>
        <dc:type
           rdf:resource="http://purl.org/dc/dcmitype/StillImage" />
        <dc:title></dc:title>
      </cc:Work>
    </rdf:RDF>
  </metadata>
  <defs
     id="defs95" />
  <clipPath
     id="box">
    <rect
       x="0"
       y="0"
       width="800"
       height="550"
       style="fill:none;stroke:none"
       id="rect2" />
  </clipPath>
  <rect
     x="65.269684"
     y="1.5"
     width="800"
     height="550"
     style="fill:#ffffff;stroke:none"
     id="rect5" />
  <path
     d="M 65.269684,551.5 H 865.26968 M 65.269684,514.5 H 865.26968 M 65.269684,477.5 H 865.26968 M 65.269684,441.5 H 865.26968 M 65.269684,404.5 H 865.26968 M 65.269684,367.5 H 865.26968 M 65.269684,331.5 H 865.26968 M 65.269684,294.5 H 865.26968 M 65.269684,257.5 H 865.26968 M 65.269684,221.5 H 865.26968 M 65.269684,184.5 H 865.26968 M 65.269684,147.5 H 865.26968 M 65.269684,110.5 H 865.26968 M 65.269684,74.5 H 865.26968 M 65.269684,37.5 H 865.26968 M 65.269684,1.5 H 865.26968 m -799.999996,0 v 550 M 101.26968,1.5 v 550 m 36,-550 v 550 m 37,-550 v 550 m 36,-550 v 550 m 36,-550 v 550 m 37,-550 v 550 m 36,-550 v 550 m 36,-550 v 550 m 37,-550 v 550 m 36,-550 v 550 m 37,-550 v 550 m 36,-550 v 550 m 36,-550 v 550 m 37,-550 v 550 m 36,-550 v 550 m 36,-550 v 550 m 37,-550 v 550 m 36,-550 v 550 m 36,-550 v 550 m 37,-550 v 550 m 36,-550 v 550 m 37,-550 v 550"
     style="fill:none;stroke:#d0d0d0;stroke-width:1"
     id="path7" />
  <path
     d="m 65.269684,1.5 v 550"
     style="fill:none;stroke:#000000;stroke-width:1"
     id="path9" />
  <path
     d="m 57.269684,551.5 h 16 m -16,-36.67 h 16 m -16,-36.66 h 16 m -16,-36.67 h 16 m -16,-36.67 h 16 m -16,-36.66 h 16 m -16,-36.67 h 16 m -16,-36.67 h 16 m -16,-36.66 h 16 m -16,-36.67 h 16 m -16,-36.67 h 16 m -16,-36.66 h 16 m -16,-36.67 h 16 m -16,-36.67 h 16 m -16,-36.66 h 16 m -16,-36.67 h 16"
     style="fill:none;stroke:#000000;stroke-width:1"
     id="path11" />
  <path
     d="M 65.269684,551.5 H 865.26968"
     style="fill:none;stroke:#000000;stroke-width:1"
     id="path13" />
  <path
     d="m 65.269684,543.5 v 16 m 36.359996,-16 v 16 m 36.37,-16 v 16 m 36.36,-16 v 16 m 36.36,-16 v 16 m 36.37,-16 v 16 m 36.36,-16 v 16 m 36.37,-16 v 16 m 36.36,-16 v 16 m 36.36,-16 v 16 m 36.37,-16 v 16 m 36.36,-16 v 16 m 36.36,-16 v 16 m 36.37,-16 v 16 m 36.36,-16 v 16 m 36.36,-16 v 16 m 36.37,-16 v 16 m 36.36,-16 v 16 m 36.37,-16 v 16 m 36.36,-16 v 16 m 36.36,-16 v 16 m 36.37,-16 v 16 m 36.36,-16 v 16"
     style="fill:none;stroke:#000000;stroke-width:1"
     id="path15" />
  <text
     x="28.83519"
     y="519.98669"
     text-anchor="start"
     style="font-style:normal;font-variant:normal;font-weight:normal;font-stretch:normal;font-size:16px;line-height:normal;font-family:'Droid Sans', 'Trebuchet MS', Arial, Helvetica, sans-serif;-inkscape-font-specification:'Droid Sans, Trebuchet MS, Arial, Helvetica, sans-serif, Normal';font-variant-ligatures:normal;font-variant-caps:normal;font-variant-numeric:normal;font-variant-east-asian:normal;fill:#000000;stroke:none"
     id="text17">10</text>
  <text
     x="28.83519"
     y="483.32007"
     text-anchor="start"
     style="font-style:normal;font-variant:normal;font-weight:normal;font-stretch:normal;font-size:16px;line-height:normal;font-family:'Droid Sans', 'Trebuchet MS', Arial, Helvetica, sans-serif;-inkscape-font-specification:'Droid Sans, Trebuchet MS, Arial, Helvetica, sans-serif, Normal';font-variant-ligatures:normal;font-variant-caps:normal;font-variant-numeric:normal;font-variant-east-asian:normal;fill:#000000;stroke:none"
     id="text19">20</text>
  <text
     x="28.83519"
     y="446.65341"
     text-anchor="start"
     style="font-style:normal;font-variant:normal;font-weight:normal;font-stretch:normal;font-size:16px;line-height:normal;font-family:'Droid Sans', 'Trebuchet MS', Arial, Helvetica, sans-serif;-inkscape-font-specification:'Droid Sans, Trebuchet MS, Arial, Helvetica, sans-serif, Normal';font-variant-ligatures:normal;font-variant-caps:normal;font-variant-numeric:normal;font-variant-east-asian:normal;fill:#000000;stroke:none"
     id="text21">30</text>
  <text
     x="28.83519"
     y="409.98676"
     text-anchor="start"
     style="font-style:normal;font-variant:normal;font-weight:normal;font-stretch:normal;font-size:16px;line-height:normal;font-family:'Droid Sans', 'Trebuchet MS', Arial, Helvetica, sans-serif;-inkscape-font-specification:'Droid Sans, Trebuchet MS, Arial, Helvetica, sans-serif, Normal';font-variant-ligatures:normal;font-variant-caps:normal;font-variant-numeric:normal;font-variant-east-asian:normal;fill:#000000;stroke:none"
     id="text23">40</text>
  <text
     x="28.83519"
     y="373.32007"
     text-anchor="start"
     style="font-style:normal;font-variant:normal;font-weight:normal;font-stretch:normal;font-size:16px;line-height:normal;font-family:'Droid Sans', 'Trebuchet MS', Arial, Helvetica, sans-serif;-inkscape-font-specification:'Droid Sans, Trebuchet MS, Arial, Helvetica, sans-serif, Normal';font-variant-ligatures:normal;font-variant-caps:normal;font-variant-numeric:normal;font-variant-east-asian:normal;fill:#000000;stroke:none"
     id="text25">50</text>
  <text
     x="28.83519"
     y="336.65341"
     text-anchor="start"
     style="font-style:normal;font-variant:normal;font-weight:normal;font-stretch:normal;font-size:16px;line-height:normal;font-family:'Droid Sans', 'Trebuchet MS', Arial, Helvetica, sans-serif;-inkscape-font-specification:'Droid Sans, Trebuchet MS, Arial, Helvetica, sans-serif, Normal';font-variant-ligatures:normal;font-variant-caps:normal;font-variant-numeric:normal;font-variant-east-asian:normal;fill:#000000;stroke:none"
     id="text27">60</text>
  <text
     x="28.83519"
     y="299.98676"
     text-anchor="start"
     style="font-style:normal;font-variant:normal;font-weight:normal;font-stretch:normal;font-size:16px;line-height:normal;font-family:'Droid Sans', 'Trebuchet MS', Arial, Helvetica, sans-serif;-inkscape-font-specification:'Droid Sans, Trebuchet MS, Arial, Helvetica, sans-serif, Normal';font-variant-ligatures:normal;font-variant-caps:normal;font-variant-numeric:normal;font-variant-east-asian:normal;fill:#000000;stroke:none"
     id="text29">70</text>
  <text
     x="28.83519"
     y="263.32007"
     text-anchor="start"
     style="font-style:normal;font-variant:normal;font-weight:normal;font-stretch:normal;font-size:16px;line-height:normal;font-family:'Droid Sans', 'Trebuchet MS', Arial, Helvetica, sans-serif;-inkscape-font-specification:'Droid Sans, Trebuchet MS, Arial, Helvetica, sans-serif, Normal';font-variant-ligatures:normal;font-variant-caps:normal;font-variant-numeric:normal;font-variant-east-asian:normal;fill:#000000;stroke:none"
     id="text31">80</text>
  <text
     x="28.83519"
     y="226.6534"
     text-anchor="start"
     style="font-style:normal;font-variant:normal;font-weight:normal;font-stretch:normal;font-size:16px;line-height:normal;font-family:'Droid Sans', 'Trebuchet MS', Arial, Helvetica, sans-serif;-inkscape-font-specification:'Droid Sans, Trebuchet MS, Arial, Helvetica, sans-serif, Normal';font-variant-ligatures:normal;font-variant-caps:normal;font-variant-numeric:normal;font-variant-east-asian:normal;fill:#000000;stroke:none"
     id="text33">90</text>
  <text
     x="28.83519"
     y="189.98672"
     text-anchor="start"
     style="font-style:normal;font-variant:normal;font-weight:normal;font-stretch:normal;font-size:16px;line-height:normal;font-family:'Droid Sans', 'Trebuchet MS', Arial, Helvetica, sans-serif;-inkscape-font-specification:'Droid Sans, Trebuchet MS, Arial, Helvetica, sans-serif, Normal';font-variant-ligatures:normal;font-variant-caps:normal;font-variant-numeric:normal;font-variant-east-asian:normal;fill:#000000;stroke:none"
     id="text35">100</text>
  <text
     x="28.83519"
     y="153.32007"
     text-anchor="start"
     style="font-style:normal;font-variant:normal;font-weight:normal;font-stretch:normal;font-size:16px;line-height:normal;font-family:'Droid Sans', 'Trebuchet MS', Arial, Helvetica, sans-serif;-inkscape-font-specification:'Droid Sans, Trebuchet MS, Arial, Helvetica, sans-serif, Normal';font-variant-ligatures:normal;font-variant-caps:normal;font-variant-numeric:normal;font-variant-east-asian:normal;fill:#000000;stroke:none"
     id="text37">110</text>
  <text
     x="28.83519"
     y="116.6534"
     text-anchor="start"
     style="font-style:normal;font-variant:normal;font-weight:normal;font-stretch:normal;font-size:16px;line-height:normal;font-family:'Droid Sans', 'Trebuchet MS', Arial, Helvetica, sans-serif;-inkscape-font-specification:'Droid Sans, Trebuchet MS, Arial, Helvetica, sans-serif, Normal';font-variant-ligatures:normal;font-variant-caps:normal;font-variant-numeric:normal;font-variant-east-asian:normal;fill:#000000;stroke:none"
     id="text39">120</text>
  <text
     x="28.83519"
     y="79.986732"
     text-anchor="start"
     style="font-style:normal;font-variant:normal;font-weight:normal;font-stretch:normal;font-size:16px;line-height:normal;font-family:'Droid Sans', 'Trebuchet MS', Arial, Helvetica, sans-serif;-inkscape-font-specification:'Droid Sans, Trebuchet MS, Arial, Helvetica, sans-serif, Normal';font-variant-ligatures:normal;font-variant-caps:normal;font-variant-numeric:normal;font-variant-east-asian:normal;fill:#000000;stroke:none"
     id="text41">130</text>
  <text
     x="28.83519"
     y="43.320068"
     text-anchor="start"
     style="font-style:normal;font-variant:normal;font-weight:normal;font-stretch:normal;font-size:16px;line-height:normal;font-family:'Droid Sans', 'Trebuchet MS', Arial, Helvetica, sans-serif;-inkscape-font-specification:'Droid Sans, Trebuchet MS, Arial, Helvetica, sans-serif, Normal';font-variant-ligatures:normal;font-variant-caps:normal;font-variant-numeric:normal;font-variant-east-asian:normal;fill:#000000;stroke:none"
     id="text43">140</text>
  <text
     x="137.99696"
     y="575.9942"
     text-anchor="middle"
     style="font-style:normal;font-variant:normal;font-weight:normal;font-stretch:normal;font-size:16px;line-height:normal;font-family:'Droid Sans', 'Trebuchet MS', Arial, Helvetica, sans-serif;-inkscape-font-specification:'Droid Sans, Trebuchet MS, Arial, Helvetica, sans-serif, Normal';font-variant-ligatures:normal;font-variant-caps:normal;font-variant-numeric:normal;font-variant-east-asian:normal;fill:#000000;stroke:none"
     id="text47">100</text>
  <text
     x="210.72423"
     y="575.9942"
     text-anchor="middle"
     style="font-style:normal;font-variant:normal;font-weight:normal;font-stretch:normal;font-size:16px;line-height:normal;font-family:'Droid Sans', 'Trebuchet MS', Arial, Helvetica, sans-serif;-inkscape-font-specification:'Droid Sans, Trebuchet MS, Arial, Helvetica, sans-serif, Normal';font-variant-ligatures:normal;font-variant-caps:normal;font-variant-numeric:normal;font-variant-east-asian:normal;fill:#000000;stroke:none"
     id="text51">200</text>
  <text
     x="283.45151"
     y="575.9942"
     text-anchor="middle"
     style="font-style:normal;font-variant:normal;font-weight:normal;font-stretch:normal;font-size:16px;line-height:normal;font-family:'Droid Sans', 'Trebuchet MS', Arial, Helvetica, sans-serif;-inkscape-font-specification:'Droid Sans, Trebuchet MS, Arial, Helvetica, sans-serif, Normal';font-variant-ligatures:normal;font-variant-caps:normal;font-variant-numeric:normal;font-variant-east-asian:normal;fill:#000000;stroke:none"
     id="text55">300</text>
  <text
     x="356.17877"
     y="575.9942"
     text-anchor="middle"
     style="font-style:normal;font-variant:normal;font-weight:normal;font-stretch:normal;font-size:16px;line-height:normal;font-family:'Droid Sans', 'Trebuchet MS', Arial, Helvetica, sans-serif;-inkscape-font-specification:'Droid Sans, Trebuchet MS, Arial, Helvetica, sans-serif, Normal';font-variant-ligatures:normal;font-variant-caps:normal;font-variant-numeric:normal;font-variant-east-asian:normal;fill:#000000;stroke:none"
     id="text59">400</text>
  <text
     x="428.90604"
     y="575.9942"
     text-anchor="middle"
     style="font-style:normal;font-variant:normal;font-weight:normal;font-stretch:normal;font-size:16px;line-height:normal;font-family:'Droid Sans', 'Trebuchet MS', Arial, Helvetica, sans-serif;-inkscape-font-specification:'Droid Sans, Trebuchet MS, Arial, Helvetica, sans-serif, Normal';font-variant-ligatures:normal;font-variant-caps:normal;font-variant-numeric:normal;font-variant-east-asian:normal;fill:#000000;stroke:none"
     id="text63">500</text>
  <text
     x="501.63333"
     y="575.9942"
     text-anchor="middle"
     style="font-style:normal;font-variant:normal;font-weight:normal;font-stretch:normal;font-size:16px;line-height:normal;font-family:'Droid Sans', 'Trebuchet MS', Arial, Helvetica, sans-serif;-inkscape-font-specification:'Droid Sans, Trebuchet MS, Arial, Helvetica, sans-serif, Normal';font-variant-ligatures:normal;font-variant-caps:normal;font-variant-numeric:normal;font-variant-east-asian:normal;fill:#000000;stroke:none"
     id="text67">600</text>
  <text
     x="574.3606"
     y="575.9942"
     text-anchor="middle"
     style="font-style:normal;font-variant:normal;font-weight:normal;font-stretch:normal;font-size:16px;line-height:normal;font-family:'Droid Sans', 'Trebuchet MS', Arial, Helvetica, sans-serif;-inkscape-font-specification:'Droid Sans, Trebuchet MS, Arial, Helvetica, sans-serif, Normal';font-variant-ligatures:normal;font-variant-caps:normal;font-variant-numeric:normal;font-variant-east-asian:normal;fill:#000000;stroke:none"
     id="text71">700</text>
  <text
     x="647.08789"
     y="575.9942"
     text-anchor="middle"
     style="font-style:normal;font-variant:normal;font-weight:normal;font-stretch:normal;font-size:16px;line-height:normal;font-family:'Droid Sans', 'Trebuchet MS', Arial, Helvetica, sans-serif;-inkscape-font-specification:'Droid Sans, Trebuchet MS, Arial, Helvetica, sans-serif, Normal';font-variant-ligatures:normal;font-variant-caps:normal;font-variant-numeric:normal;font-variant-east-asian:normal;fill:#000000;stroke:none"
     id="text75">800</text>
  <text
     x="719.81519"
     y="575.9942"
     text-anchor="middle"
     style="font-style:normal;font-variant:normal;font-weight:normal;font-stretch:normal;font-size:16px;line-height:normal;font-family:'Droid Sans', 'Trebuchet MS', Arial, Helvetica, sans-serif;-inkscape-font-specification:'Droid Sans, Trebuchet MS, Arial, Helvetica, sans-serif, Normal';font-variant-ligatures:normal;font-variant-caps:normal;font-variant-numeric:normal;font-variant-east-asian:normal;fill:#000000;stroke:none"
     id="text79">900</text>
  <text
     x="792.54242"
     y="575.9942"
     text-anchor="middle"
     style="font-style:normal;font-variant:normal;font-weight:normal;font-stretch:normal;font-size:16px;line-height:normal;font-family:'Droid Sans', 'Trebuchet MS', Arial, Helvetica, sans-serif;-inkscape-font-specification:'Droid Sans, Trebuchet MS, Arial, Helvetica, sans-serif, Normal';font-variant-ligatures:normal;font-variant-caps:normal;font-variant-numeric:normal;font-variant-east-asian:normal;fill:#000000;stroke:none"
     id="text83">1000</text>
  <text
     x="465.08218"
     y="598.95422"
     text-anchor="middle"
     style="font-style:normal;font-variant:normal;font-weight:normal;font-stretch:normal;font-size:21.3333px;line-height:normal;font-family:'Droid Sans', 'Trebuchet MS', Arial, Helvetica, sans-serif;-inkscape-font-specification:'Droid Sans, Trebuchet MS, Arial, Helvetica, sans-serif, Normal';font-variant-ligatures:normal;font-variant-caps:normal;font-variant-numeric:normal;font-variant-east-asian:normal;text-anchor:middle;fill:#000000;stroke:none"
     id="text55-2"><tspan
   style="font-style:normal;font-variant:normal;font-weight:normal;font-stretch:normal;font-size:21.3333px;font-family:'Droid Sans', 'Trebuchet MS', Arial, Helvetica, sans-serif;-inkscape-font-specification:'Droid Sans, Trebuchet MS, Arial, Helvetica, sans-serif, Normal';font-variant-ligatures:normal;font-variant-caps:normal;font-variant-numeric:normal;font-variant-east-asian:normal"
   id="tspan984">s</tspan> [m]</text>
  <text
     x="-276.25369"
     y="16.729141"
     text-anchor="middle"
     style="font-style:normal;font-variant:normal;font-weight:normal;font-stretch:normal;font-size:21.3333px;line-height:normal;font-family:'Droid Sans', 'Trebuchet MS', Arial, Helvetica, sans-serif;-inkscape-font-specification:'Droid Sans, Trebuchet MS, Arial, Helvetica, sans-serif, Normal';font-variant-ligatures:normal;font-variant-caps:normal;font-variant-numeric:normal;font-variant-east-asian:normal;text-anchor:middle;fill:#000000;stroke:none"
     id="text55-2-2"
     transform="rotate(-90)"><tspan
   style="font-style:italic;font-variant:normal;font-weight:normal;font-stretch:normal;font-size:21.3333px;font-family:'Droid Sans', 'Trebuchet MS', Arial, Helvetica, sans-serif;-inkscape-font-specification:'Droid Sans, Trebuchet MS, Arial, Helvetica, sans-serif, Italic';font-variant-ligatures:normal;font-variant-caps:normal;font-variant-numeric:normal;font-variant-east-asian:normal"
   id="tspan1010">v</tspan> [km/h]</text>
  <path
     d="m 65.269684,37.5 v 0.6 0.38 l 0.01,0.61 v 0.67 l 0.01,0.73 0.02,0.78 0.02,0.81 0.02,0.84 0.03,0.85 0.03,0.87 0.04,0.89 0.04,0.89 0.05,0.91 0.05,0.91 0.06,0.92 0.06,0.92 0.06,0.93 0.08,0.93 0.07,0.94 0.09,0.94 0.08,0.95 0.1,0.94 0.09,0.95 0.11,0.95 0.11,0.96 0.11,0.95 0.12,0.96 0.12,0.96 0.13,0.96 0.14,0.96 0.14,0.97 0.14,0.96 0.15,0.97 0.16,0.96 0.16,0.97 0.17,0.97 0.17,0.97 0.18,0.97 0.18,0.97 0.19,0.97 0.19,0.98 0.2,0.97 0.2,0.98 0.21,0.97 0.22,0.98 0.22,0.97 0.23,0.98 0.23,0.98 0.23,0.97 0.24,0.98 0.25,0.98 0.26,0.98 0.25,0.98 0.27,0.98 0.27,0.98 0.27,0.98 0.28,0.98 0.29,0.98 0.29,0.98 0.29,0.99 0.3,0.98 0.31,0.98 0.31,0.98 0.32,0.99 0.32,0.98 0.33,0.98 0.34,0.99 0.34,0.98 0.34,0.99 0.35,0.98 0.36,0.99 0.36,0.98 0.36,0.99 0.38,0.98 0.37,0.99 0.39,0.98 0.39,0.99 0.39,0.99 0.4,0.98 0.4,0.99 0.41,0.99 0.42,0.98 0.42,0.99 0.43,0.99 0.43,0.99 0.44,0.98 0.44,0.99 0.45,0.99 0.45,0.99 0.46,0.99 0.47,0.99 0.47,0.98 0.47,0.99 0.48,0.99 0.49,0.99 0.49,0.99 0.5,0.99 0.5,0.99 0.51,0.99 0.51,0.99 0.52,0.99 0.53,0.99 0.53,0.99 0.53,0.99 0.54,0.99 0.55,0.99 0.55,0.99 0.56,0.99 0.56,0.99 0.57,0.99 0.58,0.99 0.58,0.99 0.58,0.99 0.59,0.99 0.6,0.99 0.6,0.99 0.6,0.99 0.619996,0.99 0.61,0.99 0.63,1 0.63,0.99 0.63,0.99 0.64,0.99 0.64,0.99 0.66,0.99 0.65,1 0.66,0.99 0.67,0.99 0.67,0.99 0.68,0.99 0.68,1 0.69,0.99 0.7,0.99 0.7,0.99 0.7,0.99 0.71,1 0.72,0.99 0.72,0.99 0.73,0.99 0.73,1 0.74,0.99 0.74,0.99 0.75,0.99 0.76,1 0.76,0.99 0.76,0.99 0.77,1 0.78,0.99 0.78,0.99 0.79,0.99 0.79,1 0.8,0.99 0.8,0.99 0.81,1 0.82,0.99 0.82,0.99 0.82,1 0.83,0.99 0.84,0.99 0.84,1 0.85,0.99 0.85,1 0.86,0.99 0.87,0.99 0.87,1 0.87,0.99 0.88,0.99 0.89,1 0.89,0.99 0.9,1 0.9,0.99 0.91,0.99 0.91,1 0.92,0.99 0.93,1 0.93,0.99 0.93,0.99 0.94,1 0.95,0.99 0.95,1 0.96,0.99 0.96,1 0.97,0.99 0.97,0.99 0.98,1 0.99,0.99 0.99,1 1,0.99 1,1 1,0.99 1.02,1 1.01,0.99 1.03,1 1.03,0.99 1.03,0.99 1.04,1 1.05,0.99 1.05,1 1.05,0.99 1.06,1 1.07,0.99 1.07,1 1.08,0.99 1.09,1 1.09,0.99 1.09,1 1.1,0.99 1.11,1 1.11,0.99 1.11,1 1.13,0.99 1.12,1 1.14,0.99001 1.14,1 1.14,0.99 1.15,1 1.16,0.99 1.16,1 1.16,1 1.17,0.99 1.18,1 1.18,0.99 1.19,1 1.2,0.99 1.19,1 1.21,0.99 1.21,1 1.21,0.99 1.23,1 1.22,1 1.23,0.99 1.24,1 1.25,0.99 1.24,1 1.26,0.99 1.26,1 1.26,0.99 1.27,1 1.28,1 1.28,0.99 1.29,1 1.29,0.99 1.3,1 1.3,0.99 1.31,1 1.32,1 1.32,0.99 1.32,1 1.33,0.99 1.34,1 1.34,1 1.35,0.99 1.35,1 1.36,0.99 1.36,1 1.37,1 1.38,0.99 1.38,1 1.38,0.99 1.4,1 1.39,1 1.41,0.99 1.4,1 1.42,0.99 1.42,1 1.42,1 1.43,0.99 1.44,1 1.44,1 1.44,0.99 1.46,1 1.45,0.99 1.47,1 1.46,1 1.48,0.99 1.48,1 1.48,1 1.49,0.99 1.5,1 1.5,0.99 1.51,1 1.51,1 1.52,0.99 1.52,1 1.53,1 1.54,0.99 1.54,1 1.54,1 1.55,0.99 1.56,1 1.56,1 1.57,0.99 1.57,1 1.58,0.99 1.58,1 1.59,1 1.6,0.99 1.6,1 1.6,1 1.62,0.99 1.61,1 1.62,1 1.63,0.99 1.64,1 1.64,1 1.64,0.99 1.65,1 1.66,1 1.66,0.99 1.66,1 1.67,1 1.68,0.99 1.69,1 1.68,1 1.7,0.99 1.7,1 1.7,1 1.71,0.99 1.72,1 1.72,1 1.73,1 1.73,0.99 1.74,1 1.74,1 1.75,0.99 1.75,1 1.76,1 1.77,0.99 1.77,1 1.78,1 1.78,0.99 1.79,1 1.79,1 1.8,0.99 1.8,1 1.81,1 1.82,1 1.82,0.99 1.82,1 1.84,1 1.83,0.99 1.85,1 1.84,1 1.86,0.99 1.86,1 1.86,1 1.87,1 1.88,0.99 1.88,1 1.88,1 1.9,0.99 1.89,1 1.91,1 1.91,1 1.91,0.99 1.92,1 1.92,1 1.94,0.99 1.93,1 1.94,1 1.95,1 1.95,0.99 1.96,1 1.96,1 1.97,0.99 1.98,1 1.98,1 1.98,1 2,0.99 1.99,1 2,1 2,0.99 2,0.99 2,0.99 2,0.98 2,0.99 2,0.98 2,0.98 2,0.97 2,0.97 2,0.97 2,0.97 2,0.96 2,0.97 2,0.96 2,0.96 2,0.95 2,0.95 2,0.95 2,0.95 2,0.95 2,0.94 2,0.94 2,0.94 2,0.94 2,0.93 2,0.93 2,0.93 2,0.93 2,0.93 2,0.92 2,0.92 2,0.92 2,0.92 2,0.91 2,0.91 2,0.91 2,0.91 2,0.91 2,0.9 2,0.9 2,0.9 2,0.9 2,0.9 2,0.89 2,0.9 2,0.89 2,0.88 2,0.89 2,0.89 2,0.88 2,0.88 2,0.88 2,0.87 2,0.88 2,0.87 2,0.87 2,0.87 2,0.87 2,0.87 2,0.86 2,0.86 2,0.86 2,0.86 2,0.86 2,0.86 2,0.85 2,0.85 2,0.85 2,0.85 2,0.85 2,0.84 2,0.85 2,0.84 2,0.84 2,0.84 2,0.84 2,0.83 2,0.83 2,0.84 2,0.83 2,0.83 2,0.82 2,0.83 2,0.82 2,0.83 2,0.82 2,0.82 2,0.82 2,0.81 2,0.82 2,0.81 2,0.81 2,0.82 2,0.8 2,0.81 2,0.81 2,0.8 2,0.81 2,0.8 2,0.8 2,0.8 2,0.8 2,0.79 2,0.8 2,0.79 2,0.8 2,0.79 2,0.79 2,0.78 2,0.79 2,0.79 2,0.78 2,0.78 2,0.79 2,0.78 2,0.77 2,0.78 2,0.78 2,0.77 2,0.78 2,0.77 2,0.77 2,0.77 2,0.77 2,0.77 2,0.76 2,0.77 2,0.76 2,0.77 2,0.76 2,0.76 2,0.76 2,0.75 2,0.76 2,0.75 2,0.76 2,0.75 2,0.75 2,0.75 2,0.75 2,0.75 2,0.75 2,0.75 2,0.74 2,0.74 2,0.75 2,0.74 2,0.74 2,0.74 2,0.74 2,0.73 2,0.74 2,0.73 2,0.74 2,0.73 2,0.73 2,0.73 2,0.73 2,0.73 2,0.73 2,0.72 2,0.73 2,0.72 2,0.72 2,0.73 2,0.72 2,0.72 2,0.72 2,0.71 2,0.72 2,0.72 2,0.71 2,0.72 2,0.71 2,0.71 2,0.71 2,0.71 2,0.71 2,0.71 2,0.7 2,0.71"
     style="fill:none;stroke:#ff0000;stroke-width:1"
     id="path87" />
</svg>
