<?xml version="1.0" encoding="UTF-8" standalone="no"?>
<svg
   xmlns:dc="http://purl.org/dc/elements/1.1/"
   xmlns:cc="http://creativecommons.org/ns#"
   xmlns:rdf="http://www.w3.org/1999/02/22-rdf-syntax-ns#"
   xmlns:svg="http://www.w3.org/2000/svg"
   xmlns="http://www.w3.org/2000/svg"
   xmlns:sodipodi="http://sodipodi.sourceforge.net/DTD/sodipodi-0.dtd"
   xmlns:inkscape="http://www.inkscape.org/namespaces/inkscape"
   width="60.936844mm"
   height="57.149532mm"
   viewBox="0 0 60.936844 57.149532"
   version="1.1"
   id="svg2833"
   inkscape:version="1.0.2-2 (e86c870879, 2021-01-15)"
   sodipodi:docname="V02_KOOS2.svg">
  <defs
     id="defs2827">
    <clipPath
       clipPathUnits="userSpaceOnUse"
       id="clipEmfPath1">
      <path
         d="M 2.7198587,7.6796011 H 243.34736 V 229.90806 H 2.7198587 Z"
         id="path3396" />
    </clipPath>
    <pattern
       id="EMFhbasepattern"
       patternUnits="userSpaceOnUse"
       width="6"
       height="6"
       x="0"
       y="0" />
  </defs>
  <sodipodi:namedview
     id="base"
     pagecolor="#ffffff"
     bordercolor="#666666"
     borderopacity="1.0"
     inkscape:pageopacity="0.0"
     inkscape:pageshadow="2"
     inkscape:zoom="1.4"
     inkscape:cx="150.96509"
     inkscape:cy="208.54208"
     inkscape:document-units="mm"
     inkscape:current-layer="layer1"
     inkscape:document-rotation="0"
     showgrid="false"
     inkscape:window-width="1920"
     inkscape:window-height="1001"
     inkscape:window-x="2391"
     inkscape:window-y="-9"
     inkscape:window-maximized="1"
     lock-margins="true"
     fit-margin-top="1"
     fit-margin-left="1"
     fit-margin-right="1"
     fit-margin-bottom="1" />
  <metadata
     id="metadata2830">
    <rdf:RDF>
      <cc:Work
         rdf:about="">
        <dc:format>image/svg+xml</dc:format>
        <dc:type
           rdf:resource="http://purl.org/dc/dcmitype/StillImage" />
        <dc:title></dc:title>
      </cc:Work>
    </rdf:RDF>
  </metadata>
  <g
     inkscape:label="Ebene 1"
     inkscape:groupmode="layer"
     id="layer1"
     transform="translate(-75.364912,-149.07405)">
    <path
       style="fill:none;stroke:#000000;stroke-width:0.804292px;stroke-linecap:butt;stroke-linejoin:miter;stroke-miterlimit:8;stroke-dasharray:none;stroke-opacity:1"
       d="M 81.084833,160.23484 H 92.297292"
       id="path3402" />
    <path
       style="fill:#000000;fill-opacity:1;fill-rule:nonzero;stroke:#000000;stroke-width:0.00999948px;stroke-linecap:butt;stroke-linejoin:round;stroke-miterlimit:10;stroke-dasharray:none;stroke-opacity:1"
       clip-path="url(#clipEmfPath1)"
       d="M 46.637578,229.70807 V 24.288738 H 43.597736 V 229.70807 Z M 51.757312,32.648304 45.117657,21.278895 38.488001,32.648304 c -0.419978,0.719963 -0.179991,1.649915 0.549971,2.079892 0.719963,0.419978 1.649915,0.179991 2.079892,-0.549971 l 5.319724,-9.119527 h -2.629863 l 5.319723,9.119527 c 0.419979,0.729962 1.35993,0.969949 2.079892,0.549971 0.729962,-0.429977 0.96995,-1.359929 0.549972,-2.079892 z"
       id="path3404"
       transform="matrix(0.26458333,0,0,0.26458333,74.523507,144.44533)" />
    <path
       style="fill:#000000;fill-opacity:1;fill-rule:nonzero;stroke:#000000;stroke-width:0.00999948px;stroke-linecap:butt;stroke-linejoin:round;stroke-miterlimit:10;stroke-dasharray:none;stroke-opacity:1"
       clip-path="url(#clipEmfPath1)"
       d="M 21.278895,197.02977 H 226.69823 v -3.03985 H 21.278895 Z m 197.059765,5.11973 11.36941,-6.63965 -11.36941,-6.62966 c -0.71996,-0.41998 -1.64991,-0.17999 -2.07989,0.54997 -0.41998,0.71996 -0.16999,1.64992 0.54997,2.07989 l 9.11953,5.31973 v -2.62987 l -9.11953,5.31973 c -0.71996,0.41998 -0.96995,1.35993 -0.54997,2.07989 0.42998,0.72996 1.35993,0.96995 2.07989,0.54997 z"
       id="path3406"
       transform="matrix(0.26458333,0,0,0.26458333,74.523507,144.44533)" />
    <path
       style="fill:#000000;fill-opacity:1;fill-rule:evenodd;stroke:none;stroke-width:0.264583"
       d="m 81.751548,152.41945 h 2.455206 l 0.0635,0.17197 -1.645623,1.89168 c -0.320129,0.3651 -0.597928,0.67729 -0.830749,0.93128 l 0.01852,0.0238 h 0.780481 c 0.137576,0 0.243403,-0.005 0.317483,-0.0212 0.07408,-0.0159 0.137576,-0.0423 0.193136,-0.0847 0.05556,-0.0423 0.113765,-0.10318 0.17197,-0.18784 0.05821,-0.0847 0.132285,-0.21695 0.219593,-0.39686 h 0.3069 l -0.211655,0.97098 h -2.49754 l -0.06614,-0.16933 1.889027,-2.17476 c 0.26457,-0.30426 0.460351,-0.52385 0.584699,-0.65084 l -0.01852,-0.0238 H 82.67225 c -0.119056,0 -0.206364,0.008 -0.261924,0.0238 -0.05556,0.0159 -0.111119,0.0423 -0.166679,0.0847 -0.05291,0.0397 -0.113764,0.0979 -0.177261,0.17726 -0.0635,0.0794 -0.132285,0.19314 -0.211656,0.3413 h -0.306901 z"
       id="path3408" />
    <path
       style="fill:#000000;fill-opacity:1;fill-rule:evenodd;stroke:none;stroke-width:0.264583"
       d="m 131.84515,199.95467 c 0.0714,0 0.13493,0.008 0.18785,0.0265 0.0556,0.0159 0.10318,0.0397 0.14287,0.0741 0.0423,0.0318 0.0794,0.0767 0.11112,0.12964 0.0317,0.0529 0.0635,0.12435 0.0926,0.2143 0.0317,0.09 0.0582,0.20372 0.0847,0.33865 0.0265,0.13493 0.0503,0.27515 0.0714,0.41802 h 0.0344 c 0.22223,-0.30955 0.38891,-0.53708 0.50268,-0.67994 0.11376,-0.14552 0.20901,-0.25134 0.28838,-0.32278 0.0767,-0.0688 0.15345,-0.11905 0.22488,-0.14816 0.0741,-0.0291 0.16933,-0.0423 0.28838,-0.0423 0.10848,0 0.19843,0.0132 0.26722,0.0423 l -0.14023,0.62439 h -0.24075 c -0.0132,-0.0979 -0.0529,-0.14552 -0.11906,-0.14552 -0.0212,0 -0.045,0.003 -0.0661,0.0106 -0.0238,0.008 -0.0529,0.0212 -0.0847,0.045 -0.0344,0.0238 -0.082,0.0688 -0.14816,0.13493 -0.0635,0.0661 -0.13493,0.14816 -0.21694,0.24341 -0.0794,0.0979 -0.16404,0.19843 -0.2487,0.30425 l -0.23547,0.29368 c 0.0423,0.22223 0.082,0.41272 0.11906,0.57411 0.037,0.16139 0.0688,0.29367 0.0979,0.40215 0.0291,0.10582 0.0529,0.19049 0.0767,0.25398 0.0212,0.0608 0.045,0.10848 0.0688,0.13758 0.0264,0.0317 0.0529,0.0529 0.0794,0.0661 0.0265,0.0132 0.0556,0.0185 0.09,0.0185 0.0635,0 0.12435,-0.0238 0.18255,-0.0714 0.0582,-0.0476 0.14287,-0.15874 0.25399,-0.32807 l 0.22488,0.14816 c -0.16138,0.24076 -0.3069,0.40744 -0.43654,0.50533 -0.13228,0.0979 -0.28573,0.14816 -0.46564,0.14816 -0.0979,0 -0.18255,-0.0185 -0.25134,-0.0529 -0.0688,-0.037 -0.12964,-0.0926 -0.17991,-0.17197 -0.0503,-0.0794 -0.0952,-0.20107 -0.13493,-0.36511 -0.0714,-0.29631 -0.11376,-0.5212 -0.13228,-0.6773 h -0.0344 c -0.24341,0.34394 -0.42332,0.59 -0.54237,0.73815 -0.11906,0.15081 -0.21695,0.25928 -0.29367,0.33072 -0.0767,0.0714 -0.15081,0.1217 -0.22489,0.1508 -0.0714,0.0291 -0.16668,0.0423 -0.28838,0.0423 -0.10847,0 -0.19578,-0.0132 -0.26457,-0.0397 l 0.13758,-0.62439 h 0.24076 c 0.0159,0.0952 0.0556,0.14287 0.1217,0.14287 0.0318,0 0.0661,-0.008 0.10318,-0.0238 0.0344,-0.0185 0.0847,-0.0609 0.15345,-0.12434 0.0661,-0.0661 0.15874,-0.16933 0.27515,-0.30955 0.11641,-0.14022 0.28838,-0.35188 0.51062,-0.63232 -0.0344,-0.18255 -0.0688,-0.35717 -0.10583,-0.52385 -0.037,-0.16932 -0.0767,-0.32542 -0.11376,-0.47093 -0.0397,-0.14287 -0.0714,-0.23812 -0.0979,-0.28309 -0.0265,-0.045 -0.0529,-0.0767 -0.082,-0.0926 -0.0291,-0.0185 -0.0635,-0.0265 -0.10848,-0.0265 -0.0476,0 -0.0926,0.0106 -0.12963,0.0317 -0.0397,0.0212 -0.082,0.0609 -0.12964,0.11376 -0.045,0.0556 -0.10583,0.14022 -0.18256,0.25399 l -0.22488,-0.14816 c 0.14551,-0.21959 0.28573,-0.38098 0.41802,-0.48945 0.13493,-0.10848 0.29102,-0.16404 0.47358,-0.16404 z"
       id="path3410" />
    <path
       style="fill:#ff0000;fill-opacity:1;fill-rule:evenodd;stroke:none;stroke-width:0.264583"
       d="m 85.423774,159.87502 c 0,-0.62967 0.45506,-1.14294 1.015947,-1.14294 0.563534,0 1.015948,0.51327 1.015948,1.14294 0,0.63233 -0.452414,1.14294 -1.015948,1.14294 -0.560887,0 -1.015947,-0.51061 -1.015947,-1.14294 z"
       id="path3412" />
    <path
       style="fill:none;stroke:#ff0000;stroke-width:0.338649px;stroke-linecap:butt;stroke-linejoin:miter;stroke-miterlimit:8;stroke-dasharray:none;stroke-opacity:1"
       d="m 85.423774,159.87502 c 0,-0.62967 0.45506,-1.14294 1.015947,-1.14294 0.563534,0 1.015948,0.51327 1.015948,1.14294 0,0.63233 -0.452414,1.14294 -1.015948,1.14294 -0.560887,0 -1.015947,-0.51061 -1.015947,-1.14294"
       id="path3414" />
    <path
       style="fill:#ff0000;fill-opacity:1;fill-rule:nonzero;stroke:#ff0000;stroke-width:0.0026457px;stroke-linecap:butt;stroke-linejoin:round;stroke-miterlimit:10;stroke-dasharray:none;stroke-opacity:1"
       d="m 87.476834,159.49404 h 28.372446 v 0.8043 H 87.476834 Z m 26.160636,-1.35195 3.00816,1.7541 -3.00816,1.75674 c -0.19048,0.11112 -0.43653,0.0476 -0.5503,-0.14551 -0.11112,-0.19049 -0.0476,-0.43919 0.14551,-0.55031 l 2.41288,-1.40751 v 0.69582 l -2.41288,-1.40751 c -0.19313,-0.11376 -0.25663,-0.35981 -0.14551,-0.5503 0.11377,-0.19314 0.35982,-0.25664 0.5503,-0.14552 z"
       id="path3416" />
    <path
       style="fill:#ff0000;fill-opacity:1;fill-rule:evenodd;stroke:none;stroke-width:0.264583"
       d="m 111.30397,152.34537 c 0.16668,0 0.28574,0.045 0.35982,0.12964 0.0741,0.0873 0.11112,0.20372 0.11112,0.34659 0,0.11112 -0.0212,0.23811 -0.0609,0.38098 -0.037,0.14287 -0.0926,0.29367 -0.16404,0.45241 -0.0714,0.15875 -0.15609,0.32013 -0.25663,0.48946 -0.0979,0.16668 -0.20637,0.32806 -0.32807,0.48416 -0.11905,0.15874 -0.24605,0.3069 -0.38098,0.44712 -0.13757,0.13758 -0.27779,0.25928 -0.42331,0.36246 -0.14816,0.10583 -0.29632,0.18785 -0.44712,0.2487 -0.15081,0.0608 -0.29896,0.0899 -0.44977,0.0899 -0.0661,0 -0.1217,-0.0159 -0.16668,-0.0503 -0.045,-0.0318 -0.082,-0.0794 -0.10847,-0.14022 -0.0291,-0.0609 -0.0476,-0.13229 -0.0582,-0.21695 -0.0132,-0.082 -0.0185,-0.17197 -0.0185,-0.27251 0,-0.12964 0.008,-0.26986 0.0238,-0.42066 0.0159,-0.14816 0.037,-0.29897 0.0635,-0.45242 l 0.14286,-0.95509 c 0.0106,-0.0556 0.0185,-0.10847 0.0238,-0.15874 0.005,-0.0476 0.008,-0.0847 0.008,-0.10847 0,-0.0714 -0.0106,-0.12964 -0.0344,-0.17462 -0.0238,-0.0476 -0.0609,-0.0688 -0.11641,-0.0688 -0.045,0 -0.0926,0.0132 -0.14287,0.0397 -0.0503,0.0265 -0.10054,0.0609 -0.15345,0.10053 -0.0503,0.0423 -0.10054,0.0873 -0.14816,0.13229 -0.0503,0.0476 -0.0952,0.0926 -0.13493,0.13493 l -0.16668,-0.19314 c 0.0714,-0.0741 0.14816,-0.14816 0.22753,-0.21959 0.082,-0.0741 0.16668,-0.13758 0.25663,-0.19843 0.09,-0.0582 0.18256,-0.10582 0.28309,-0.14022 0.0979,-0.037 0.19843,-0.0529 0.30161,-0.0529 0.09,0 0.15874,0.0132 0.2143,0.0423 0.0556,0.0291 0.10054,0.0661 0.12964,0.11376 0.0318,0.0476 0.0529,0.0979 0.0635,0.1561 0.0132,0.0556 0.0185,0.11112 0.0185,0.16668 0,0.0317 -0.003,0.0635 -0.003,0.0926 -0.003,0.0318 -0.008,0.0582 -0.0106,0.0847 l -0.19313,1.24877 c -0.0212,0.12964 -0.0397,0.25928 -0.0529,0.38362 -0.0132,0.127 -0.0212,0.23812 -0.0212,0.33336 0,0.0979 0.005,0.17462 0.0185,0.23547 0.0106,0.0608 0.0318,0.0899 0.0661,0.0899 0.0741,0 0.16932,-0.0317 0.28573,-0.0926 0.11377,-0.0608 0.23547,-0.14551 0.36246,-0.25134 0.127,-0.10583 0.25399,-0.23282 0.37834,-0.37834 0.12699,-0.14816 0.24076,-0.3069 0.34394,-0.47622 0.10054,-0.16933 0.18255,-0.34923 0.24605,-0.53708 0.0635,-0.19049 0.0952,-0.37833 0.0952,-0.57147 0,-0.082 -0.0185,-0.14551 -0.0556,-0.19049 -0.0344,-0.045 -0.09,-0.0688 -0.16668,-0.0688 -0.0952,0 -0.1852,0.0397 -0.26721,0.11377 -0.082,0.0741 -0.16668,0.17197 -0.25399,0.29367 l -0.19579,-0.17461 c 0.0556,-0.082 0.11905,-0.16139 0.19578,-0.23811 0.0741,-0.0767 0.15345,-0.14287 0.23811,-0.20108 0.082,-0.0582 0.16932,-0.10318 0.25928,-0.13757 0.09,-0.0344 0.17726,-0.0529 0.26192,-0.0529 z"
       id="path3418" />
    <path
       style="fill:#ff0000;fill-opacity:1;fill-rule:evenodd;stroke:none;stroke-width:0.264583"
       d="m 113.29883,154.13651 c -0.11906,0 -0.21695,0.0318 -0.29632,0.0926 -0.0794,0.0609 -0.14022,0.1508 -0.18785,0.26986 -0.045,0.11906 -0.0794,0.26192 -0.0979,0.43389 -0.0185,0.16933 -0.0291,0.36511 -0.0291,0.58206 0,0.24869 0.0132,0.46564 0.037,0.64819 0.0238,0.18256 0.0635,0.33336 0.11377,0.44977 0.0503,0.11906 0.11641,0.20372 0.19313,0.25928 0.0767,0.0556 0.16933,0.0847 0.2778,0.0847 0.10054,0 0.18785,-0.0265 0.26457,-0.0794 0.0741,-0.0503 0.13758,-0.13229 0.18785,-0.2434 0.0503,-0.10848 0.0873,-0.2487 0.11112,-0.41802 0.0264,-0.16933 0.037,-0.36776 0.037,-0.59793 0,-0.25928 -0.0132,-0.48152 -0.0397,-0.66936 -0.0291,-0.1852 -0.0661,-0.33865 -0.11906,-0.46035 -0.0503,-0.11906 -0.11377,-0.20901 -0.19049,-0.26457 -0.0741,-0.0582 -0.16403,-0.0873 -0.26192,-0.0873 z m 0.0106,-0.2434 c 0.19843,0 0.3704,0.037 0.51326,0.11112 0.14023,0.0741 0.25663,0.18255 0.34659,0.32012 0.09,0.14023 0.1561,0.30955 0.19843,0.50798 0.0423,0.20107 0.0635,0.42595 0.0635,0.67994 0,0.55824 -0.10054,0.98155 -0.29897,1.26994 -0.19843,0.28573 -0.48416,0.4286 -0.86249,0.4286 -0.37305,0 -0.65085,-0.13493 -0.83075,-0.40479 -0.18256,-0.27251 -0.27251,-0.68259 -0.27251,-1.23025 0,-0.28838 0.0291,-0.53708 0.0847,-0.74873 0.0556,-0.20901 0.13493,-0.38363 0.23547,-0.52121 0.10318,-0.14022 0.22224,-0.2434 0.36246,-0.31219 0.14022,-0.0661 0.29367,-0.10053 0.46035,-0.10053 z"
       id="path3420" />
    <path
       style="fill:#0070c0;fill-opacity:1;fill-rule:nonzero;stroke:#0070c0;stroke-width:0.0026457px;stroke-linecap:butt;stroke-linejoin:round;stroke-miterlimit:10;stroke-dasharray:none;stroke-opacity:1"
       d="m 86.863033,161.03913 v 23.42764 h -0.804292 v -23.42764 z m 1.354596,21.21584 -1.756742,3.00815 -1.754096,-3.00815 c -0.11112,-0.19049 -0.04762,-0.43654 0.145513,-0.54766 0.19049,-0.11377 0.43654,-0.0476 0.550305,0.14287 l 1.40751,2.41287 h -0.695818 l 1.40751,-2.41287 c 0.111119,-0.1905 0.359815,-0.25664 0.550305,-0.14287 0.193135,0.11112 0.256632,0.35717 0.145513,0.54766 z"
       id="path3422" />
    <path
       style="fill:#0070c0;fill-opacity:1;fill-rule:evenodd;stroke:none;stroke-width:0.264583"
       d="m 82.323018,178.52453 c -0.235467,0 -0.444477,0.0952 -0.632321,0.28574 -0.185199,0.18784 -0.333358,0.44448 -0.439186,0.76725 -0.108473,0.32278 -0.161387,0.64291 -0.161387,0.96303 0,0.23812 0.03439,0.41802 0.103182,0.53708 0.06879,0.11906 0.177262,0.17726 0.325421,0.17726 0.11641,0 0.232821,-0.0397 0.349232,-0.1217 0.11641,-0.0794 0.240758,-0.20636 0.373043,-0.38363 0.132285,-0.17461 0.235467,-0.34129 0.309546,-0.50003 0.07408,-0.15874 0.134931,-0.35717 0.187844,-0.59264 0.05291,-0.23811 0.07672,-0.44448 0.07672,-0.61909 0,-0.17991 -0.03704,-0.30955 -0.113764,-0.39156 -0.07408,-0.082 -0.201073,-0.12171 -0.378335,-0.12171 z m -0.05556,-0.2725 c 0.145514,0 0.28309,0.0159 0.410083,0.0503 0.129639,0.0344 0.259278,0.0952 0.391563,0.17726 l 0.317484,-0.22753 0.219592,0.0556 -0.354523,1.60858 c -0.02646,0.11112 -0.08466,0.39686 -0.17197,0.85192 -0.09525,0.48416 -0.17197,0.82545 -0.230175,1.02388 -0.05821,0.20107 -0.132285,0.38363 -0.219593,0.54766 -0.08731,0.16403 -0.201073,0.30955 -0.338649,0.43125 -0.137577,0.1217 -0.304255,0.2143 -0.502683,0.28309 -0.195781,0.0661 -0.428602,0.10053 -0.698463,0.10053 -0.870434,0 -1.304328,-0.25398 -1.304328,-0.76196 0,-0.12699 0.03968,-0.24605 0.11641,-0.35187 0.07937,-0.10583 0.203719,-0.21695 0.375689,-0.33336 l 0.248696,0.20107 c -0.04233,0.0529 -0.07937,0.10318 -0.108474,0.1561 -0.03175,0.0503 -0.05291,0.10053 -0.0635,0.1508 -0.01323,0.0476 -0.02117,0.10583 -0.02117,0.17197 0,0.17197 0.0635,0.29896 0.187845,0.37834 0.124347,0.0794 0.312191,0.11905 0.560887,0.11905 0.283089,0 0.510619,-0.0635 0.682589,-0.19313 0.171971,-0.127 0.317484,-0.33336 0.439186,-0.61645 0.124348,-0.28309 0.240758,-0.70905 0.357169,-1.28316 l -0.04762,-0.0106 c -0.224884,0.3069 -0.431249,0.52913 -0.621739,0.66936 -0.19049,0.14022 -0.396854,0.21165 -0.619093,0.21165 -0.251341,0 -0.444477,-0.0952 -0.584698,-0.28309 -0.140222,-0.18784 -0.20901,-0.4577 -0.20901,-0.80694 0,-0.3942 0.07673,-0.77254 0.232821,-1.135 0.15345,-0.36246 0.367752,-0.65084 0.640258,-0.86514 0.275153,-0.2143 0.579408,-0.32013 0.915411,-0.32013 z"
       id="path3424" />
    <path
       style="fill:#000000;fill-opacity:1;fill-rule:evenodd;stroke:none;stroke-width:0.264583"
       d="m 77.846501,158.86437 h 0.201073 l -0.595282,2.39171 0.04233,0.0132 c 0.216947,-0.28838 0.423312,-0.50004 0.619093,-0.62968 0.193136,-0.12964 0.391563,-0.19578 0.587344,-0.19578 0.214302,0 0.378335,0.0635 0.494746,0.1852 0.113764,0.12435 0.17197,0.29367 0.17197,0.51326 0,0.14552 -0.03175,0.34924 -0.100537,0.61645 L 79.045,162.66356 c -0.0635,0.25134 -0.09525,0.4286 -0.09525,0.53178 0,0.0926 0.01587,0.15875 0.04498,0.20108 0.03175,0.0397 0.07673,0.0609 0.142867,0.0609 0.06879,0 0.142868,-0.0265 0.219593,-0.0847 0.07937,-0.0556 0.19049,-0.16403 0.333358,-0.32278 l 0.195781,0.19314 c -0.222238,0.23282 -0.402145,0.39421 -0.545013,0.48152 -0.140222,0.0873 -0.298964,0.12963 -0.476225,0.12963 -0.150805,0 -0.269861,-0.0529 -0.357169,-0.15874 -0.08995,-0.10582 -0.134931,-0.24076 -0.134931,-0.41008 0,-0.14816 0.03969,-0.3704 0.116411,-0.65878 l 0.148159,-0.59793 c 0.05291,-0.2143 0.08731,-0.37304 0.105828,-0.48152 0.01852,-0.10582 0.02646,-0.19049 0.02646,-0.24869 0,-0.16403 -0.02646,-0.28045 -0.07937,-0.34923 -0.05291,-0.0661 -0.137576,-0.10054 -0.256633,-0.10054 -0.09525,0 -0.201073,0.0397 -0.314838,0.11641 -0.11641,0.0794 -0.235467,0.19843 -0.36246,0.35717 -0.126993,0.16139 -0.22753,0.31484 -0.301609,0.46035 -0.07672,0.14551 -0.134931,0.32013 -0.177262,0.52385 l -0.314838,1.49217 h -0.597927 l 0.886308,-3.94473 c 0.05556,-0.24605 0.08466,-0.41538 0.08466,-0.51062 0,-0.0953 -0.0291,-0.16403 -0.08995,-0.20372 -0.05821,-0.0397 -0.161387,-0.0609 -0.314838,-0.0661 l 0.04233,-0.17991 z"
       id="path3426" />
    <path
       style="fill:#000000;fill-opacity:1;fill-rule:evenodd;stroke:none;stroke-width:0.264583"
       d="m 81.479041,162.21911 c -0.11641,0 -0.214301,0.0291 -0.293672,0.0899 -0.07937,0.0635 -0.142868,0.15345 -0.187844,0.26986 -0.04762,0.11906 -0.07937,0.26457 -0.09789,0.4339 -0.02117,0.17197 -0.0291,0.3651 -0.0291,0.58205 0,0.25134 0.01058,0.46564 0.03439,0.64819 0.02646,0.18256 0.0635,0.33336 0.113765,0.45242 0.05291,0.11641 0.11641,0.20372 0.193135,0.25928 0.07937,0.0556 0.169325,0.082 0.277799,0.082 0.100536,0 0.19049,-0.0265 0.264569,-0.0767 0.07672,-0.0529 0.137576,-0.13493 0.187845,-0.24341 0.05027,-0.11112 0.08731,-0.25134 0.113764,-0.42066 0.02381,-0.16668 0.03704,-0.36775 0.03704,-0.59793 0,-0.25928 -0.01323,-0.48152 -0.04233,-0.66672 -0.02646,-0.18785 -0.06614,-0.3413 -0.11641,-0.46035 -0.05027,-0.1217 -0.113765,-0.20901 -0.19049,-0.26722 -0.07672,-0.0582 -0.164033,-0.0847 -0.26457,-0.0847 z m 0.01058,-0.24605 c 0.201073,0 0.370398,0.037 0.513265,0.11377 0.142868,0.0741 0.259279,0.1799 0.349232,0.32013 0.08995,0.13757 0.156096,0.3069 0.195782,0.50797 0.04233,0.19843 0.0635,0.42596 0.0635,0.6773 0,0.56088 -0.09789,0.9842 -0.296318,1.26993 -0.198427,0.28574 -0.486808,0.4286 -0.862497,0.4286 -0.373043,0 -0.650841,-0.13493 -0.833394,-0.40479 -0.179907,-0.26986 -0.272507,-0.67994 -0.272507,-1.23025 0,-0.28838 0.0291,-0.53707 0.08466,-0.74608 0.05821,-0.21166 0.134931,-0.38627 0.238113,-0.52385 0.100536,-0.13758 0.222238,-0.2434 0.36246,-0.30955 0.137576,-0.0688 0.291027,-0.10318 0.457706,-0.10318 z"
       id="path3428" />
  </g>
</svg>
