<?xml version="1.0" encoding="UTF-8" standalone="no"?>
<svg
   xmlns:dc="http://purl.org/dc/elements/1.1/"
   xmlns:cc="http://creativecommons.org/ns#"
   xmlns:rdf="http://www.w3.org/1999/02/22-rdf-syntax-ns#"
   xmlns:svg="http://www.w3.org/2000/svg"
   xmlns="http://www.w3.org/2000/svg"
   width="191.4505mm"
   height="51.879444mm"
   viewBox="0 0 191.4505 51.879444"
   version="1.1"
   id="svg973">
  <defs
     id="defs967">
    <clipPath
       clipPathUnits="userSpaceOnUse"
       id="clipEmfPath1">
      <path
         d="M -3.3598255,7.6796011 H 737.24171 V 224.30835 H -3.3598255 Z"
         id="path1536" />
    </clipPath>
    <pattern
       id="EMFhbasepattern"
       patternUnits="userSpaceOnUse"
       width="6"
       height="6"
       x="0"
       y="0" />
  </defs>
  <metadata
     id="metadata970">
    <rdf:RDF>
      <cc:Work
         rdf:about="">
        <dc:format>image/svg+xml</dc:format>
        <dc:type
           rdf:resource="http://purl.org/dc/dcmitype/StillImage" />
        <dc:title></dc:title>
        <cc:license
           rdf:resource="http://creativecommons.org/licenses/by/4.0/" />
      </cc:Work>
      <cc:License
         rdf:about="http://creativecommons.org/licenses/by/4.0/">
        <cc:permits
           rdf:resource="http://creativecommons.org/ns#Reproduction" />
        <cc:permits
           rdf:resource="http://creativecommons.org/ns#Distribution" />
        <cc:requires
           rdf:resource="http://creativecommons.org/ns#Notice" />
        <cc:requires
           rdf:resource="http://creativecommons.org/ns#Attribution" />
        <cc:permits
           rdf:resource="http://creativecommons.org/ns#DerivativeWorks" />
      </cc:License>
    </rdf:RDF>
  </metadata>
  <g
     id="layer1"
     transform="translate(-9.730107,-118.06921)">
    <path
       style="fill:#000000;fill-opacity:1;fill-rule:nonzero;stroke:#000000;stroke-width:0.00999948px;stroke-linecap:butt;stroke-linejoin:round;stroke-miterlimit:4;stroke-dasharray:none;stroke-opacity:1"
       clip-path="url(#clipEmfPath1)"
       d="m 23.218794,189.17017 -0.409979,-164.871432 3.039842,-0.01 0.409979,164.881432 z M 17.71908,32.658304 24.318737,21.278895 30.98839,32.628305 c 0.419979,0.729962 0.179991,1.659914 -0.549971,2.079892 -0.719963,0.429978 -1.649914,0.179991 -2.079892,-0.539972 l -5.339723,-9.109527 h 2.629864 l -5.299725,9.129526 c -0.419978,0.729962 -1.34993,0.96995 -2.079892,0.549972 -0.719962,-0.419978 -0.96995,-1.34993 -0.549971,-2.079892 z"
       id="path1542"
       transform="matrix(0.26458333,0,0,0.26458333,9.722174,112.44181)" />
    <path
       style="fill:#000000;fill-opacity:1;fill-rule:nonzero;stroke:#000000;stroke-width:0.0026457px;stroke-linecap:butt;stroke-linejoin:round;stroke-miterlimit:4;stroke-dasharray:none;stroke-opacity:1"
       d="m 16.156507,163.17567 h 54.350531 v -0.80429 H 16.156507 Z m 52.138728,1.35459 3.008157,-1.75674 -3.008157,-1.75409 c -0.190489,-0.11112 -0.436538,-0.0476 -0.550304,0.14551 -0.111119,0.19049 -0.04498,0.43654 0.145513,0.5503 l 2.412876,1.40751 v -0.69581 l -2.412876,1.40751 c -0.190489,0.11112 -0.256632,0.35981 -0.145513,0.5503 0.113766,0.19314 0.359815,0.25663 0.550304,0.14551 z"
       id="path1544" />
    <path
       style="fill:#000000;fill-opacity:1;fill-rule:evenodd;stroke:none;stroke-width:0.264583"
       d="m 10.989462,121.32605 c 0.07143,0 0.134931,0.008 0.187845,0.0238 0.05291,0.0159 0.100536,0.0423 0.142867,0.0741 0.04233,0.0344 0.07937,0.0767 0.11112,0.12964 0.03175,0.0529 0.0635,0.12435 0.0926,0.21695 0.0291,0.09 0.05821,0.20372 0.08466,0.33865 0.02646,0.13228 0.05027,0.2725 0.07143,0.41802 h 0.03439 c 0.219593,-0.30955 0.388917,-0.53708 0.502682,-0.68259 0.113765,-0.14287 0.20901,-0.2487 0.288381,-0.32013 0.07672,-0.0688 0.153451,-0.11906 0.224884,-0.14816 0.07408,-0.0291 0.169325,-0.0423 0.288381,-0.0423 0.108474,0 0.195782,0.0132 0.267215,0.0397 l -0.140221,0.62439 h -0.240759 c -0.01323,-0.0953 -0.05291,-0.14287 -0.121702,-0.14287 -0.01852,0 -0.04233,0.003 -0.0635,0.0106 -0.02381,0.005 -0.05291,0.0212 -0.08466,0.045 -0.03439,0.0212 -0.08466,0.0661 -0.148159,0.13228 -0.0635,0.0688 -0.137576,0.15081 -0.216947,0.24605 -0.08202,0.0979 -0.164033,0.19843 -0.248695,0.30426 l -0.235467,0.29367 c 0.04233,0.21959 0.08202,0.41008 0.119056,0.57147 0.03704,0.16139 0.06879,0.29632 0.09789,0.40215 0.0291,0.10847 0.05291,0.19313 0.07673,0.25398 0.02116,0.0635 0.04498,0.10848 0.06879,0.14023 0.02646,0.0317 0.05291,0.0529 0.07937,0.0661 0.02646,0.0132 0.05556,0.0185 0.08995,0.0185 0.0635,0 0.124348,-0.0238 0.182553,-0.0714 0.05821,-0.0503 0.142868,-0.15875 0.253987,-0.32807 l 0.222238,0.14816 c -0.158741,0.23811 -0.3069,0.40744 -0.436539,0.50533 -0.12964,0.0979 -0.28309,0.14551 -0.462997,0.14551 -0.100537,0 -0.182553,-0.0159 -0.251341,-0.0529 -0.06879,-0.0344 -0.129639,-0.0926 -0.179908,-0.16933 -0.05027,-0.0794 -0.09524,-0.20107 -0.13493,-0.36775 -0.07143,-0.29367 -0.116411,-0.51855 -0.132285,-0.67465 h -0.03439 c -0.243404,0.3413 -0.423311,0.58734 -0.542368,0.73815 -0.119056,0.14816 -0.216947,0.25928 -0.293672,0.33071 -0.07672,0.0714 -0.15345,0.1217 -0.224884,0.15081 -0.07143,0.0291 -0.169324,0.0423 -0.288381,0.0423 -0.108473,0 -0.195781,-0.0132 -0.264569,-0.0423 l 0.137576,-0.62439 h 0.240758 c 0.01323,0.0979 0.05556,0.14552 0.121702,0.14552 0.03175,0 0.06614,-0.008 0.100537,-0.0265 0.03704,-0.0159 0.08731,-0.0582 0.15345,-0.12435 0.06879,-0.0635 0.158742,-0.16668 0.277798,-0.3069 0.11641,-0.14023 0.28838,-0.35188 0.510619,-0.63233 -0.03439,-0.18255 -0.07143,-0.35717 -0.108474,-0.52649 -0.03439,-0.16668 -0.07408,-0.32277 -0.113765,-0.46829 -0.03704,-0.14551 -0.07143,-0.24076 -0.09525,-0.28573 -0.02646,-0.045 -0.05291,-0.0741 -0.08202,-0.0926 -0.0291,-0.0159 -0.0635,-0.0265 -0.108474,-0.0265 -0.04762,0 -0.0926,0.0132 -0.129639,0.0344 -0.03969,0.0212 -0.08202,0.0582 -0.129639,0.11377 -0.04498,0.0529 -0.105828,0.13758 -0.182553,0.25399 l -0.224884,-0.14816 c 0.145513,-0.2196 0.285735,-0.38363 0.41802,-0.4921 0.13493,-0.10583 0.291026,-0.16139 0.473579,-0.16139 z"
       id="path1546" />
    <path
       style="fill:#000000;fill-opacity:1;fill-rule:evenodd;stroke:none;stroke-width:0.264583"
       d="m 67.840176,165.73406 h 0.476226 l -0.190492,0.85191 h 1.050343 l -0.07673,0.34923 h -1.05034 l -0.306901,1.33872 c -0.05821,0.25928 -0.09789,0.44713 -0.113765,0.56089 -0.01587,0.11377 -0.02381,0.20372 -0.02381,0.27516 0,0.28308 0.119055,0.42595 0.354523,0.42595 0.103182,0 0.20901,-0.037 0.322773,-0.11376 0.113766,-0.0794 0.248698,-0.20901 0.407437,-0.39686 l 0.19843,0.20901 c -0.19843,0.24076 -0.391565,0.41802 -0.576763,0.53443 -0.1852,0.11377 -0.380981,0.17197 -0.582054,0.17197 -0.481515,0 -0.722275,-0.2434 -0.722275,-0.72756 0,-0.1561 0.02117,-0.31749 0.05821,-0.48681 l 0.407438,-1.79114 H 66.89302 l 0.05291,-0.23811 c 0.134929,-0.003 0.238112,-0.0132 0.309547,-0.0318 0.06879,-0.0185 0.126992,-0.045 0.174614,-0.0767 0.04762,-0.0317 0.08995,-0.0767 0.12964,-0.13758 0.03968,-0.0609 0.07672,-0.13757 0.113763,-0.23017 0.03704,-0.0926 0.0926,-0.25663 0.16668,-0.48681 z"
       id="path1548" />
    <path
       style="fill:#000000;fill-opacity:1;fill-rule:nonzero;stroke:#000000;stroke-width:0.00999948px;stroke-linecap:butt;stroke-linejoin:round;stroke-miterlimit:4;stroke-dasharray:none;stroke-opacity:1"
       clip-path="url(#clipEmfPath1)"
       d="m 273.60579,189.17017 -0.40998,-164.871432 3.03984,-0.01 0.40998,164.881432 z m -5.49972,-156.511866 6.59966,-11.379409 6.66966,11.34941 c 0.41997,0.729962 0.17999,1.659914 -0.54998,2.079892 -0.71996,0.429978 -1.64991,0.179991 -2.07989,-0.539972 l -5.33972,-9.109527 h 2.62986 l -5.29972,9.129526 c -0.41998,0.729962 -1.34993,0.96995 -2.07989,0.549972 -0.71997,-0.419978 -0.96995,-1.34993 -0.54998,-2.079892 z"
       id="path1550"
       transform="matrix(0.26458333,0,0,0.26458333,9.722174,112.44181)" />
    <path
       style="fill:#000000;fill-opacity:1;fill-rule:nonzero;stroke:#000000;stroke-width:0.00529139px;stroke-linecap:butt;stroke-linejoin:round;stroke-miterlimit:4;stroke-dasharray:none;stroke-opacity:1"
       d="M 82.404732,163.17567 H 136.7579 v -0.80429 H 82.404732 Z m 52.141368,1.35459 3.00551,-1.75674 -3.00551,-1.75145 c -0.19049,-0.11112 -0.43918,-0.0476 -0.5503,0.14287 -0.11112,0.19049 -0.0476,0.43919 0.14287,0.5503 l 2.41287,1.40751 v -0.69317 l -2.41287,1.40751 c -0.19049,0.11112 -0.25399,0.35982 -0.14287,0.55031 0.11112,0.19049 0.35981,0.25398 0.5503,0.14286 z"
       id="path1552" />
    <path
       style="fill:#000000;fill-opacity:1;fill-rule:evenodd;stroke:none;stroke-width:0.264583"
       d="m 79.153172,121.31282 c 0.164034,0 0.283088,0.0423 0.357169,0.12964 0.07408,0.0847 0.11112,0.20107 0.11112,0.34659 0,0.11112 -0.01852,0.23546 -0.05821,0.37833 -0.03969,0.14287 -0.09525,0.29367 -0.16668,0.45242 -0.07143,0.15874 -0.156096,0.32277 -0.253986,0.48945 -0.100537,0.16668 -0.209011,0.32807 -0.328065,0.48681 -0.121703,0.15609 -0.248695,0.3069 -0.383628,0.44447 -0.134929,0.14023 -0.277796,0.26193 -0.423309,0.36511 -0.145516,0.10318 -0.293674,0.1852 -0.444479,0.24605 -0.150804,0.0609 -0.301609,0.0926 -0.452414,0.0926 -0.06614,0 -0.1217,-0.0185 -0.166679,-0.0503 -0.04498,-0.0344 -0.07937,-0.082 -0.108471,-0.14287 -0.02646,-0.0609 -0.04762,-0.13228 -0.05821,-0.2143 -0.01058,-0.0847 -0.01852,-0.17461 -0.01852,-0.27251 0,-0.13228 0.0079,-0.2725 0.02646,-0.42066 0.01587,-0.15081 0.03439,-0.30161 0.06085,-0.45241 l 0.145513,-0.95775 c 0.0079,-0.0556 0.01587,-0.10582 0.02117,-0.15609 0.0053,-0.0503 0.01058,-0.0873 0.01058,-0.10848 0,-0.0714 -0.01323,-0.12964 -0.03704,-0.17726 -0.02117,-0.045 -0.06085,-0.0688 -0.116411,-0.0688 -0.04233,0 -0.08995,0.0132 -0.140221,0.0397 -0.05027,0.0265 -0.103183,0.0609 -0.153451,0.10318 -0.05291,0.0397 -0.103182,0.0847 -0.150804,0.13229 -0.04762,0.0476 -0.0926,0.09 -0.134933,0.13228 l -0.166674,-0.19313 c 0.07144,-0.0741 0.148161,-0.14552 0.227531,-0.2196 0.08201,-0.0714 0.166679,-0.13757 0.256633,-0.19578 0.08995,-0.0582 0.185197,-0.10583 0.283088,-0.14287 0.09789,-0.0344 0.201073,-0.0529 0.304255,-0.0529 0.08731,0 0.158742,0.0132 0.214302,0.0423 0.05556,0.0291 0.09789,0.0688 0.12964,0.11377 0.0291,0.0476 0.05027,0.10053 0.06349,0.15609 0.01058,0.0556 0.01588,0.11377 0.01588,0.16668 0,0.0344 0,0.0635 -0.0026,0.0952 -0.0026,0.0291 -0.0053,0.0556 -0.01058,0.082 l -0.193184,1.24877 c -0.02116,0.13229 -0.03704,0.25928 -0.05291,0.38627 -0.01323,0.12435 -0.01852,0.23547 -0.01852,0.33336 0,0.0953 0.0053,0.17462 0.01587,0.23282 0.01058,0.0609 0.0344,0.09 0.06614,0.09 0.07672,0 0.171971,-0.0291 0.285734,-0.09 0.116411,-0.0609 0.235469,-0.14551 0.362461,-0.25398 0.126994,-0.10583 0.253986,-0.23283 0.380981,-0.37834 0.126992,-0.14551 0.240758,-0.30425 0.341294,-0.47358 0.100536,-0.17197 0.182555,-0.35188 0.246049,-0.53972 0.0635,-0.18785 0.09524,-0.37834 0.09524,-0.56883 0,-0.0847 -0.01852,-0.14815 -0.05291,-0.19313 -0.03704,-0.045 -0.0926,-0.0661 -0.166677,-0.0661 -0.09789,0 -0.187846,0.037 -0.269862,0.11112 -0.07937,0.0767 -0.164033,0.17461 -0.251341,0.29631 l -0.198423,-0.17726 c 0.05556,-0.082 0.121701,-0.16139 0.195782,-0.23811 0.07408,-0.0741 0.15345,-0.14287 0.238111,-0.19843 0.08466,-0.0582 0.169326,-0.10583 0.259279,-0.14022 0.08995,-0.0344 0.177263,-0.0503 0.26457,-0.0503 z"
       id="path1554" />
    <path
       style="fill:#000000;fill-opacity:1;fill-rule:evenodd;stroke:none;stroke-width:0.264583"
       d="m 134.09633,165.7367 h 0.47623 l -0.19049,0.85192 h 1.05299 l -0.0794,0.34923 h -1.0477 l -0.3069,1.33872 c -0.0582,0.25928 -0.0952,0.44448 -0.11112,0.56089 -0.0212,0.11112 -0.0265,0.20107 -0.0265,0.27515 0,0.28044 0.11642,0.42331 0.35453,0.42331 0.10053,0 0.21165,-0.037 0.32277,-0.11112 0.11641,-0.0794 0.2487,-0.21165 0.40744,-0.39685 l 0.20107,0.20636 c -0.20107,0.24341 -0.39685,0.41802 -0.58205,0.53443 -0.1852,0.11641 -0.37569,0.17462 -0.58205,0.17462 -0.47623,0 -0.71963,-0.24341 -0.71963,-0.73021 0,-0.15345 0.0212,-0.31749 0.0582,-0.48681 l 0.40744,-1.78849 h -0.57676 l 0.0476,-0.23811 c 0.13758,-0.005 0.23811,-0.0159 0.31219,-0.0317 0.0688,-0.0212 0.12699,-0.0476 0.17462,-0.0794 0.0476,-0.0317 0.09,-0.0741 0.12699,-0.13758 0.0423,-0.0582 0.0794,-0.13758 0.11641,-0.22753 0.037,-0.0952 0.09,-0.25928 0.16403,-0.48681 z"
       id="path1556" />
    <path
       style="fill:none;stroke:#ff0000;stroke-width:0.338649px;stroke-linecap:butt;stroke-linejoin:miter;stroke-miterlimit:8;stroke-dasharray:none;stroke-opacity:1"
       d="M 16.008348,150.96843 68.29259,125.79728"
       id="path1558" />
    <path
       style="fill:#000000;fill-opacity:1;fill-rule:nonzero;stroke:#000000;stroke-width:0.019999px;stroke-linecap:butt;stroke-linejoin:round;stroke-miterlimit:10;stroke-dasharray:none;stroke-opacity:1"
       clip-path="url(#clipEmfPath1)"
       d="M 514.0733,189.17017 513.67332,24.298738 h 3.03984 l 0.39998,164.871432 z m -5.49972,-156.511866 6.59966,-11.379409 6.67966,11.35941 c 0.41997,0.719962 0.17999,1.659914 -0.55998,2.079892 -0.71996,0.419978 -1.63991,0.17999 -2.07989,-0.539972 l -5.33972,-9.119527 h 2.63986 l -5.29972,9.139526 c -0.41998,0.719962 -1.35993,0.95995 -2.07989,0.539972 -0.71997,-0.419978 -0.97995,-1.339931 -0.55998,-2.079892 z"
       id="path1560"
       transform="matrix(0.26458333,0,0,0.26458333,9.722174,112.44181)" />
    <path
       style="fill:#000000;fill-opacity:1;fill-rule:nonzero;stroke:#000000;stroke-width:0.0399979px;stroke-linecap:butt;stroke-linejoin:round;stroke-miterlimit:10;stroke-dasharray:none;stroke-opacity:1"
       clip-path="url(#clipEmfPath1)"
       d="M 515.17324,191.75004 H 720.60257 V 188.7102 H 515.17324 Z m 197.06977,5.11973 11.35941,-6.63965 -11.35941,-6.59966 c -0.71997,-0.43997 -1.63992,-0.19999 -2.0799,0.51998 -0.39997,0.71996 -0.15999,1.67991 0.55998,2.07989 l 9.11952,5.31972 v -2.59986 l -9.11952,5.31972 c -0.71997,0.39998 -0.95995,1.31993 -0.55998,2.07989 0.43998,0.71996 1.35993,0.95995 2.0799,0.51997 z"
       id="path1562"
       transform="matrix(0.26458333,0,0,0.26458333,9.722174,112.44181)" />
    <path
       style="fill:#000000;fill-opacity:1;fill-rule:evenodd;stroke:none;stroke-width:0.264583"
       d="m 141.71065,121.6012 c -0.23811,0 -0.44977,0.0953 -0.64026,0.28574 -0.19049,0.19049 -0.33865,0.44447 -0.44448,0.76725 -0.10583,0.32277 -0.15874,0.64026 -0.15874,0.96303 0,0.23812 0.037,0.41802 0.10054,0.53443 0.0635,0.12171 0.17461,0.17991 0.32806,0.17991 0.15345,0 0.30161,-0.0688 0.44977,-0.19578 0.14287,-0.13229 0.29632,-0.31748 0.44977,-0.56089 0.15874,-0.2434 0.26457,-0.52385 0.33336,-0.84133 l 0.0265,-0.14816 c 0.0212,-0.0952 0.037,-0.17991 0.0423,-0.24869 0.0106,-0.0688 0.0106,-0.14287 0.0106,-0.22224 0,-0.17462 -0.037,-0.3069 -0.11112,-0.39157 -0.0794,-0.0794 -0.20637,-0.1217 -0.38627,-0.1217 z m -0.0688,-0.27515 c 0.14816,0 0.28574,0.0159 0.41802,0.0529 0.12699,0.0318 0.26457,0.09 0.40214,0.17462 l 0.31749,-0.22753 0.22224,0.0582 -0.50798,2.18534 c -0.0529,0.22224 -0.0794,0.39156 -0.0794,0.51327 0,0.09 0.0159,0.15874 0.0476,0.20107 0.0265,0.0423 0.0741,0.0582 0.14287,0.0582 0.0688,0 0.14287,-0.0265 0.21695,-0.0847 0.0794,-0.0529 0.19049,-0.16403 0.33336,-0.32278 l 0.19578,0.19578 c -0.20636,0.22224 -0.38098,0.37569 -0.52914,0.47094 -0.14816,0.0953 -0.3069,0.13758 -0.47622,0.13758 -0.14287,0 -0.25399,-0.0423 -0.33865,-0.13758 -0.0847,-0.0952 -0.127,-0.22224 -0.127,-0.37569 0,-0.12699 0.0265,-0.26457 0.0794,-0.40744 l -0.0476,-0.0106 c -0.22224,0.32278 -0.4286,0.5556 -0.62968,0.70376 -0.19578,0.15345 -0.40743,0.22753 -0.62438,0.22753 -0.25398,0 -0.44977,-0.0952 -0.59264,-0.28574 -0.13757,-0.19049 -0.20636,-0.46035 -0.20636,-0.80429 0,-0.39685 0.0794,-0.77783 0.23282,-1.14294 0.15345,-0.36511 0.3704,-0.65084 0.64026,-0.8625 0.26986,-0.21165 0.57676,-0.31748 0.91012,-0.31748 z"
       id="path1564" />
    <path
       style="fill:#000000;fill-opacity:1;fill-rule:evenodd;stroke:none;stroke-width:0.264583"
       d="m 197.71474,165.7367 h 0.47622 l -0.19049,0.85721 h 1.0477 l -0.0741,0.34923 h -1.0477 l -0.3069,1.33343 c -0.0635,0.26457 -0.10582,0.44448 -0.11641,0.56089 -0.0212,0.11641 -0.0212,0.20107 -0.0212,0.27515 0,0.28574 0.11641,0.42331 0.34923,0.42331 0.10583,0 0.21166,-0.0318 0.32807,-0.10583 0.10582,-0.0847 0.2434,-0.21165 0.40214,-0.40214 l 0.20107,0.21165 c -0.20107,0.24341 -0.39156,0.41273 -0.58205,0.52914 -0.17991,0.11641 -0.38098,0.17991 -0.58205,0.17991 -0.47623,0 -0.71963,-0.2434 -0.71963,-0.73021 0,-0.15874 0.0212,-0.31748 0.0635,-0.48681 l 0.40214,-1.78849 h -0.58205 l 0.0529,-0.2434 c 0.13758,0 0.24341,-0.0106 0.3069,-0.0317 0.0741,-0.0212 0.13758,-0.0423 0.17991,-0.0741 0.0529,-0.0317 0.0953,-0.0847 0.12699,-0.13758 0.0423,-0.0635 0.0847,-0.13758 0.11641,-0.23282 0.0423,-0.0952 0.0952,-0.25399 0.16933,-0.48681 z"
       id="path1566" />
    <path
       style="fill:none;stroke:#ff0000;stroke-width:0.338649px;stroke-linecap:butt;stroke-linejoin:miter;stroke-miterlimit:8;stroke-dasharray:none;stroke-opacity:1"
       d="M 82.383568,143.915 H 134.89534"
       id="path1568" />
    <path
       style="fill:none;stroke:#ff0000;stroke-width:0.338649px;stroke-linecap:butt;stroke-linejoin:miter;stroke-miterlimit:8;stroke-dasharray:none;stroke-opacity:1"
       d="m 146.00726,162.92168 h 52.51177"
       id="path1570" />
  </g>
</svg>
