<?xml version="1.0" encoding="UTF-8" standalone="no"?>
<svg
   xmlns:dc="http://purl.org/dc/elements/1.1/"
   xmlns:cc="http://creativecommons.org/ns#"
   xmlns:rdf="http://www.w3.org/1999/02/22-rdf-syntax-ns#"
   xmlns:svg="http://www.w3.org/2000/svg"
   xmlns="http://www.w3.org/2000/svg"
   xmlns:sodipodi="http://sodipodi.sourceforge.net/DTD/sodipodi-0.dtd"
   xmlns:inkscape="http://www.inkscape.org/namespaces/inkscape"
   width="28.7642mm"
   height="59.09808mm"
   viewBox="0 0 28.7642 59.09808"
   version="1.1"
   id="svg2231"
   sodipodi:docname="V02_KOOS1.svg"
   inkscape:version="1.0.2-2 (e86c870879, 2021-01-15)">
  <sodipodi:namedview
     pagecolor="#ffffff"
     bordercolor="#666666"
     borderopacity="1"
     objecttolerance="10"
     gridtolerance="10"
     guidetolerance="10"
     inkscape:pageopacity="0"
     inkscape:pageshadow="2"
     inkscape:window-width="2400"
     inkscape:window-height="1271"
     id="namedview15"
     showgrid="false"
     inkscape:zoom="0.73940797"
     inkscape:cx="72.730706"
     inkscape:cy="98.655535"
     inkscape:window-x="-9"
     inkscape:window-y="-9"
     inkscape:window-maximized="1"
     inkscape:current-layer="svg2231"
     lock-margins="true"
     fit-margin-top="1"
     fit-margin-left="1"
     fit-margin-right="1"
     fit-margin-bottom="1" />
  <defs
     id="defs2225">
    <clipPath
       clipPathUnits="userSpaceOnUse"
       id="clipEmfPath1">
      <path
         d="M -4.1597839,4.9597424 H 108.15438 V 243.50735 H -4.1597839 Z"
         id="path2794" />
    </clipPath>
    <pattern
       id="EMFhbasepattern"
       patternUnits="userSpaceOnUse"
       width="6"
       height="6"
       x="0"
       y="0" />
  </defs>
  <metadata
     id="metadata2228">
    <rdf:RDF>
      <cc:Work
         rdf:about="">
        <dc:format>image/svg+xml</dc:format>
        <dc:type
           rdf:resource="http://purl.org/dc/dcmitype/StillImage" />
        <dc:title></dc:title>
      </cc:Work>
    </rdf:RDF>
  </metadata>
  <g
     id="layer1"
     transform="translate(-78.600041,-122.39739)">
    <path
       style="fill:#000000;fill-opacity:1;fill-rule:nonzero;stroke:#000000;stroke-width:0.00999948px;stroke-linecap:butt;stroke-linejoin:round;stroke-miterlimit:4;stroke-dasharray:none;stroke-opacity:1"
       clip-path="url(#clipEmfPath1)"
       d="M 39.597943,229.70807 V 24.288738 H 36.558101 V 229.70807 Z M 44.717677,32.648304 38.078022,21.278895 31.448367,32.648304 c -0.419979,0.719963 -0.179991,1.649915 0.549971,2.079892 0.719963,0.419978 1.649914,0.179991 2.079892,-0.549971 l 5.319724,-9.119527 H 36.76809 l 5.319724,9.119527 c 0.419978,0.729962 1.359929,0.969949 2.079892,0.549971 0.729962,-0.429977 0.96995,-1.359929 0.549971,-2.079892 z"
       id="path2800"
       transform="matrix(0.26458333,0,0,0.26458333,79.576234,119.70399)" />
    <path
       style="fill:#000000;fill-opacity:1;fill-rule:evenodd;stroke:none;stroke-width:0.264583"
       d="m 95.500678,123.39739 h 0.280444 l -0.830749,3.33622 0.05821,0.0212 c 0.306901,-0.40479 0.595282,-0.69846 0.865143,-0.88101 0.272506,-0.17991 0.545013,-0.26986 0.820166,-0.26986 0.298963,0 0.529139,0.0847 0.690526,0.25663 0.158742,0.17197 0.240759,0.41008 0.240759,0.71434 0,0.20372 -0.04762,0.48945 -0.140222,0.86249 l -0.312192,1.262 c -0.08731,0.34923 -0.12964,0.59793 -0.12964,0.7408 0,0.12963 0.01852,0.22223 0.06085,0.28044 0.04233,0.0582 0.108474,0.0873 0.198428,0.0873 0.09525,0 0.198427,-0.0397 0.3069,-0.11906 0.11112,-0.0794 0.26457,-0.22753 0.462997,-0.44977 l 0.275153,0.26987 c -0.309547,0.32277 -0.560888,0.54765 -0.759315,0.66936 -0.198427,0.1217 -0.420666,0.18255 -0.666716,0.18255 -0.20901,0 -0.375688,-0.0741 -0.49739,-0.22224 -0.124348,-0.14816 -0.185199,-0.33865 -0.185199,-0.57147 0,-0.20901 0.05291,-0.51591 0.158742,-0.9207 l 0.206364,-0.8334 c 0.07408,-0.29896 0.124348,-0.5212 0.148159,-0.672 0.02646,-0.14816 0.03968,-0.26457 0.03968,-0.34923 0,-0.22753 -0.03704,-0.38892 -0.111119,-0.48417 -0.07408,-0.0952 -0.193136,-0.14022 -0.36246,-0.14022 -0.129639,0 -0.277798,0.0529 -0.43654,0.16139 -0.161387,0.11112 -0.330712,0.27515 -0.505328,0.50004 -0.177262,0.22223 -0.317483,0.43654 -0.423311,0.64025 -0.103182,0.20372 -0.185199,0.44713 -0.24605,0.73022 l -0.439186,2.0848 h -0.833394 l 1.238186,-5.50569 c 0.07672,-0.34394 0.116411,-0.57941 0.116411,-0.71169 0,-0.13493 -0.04233,-0.23018 -0.124348,-0.28574 -0.08202,-0.0529 -0.22753,-0.0847 -0.439186,-0.09 l 0.05556,-0.25134 z"
       id="path2802" />
    <path
       style="fill:none;stroke:#000000;stroke-width:0.804292px;stroke-linecap:butt;stroke-linejoin:miter;stroke-miterlimit:8;stroke-dasharray:none;stroke-opacity:1"
       d="m 84.063334,140.65791 h 11.21246"
       id="path2804" />
    <path
       style="fill:#000000;fill-opacity:1;fill-rule:evenodd;stroke:none;stroke-width:0.264583"
       d="m 80.957287,138.75036 c -0.142867,0 -0.261924,0.0423 -0.357169,0.12699 -0.09789,0.0847 -0.174616,0.20637 -0.232821,0.36511 -0.06085,0.16139 -0.100536,0.35452 -0.126993,0.58205 -0.02381,0.22753 -0.03704,0.48681 -0.03704,0.77519 0,0.67201 0.0635,1.16675 0.187844,1.48159 0.124348,0.31484 0.320129,0.47358 0.582053,0.47358 0.248696,0 0.43654,-0.14816 0.555596,-0.44448 0.121702,-0.29632 0.182553,-0.75667 0.182553,-1.37841 0,-0.47622 -0.03175,-0.85985 -0.0926,-1.15616 -0.0635,-0.29368 -0.148159,-0.50533 -0.259278,-0.63233 -0.111119,-0.12963 -0.24605,-0.19313 -0.402146,-0.19313 z m 0.01587,-0.26457 c 0.452414,0 0.788417,0.17726 1.010656,0.52649 0.219593,0.34923 0.330712,0.87573 0.330712,1.58213 0,0.73286 -0.116411,1.28581 -0.354523,1.6615 -0.235467,0.37568 -0.582053,0.56353 -1.037113,0.56353 -0.447123,0 -0.777835,-0.17726 -0.997427,-0.52914 -0.216948,-0.34923 -0.325421,-0.88366 -0.325421,-1.598 0,-0.38098 0.03175,-0.70905 0.100536,-0.98685 0.06614,-0.27779 0.161388,-0.50532 0.280444,-0.68788 0.121702,-0.1799 0.267215,-0.31219 0.43654,-0.3995 0.169324,-0.0873 0.354523,-0.13228 0.555596,-0.13228 z"
       id="path2806" />
    <path
       style="fill:#0070c0;fill-opacity:1;fill-rule:nonzero;stroke:#0070c0;stroke-width:0.00999948px;stroke-linecap:butt;stroke-linejoin:round;stroke-miterlimit:10;stroke-dasharray:none;stroke-opacity:1"
       clip-path="url(#clipEmfPath1)"
       d="M 95.915018,119.51379 V 226.74822 H 92.875176 V 119.51379 Z m 5.119732,98.87487 -6.639653,11.36941 -6.629655,-11.36941 c -0.419979,-0.71997 -0.179991,-1.64992 0.549971,-2.07989 0.719963,-0.41998 1.649914,-0.18 2.079892,0.54997 v 0 l 5.319724,9.11952 h -2.629864 l 5.319724,-9.11952 c 0.419978,-0.72997 1.359929,-0.96995 2.079891,-0.54997 0.72996,0.42997 0.96995,1.35992 0.54997,2.07989 z"
       id="path2808"
       transform="matrix(0.26458333,0,0,0.26458333,79.576234,119.70399)" />
    <path
       style="fill:#0070c0;fill-opacity:1;fill-rule:evenodd;stroke:none;stroke-width:0.264583"
       d="m 100.8053,151.87037 c -0.32807,0 -0.62174,0.13228 -0.881019,0.39685 -0.259278,0.26457 -0.465642,0.62174 -0.613801,1.07151 -0.150805,0.44976 -0.224884,0.89689 -0.224884,1.34401 0,0.33336 0.04762,0.58205 0.145513,0.74873 0.09524,0.16403 0.24605,0.2487 0.452414,0.2487 0.164033,0 0.325417,-0.0582 0.489457,-0.16933 0.16138,-0.11376 0.33335,-0.29102 0.51855,-0.53443 0.1852,-0.2434 0.32807,-0.47622 0.43125,-0.69846 0.10318,-0.22224 0.19049,-0.49739 0.26192,-0.8281 0.0741,-0.33072 0.10848,-0.6191 0.10848,-0.8625 0,-0.25134 -0.0529,-0.4339 -0.15874,-0.54766 -0.10583,-0.11377 -0.28309,-0.16932 -0.52914,-0.16932 z m -0.0767,-0.38099 c 0.20107,0 0.39421,0.0238 0.57147,0.0714 0.1799,0.0476 0.36246,0.12964 0.54501,0.24605 l 0.44448,-0.31748 0.3069,0.0767 -0.49475,2.24355 c -0.037,0.15874 -0.11641,0.5556 -0.24075,1.19056 -0.13229,0.67465 -0.23812,1.15088 -0.32013,1.43132 -0.082,0.2778 -0.1852,0.53179 -0.3069,0.76196 -0.12171,0.23018 -0.28045,0.42861 -0.47094,0.60058 -0.19313,0.16932 -0.4286,0.30161 -0.70111,0.39421 -0.27515,0.0926 -0.600571,0.14022 -0.976259,0.14022 -1.214375,0 -1.820239,-0.35453 -1.820239,-1.06093 0,-0.1799 0.05556,-0.34394 0.164033,-0.48945 0.108474,-0.14816 0.28309,-0.30426 0.523848,-0.46829 l 0.346586,0.28045 c -0.06085,0.0741 -0.111119,0.14551 -0.15345,0.21694 -0.04233,0.0741 -0.07143,0.14287 -0.08995,0.21166 -0.01587,0.0661 -0.02646,0.14551 -0.02646,0.24076 0,0.24075 0.08731,0.41537 0.261924,0.52649 0.17197,0.11112 0.433894,0.16668 0.783126,0.16668 0.396854,0 0.714338,-0.09 0.952451,-0.26722 0.23811,-0.1799 0.44448,-0.46564 0.6138,-0.85985 0.16933,-0.39421 0.336,-0.99213 0.49739,-1.79114 l -0.0688,-0.0159 c -0.31219,0.42861 -0.60057,0.73815 -0.86779,0.93393 -0.264566,0.19579 -0.552947,0.29368 -0.859848,0.29368 -0.351877,0 -0.624384,-0.12964 -0.81752,-0.39421 -0.193136,-0.26192 -0.291027,-0.63761 -0.291027,-1.12707 0,-0.54766 0.108474,-1.0768 0.322775,-1.58212 0.214302,-0.50533 0.513265,-0.90748 0.894246,-1.20644 0.383626,-0.29897 0.809584,-0.44712 1.277874,-0.44712 z"
       id="path2810" />
  </g>
</svg>
