<?xml version="1.0" encoding="UTF-8" standalone="no"?>
<svg
   xmlns:dc="http://purl.org/dc/elements/1.1/"
   xmlns:cc="http://creativecommons.org/ns#"
   xmlns:rdf="http://www.w3.org/1999/02/22-rdf-syntax-ns#"
   xmlns:svg="http://www.w3.org/2000/svg"
   xmlns="http://www.w3.org/2000/svg"
   xmlns:sodipodi="http://sodipodi.sourceforge.net/DTD/sodipodi-0.dtd"
   xmlns:inkscape="http://www.inkscape.org/namespaces/inkscape"
   width="90.51046mm"
   height="52.860775mm"
   viewBox="0 0 90.51046 52.860775"
   version="1.1"
   id="svg8"
   sodipodi:docname="V03_Kräfte.svg"
   inkscape:version="1.0.2-2 (e86c870879, 2021-01-15)">
  <sodipodi:namedview
     pagecolor="#ffffff"
     bordercolor="#666666"
     borderopacity="1"
     objecttolerance="10"
     gridtolerance="10"
     guidetolerance="10"
     inkscape:pageopacity="0"
     inkscape:pageshadow="2"
     inkscape:window-width="2400"
     inkscape:window-height="1271"
     id="namedview23"
     showgrid="false"
     lock-margins="true"
     fit-margin-top="1"
     fit-margin-left="1"
     fit-margin-right="1"
     fit-margin-bottom="1"
     inkscape:zoom="0.73940797"
     inkscape:cx="156.46515"
     inkscape:cy="-44.559851"
     inkscape:window-x="-9"
     inkscape:window-y="-9"
     inkscape:window-maximized="1"
     inkscape:current-layer="svg8" />
  <defs
     id="defs2">
    <clipPath
       clipPathUnits="userSpaceOnUse"
       id="clipEmfPath1">
      <path
         d="M 11.999377,1.2799335 H 358.0614 V 205.42933 H 11.999377 Z"
         id="path833" />
    </clipPath>
    <pattern
       id="EMFhbasepattern"
       patternUnits="userSpaceOnUse"
       width="6"
       height="6"
       x="0"
       y="0" />
  </defs>
  <metadata
     id="metadata5">
    <rdf:RDF>
      <cc:Work
         rdf:about="">
        <dc:format>image/svg+xml</dc:format>
        <dc:type
           rdf:resource="http://purl.org/dc/dcmitype/StillImage" />
        <dc:title></dc:title>
      </cc:Work>
    </rdf:RDF>
  </metadata>
  <g
     id="layer1"
     transform="translate(-63.601928,-160.28979)">
    <path
       style="fill:#4472c4;fill-opacity:1;fill-rule:nonzero;stroke:#4472c4;stroke-width:0.00999948px;stroke-linecap:butt;stroke-linejoin:round;stroke-miterlimit:4;stroke-dasharray:none;stroke-opacity:1"
       clip-path="url(#clipEmfPath1)"
       d="M 14.499247,136.6129 165.31141,20.958911 162.88154,17.779077 12.069373,133.44307 Z M 166.16137,25.348683 172.03106,13.27931 158.86175,15.829178 Z"
       id="path839"
       transform="matrix(0.26458333,0,0,0.26458333,61.409896,158.04352)" />
    <path
       style="fill:#70ad47;fill-opacity:1;fill-rule:nonzero;stroke:#70ad47;stroke-width:0.00999948px;stroke-linecap:butt;stroke-linejoin:round;stroke-miterlimit:4;stroke-dasharray:none;stroke-opacity:1"
       clip-path="url(#clipEmfPath1)"
       d="m 13.779284,133.10309 164.181476,42.07781 -0.98995,3.8798 -164.181474,-42.08781 z m 163.241526,37.70804 10.12947,8.78954 -13.10932,2.82985 z"
       id="path841"
       transform="matrix(0.26458333,0,0,0.26458333,61.409896,158.04352)" />
    <path
       style="fill:#70ad47;fill-opacity:1;fill-rule:nonzero;stroke:#70ad47;stroke-width:0.00529139px;stroke-linecap:butt;stroke-linejoin:round;stroke-miterlimit:4;stroke-dasharray:none;stroke-opacity:1"
       d="m 106.98466,161.29244 1.60329,0.41272 -0.13758,0.52914 -1.598,-0.40743 z m 2.13243,0.54501 1.60329,0.41273 -0.13758,0.53443 -1.598,-0.41273 z m 2.13243,0.5503 1.60329,0.40744 -0.13757,0.53443 -1.59801,-0.41273 z m 2.13243,0.54502 1.60329,0.40743 -0.13757,0.53443 -1.6033,-0.40743 z m 2.13243,0.54501 1.60329,0.41273 -0.13757,0.52914 -1.60329,-0.40744 z m 2.13243,0.5503 1.598,0.40744 -0.13228,0.53443 -1.60329,-0.41273 z m 2.13243,0.54502 1.598,0.40744 -0.13228,0.53443 -1.60329,-0.40744 z m 2.13243,0.54501 1.598,0.41273 -0.13228,0.52914 -1.60329,-0.40744 z m 2.13243,0.54501 1.598,0.41273 -0.13228,0.53443 -1.60329,-0.41272 z m 2.13244,0.55031 1.598,0.40744 -0.13229,0.53443 -1.60329,-0.41273 z m 2.13243,0.54501 1.598,0.40744 -0.13229,0.53443 -1.60329,-0.40744 z m 2.13243,0.54502 1.598,0.41272 -0.13758,0.52914 -1.598,-0.40743 z m 2.13243,0.5503 1.59799,0.40744 -0.13757,0.53443 -1.598,-0.41273 z m 2.13242,0.54501 1.59801,0.40744 -0.13758,0.53443 -1.598,-0.40744 z m 2.13243,0.54502 1.59801,0.41273 -0.13758,0.52914 -1.598,-0.40744 z m 2.13243,0.54501 1.59801,0.41273 -0.13758,0.53443 -1.598,-0.41273 z m 2.13244,0.55031 1.598,0.40743 -0.13758,0.53443 -1.598,-0.41273 z m 2.13243,0.54501 1.598,0.40744 -0.13758,0.53443 -1.598,-0.40744 z m 2.13243,0.54501 1.598,0.41273 -0.13758,0.52914 -1.598,-0.40744 z m 2.13243,0.55031 1.598,0.40743 -0.13758,0.53443 -1.598,-0.41272 z m 2.13243,0.54501 1.598,0.40744 -0.13758,0.53443 -1.598,-0.40744 z m 2.13243,0.54501 1.22231,0.3122 -0.13757,0.53443 -1.22231,-0.3122 z"
       id="path843" />
    <path
       style="fill:#4472c4;fill-opacity:1;fill-rule:nonzero;stroke:#4472c4;stroke-width:0.00529139px;stroke-linecap:butt;stroke-linejoin:round;stroke-miterlimit:4;stroke-dasharray:none;stroke-opacity:1"
       d="m 111.10665,205.79833 1.31227,-1.00536 -0.33865,-0.4339 -1.30698,1.00537 z m 1.74616,-1.33872 1.31227,-1.00536 -0.33336,-0.4339 -1.31227,1.00536 z m 1.74616,-1.33872 1.31227,-1.00537 -0.33336,-0.43389 -1.31227,1.00007 z m 1.74616,-1.33873 1.31227,-1.00536 -0.33336,-0.43918 -1.31227,1.00536 z m 1.75145,-1.33872 1.30698,-1.00536 -0.33336,-0.43919 -1.31227,1.00537 z m 1.74616,-1.33872 1.30697,-1.00536 -0.33335,-0.43919 -1.31227,1.00537 z m 1.74616,-1.34401 1.30697,-1.00537 -0.33335,-0.43389 -1.31227,1.00536 z m 1.74616,-1.33872 1.30697,-1.00537 -0.33336,-0.43389 -1.30697,1.00536 z m 1.74616,-1.33873 1.31226,-1.00536 -0.33865,-0.4339 -1.30697,1.00537 z m 1.74616,-1.33872 1.31226,-1.00536 -0.33865,-0.43919 -1.30697,1.00537 z m 1.74616,-1.33872 1.31226,-1.00537 -0.33865,-0.43918 -1.30697,1.00536 z m 1.74615,-1.33872 1.31227,-1.00537 -0.33336,-0.43918 -1.31226,1.00536 z m 1.74616,-1.34402 1.31227,-1.00007 -0.33336,-0.43919 -1.31226,1.00537 z m 1.74616,-1.33872 1.31226,-1.00536 -0.33335,-0.4339 -1.31226,1.00537 z m 1.75145,-1.33872 1.30697,-1.00537 -0.33335,-0.43389 -1.31227,1.00536 z m 1.74616,-1.33872 1.30697,-1.00537 -0.33335,-0.43389 -1.31227,1.00007 z m 1.74616,-1.33873 1.30697,-1.00536 -0.33335,-0.43919 -1.31227,1.00537 z m 1.74616,-1.33872 1.30697,-1.00536 -0.33336,-0.43919 -1.30697,1.00537 z m 1.74616,-1.34401 1.31226,-1.00007 -0.33865,-0.43919 -1.30697,1.00537 z m 1.74616,-1.33872 1.31226,-1.00537 -0.33865,-0.43389 -1.30697,1.00536 z m 1.74616,-1.33872 1.31226,-1.00537 -0.33865,-0.43389 -1.30697,1.00536 z m 1.74615,-1.33873 1.31227,-1.00536 -0.33336,-0.4339 -1.31226,1.00008 z m 1.74616,-1.33872 1.31227,-1.00536 -0.33336,-0.43919 -1.31226,1.00537 z m 1.74616,-1.33872 1.31227,-1.00537 -0.33336,-0.43918 -1.31227,1.00536 z m 1.75145,-1.33872 0.0794,-0.0635 -0.33336,-0.43919 -0.0847,0.0635 z"
       id="path845" />
    <path
       style="fill:#000000;fill-opacity:1;fill-rule:nonzero;stroke:#000000;stroke-width:0.019999px;stroke-linecap:butt;stroke-linejoin:round;stroke-miterlimit:4;stroke-dasharray:none;stroke-opacity:1"
       clip-path="url(#clipEmfPath1)"
       d="M 13.739286,137.05288 336.62252,62.136773 335.72256,58.236975 12.839333,133.15308 Z M 335.58257,66.476547 345.90203,57.916992 332.86271,54.797154 Z"
       id="path847"
       transform="matrix(0.26458333,0,0,0.26458333,61.409896,158.04352)" />
    <path
       style="fill:#4472c4;fill-opacity:1;fill-rule:evenodd;stroke:none;stroke-width:0.264583"
       d="m 76.971876,168.75065 h 3.11134 l -0.23811,1.06093 h -0.33071 c -0.008,-0.17727 -0.0238,-0.31749 -0.0423,-0.41802 -0.0212,-0.10319 -0.0476,-0.17727 -0.0847,-0.22224 -0.0344,-0.045 -0.0767,-0.0741 -0.127,-0.0926 -0.0529,-0.0159 -0.12699,-0.0238 -0.23017,-0.0238 h -1.06093 l -0.41273,1.87844 h 0.64555 c 0.10319,0 0.1852,-0.0132 0.25399,-0.0423 0.0661,-0.0265 0.12699,-0.0767 0.1852,-0.14816 0.0582,-0.0741 0.12964,-0.19842 0.2143,-0.37304 h 0.31484 l -0.336,1.45778 h -0.30426 c 0,-0.23282 -0.008,-0.37834 -0.0212,-0.43654 -0.0159,-0.0582 -0.045,-0.0979 -0.0873,-0.1217 -0.0423,-0.0212 -0.12699,-0.0317 -0.25399,-0.0317 h -0.67465 l -0.27515,1.22231 c -0.0476,0.2143 -0.0714,0.39421 -0.0714,0.53707 0,0.0714 0.0106,0.127 0.0344,0.16933 0.0238,0.0397 0.0582,0.0688 0.10318,0.0873 0.0476,0.0185 0.12699,0.0317 0.23811,0.0397 l -0.037,0.16932 h -1.41809 l 0.037,-0.16932 c 0.0873,-0.0132 0.15345,-0.0344 0.19578,-0.0661 0.045,-0.0317 0.082,-0.0741 0.11112,-0.12964 0.0291,-0.0556 0.0582,-0.1217 0.082,-0.20107 0.0265,-0.0794 0.0635,-0.23282 0.11641,-0.46035 l 0.5847,-2.65893 c 0.0503,-0.23017 0.0767,-0.41273 0.0767,-0.54501 0,-0.11377 -0.0265,-0.19049 -0.0794,-0.23547 -0.0529,-0.0423 -0.14022,-0.0688 -0.25928,-0.0767 z"
       id="path849" />
    <path
       style="fill:#4472c4;fill-opacity:1;fill-rule:evenodd;stroke:none;stroke-width:0.264583"
       d="m 79.130766,166.58647 0.86514,0.74873 v 0.20108 l -0.86514,0.74873 -0.1852,-0.20636 0.55295,-0.47888 h -2.10597 v -0.32542 h 2.10597 l -0.55295,-0.47887 z"
       id="path851" />
    <path
       style="fill:#4472c4;fill-opacity:1;fill-rule:evenodd;stroke:none;stroke-width:0.264583"
       d="m 80.958946,171.65563 h 0.15345 c -0.003,0.0926 -0.005,0.17461 -0.008,0.24869 -0.003,0.0714 -0.003,0.14287 -0.003,0.21166 -0.003,0.0688 -0.003,0.13757 -0.003,0.20372 v 1.91813 c 0,0.0503 0.003,0.0952 0.005,0.13493 0.003,0.037 0.008,0.0688 0.0159,0.0952 0.008,0.0265 0.0185,0.0476 0.0317,0.0661 0.0106,0.0185 0.0265,0.0344 0.0423,0.0476 0.0212,0.0212 0.0476,0.037 0.082,0.0476 0.0344,0.0106 0.0767,0.0212 0.12699,0.0265 0.0529,0.008 0.11641,0.0159 0.18784,0.0185 0.0741,0.005 0.16139,0.008 0.26457,0.008 v 0.21959 h -2.00014 v -0.21959 c 0.10053,-0.003 0.18255,-0.005 0.25398,-0.0106 0.0688,-0.003 0.127,-0.0106 0.17462,-0.0159 0.0503,-0.008 0.0873,-0.0185 0.11906,-0.0265 0.0291,-0.0106 0.0529,-0.0212 0.0767,-0.0344 0.0238,-0.0159 0.0423,-0.0317 0.0582,-0.0476 0.0185,-0.0185 0.0317,-0.0423 0.0423,-0.0688 0.0106,-0.0265 0.0185,-0.0582 0.0238,-0.0979 0.005,-0.0397 0.008,-0.0873 0.008,-0.14287 v -1.80966 c 0,-0.0635 -0.0132,-0.11112 -0.037,-0.13757 -0.0265,-0.0265 -0.0609,-0.0397 -0.10848,-0.0397 -0.0529,0 -0.12964,0.0265 -0.23282,0.0794 -0.10318,0.0556 -0.23546,0.13493 -0.39685,0.24075 -0.0238,-0.0397 -0.0423,-0.0767 -0.0608,-0.11641 -0.0185,-0.0397 -0.0397,-0.0794 -0.0582,-0.11905 0.20901,-0.11377 0.41537,-0.22753 0.61909,-0.3413 0.20372,-0.11376 0.41008,-0.22753 0.62174,-0.33865 z"
       id="path853" />
    <path
       style="fill:#70ad47;fill-opacity:1;fill-rule:evenodd;stroke:none;stroke-width:0.264583"
       d="m 81.157366,205.99941 h 3.11134 l -0.23811,1.06092 h -0.33071 c -0.008,-0.17726 -0.0238,-0.31748 -0.0423,-0.42067 -0.0212,-0.10053 -0.0476,-0.17461 -0.0847,-0.21959 -0.0344,-0.045 -0.0767,-0.0767 -0.127,-0.0926 -0.0529,-0.0159 -0.12699,-0.0238 -0.23017,-0.0238 h -1.06093 l -0.41272,1.87844 h 0.64555 c 0.10318,0 0.18519,-0.0132 0.25398,-0.0423 0.0661,-0.0265 0.127,-0.0767 0.1852,-0.1508 0.0582,-0.0714 0.12964,-0.19578 0.2143,-0.3704 h 0.31484 l -0.336,1.45778 h -0.30426 c 0,-0.23282 -0.008,-0.37833 -0.0212,-0.43654 -0.0159,-0.0582 -0.045,-0.10054 -0.0873,-0.1217 -0.0423,-0.0212 -0.12699,-0.0317 -0.25399,-0.0317 h -0.67465 l -0.27515,1.22231 c -0.0476,0.2143 -0.0714,0.39421 -0.0714,0.53707 0,0.0714 0.0106,0.127 0.0344,0.16668 0.0238,0.0423 0.0582,0.0714 0.10318,0.0899 0.0476,0.0185 0.127,0.0317 0.23811,0.0397 l -0.037,0.16933 h -1.41809 l 0.037,-0.16933 c 0.0873,-0.0132 0.15345,-0.0344 0.19578,-0.0661 0.045,-0.0318 0.082,-0.0741 0.11112,-0.12964 0.0291,-0.0556 0.0582,-0.1217 0.082,-0.20107 0.0265,-0.0794 0.0635,-0.23282 0.11641,-0.463 l 0.5847,-2.65628 c 0.0503,-0.23017 0.0767,-0.41272 0.0767,-0.54501 0,-0.11376 -0.0265,-0.19313 -0.0794,-0.23546 -0.0529,-0.045 -0.14022,-0.0688 -0.25928,-0.0767 z"
       id="path855" />
    <path
       style="fill:#70ad47;fill-opacity:1;fill-rule:evenodd;stroke:none;stroke-width:0.264583"
       d="m 83.316256,203.83523 0.86514,0.74873 v 0.20107 l -0.86514,0.74873 -0.1852,-0.20636 0.55295,-0.48152 h -2.10597 v -0.32277 h 2.10597 l -0.55295,-0.48152 z"
       id="path857" />
    <path
       style="fill:#70ad47;fill-opacity:1;fill-rule:evenodd;stroke:none;stroke-width:0.264583"
       d="m 85.115326,208.88586 c 0.17462,0 0.32543,0.0185 0.44977,0.0582 0.12171,0.0397 0.22224,0.0926 0.29897,0.16139 0.0794,0.0661 0.13493,0.14816 0.16932,0.24076 0.0344,0.0952 0.0503,0.19578 0.0503,0.3069 0,0.0635 -0.003,0.12434 -0.0132,0.18255 -0.008,0.0556 -0.0238,0.11112 -0.0476,0.16668 -0.0238,0.0529 -0.0529,0.10847 -0.0899,0.16403 -0.037,0.0556 -0.082,0.11377 -0.13757,0.17726 -0.0423,0.0529 -0.0979,0.11641 -0.16404,0.1852 -0.0688,0.0714 -0.14022,0.14816 -0.22224,0.22753 -0.0794,0.082 -0.16138,0.16403 -0.24869,0.25134 -0.09,0.0873 -0.17462,0.17462 -0.25663,0.26193 -0.082,0.0847 -0.1561,0.16668 -0.22753,0.24869 -0.0688,0.0794 -0.12435,0.15345 -0.16668,0.22224 h 0.93128 c 0.0794,0 0.14287,-0.003 0.19049,-0.008 0.0476,-0.008 0.0847,-0.0212 0.11641,-0.0397 0.0318,-0.0212 0.0582,-0.0503 0.0794,-0.0926 0.0212,-0.0423 0.0476,-0.0979 0.0767,-0.16932 h 0.23282 c -0.008,0.11905 -0.0159,0.23811 -0.0238,0.35981 -0.008,0.1217 -0.0159,0.24076 -0.0238,0.35982 h -2.13507 v -0.12965 c 0.0397,-0.0926 0.0873,-0.1799 0.14022,-0.26985 0.0556,-0.0873 0.11641,-0.17727 0.18255,-0.26722 0.0661,-0.0926 0.14287,-0.1852 0.23018,-0.28309 0.0847,-0.0953 0.17991,-0.19578 0.28309,-0.30161 0.15874,-0.1561 0.28838,-0.29103 0.38627,-0.40479 0.10054,-0.11112 0.17726,-0.20901 0.23547,-0.29632 0.0556,-0.0873 0.0952,-0.16932 0.11641,-0.2434 0.0212,-0.0741 0.0317,-0.15345 0.0317,-0.23811 0,-0.0847 -0.0132,-0.16404 -0.037,-0.23547 -0.0238,-0.0714 -0.0582,-0.13493 -0.10318,-0.1852 -0.045,-0.0503 -0.10319,-0.0899 -0.17462,-0.11906 -0.0688,-0.0265 -0.14816,-0.0423 -0.24076,-0.0423 -0.15609,0 -0.28573,0.0423 -0.39156,0.127 -0.10583,0.0873 -0.18785,0.209 -0.2487,0.37039 h -0.33071 v -0.4921 c 0.21695,-0.0873 0.41538,-0.15345 0.59528,-0.19313 0.17991,-0.0397 0.34394,-0.0608 0.48681,-0.0608 z"
       id="path859" />
    <path
       style="fill:#000000;fill-opacity:1;fill-rule:evenodd;stroke:none;stroke-width:0.264583"
       d="m 113.02478,172.85148 h 3.11399 l -0.23812,1.05828 h -0.33071 c -0.0106,-0.17726 -0.0238,-0.31484 -0.045,-0.41802 -0.0185,-0.10318 -0.045,-0.17726 -0.082,-0.22224 -0.0344,-0.045 -0.0794,-0.0741 -0.12964,-0.09 -0.0503,-0.0159 -0.12699,-0.0238 -0.22753,-0.0238 h -1.06357 l -0.41008,1.8758 h 0.64555 c 0.10054,0 0.1852,-0.0132 0.25134,-0.0397 0.0661,-0.0291 0.12964,-0.0794 0.18785,-0.15081 0.0556,-0.0714 0.12699,-0.19578 0.21165,-0.37039 h 0.31484 l -0.33336,1.45513 h -0.30425 c 0,-0.23282 -0.008,-0.37834 -0.0238,-0.43654 -0.0132,-0.0582 -0.0423,-0.0979 -0.0847,-0.11906 -0.0423,-0.0238 -0.127,-0.0344 -0.25399,-0.0344 h -0.6773 l -0.2725,1.22232 c -0.0476,0.21694 -0.0714,0.39685 -0.0714,0.53972 0,0.0714 0.0106,0.12699 0.0344,0.16668 0.0212,0.0397 0.0556,0.0688 0.10318,0.0873 0.045,0.0185 0.12434,0.0318 0.23811,0.0423 l -0.037,0.16932 H 112.12 l 0.0397,-0.16932 c 0.0873,-0.0132 0.15345,-0.037 0.19578,-0.0688 0.045,-0.0291 0.0794,-0.0741 0.11112,-0.12964 0.0291,-0.0529 0.0582,-0.1217 0.082,-0.20108 0.0265,-0.0794 0.0635,-0.23282 0.11377,-0.46035 l 0.58734,-2.65892 c 0.0503,-0.23018 0.0767,-0.41008 0.0767,-0.54501 0,-0.11112 -0.0265,-0.19049 -0.0794,-0.23547 -0.0529,-0.0423 -0.14022,-0.0688 -0.25928,-0.0741 z"
       id="path861" />
    <path
       style="fill:#000000;fill-opacity:1;fill-rule:evenodd;stroke:none;stroke-width:0.264583"
       d="m 115.18367,170.6873 0.86779,0.74873 v 0.19843 l -0.86779,0.74873 -0.18255,-0.20636 0.55295,-0.47887 h -2.10598 v -0.32542 h 2.10598 l -0.55295,-0.47887 z"
       id="path863" />
    <path
       style="fill:#000000;fill-opacity:1;fill-rule:evenodd;stroke:none;stroke-width:0.264583"
       d="m 120.53856,176.67716 c -0.09,0 -0.17197,0.0185 -0.24605,0.0529 -0.0741,0.037 -0.13758,0.09 -0.19049,0.15874 -0.0556,0.0688 -0.10054,0.15345 -0.13493,0.25399 -0.0344,0.10053 -0.0556,0.21165 -0.0661,0.33864 h 1.16939 c -0.0159,-0.27515 -0.0661,-0.47622 -0.1508,-0.60851 -0.082,-0.12963 -0.20901,-0.19578 -0.38098,-0.19578 z m 2.71977,-0.2487 c 0.0582,0 0.11641,0 0.17197,0.003 0.0582,0.003 0.11641,0.008 0.17726,0.0159 0.0609,0.008 0.127,0.0159 0.19843,0.0291 0.0714,0.0106 0.15345,0.0265 0.24076,0.045 v 0.56089 h -0.28838 c -0.0265,-0.0688 -0.0556,-0.12964 -0.0899,-0.18255 -0.0344,-0.0503 -0.0741,-0.0926 -0.11906,-0.12435 -0.045,-0.0344 -0.0979,-0.0582 -0.15874,-0.0741 -0.0582,-0.0159 -0.12699,-0.0238 -0.20372,-0.0238 -0.14551,0 -0.25928,0.0291 -0.34394,0.0899 -0.0847,0.0609 -0.12699,0.14816 -0.12699,0.25928 0,0.0476 0.005,0.09 0.0185,0.12699 0.0106,0.037 0.037,0.0741 0.0767,0.11112 0.0423,0.0397 0.10054,0.0794 0.17991,0.1217 0.0794,0.0423 0.18519,0.0899 0.32013,0.14551 0.13492,0.0529 0.25134,0.10583 0.34658,0.1561 0.0952,0.0503 0.17462,0.10583 0.23547,0.16139 0.0635,0.0582 0.10847,0.1217 0.13757,0.19313 0.0291,0.0688 0.0423,0.15081 0.0423,0.24341 0,0.13228 -0.0238,0.2434 -0.0688,0.33865 -0.0476,0.0952 -0.11376,0.17461 -0.20107,0.23811 -0.0873,0.0635 -0.19313,0.10847 -0.32013,0.14022 -0.12699,0.0291 -0.26721,0.045 -0.42595,0.045 -0.30161,0 -0.59528,-0.0423 -0.88367,-0.12435 v -0.57452 h 0.28574 c 0.0503,0.15874 0.12435,0.27515 0.21959,0.34658 0.0952,0.0714 0.22753,0.10583 0.3995,0.10583 0.0714,0 0.13758,-0.005 0.19843,-0.0212 0.0635,-0.0159 0.11641,-0.0397 0.16139,-0.0714 0.045,-0.0317 0.0794,-0.0714 0.10582,-0.1217 0.0265,-0.0476 0.0397,-0.10583 0.0397,-0.17197 0,-0.0423 -0.003,-0.0767 -0.0132,-0.10847 -0.008,-0.0317 -0.0212,-0.0608 -0.037,-0.0873 -0.0185,-0.0265 -0.0423,-0.0529 -0.0688,-0.0767 -0.0291,-0.0238 -0.0609,-0.0476 -0.10053,-0.0714 -0.09,-0.0529 -0.18256,-0.0979 -0.27251,-0.14023 -0.0926,-0.0397 -0.17991,-0.082 -0.26457,-0.1217 -0.0847,-0.0397 -0.16139,-0.0794 -0.23547,-0.11905 -0.0741,-0.0397 -0.13757,-0.0873 -0.19049,-0.13758 -0.0556,-0.0503 -0.0979,-0.10847 -0.12964,-0.17462 -0.0318,-0.0661 -0.0476,-0.14286 -0.0476,-0.23017 0,-0.1217 0.0265,-0.23018 0.0794,-0.32013 0.0529,-0.0899 0.12435,-0.16403 0.21695,-0.22489 0.0926,-0.0582 0.20107,-0.10318 0.32807,-0.13228 0.12434,-0.0291 0.26192,-0.0423 0.41008,-0.0423 z m -2.69067,0 c 0.17991,0 0.33336,0.0265 0.463,0.082 0.12964,0.0529 0.23546,0.12964 0.31483,0.22489 0.0397,0.0476 0.0767,0.10053 0.10848,0.16138 0.0317,0.0608 0.0582,0.12964 0.082,0.20901 0.0238,0.082 0.0397,0.17197 0.0529,0.27515 0.0132,0.10319 0.0212,0.2196 0.0238,0.34924 h -1.72764 v 0.0238 c 0,0.31748 0.0609,0.55559 0.17726,0.71433 0.11906,0.1561 0.3069,0.23547 0.56353,0.23547 0.0688,0 0.13493,-0.005 0.19843,-0.0212 0.0635,-0.0132 0.12699,-0.037 0.18785,-0.0661 0.0635,-0.0317 0.12434,-0.0688 0.18784,-0.11641 0.0635,-0.0503 0.12964,-0.10583 0.19843,-0.17197 l 0.17726,0.20901 c -0.0952,0.0926 -0.1852,0.17197 -0.26986,0.23547 -0.0847,0.0661 -0.16933,0.11905 -0.25399,0.15874 -0.082,0.0397 -0.16932,0.0688 -0.25663,0.0873 -0.0873,0.0185 -0.17991,0.0291 -0.2778,0.0291 -0.38098,0 -0.66936,-0.11112 -0.86514,-0.33071 -0.19314,-0.21695 -0.28838,-0.54237 -0.28838,-0.96833 0,-0.19578 0.0291,-0.37569 0.0847,-0.53972 0.0582,-0.16139 0.14022,-0.29896 0.24604,-0.41537 0.10583,-0.11642 0.23283,-0.20637 0.38098,-0.26987 0.14816,-0.0635 0.3122,-0.0952 0.49211,-0.0952 z m -3.12721,-0.91806 c 0.09,0 0.17726,0.003 0.25928,0.005 0.0847,0.005 0.16668,0.0132 0.24869,0.0238 0.082,0.0106 0.16668,0.0238 0.25134,0.0397 0.0873,0.0185 0.17726,0.037 0.26986,0.0609 v 0.73286 h -0.29102 c -0.0344,-0.10583 -0.0714,-0.19843 -0.11377,-0.2725 -0.0423,-0.0741 -0.0926,-0.13494 -0.15345,-0.18256 -0.0609,-0.0503 -0.13228,-0.0847 -0.2143,-0.10583 -0.082,-0.0212 -0.17991,-0.0317 -0.29103,-0.0317 -0.14815,0 -0.28309,0.0317 -0.40214,0.0979 -0.1217,0.0661 -0.22489,0.16404 -0.31219,0.29103 -0.0873,0.12699 -0.15345,0.28309 -0.20108,0.46829 -0.0476,0.1852 -0.0714,0.39685 -0.0714,0.63497 0,0.2434 0.0212,0.4577 0.0582,0.64555 0.0397,0.18784 0.0979,0.34658 0.17462,0.47358 0.0767,0.12699 0.17197,0.22488 0.28573,0.29102 0.11377,0.0661 0.24605,0.10054 0.39686,0.10054 0.20901,0 0.3651,-0.0397 0.47093,-0.11906 0.10583,-0.0794 0.15874,-0.20636 0.15874,-0.38362 v -0.14816 c 0,-0.10583 -0.005,-0.18785 -0.0106,-0.2487 -0.008,-0.0609 -0.0212,-0.11112 -0.045,-0.14816 -0.0212,-0.037 -0.0556,-0.0661 -0.10053,-0.0847 -0.045,-0.0212 -0.10318,-0.0423 -0.17991,-0.0661 v -0.16138 h 1.13765 v 0.16138 c -0.0635,0.0238 -0.11112,0.0476 -0.14816,0.0688 -0.037,0.0238 -0.0635,0.0529 -0.0794,0.0873 -0.0185,0.0344 -0.0291,0.082 -0.0344,0.14023 -0.005,0.0556 -0.008,0.12963 -0.008,0.22223 v 0.89425 l -0.22488,0.0635 -0.19843,-0.19578 c -0.12435,0.0688 -0.24869,0.11905 -0.37833,0.14816 -0.12964,0.0317 -0.2778,0.0476 -0.44184,0.0476 -0.46828,0 -0.82281,-0.14816 -1.05827,-0.44448 -0.23812,-0.29367 -0.35717,-0.73286 -0.35717,-1.31491 0,-0.26722 0.037,-0.51327 0.11112,-0.73286 0.0741,-0.21959 0.1799,-0.41008 0.31748,-0.56618 0.13757,-0.15609 0.3069,-0.27779 0.50533,-0.3651 0.19842,-0.0847 0.42066,-0.127 0.66936,-0.127 z"
       id="path865" />
  </g>
</svg>
