<?xml version="1.0" encoding="UTF-8" standalone="no"?>
<svg
   xmlns:dc="http://purl.org/dc/elements/1.1/"
   xmlns:cc="http://creativecommons.org/ns#"
   xmlns:rdf="http://www.w3.org/1999/02/22-rdf-syntax-ns#"
   xmlns:svg="http://www.w3.org/2000/svg"
   xmlns="http://www.w3.org/2000/svg"
   xmlns:sodipodi="http://sodipodi.sourceforge.net/DTD/sodipodi-0.dtd"
   xmlns:inkscape="http://www.inkscape.org/namespaces/inkscape"
   width="70.714577mm"
   height="68.101387mm"
   viewBox="0 0 70.714577 68.101387"
   version="1.1"
   id="svg896"
   sodipodi:docname="V04_FH.svg"
   inkscape:version="1.0.2-2 (e86c870879, 2021-01-15)">
  <sodipodi:namedview
     pagecolor="#ffffff"
     bordercolor="#666666"
     borderopacity="1"
     objecttolerance="10"
     gridtolerance="10"
     guidetolerance="10"
     inkscape:pageopacity="0"
     inkscape:pageshadow="2"
     inkscape:window-width="2400"
     inkscape:window-height="1271"
     id="namedview32"
     showgrid="false"
     lock-margins="true"
     fit-margin-top="1"
     fit-margin-left="1"
     fit-margin-right="1"
     fit-margin-bottom="1"
     inkscape:zoom="0.73940797"
     inkscape:cx="241.91281"
     inkscape:cy="95.669661"
     inkscape:window-x="-9"
     inkscape:window-y="-9"
     inkscape:window-maximized="1"
     inkscape:current-layer="svg896" />
  <defs
     id="defs890">
    <clipPath
       clipPathUnits="userSpaceOnUse"
       id="clipEmfPath1">
      <path
         d="M 5.4397175,10.239468 H 267.6661 V 273.74578 H 5.4397175 Z"
         id="path1459" />
    </clipPath>
    <pattern
       id="EMFhbasepattern"
       patternUnits="userSpaceOnUse"
       width="6"
       height="6"
       x="0"
       y="0" />
  </defs>
  <metadata
     id="metadata893">
    <rdf:RDF>
      <cc:Work
         rdf:about="">
        <dc:format>image/svg+xml</dc:format>
        <dc:type
           rdf:resource="http://purl.org/dc/dcmitype/StillImage" />
        <dc:title></dc:title>
      </cc:Work>
    </rdf:RDF>
  </metadata>
  <g
     id="layer1"
     transform="translate(-40.993902,-123.1874)">
    <path
       style="fill:none;stroke:#000000;stroke-width:6.07968px;stroke-linecap:butt;stroke-linejoin:miter;stroke-miterlimit:8;stroke-dasharray:none;stroke-opacity:1"
       clip-path="url(#clipEmfPath1)"
       d="M 5.9996884,133.75305 264.51626,78.795907"
       id="path1465"
       transform="matrix(0.26458333,0,0,0.26458333,40.554643,121.47821)" />
    <path
       style="fill:#d9d9d9;fill-opacity:1;fill-rule:evenodd;stroke:none;stroke-width:0.264583"
       d="m 52.256556,134.32306 45.503324,-9.67266 4.04527,19.01991 -45.505971,9.67266 z"
       id="path1467" />
    <path
       style="fill:none;stroke:#767171;stroke-width:2.99984px;stroke-linecap:butt;stroke-linejoin:miter;stroke-miterlimit:8;stroke-dasharray:none;stroke-opacity:1"
       clip-path="url(#clipEmfPath1)"
       d="M 44.227703,48.547478 216.20877,11.989377 231.49798,83.875644 59.506909,120.43374 Z"
       id="path1469"
       transform="matrix(0.26458333,0,0,0.26458333,40.554643,121.47821)" />
    <path
       style="fill:#000000;fill-opacity:1;fill-rule:evenodd;stroke:none;stroke-width:0.264583"
       d="m 75.66832,141.43734 c 0,-0.74609 0.656132,-1.3546 1.460423,-1.3546 0.806937,0 1.460424,0.60851 1.460424,1.3546 0,0.74873 -0.653487,1.35459 -1.460424,1.35459 -0.804291,0 -1.460423,-0.60586 -1.460423,-1.35459 z"
       id="path1471" />
    <path
       style="fill:none;stroke:#000000;stroke-width:0.338649px;stroke-linecap:butt;stroke-linejoin:miter;stroke-miterlimit:8;stroke-dasharray:none;stroke-opacity:1"
       d="m 75.66832,141.43734 c 0,-0.74609 0.656132,-1.3546 1.460423,-1.3546 0.806937,0 1.460424,0.60851 1.460424,1.3546 0,0.74873 -0.653487,1.35459 -1.460424,1.35459 -0.804291,0 -1.460423,-0.60586 -1.460423,-1.35459"
       id="path1473" />
    <path
       style="fill:#000000;fill-opacity:1;fill-rule:nonzero;stroke:#000000;stroke-width:0.00999948px;stroke-linecap:butt;stroke-linejoin:round;stroke-miterlimit:10;stroke-dasharray:none;stroke-opacity:1"
       clip-path="url(#clipEmfPath1)"
       d="M 140.39271,75.516078 V 257.04665 h -3.03984 V 75.516078 Z m 5.11973,173.171002 -6.63965,11.37941 -6.62966,-11.37941 c -0.41998,-0.71996 -0.17999,-1.64991 0.54997,-2.06989 0.71997,-0.42998 1.64992,-0.17999 2.07989,0.53997 v 0 l 5.31973,9.11953 h -2.62986 l 5.31972,-9.11953 c 0.41998,-0.71996 1.35993,-0.96995 2.07989,-0.53997 0.72996,0.41998 0.96995,1.34993 0.54997,2.06989 z"
       id="path1475"
       transform="matrix(0.26458333,0,0,0.26458333,40.554643,121.47821)" />
    <path
       style="fill:#ffffff;fill-opacity:1;fill-rule:evenodd;stroke:none;stroke-width:0.264583"
       d="m 64.4929,131.8705 v 9.56684 h 9.439843 v -9.56684 z"
       id="path1477" />
    <path
       style="fill:#c55a11;fill-opacity:1;fill-rule:evenodd;stroke:none;stroke-width:0.264583"
       d="m 66.432195,134.84426 h 3.113984 l -0.238112,1.05828 h -0.330713 c -0.01058,-0.17726 -0.02381,-0.31484 -0.04498,-0.41802 -0.01852,-0.10318 -0.04498,-0.17726 -0.08202,-0.22224 -0.0344,-0.045 -0.07937,-0.0741 -0.12964,-0.09 -0.05027,-0.0159 -0.126993,-0.0238 -0.227529,-0.0238 h -1.063572 l -0.410083,1.8758 h 0.645552 c 0.100536,0 0.185197,-0.0132 0.251341,-0.0397 0.06614,-0.0291 0.129637,-0.0794 0.187843,-0.1508 0.05556,-0.0714 0.126995,-0.19578 0.214302,-0.3704 h 0.312192 l -0.333359,1.45513 h -0.304255 c 0,-0.23282 -0.0079,-0.37833 -0.02381,-0.43654 -0.01323,-0.0582 -0.04233,-0.0979 -0.08466,-0.11905 -0.04233,-0.0238 -0.126993,-0.0344 -0.253987,-0.0344 h -0.677297 l -0.272507,1.22231 c -0.04762,0.21695 -0.07143,0.39685 -0.07143,0.53972 0,0.0714 0.01058,0.12699 0.03439,0.16668 0.02381,0.0397 0.05821,0.0688 0.103182,0.0873 0.04498,0.0185 0.124347,0.0318 0.238112,0.0423 l -0.03704,0.16932 H 65.52736 l 0.03969,-0.16932 c 0.08731,-0.0132 0.153451,-0.037 0.195782,-0.0688 0.04498,-0.0291 0.08202,-0.0741 0.111119,-0.12964 0.0291,-0.0529 0.0582,-0.1217 0.08202,-0.20107 0.02646,-0.0794 0.0635,-0.23282 0.113764,-0.46035 l 0.587345,-2.65893 c 0.05027,-0.23017 0.07672,-0.41008 0.07672,-0.54501 0,-0.11112 -0.02646,-0.19049 -0.07937,-0.23547 -0.05291,-0.0423 -0.140222,-0.0688 -0.259278,-0.0741 z"
       id="path1479" />
    <path
       style="fill:#c55a11;fill-opacity:1;fill-rule:evenodd;stroke:none;stroke-width:0.264583"
       d="m 68.591084,132.68009 0.867788,0.74873 v 0.19842 l -0.867788,0.75138 -0.182555,-0.20901 0.55295,-0.47887 h -2.105973 v -0.32542 h 2.105973 l -0.55295,-0.47887 z"
       id="path1481" />
    <path
       style="fill:#c55a11;fill-opacity:1;fill-rule:evenodd;stroke:none;stroke-width:0.264583"
       d="m 69.236633,137.55346 h 1.187918 v 0.16668 c -0.07673,0.0238 -0.140224,0.0423 -0.182555,0.0582 -0.04498,0.0132 -0.07672,0.0318 -0.09789,0.0582 -0.02116,0.0265 -0.03439,0.0661 -0.03968,0.11905 -0.0026,0.0556 -0.0053,0.13493 -0.0053,0.24076 v 0.85985 h 1.502757 v -0.85985 c 0,-0.10054 -0.0026,-0.17726 -0.0079,-0.23018 -0.0026,-0.0529 -0.01587,-0.0953 -0.03704,-0.1217 -0.01852,-0.0291 -0.05027,-0.0503 -0.09525,-0.0635 -0.04233,-0.0159 -0.105828,-0.037 -0.185198,-0.0609 v -0.16668 h 1.185273 v 0.16668 c -0.07673,0.0212 -0.134933,0.0397 -0.179909,0.0529 -0.04233,0.0159 -0.07408,0.037 -0.09524,0.0635 -0.02381,0.0291 -0.03704,0.0714 -0.04233,0.12435 -0.0026,0.0529 -0.0053,0.13228 -0.0053,0.23547 v 2.15624 c 0,0.0873 0,0.15874 0.0053,0.2143 0.0053,0.0529 0.01588,0.0952 0.03704,0.12964 0.01852,0.0317 0.05291,0.0582 0.09524,0.0767 0.04498,0.0212 0.105828,0.0397 0.185201,0.0609 v 0.16139 h -1.185273 v -0.16139 c 0.06879,-0.0185 0.124346,-0.0344 0.16668,-0.0503 0.03968,-0.0132 0.07408,-0.037 0.09524,-0.0661 0.02381,-0.0318 0.03969,-0.0741 0.04498,-0.12964 0.0079,-0.0556 0.01323,-0.13493 0.01852,-0.23547 v -1.0133 H 70.09916 v 1.0133 c 0,0.0979 0.0026,0.17462 0.0053,0.23018 0.0053,0.0556 0.01852,0.0952 0.03968,0.12699 0.02117,0.0291 0.05291,0.0503 0.09789,0.0661 0.04233,0.0159 0.105828,0.0344 0.182555,0.0582 v 0.16139 h -1.187952 v -0.16139 c 0.07937,-0.0265 0.142867,-0.0476 0.185197,-0.0635 0.04498,-0.0159 0.07673,-0.037 0.09524,-0.0661 0.02117,-0.0291 0.03175,-0.0714 0.0344,-0.12435 0.0026,-0.0529 0.0053,-0.12963 0.0053,-0.22752 v -2.15625 c 0,-0.10318 -0.0026,-0.1799 -0.0079,-0.23282 -0.0026,-0.0529 -0.01587,-0.0952 -0.03704,-0.1217 -0.01852,-0.0291 -0.05027,-0.0503 -0.0926,-0.0635 -0.04498,-0.0132 -0.105828,-0.0344 -0.182551,-0.0582 z"
       id="path1483" />
    <path
       style="fill:#2e75b6;fill-opacity:1;fill-rule:nonzero;stroke:#2e75b6;stroke-width:0.0026457px;stroke-linecap:butt;stroke-linejoin:round;stroke-miterlimit:10;stroke-dasharray:none;stroke-opacity:1"
       d="m 77.776938,141.16483 9.73087,45.77848 -0.78577,0.16932 -9.73087,-45.78112 z m 10.596012,43.3365 -1.092671,3.30712 -2.341441,-2.57691 c -0.150804,-0.16668 -0.137578,-0.42066 0.02646,-0.56882 0.164034,-0.15081 0.418021,-0.13758 0.568825,0.0265 l 1.878444,2.06893 -0.679945,0.14287 0.875726,-2.65099 c 0.06879,-0.21165 0.296318,-0.32806 0.507974,-0.25663 0.211656,0.0688 0.325421,0.29632 0.256632,0.50798 z"
       id="path1485" />
    <path
       style="fill:#c55a11;fill-opacity:1;fill-rule:nonzero;stroke:#c55a11;stroke-width:0.0026457px;stroke-linecap:butt;stroke-linejoin:round;stroke-miterlimit:10;stroke-dasharray:none;stroke-opacity:1"
       d="m 76.985876,141.36326 -8.982138,1.90755 0.166679,0.78841 8.982139,-1.91019 z m -7.101049,0.12699 -2.576906,2.34144 3.307119,1.09003 c 0.211656,0.0688 0.439185,-0.045 0.507974,-0.25663 0.06879,-0.20901 -0.04498,-0.43654 -0.256633,-0.50798 l -2.653633,-0.87308 0.145513,0.67995 2.068936,-1.87845 v 0 c 0.164031,-0.1508 0.174614,-0.40479 0.02645,-0.56882 -0.150804,-0.16403 -0.404791,-0.17726 -0.568825,-0.0265 z"
       id="path1487" />
    <path
       style="fill:#2e75b6;fill-opacity:1;fill-rule:nonzero;stroke:#2e75b6;stroke-width:0.0026457px;stroke-linecap:butt;stroke-linejoin:round;stroke-miterlimit:10;stroke-dasharray:none;stroke-opacity:1"
       d="m 68.040777,143.40838 0.166679,0.78577 -0.78577,0.16668 -0.166679,-0.78577 z m 0.336005,1.57419 0.166679,0.78577 -0.788418,0.16668 -0.16668,-0.78577 z m 0.333356,1.57154 0.16668,0.78842 -0.785773,0.16668 -0.166677,-0.78842 z m 0.333359,1.57419 0.169323,0.78577 -0.788416,0.16933 -0.16668,-0.78842 z m 0.336003,1.57419 0.166679,0.78578 -0.785773,0.16667 -0.169322,-0.78577 z m 0.333359,1.57155 0.166677,0.78841 -0.785771,0.16668 -0.166679,-0.78577 z m 0.336002,1.57418 0.16668,0.78842 -0.788419,0.16668 -0.16668,-0.78842 z m 0.333357,1.57419 0.166679,0.78578 -0.78577,0.16668 -0.16668,-0.78578 z m 0.333359,1.57419 0.169325,0.78577 -0.788419,0.16668 -0.166679,-0.78577 z m 0.336002,1.57155 0.16668,0.78841 -0.785773,0.16668 -0.169323,-0.78842 z m 0.333359,1.57419 0.16668,0.78577 -0.785773,0.16932 -0.16668,-0.78842 z m 0.336002,1.57419 0.16668,0.78577 -0.785773,0.16668 -0.169323,-0.78578 z m 0.33336,1.57154 0.166676,0.78841 -0.78577,0.16668 -0.166679,-0.78577 z m 0.333356,1.57419 0.169325,0.78577 -0.788418,0.16932 -0.166677,-0.78841 z m 0.336005,1.57419 0.166677,0.78577 -0.78577,0.16668 -0.16668,-0.78577 z m 0.333356,1.57418 0.169326,0.78578 -0.788419,0.16667 -0.166679,-0.78577 z m 0.336003,1.57155 0.166679,0.78842 -0.78577,0.16668 -0.169325,-0.78842 z m 0.333359,1.57419 0.166679,0.78577 -0.785772,0.16932 -0.16668,-0.78841 z m 0.336002,1.57419 0.16668,0.78577 -0.788419,0.16668 -0.166677,-0.78578 z m 0.333359,1.57154 0.166677,0.78842 -0.78577,0.16668 -0.166679,-0.78578 z m 0.333357,1.57419 0.169325,0.78577 -0.788418,0.16933 -0.166677,-0.78842 z m 0.336005,1.57419 0.166677,0.78577 -0.78577,0.16668 -0.169326,-0.78577 z m 0.333356,1.57419 0.16668,0.78577 -0.785773,0.16668 -0.16668,-0.78577 z m 0.336003,1.57154 0.166679,0.78842 -0.788416,0.16668 -0.166679,-0.78842 z m 0.333359,1.57419 0.166679,0.78577 -0.785773,0.16932 -0.166679,-0.78841 z m 0.333356,1.57419 0.169326,0.78577 -0.788419,0.16668 -0.166677,-0.78577 z m 0.336005,1.57154 0.166677,0.78842 -0.78577,0.16668 -0.169326,-0.78577 z m 0.333357,1.57419 0.166679,0.78577 -0.785773,0.16933 -0.166677,-0.78842 z m 0.336005,1.57419 0.166676,0.78577 -0.788416,0.16668 -0.166679,-0.78577 z m 0.333356,1.57419 0.16668,0.78577 -0.785773,0.16668 -0.16668,-0.78577 z"
       id="path1489" />
    <path
       style="fill:#c55a11;fill-opacity:1;fill-rule:nonzero;stroke:#c55a11;stroke-width:0.0026457px;stroke-linecap:butt;stroke-linejoin:round;stroke-miterlimit:10;stroke-dasharray:none;stroke-opacity:1"
       d="m 87.272342,186.99622 -0.785773,0.16668 0.16668,0.78577 0.785772,-0.16668 z m -1.574189,0.33336 -0.785773,0.16668 0.16668,0.78842 0.785773,-0.16668 z m -1.574189,0.336 -0.785773,0.16668 0.16668,0.78577 0.788416,-0.16668 z m -1.571543,0.33336 -0.788418,0.16668 0.169325,0.78842 0.78577,-0.16933 z m -1.574191,0.33336 -0.78577,0.16932 0.166679,0.78578 0.78577,-0.16668 z m -1.574189,0.336 -0.78577,0.16668 0.166679,0.78577 0.78577,-0.16668 z m -1.571543,0.33336 -0.32013,0.0688 0.16668,0.78577 0.320129,-0.0661 z"
       id="path1491" />
    <path
       style="fill:#000000;fill-opacity:1;fill-rule:evenodd;stroke:none;stroke-width:0.264583"
       d="m 66.987791,184.0595 h 3.111338 l -0.238112,1.06092 h -0.330713 c -0.0079,-0.17726 -0.02381,-0.31748 -0.04233,-0.42066 -0.02117,-0.10054 -0.04762,-0.17462 -0.08466,-0.2196 -0.0344,-0.045 -0.07673,-0.0767 -0.126995,-0.0926 -0.05291,-0.0159 -0.126992,-0.0238 -0.230174,-0.0238 h -1.060923 l -0.412729,1.87845 h 0.645549 c 0.103182,0 0.185197,-0.0132 0.253986,-0.0423 0.06614,-0.0265 0.126992,-0.0767 0.185198,-0.14816 0.05821,-0.0741 0.129641,-0.19843 0.214302,-0.37304 h 0.314838 l -0.336002,1.45777 h -0.304255 c 0,-0.23282 -0.0079,-0.37833 -0.02117,-0.43653 -0.01587,-0.0582 -0.04498,-0.10054 -0.08731,-0.12171 -0.04233,-0.0212 -0.126994,-0.0318 -0.253987,-0.0318 h -0.674649 l -0.275153,1.22232 c -0.04762,0.21429 -0.07143,0.3942 -0.07143,0.53707 0,0.0714 0.01058,0.127 0.03439,0.16668 0.02381,0.0423 0.05821,0.0714 0.103182,0.0899 0.04762,0.0185 0.126992,0.0318 0.238112,0.0397 l -0.03704,0.16933 h -1.418091 l 0.03704,-0.16933 c 0.08731,-0.0132 0.15345,-0.0344 0.195781,-0.0661 0.04498,-0.0318 0.08202,-0.0741 0.111119,-0.12964 0.0291,-0.0556 0.05821,-0.1217 0.08202,-0.20107 0.02646,-0.0794 0.0635,-0.23282 0.116411,-0.463 l 0.584699,-2.65628 c 0.05027,-0.23017 0.07672,-0.41273 0.07672,-0.54501 0,-0.11377 -0.02646,-0.19049 -0.07937,-0.23547 -0.05291,-0.045 -0.140221,-0.0688 -0.259278,-0.0767 z"
       id="path1493" />
    <path
       style="fill:#000000;fill-opacity:1;fill-rule:evenodd;stroke:none;stroke-width:0.264583"
       d="m 69.14668,181.89532 0.865142,0.74873 v 0.20107 l -0.865142,0.74874 -0.185201,-0.20637 0.55295,-0.48151 h -2.105972 v -0.32278 h 2.105972 l -0.55295,-0.48152 z"
       id="path1495" />
    <path
       style="fill:#000000;fill-opacity:1;fill-rule:evenodd;stroke:none;stroke-width:0.264583"
       d="m 71.403456,186.71842 c 0.08996,0 0.174617,0.003 0.259279,0.008 0.08202,0.005 0.164033,0.0132 0.246049,0.0238 0.08466,0.008 0.16668,0.0238 0.253989,0.0397 0.08466,0.0159 0.174615,0.037 0.26986,0.0609 v 0.73021 h -0.293672 c -0.03439,-0.10582 -0.07144,-0.19578 -0.113766,-0.26986 -0.04233,-0.0767 -0.0926,-0.13757 -0.15345,-0.1852 -0.06085,-0.0476 -0.132284,-0.082 -0.214302,-0.10318 -0.08201,-0.0238 -0.179906,-0.0344 -0.28838,-0.0344 -0.148159,0 -0.283088,0.0344 -0.404791,0.10054 -0.121703,0.0661 -0.224885,0.16139 -0.312193,0.28838 -0.08466,0.12699 -0.15345,0.28574 -0.198427,0.47093 -0.04762,0.1852 -0.07143,0.39686 -0.07143,0.63233 0,0.24604 0.01852,0.46035 0.05821,0.64819 0.03704,0.18784 0.09524,0.34394 0.174617,0.47358 0.07672,0.12699 0.171972,0.22488 0.285734,0.29103 0.113766,0.0661 0.24605,0.0979 0.396854,0.0979 0.20901,0 0.365107,-0.0397 0.470935,-0.11641 0.103182,-0.0794 0.156096,-0.20901 0.156096,-0.38363 v -0.1508 c 0,-0.10319 -0.0026,-0.1852 -0.01058,-0.24605 -0.0053,-0.0635 -0.02116,-0.11112 -0.04233,-0.14816 -0.02381,-0.037 -0.05821,-0.0661 -0.100536,-0.0873 -0.04498,-0.0185 -0.105828,-0.0397 -0.182552,-0.0635 v -0.16135 h 1.137647 v 0.16139 c -0.06085,0.0238 -0.111117,0.045 -0.148159,0.0688 -0.03439,0.0212 -0.06085,0.0503 -0.07937,0.0873 -0.01852,0.0344 -0.0291,0.082 -0.03439,0.13757 -0.0053,0.0582 -0.0079,0.13229 -0.0079,0.22489 v 0.8916 l -0.224885,0.0635 -0.198427,-0.19314 c -0.121703,0.0688 -0.248695,0.11906 -0.378336,0.14816 -0.129638,0.0291 -0.275151,0.045 -0.44183,0.045 -0.468289,0 -0.820166,-0.14816 -1.058278,-0.44184 -0.238112,-0.29631 -0.354523,-0.73285 -0.354523,-1.31491 0,-0.26986 0.03704,-0.51326 0.11112,-0.73286 0.07408,-0.22223 0.179906,-0.41008 0.317481,-0.56617 0.137578,-0.15874 0.304258,-0.28045 0.502685,-0.36511 0.198427,-0.0873 0.423309,-0.12964 0.672004,-0.12964 z"
       id="path1497" />
    <path
       style="fill:#2e75b6;fill-opacity:1;fill-rule:evenodd;stroke:none;stroke-width:0.264583"
       d="m 85.412416,164.96287 h 3.113985 l -0.238112,1.05828 h -0.330713 c -0.01058,-0.17727 -0.02381,-0.31749 -0.04233,-0.41802 -0.02116,-0.10319 -0.04762,-0.17727 -0.08466,-0.22224 -0.03439,-0.045 -0.07673,-0.0741 -0.12964,-0.0899 -0.05027,-0.0159 -0.124346,-0.0238 -0.227528,-0.0238 h -1.06357 l -0.410083,1.8758 h 0.645549 c 0.100536,0 0.1852,-0.0132 0.251341,-0.0397 0.06879,-0.0291 0.12964,-0.0794 0.187846,-0.15081 0.0582,-0.0741 0.129638,-0.19578 0.214299,-0.37039 h 0.312193 l -0.333357,1.45513 h -0.304255 c 0,-0.23282 -0.0079,-0.37834 -0.02117,-0.43654 -0.01587,-0.0582 -0.04498,-0.0979 -0.08731,-0.1217 -0.04233,-0.0212 -0.126995,-0.0317 -0.253987,-0.0317 h -0.677299 l -0.272505,1.22231 c -0.04762,0.21694 -0.07144,0.39685 -0.07144,0.53707 0,0.0714 0.01058,0.12964 0.03439,0.16933 0.02381,0.0397 0.05821,0.0688 0.103182,0.0873 0.04762,0.0185 0.126995,0.0317 0.238115,0.0423 l -0.03704,0.16933 h -1.418092 l 0.03704,-0.16933 c 0.08731,-0.0159 0.15345,-0.037 0.195783,-0.0688 0.04498,-0.0291 0.08202,-0.0741 0.111117,-0.12964 0.02911,-0.0556 0.05821,-0.1217 0.08202,-0.20107 0.02646,-0.0794 0.0635,-0.23282 0.113765,-0.46035 l 0.587343,-2.65893 c 0.05027,-0.23017 0.07672,-0.41008 0.07672,-0.54501 0,-0.11377 -0.02645,-0.19049 -0.07937,-0.23547 -0.05291,-0.0423 -0.140222,-0.0688 -0.259279,-0.0741 z"
       id="path1499" />
    <path
       style="fill:#2e75b6;fill-opacity:1;fill-rule:evenodd;stroke:none;stroke-width:0.264583"
       d="m 87.571305,162.79604 0.867788,0.75138 v 0.19843 l -0.867788,0.74873 -0.182552,-0.20636 0.55295,-0.47888 h -2.105975 v -0.32542 h 2.105975 l -0.55295,-0.47887 z"
       id="path1501" />
    <path
       style="fill:#2e75b6;fill-opacity:1;fill-rule:evenodd;stroke:none;stroke-width:0.264583"
       d="m 88.211562,167.67206 h 0.896893 l 1.330785,2.04777 c 0.0291,0.0397 0.05291,0.0741 0.07408,0.10583 0.01852,0.0291 0.03968,0.0608 0.06085,0.0952 0.02117,0.0344 0.04233,0.0767 0.06614,0.12434 0.02381,0.045 0.05556,0.10583 0.08995,0.17726 h 0.03704 c -0.0026,-0.0317 -0.0053,-0.0794 -0.0079,-0.14286 -0.0026,-0.0635 -0.0053,-0.13493 -0.0079,-0.2196 -0.0026,-0.082 -0.0053,-0.17196 -0.0079,-0.26721 -0.0026,-0.0952 -0.0053,-0.18785 -0.0079,-0.28309 -0.0026,-0.0926 -0.0026,-0.1852 -0.0053,-0.26986 0,-0.0873 0,-0.16403 0,-0.23018 v -0.49474 c -0.0026,-0.0873 -0.0053,-0.15874 -0.0079,-0.20901 -0.0026,-0.0529 -0.01323,-0.0952 -0.03175,-0.12964 -0.01852,-0.0318 -0.04762,-0.0582 -0.08995,-0.0794 -0.03969,-0.0185 -0.09789,-0.0397 -0.174617,-0.0582 v -0.16668 h 1.010655 v 0.16668 c -0.06614,0.0132 -0.119057,0.0265 -0.161387,0.037 -0.04233,0.0106 -0.07408,0.0318 -0.09789,0.0609 -0.02381,0.0291 -0.03968,0.0741 -0.05027,0.12964 -0.0079,0.0582 -0.01323,0.14022 -0.01323,0.24869 v 2.81238 h -0.383625 l -1.500111,-2.31234 c -0.04233,-0.0635 -0.07937,-0.11906 -0.111117,-0.16932 -0.0291,-0.0476 -0.05821,-0.0926 -0.08202,-0.13229 -0.02116,-0.0397 -0.04233,-0.0741 -0.06085,-0.10847 -0.01852,-0.0317 -0.03704,-0.0635 -0.05291,-0.0952 h -0.04498 c 0.0053,0.0741 0.01058,0.17197 0.01587,0.28838 0.0053,0.11905 0.01058,0.24869 0.01323,0.39421 0.0026,0.14286 0.0053,0.29631 0.0079,0.4577 0,0.16139 0.0026,0.32542 0.0026,0.4921 v 0.52914 c 0,0.0979 0,0.17462 0.0053,0.22753 0.0053,0.0556 0.01588,0.0952 0.03704,0.12435 0.02116,0.0317 0.05291,0.0529 0.09789,0.0688 0.04233,0.0159 0.103182,0.037 0.182552,0.0608 v 0.16139 h -1.029177 v -0.16139 c 0.07937,-0.0265 0.14287,-0.0476 0.187847,-0.0635 0.04498,-0.0159 0.07672,-0.037 0.09789,-0.0661 0.01852,-0.0317 0.03175,-0.0714 0.03439,-0.12435 0.0026,-0.0529 0.0053,-0.12964 0.0053,-0.22753 v -2.15624 c 0,-0.10318 -0.0026,-0.17991 -0.0079,-0.23547 -0.0026,-0.0529 -0.01587,-0.0926 -0.03704,-0.11905 -0.02117,-0.0291 -0.05291,-0.0503 -0.09789,-0.0635 -0.04233,-0.0132 -0.103182,-0.0344 -0.182555,-0.0582 z"
       id="path1503" />
    <path
       style="fill:#000000;fill-opacity:1;fill-rule:nonzero;stroke:#000000;stroke-width:0.00999948px;stroke-linecap:butt;stroke-linejoin:round;stroke-miterlimit:10;stroke-dasharray:none;stroke-opacity:1"
       clip-path="url(#clipEmfPath1)"
       d="M 6.0796842,133.67306 H 22.71882 v 2.07989 H 6.0796842 Z m 22.8788118,0 h 2.079892 v 2.07989 h -2.079892 z m 8.319568,0 H 53.9172 v 2.07989 H 37.278064 Z m 22.878811,0 h 2.079892 v 2.07989 h -2.079892 z m 8.319568,0 h 16.639136 v 2.07989 H 68.476443 Z m 22.878812,0 h 2.079892 v 2.07989 h -2.079892 z m 8.319568,0 h 1.339927 v 2.07989 h -1.339927 z"
       id="path1505"
       transform="matrix(0.26458333,0,0,0.26458333,40.554643,121.47821)" />
    <path
       style="fill:none;stroke:#000000;stroke-width:0.550305px;stroke-linecap:butt;stroke-linejoin:miter;stroke-miterlimit:8;stroke-dasharray:none;stroke-opacity:1"
       d="m 63.368479,152.41169 c 0.619093,1.59006 0.933931,3.28066 0.933931,4.98449"
       id="path1507" />
    <path
       style="fill:#000000;fill-opacity:1;fill-rule:evenodd;stroke:none;stroke-width:0.264583"
       d="m 61.479452,153.98323 c -0.193136,0 -0.349232,0.10583 -0.462997,0.31748 -0.11641,0.21166 -0.174616,0.49475 -0.174616,0.84662 0,0.67466 0.169325,1.01331 0.502683,1.01331 0.359814,0 0.616447,-0.34924 0.769897,-1.0477 -0.04762,-0.41008 -0.121702,-0.70375 -0.216947,-0.87308 -0.09789,-0.16932 -0.235467,-0.25663 -0.41802,-0.25663 z m -0.02117,-0.21695 c 0.230176,0 0.412729,0.0556 0.542368,0.16668 0.132285,0.10847 0.24605,0.29367 0.341295,0.5503 h 0.03968 l 0.193136,-0.66936 h 0.449768 v 0.13494 c -0.132284,0.20371 -0.3069,0.5794 -0.526493,1.12971 0.03704,0.37039 0.08202,0.64819 0.13493,0.83604 0.05027,0.18519 0.132285,0.28044 0.24605,0.28044 0.07672,0 0.164033,-0.0423 0.267215,-0.12699 l 0.108474,0.16138 c -0.198427,0.17197 -0.394209,0.25664 -0.58999,0.25664 -0.280444,0 -0.447123,-0.25664 -0.505328,-0.7699 h -0.0291 c -0.251341,0.51326 -0.560887,0.7699 -0.925993,0.7699 -0.272507,0 -0.484163,-0.11377 -0.637613,-0.33865 -0.150805,-0.22489 -0.22753,-0.54766 -0.22753,-0.96568 0,-0.4286 0.108474,-0.77254 0.328066,-1.02918 0.216947,-0.25663 0.481517,-0.38627 0.791063,-0.38627 z"
       id="path1509" />
  </g>
</svg>
