<?xml version="1.0" encoding="UTF-8" standalone="no"?>
<svg
   xmlns:dc="http://purl.org/dc/elements/1.1/"
   xmlns:cc="http://creativecommons.org/ns#"
   xmlns:rdf="http://www.w3.org/1999/02/22-rdf-syntax-ns#"
   xmlns:svg="http://www.w3.org/2000/svg"
   xmlns="http://www.w3.org/2000/svg"
   xmlns:sodipodi="http://sodipodi.sourceforge.net/DTD/sodipodi-0.dtd"
   xmlns:inkscape="http://www.inkscape.org/namespaces/inkscape"
   width="78.920975mm"
   height="77.311058mm"
   viewBox="0 0 78.920975 77.311058"
   version="1.1"
   id="svg1549"
   sodipodi:docname="V06_Koordinaten.svg"
   inkscape:version="1.0.2-2 (e86c870879, 2021-01-15)">
  <sodipodi:namedview
     pagecolor="#ffffff"
     bordercolor="#666666"
     borderopacity="1"
     objecttolerance="10"
     gridtolerance="10"
     guidetolerance="10"
     inkscape:pageopacity="0"
     inkscape:pageshadow="2"
     inkscape:window-width="2400"
     inkscape:window-height="1271"
     id="namedview21"
     showgrid="false"
     lock-margins="true"
     fit-margin-top="1"
     fit-margin-left="1"
     fit-margin-right="1"
     fit-margin-bottom="1"
     inkscape:zoom="0.73940797"
     inkscape:cx="257.42095"
     inkscape:cy="98.788045"
     inkscape:window-x="-9"
     inkscape:window-y="-9"
     inkscape:window-maximized="1"
     inkscape:current-layer="svg1549" />
  <defs
     id="defs1543">
    <clipPath
       clipPathUnits="userSpaceOnUse"
       id="clipEmfPath1">
      <path
         d="M 13.759285,-4.7997507 H 311.66381 V 292.30482 H 13.759285 Z"
         id="path2112" />
    </clipPath>
    <pattern
       id="EMFhbasepattern"
       patternUnits="userSpaceOnUse"
       width="6"
       height="6"
       x="0"
       y="0" />
  </defs>
  <metadata
     id="metadata1546">
    <rdf:RDF>
      <cc:Work
         rdf:about="">
        <dc:format>image/svg+xml</dc:format>
        <dc:type
           rdf:resource="http://purl.org/dc/dcmitype/StillImage" />
        <dc:title></dc:title>
      </cc:Work>
    </rdf:RDF>
  </metadata>
  <g
     id="layer1"
     transform="translate(-36.890707,-122.36233)">
    <path
       style="fill:#000000;fill-opacity:1;fill-rule:nonzero;stroke:#000000;stroke-width:0.00999948px;stroke-linecap:butt;stroke-linejoin:round;stroke-miterlimit:4;stroke-dasharray:none;stroke-opacity:1"
       clip-path="url(#clipEmfPath1)"
       d="m 13.67929,154.79196 h 288.45502 v 1.27993 H 13.67929 Z m 280.77542,-4.56976 8.94953,5.20973 -8.94953,5.21973 c -0.30999,0.17999 -0.69997,0.08 -0.87996,-0.22999 -0.16999,-0.29999 -0.07,-0.68997 0.22999,-0.86996 l 7.99958,-4.66975 v 1.10994 l -7.99958,-4.66976 c -0.29998,-0.17999 -0.39998,-0.56997 -0.22999,-0.86995 0.17999,-0.30999 0.56997,-0.40998 0.87996,-0.22999 z"
       id="path2118"
       transform="matrix(0.26458333,0,0,0.26458333,34.25023,121.37277)" />
    <path
       style="fill:#000000;fill-opacity:1;fill-rule:nonzero;stroke:#000000;stroke-width:0.00999948px;stroke-linecap:butt;stroke-linejoin:round;stroke-miterlimit:4;stroke-dasharray:none;stroke-opacity:1"
       clip-path="url(#clipEmfPath1)"
       d="M 152.71207,292.15483 V 14.939224 h -1.27994 V 292.15483 Z m 4.57976,-269.526005 -5.21973,-8.949535 -5.20973,8.949535 c -0.17999,0.299984 -0.08,0.699963 0.22999,0.869954 0.29998,0.179991 0.68996,0.08 0.86995,-0.229988 l 4.66976,-7.999584 h -1.10994 l 4.66976,7.999584 c 0.17999,0.309984 0.56997,0.409979 0.86995,0.229988 0.30999,-0.169991 0.40998,-0.56997 0.22999,-0.869954 z"
       id="path2120"
       transform="matrix(0.26458333,0,0,0.26458333,34.25023,121.37277)" />
    <path
       style="fill:none;stroke:#41719c;stroke-width:0.804292px;stroke-linecap:butt;stroke-linejoin:miter;stroke-miterlimit:8;stroke-dasharray:none;stroke-opacity:1"
       d="m 42.039159,162.53979 c 0,-17.94311 14.546036,-32.48914 32.489145,-32.48914 17.945756,0 32.489146,14.54603 32.489146,32.48914 0,17.94576 -14.54339,32.48915 -32.489146,32.48915 -17.943109,0 -32.489145,-14.54339 -32.489145,-32.48915"
       id="path2122" />
    <path
       style="fill:#000000;fill-opacity:1;fill-rule:evenodd;stroke:none;stroke-width:0.264583"
       d="m 112.51521,165.794 c 0.0714,0 0.13493,0.0106 0.18784,0.0265 0.0556,0.0159 0.10318,0.0397 0.14551,0.0741 0.0397,0.0317 0.0767,0.0767 0.10848,0.12964 0.0317,0.0529 0.0635,0.12435 0.0952,0.2143 0.0291,0.0899 0.0582,0.20372 0.0847,0.33865 0.0265,0.13493 0.0476,0.27515 0.0688,0.42066 h 0.0344 c 0.22224,-0.31219 0.38892,-0.53972 0.50268,-0.68258 0.11377,-0.14552 0.21166,-0.25135 0.28838,-0.32278 0.0794,-0.0688 0.15345,-0.11906 0.22753,-0.14816 0.0714,-0.0265 0.16668,-0.0423 0.28574,-0.0423 0.10847,0 0.19842,0.0132 0.26721,0.0423 l -0.13757,0.62439 h -0.24341 c -0.0132,-0.0979 -0.0529,-0.14552 -0.11906,-0.14552 -0.0212,0 -0.0423,0.003 -0.0661,0.0106 -0.0238,0.008 -0.0503,0.0212 -0.0847,0.045 -0.0344,0.0238 -0.082,0.0688 -0.14551,0.13493 -0.0661,0.0661 -0.13758,0.14816 -0.21959,0.24341 -0.0794,0.0979 -0.16139,0.19842 -0.2487,0.30425 l -0.23282,0.29367 c 0.0397,0.22224 0.0794,0.41273 0.11641,0.57412 0.037,0.16139 0.0688,0.29367 0.0979,0.40214 0.0291,0.10583 0.0556,0.19049 0.0767,0.25399 0.0212,0.0609 0.045,0.10848 0.0714,0.14022 0.0238,0.0291 0.0503,0.0529 0.0767,0.0635 0.0265,0.0132 0.0582,0.0185 0.0926,0.0185 0.0609,0 0.1217,-0.0238 0.17991,-0.0714 0.0582,-0.0476 0.14287,-0.15874 0.25399,-0.32806 l 0.22488,0.14816 c -0.16139,0.24075 -0.3069,0.40743 -0.43654,0.50532 -0.12964,0.0979 -0.28573,0.14816 -0.46564,0.14816 -0.0979,0 -0.18255,-0.0185 -0.25134,-0.0529 -0.0688,-0.037 -0.12964,-0.0926 -0.17991,-0.17197 -0.0503,-0.0794 -0.0953,-0.20107 -0.13493,-0.3651 -0.0714,-0.29632 -0.11376,-0.52121 -0.12964,-0.6773 h -0.0344 c -0.2434,0.34394 -0.42596,0.58999 -0.54501,0.73815 -0.11906,0.1508 -0.21695,0.25927 -0.29368,0.33071 -0.0767,0.0714 -0.1508,0.1217 -0.22224,0.1508 -0.0741,0.0291 -0.16932,0.045 -0.28838,0.045 -0.10847,0 -0.19842,-0.0159 -0.26721,-0.0423 l 0.13758,-0.62438 h 0.2434 c 0.0132,0.0952 0.0529,0.14287 0.11906,0.14287 0.0318,0 0.0661,-0.008 0.10318,-0.0238 0.0344,-0.0185 0.0873,-0.0582 0.15345,-0.12435 0.0661,-0.0661 0.15874,-0.16933 0.27515,-0.30955 0.11906,-0.14022 0.28838,-0.35188 0.51062,-0.63232 -0.0344,-0.17991 -0.0688,-0.35717 -0.10583,-0.52385 -0.037,-0.16932 -0.0741,-0.32542 -0.11376,-0.47093 -0.0397,-0.14287 -0.0714,-0.23811 -0.0979,-0.28309 -0.0238,-0.045 -0.0529,-0.0767 -0.0794,-0.0926 -0.0291,-0.0185 -0.0661,-0.0265 -0.10848,-0.0265 -0.0503,0 -0.0926,0.0106 -0.13228,0.0318 -0.0397,0.0212 -0.082,0.0608 -0.127,0.11377 -0.0476,0.0556 -0.10847,0.14022 -0.18255,0.25398 l -0.22488,-0.14816 c 0.14551,-0.21959 0.28309,-0.38098 0.41802,-0.48945 0.13228,-0.10847 0.29102,-0.16403 0.47093,-0.16403 z"
       id="path2124" />
    <path
       style="fill:#000000;fill-opacity:1;fill-rule:evenodd;stroke:none;stroke-width:0.264583"
       d="m 70.107346,123.36233 c 0.09525,0 0.177263,0.0132 0.243404,0.0397 0.04498,0.0185 0.0926,0.0476 0.137578,0.09 0.04498,0.0423 0.08731,0.10318 0.1217,0.17726 0.03704,0.0767 0.06879,0.16139 0.09525,0.25663 0.02646,0.0952 0.05556,0.23018 0.08731,0.40744 0.05556,0.29632 0.108474,0.60851 0.158742,0.93658 0.05291,0.32806 0.09789,0.63232 0.13493,0.91276 0.222239,-0.32277 0.412728,-0.63761 0.566179,-0.94451 0.156096,-0.30955 0.267216,-0.57676 0.336002,-0.80429 0.06879,-0.22753 0.100536,-0.41273 0.100536,-0.5556 0,-0.10847 -0.02116,-0.18255 -0.06879,-0.22224 -0.04498,-0.0397 -0.124349,-0.0609 -0.232823,-0.0688 l 0.03439,-0.16932 h 0.907475 l 0.0926,0.17197 c -0.174617,0.47887 -0.412729,0.99214 -0.711692,1.53715 -0.293671,0.53443 -0.632322,1.06621 -1.010655,1.59535 -0.362461,0.50269 -0.666716,0.86779 -0.907476,1.09268 -0.169323,0.15609 -0.330711,0.26457 -0.486807,0.33335 -0.124349,0.0503 -0.256633,0.0741 -0.396854,0.0741 -0.04762,0 -0.105828,-0.003 -0.166679,-0.0106 -0.0635,-0.008 -0.113766,-0.0212 -0.148159,-0.0344 l 0.148159,-0.66937 h 0.272507 c 0,0.14816 0.05027,0.22224 0.153451,0.22224 0.132283,0 0.28838,-0.0847 0.465642,-0.25134 0.177261,-0.16668 0.383625,-0.41802 0.624383,-0.75402 -0.06614,-0.40215 -0.15874,-0.88896 -0.272503,-1.45778 -0.121703,-0.60586 -0.203719,-0.98155 -0.24076,-1.12707 -0.05027,-0.17461 -0.100537,-0.28838 -0.153451,-0.336 -0.03175,-0.0291 -0.07143,-0.045 -0.1217,-0.045 -0.07144,0 -0.140222,0.0318 -0.206365,0.09 -0.0635,0.0608 -0.142867,0.16403 -0.238111,0.31219 l -0.224886,-0.15081 c 0.158742,-0.23546 0.306901,-0.40214 0.447122,-0.50003 0.137576,-0.0979 0.291026,-0.14816 0.460351,-0.14816 z"
       id="path2126" />
    <path
       style="fill:#ff0000;fill-opacity:1;fill-rule:evenodd;stroke:none;stroke-width:0.264583"
       d="m 96.455833,139.53282 c 0,-0.57147 0.455059,-1.03711 1.015947,-1.03711 0.563533,0 1.015947,0.46564 1.015947,1.03711 0,0.57412 -0.452414,1.03711 -1.015947,1.03711 -0.560888,0 -1.015947,-0.46299 -1.015947,-1.03711 z"
       id="path2128" />
    <path
       style="fill:none;stroke:#ff0000;stroke-width:0.338649px;stroke-linecap:butt;stroke-linejoin:miter;stroke-miterlimit:8;stroke-dasharray:none;stroke-opacity:1"
       d="m 96.455833,139.53282 c 0,-0.57147 0.455059,-1.03711 1.015947,-1.03711 0.563533,0 1.015947,0.46564 1.015947,1.03711 0,0.57412 -0.452414,1.03711 -1.015947,1.03711 -0.560888,0 -1.015947,-0.46299 -1.015947,-1.03711"
       id="path2130" />
    <path
       style="fill:#c55a11;fill-opacity:1;fill-rule:nonzero;stroke:#c55a11;stroke-width:0.0026457px;stroke-linecap:butt;stroke-linejoin:round;stroke-miterlimit:10;stroke-dasharray:none;stroke-opacity:1"
       d="m 74.702921,162.70383 21.729099,-21.7291 -0.388916,-0.38892 -21.729099,21.7291 z m 22.033354,-20.92481 0.746088,-2.2462 -2.24355,0.74873 z"
       id="path2132" />
    <path
       style="fill:#000000;fill-opacity:1;fill-rule:evenodd;stroke:none;stroke-width:0.264583"
       d="m 88.526683,142.52775 c 0.145513,0 0.259276,0.0476 0.34394,0.14287 0.08466,0.0952 0.126992,0.21959 0.126992,0.37569 0,0.11376 -0.02381,0.23282 -0.06614,0.35452 l 0.04498,0.0159 c 0.224882,-0.30426 0.44183,-0.52914 0.65084,-0.67201 0.206365,-0.14286 0.418021,-0.2143 0.63232,-0.2143 0.169326,0 0.309547,0.0132 0.420667,0.0397 l -0.164034,0.77254 h -0.357169 c -0.01323,-0.0979 -0.03175,-0.17197 -0.0582,-0.22488 -0.02381,-0.0529 -0.05556,-0.0899 -0.08996,-0.11112 -0.03439,-0.0212 -0.07672,-0.0317 -0.129638,-0.0317 -0.08466,0 -0.174617,0.037 -0.272507,0.10847 -0.09789,0.0714 -0.206365,0.18256 -0.328065,0.33336 -0.124349,0.15345 -0.219594,0.29897 -0.293674,0.43919 -0.07143,0.14022 -0.132284,0.32013 -0.179907,0.53443 l -0.328067,1.49482 h -0.597927 l 0.500036,-2.18799 c 0.0344,-0.13758 0.05291,-0.24341 0.0635,-0.32013 0.0079,-0.0767 0.01323,-0.14023 0.01323,-0.19049 0,-0.0926 -0.01588,-0.15875 -0.04498,-0.20108 -0.0291,-0.0397 -0.07673,-0.0608 -0.140221,-0.0608 -0.07144,0 -0.148161,0.0291 -0.227531,0.0873 -0.07937,0.0582 -0.187843,0.16668 -0.325421,0.32013 l -0.195785,-0.19313 c 0.211657,-0.22224 0.388919,-0.37834 0.529141,-0.47094 0.142867,-0.0952 0.301609,-0.14022 0.47358,-0.14022 z"
       id="path2134" />
    <path
       style="fill:#000000;fill-opacity:1;fill-rule:evenodd;stroke:none;stroke-width:0.264583"
       d="m 89.98446,140.32124 0.865143,0.74873 v 0.20107 l -0.865143,0.74874 -0.182554,-0.20637 0.550307,-0.48151 h -2.105975 v -0.32278 h 2.105975 l -0.550307,-0.48152 z"
       id="path2136" />
    <path
       style="fill:#000000;fill-opacity:1;fill-rule:nonzero;stroke:#000000;stroke-width:0.0026457px;stroke-linecap:butt;stroke-linejoin:round;stroke-miterlimit:10;stroke-dasharray:none;stroke-opacity:1"
       d="m 86.156138,151.38819 0.481518,0.42331 0.57676,0.56353 0.539723,0.59528 0.505328,0.62174 0.468289,0.6429 0.431247,0.66937 0.396854,0.69052 0.354523,0.71169 0.317484,0.72757 0.280445,0.74873 0.235466,0.76196 0.195781,0.77255 0.15345,0.78841 0.108474,0.79636 0.06879,0.80693 0.02116,0.80959 -0.169322,0.003 -0.02117,-0.80694 0.0026,0.005 -0.06879,-0.80164 v 0.005 l -0.108474,-0.79107 v 0.005 l -0.153398,-0.7831 v 0.003 l -0.193135,-0.7699 0.0026,0.005 -0.235466,-0.75667 v 0.005 l -0.277799,-0.74344 0.0026,0.003 -0.314839,-0.72492 0.0026,0.005 -0.354523,-0.7064 0.0026,0.003 -0.394208,-0.68788 0.0026,0.005 -0.428604,-0.66407 0.0026,0.003 -0.465643,-0.64026 0.0026,0.005 -0.502682,-0.61909 0.0026,0.003 -0.537075,-0.58999 0.0026,0.003 -0.57147,-0.56089 0.0026,0.005 -0.478872,-0.42331 z m 0.640257,2.41552 -0.822809,-2.46315 2.547805,0.49739 c 0.04762,0.008 0.07672,0.0529 0.06879,0.0979 -0.01058,0.0476 -0.05556,0.0767 -0.100537,0.0688 l -2.404938,-0.46828 0.09525,-0.11112 0.777832,2.32556 c 0.01323,0.0423 -0.01058,0.09 -0.05291,0.10583 -0.04498,0.0159 -0.0926,-0.008 -0.108474,-0.0529 z"
       id="path2138" />
    <path
       style="fill:#000000;fill-opacity:1;fill-rule:evenodd;stroke:none;stroke-width:0.264583"
       d="m 85.060821,157.01558 c -0.407437,0.0185 -0.759317,0.19578 -1.05828,0.52649 -0.298963,0.33072 -0.447122,0.7408 -0.447122,1.22496 0,0.29897 0.07937,0.55031 0.238112,0.75402 0.158742,0.20108 0.370398,0.31484 0.637614,0.3413 z m 0.545013,-0.008 -0.629677,2.85206 c 0.283091,-0.0132 0.537078,-0.0952 0.767252,-0.25399 0.230177,-0.15609 0.410083,-0.36775 0.54237,-0.63496 0.132283,-0.26722 0.195781,-0.5556 0.195781,-0.86779 0,-0.1852 -0.03175,-0.35717 -0.09524,-0.51591 -0.06614,-0.15874 -0.164034,-0.29103 -0.298966,-0.39421 -0.13493,-0.10583 -0.296317,-0.16668 -0.481515,-0.1852 z m -0.158742,-1.75674 h 0.545012 l -0.325419,1.48159 c 0.465643,0.0344 0.820166,0.16933 1.06357,0.40744 0.240757,0.23546 0.36246,0.55559 0.36246,0.96303 0,0.30425 -0.05291,0.58205 -0.161387,0.8334 -0.108474,0.24869 -0.267216,0.46828 -0.476227,0.65613 -0.20901,0.1852 -0.433893,0.32542 -0.672007,0.41273 -0.238112,0.09 -0.529137,0.13228 -0.870434,0.13228 l -0.314836,1.43661 h -0.545015 l 0.314838,-1.43661 c -0.457705,-0.0344 -0.806937,-0.16933 -1.052986,-0.40744 -0.243403,-0.23811 -0.367752,-0.56088 -0.367752,-0.96832 0,-0.34923 0.08995,-0.6773 0.272508,-0.98685 0.179906,-0.30954 0.431247,-0.55824 0.751376,-0.74873 0.32013,-0.19049 0.706401,-0.28838 1.156169,-0.29367 z"
       id="path2140" />
  </g>
</svg>
