<?xml version="1.0" encoding="UTF-8" standalone="no"?>
<svg
   xmlns:dc="http://purl.org/dc/elements/1.1/"
   xmlns:cc="http://creativecommons.org/ns#"
   xmlns:rdf="http://www.w3.org/1999/02/22-rdf-syntax-ns#"
   xmlns:svg="http://www.w3.org/2000/svg"
   xmlns="http://www.w3.org/2000/svg"
   xmlns:sodipodi="http://sodipodi.sourceforge.net/DTD/sodipodi-0.dtd"
   xmlns:inkscape="http://www.inkscape.org/namespaces/inkscape"
   width="110.87575mm"
   height="84.173988mm"
   viewBox="0 0 110.87575 84.173988"
   version="1.1"
   id="svg2169"
   sodipodi:docname="V06_Zentripetalbeschl.svg"
   inkscape:version="1.0.2-2 (e86c870879, 2021-01-15)">
  <sodipodi:namedview
     pagecolor="#ffffff"
     bordercolor="#666666"
     borderopacity="1"
     objecttolerance="10"
     gridtolerance="10"
     guidetolerance="10"
     inkscape:pageopacity="0"
     inkscape:pageshadow="2"
     inkscape:window-width="2400"
     inkscape:window-height="1271"
     id="namedview43"
     showgrid="false"
     lock-margins="true"
     fit-margin-top="1"
     fit-margin-left="1"
     fit-margin-right="1"
     fit-margin-bottom="1"
     inkscape:zoom="0.73940797"
     inkscape:cx="397.80793"
     inkscape:cy="154.6145"
     inkscape:window-x="-9"
     inkscape:window-y="-9"
     inkscape:window-maximized="1"
     inkscape:current-layer="svg2169" />
  <defs
     id="defs2163">
    <clipPath
       clipPathUnits="userSpaceOnUse"
       id="clipEmfPath1">
      <path
         d="M 13.759285,0.79995845 H 431.01761 V 319.50341 H 13.759285 Z"
         id="path2732" />
    </clipPath>
    <pattern
       id="EMFhbasepattern"
       patternUnits="userSpaceOnUse"
       width="6"
       height="6"
       x="0"
       y="0" />
  </defs>
  <metadata
     id="metadata2166">
    <rdf:RDF>
      <cc:Work
         rdf:about="">
        <dc:format>image/svg+xml</dc:format>
        <dc:type
           rdf:resource="http://purl.org/dc/dcmitype/StillImage" />
        <dc:title></dc:title>
      </cc:Work>
    </rdf:RDF>
  </metadata>
  <g
     id="layer1"
     transform="translate(0.25334746,-107.59158)">
    <path
       style="fill:#000000;fill-opacity:1;fill-rule:nonzero;stroke:#000000;stroke-width:0.00999948px;stroke-linecap:butt;stroke-linejoin:round;stroke-miterlimit:4;stroke-dasharray:none;stroke-opacity:1"
       clip-path="url(#clipEmfPath1)"
       d="m 13.67929,181.99055 h 288.45502 v 1.27993 H 13.67929 Z m 280.77542,-4.56977 8.94953,5.20973 -8.94953,5.21973 c -0.30999,0.17999 -0.69997,0.08 -0.87996,-0.22998 -0.16999,-0.29999 -0.07,-0.68997 0.22999,-0.86996 l 7.99958,-4.66976 v 1.10995 l -7.99958,-4.66976 c -0.29998,-0.17999 -0.39998,-0.56997 -0.22999,-0.86996 0.17999,-0.30998 0.56997,-0.40998 0.87996,-0.22999 z"
       id="path2738"
       transform="matrix(0.26458333,0,0,0.26458333,-2.8938249,106.26469)" />
    <path
       style="fill:#000000;fill-opacity:1;fill-rule:nonzero;stroke:#000000;stroke-width:0.019999px;stroke-linecap:butt;stroke-linejoin:round;stroke-miterlimit:4;stroke-dasharray:none;stroke-opacity:1"
       clip-path="url(#clipEmfPath1)"
       d="M 152.71207,319.36341 V 42.137811 h -1.27994 V 319.36341 Z m 4.57976,-269.525999 -5.21973,-8.959534 -5.21973,8.959534 c -0.15999,0.299985 -0.06,0.699964 0.23999,0.859956 0.29998,0.17999 0.69996,0.08 0.87995,-0.219989 l 4.65976,-7.999584 h -1.09994 l 4.65976,7.999584 c 0.17999,0.299985 0.57997,0.399979 0.87995,0.219989 0.29999,-0.159992 0.39998,-0.559971 0.21999,-0.859956 z"
       id="path2740"
       transform="matrix(0.26458333,0,0,0.26458333,-2.8938249,106.26469)" />
    <path
       style="fill:none;stroke:#41719c;stroke-width:0.804292px;stroke-linecap:butt;stroke-linejoin:miter;stroke-miterlimit:8;stroke-dasharray:none;stroke-opacity:1"
       d="m 4.8951039,154.62801 c 0,-17.94311 14.5460361,-32.48915 32.4891451,-32.48915 17.945756,0 32.489148,14.54604 32.489148,32.48915 0,17.94575 -14.543392,32.48914 -32.489148,32.48914 -17.943109,0 -32.4891451,-14.54339 -32.4891451,-32.48914"
       id="path2742" />
    <path
       style="fill:#000000;fill-opacity:1;fill-rule:evenodd;stroke:none;stroke-width:0.264583"
       d="m 75.371153,157.88221 c 0.07143,0 0.134929,0.0106 0.187843,0.0265 0.05556,0.0159 0.103182,0.0397 0.145513,0.0741 0.03969,0.0317 0.07673,0.0767 0.108474,0.12964 0.03175,0.0529 0.0635,0.12435 0.09525,0.2143 0.0291,0.0899 0.05821,0.20372 0.08466,0.33865 0.02646,0.13494 0.04762,0.27516 0.06879,0.42067 h 0.03439 c 0.22224,-0.31219 0.388919,-0.53972 0.502685,-0.68259 0.113763,-0.14551 0.211653,-0.25134 0.28838,-0.32277 0.07937,-0.0688 0.15345,-0.11906 0.227528,-0.14816 0.07144,-0.0265 0.16668,-0.0423 0.285737,-0.0423 0.108474,0 0.198427,0.0132 0.267216,0.0423 l -0.137578,0.62438 h -0.243406 c -0.01323,-0.0979 -0.05291,-0.14551 -0.119057,-0.14551 -0.02116,0 -0.04233,0.003 -0.06614,0.0106 -0.02381,0.008 -0.05027,0.0212 -0.08466,0.045 -0.03439,0.0238 -0.08202,0.0688 -0.145513,0.13493 -0.06614,0.0661 -0.137576,0.14816 -0.219594,0.2434 -0.07937,0.0979 -0.161385,0.19843 -0.248695,0.30426 l -0.23282,0.29367 c 0.03969,0.22224 0.07937,0.41273 0.116411,0.57411 0.03704,0.16139 0.06879,0.29368 0.09789,0.40215 0.0291,0.10583 0.05556,0.19049 0.07672,0.25399 0.02117,0.0609 0.04498,0.10847 0.07144,0.14022 0.02381,0.0291 0.05027,0.0529 0.07672,0.0635 0.02646,0.0132 0.05821,0.0185 0.0926,0.0185 0.06085,0 0.121703,-0.0238 0.179909,-0.0714 0.05821,-0.0476 0.142867,-0.15874 0.253987,-0.32807 l 0.224885,0.14816 c -0.161388,0.24076 -0.306901,0.40744 -0.436541,0.50533 -0.129638,0.0979 -0.285734,0.14816 -0.465643,0.14816 -0.09789,0 -0.182552,-0.0185 -0.251341,-0.0529 -0.06879,-0.037 -0.129638,-0.0926 -0.179906,-0.17197 -0.05027,-0.0794 -0.09525,-0.20107 -0.134932,-0.36511 -0.07143,-0.29632 -0.113763,-0.5212 -0.129638,-0.67729 h -0.03439 c -0.243406,0.34393 -0.425958,0.58998 -0.545016,0.73814 -0.119054,0.15081 -0.216945,0.25928 -0.293671,0.33072 -0.07672,0.0714 -0.150805,0.1217 -0.22224,0.1508 -0.07408,0.0291 -0.169322,0.045 -0.28838,0.045 -0.108473,0 -0.198426,-0.0159 -0.267216,-0.0423 l 0.137579,-0.62438 h 0.243403 c 0.01323,0.0952 0.05291,0.14286 0.119057,0.14286 0.03175,0 0.06614,-0.008 0.10318,-0.0238 0.0344,-0.0185 0.08731,-0.0582 0.15345,-0.12434 0.06614,-0.0661 0.158742,-0.16933 0.275154,-0.30955 0.119057,-0.14022 0.28838,-0.35188 0.510619,-0.63232 -0.03439,-0.17991 -0.06879,-0.35717 -0.105828,-0.52385 -0.03704,-0.16932 -0.07408,-0.32542 -0.113766,-0.47093 -0.03968,-0.14287 -0.07143,-0.23812 -0.09789,-0.28309 -0.02381,-0.045 -0.05291,-0.0767 -0.07937,-0.0926 -0.0291,-0.0185 -0.06614,-0.0265 -0.108474,-0.0265 -0.05027,0 -0.0926,0.0106 -0.132283,0.0317 -0.03969,0.0212 -0.08202,0.0609 -0.126995,0.11376 -0.04762,0.0556 -0.108474,0.14022 -0.182552,0.25399 l -0.224885,-0.14816 c 0.145513,-0.21959 0.283088,-0.38098 0.41802,-0.48946 0.132284,-0.10847 0.291026,-0.16403 0.470935,-0.16403 z"
       id="path2744" />
    <path
       style="fill:#000000;fill-opacity:1;fill-rule:evenodd;stroke:none;stroke-width:0.264583"
       d="m 32.963291,115.45054 c 0.09525,0 0.177263,0.0132 0.243404,0.0397 0.04498,0.0185 0.0926,0.0476 0.137578,0.09 0.04498,0.0423 0.08731,0.10318 0.1217,0.17726 0.03704,0.0767 0.06879,0.16139 0.09525,0.25664 0.02646,0.0952 0.05556,0.23017 0.08731,0.40743 0.05556,0.29632 0.108474,0.60851 0.158742,0.93658 0.05291,0.32807 0.09789,0.63232 0.13493,0.91276 0.222239,-0.32277 0.412728,-0.63761 0.566179,-0.94451 0.156096,-0.30955 0.267216,-0.57676 0.336002,-0.80429 0.06879,-0.22753 0.100536,-0.41273 0.100536,-0.5556 0,-0.10847 -0.02116,-0.18255 -0.06879,-0.22223 -0.04498,-0.0397 -0.124349,-0.0609 -0.232823,-0.0688 l 0.03439,-0.16933 h 0.907475 l 0.0926,0.17197 c -0.174617,0.47887 -0.412729,0.99214 -0.711692,1.53715 -0.293671,0.53443 -0.632322,1.06622 -1.010655,1.59536 -0.362461,0.50268 -0.666716,0.86778 -0.907476,1.09267 -0.169323,0.1561 -0.330711,0.26457 -0.486807,0.33336 -0.124349,0.0503 -0.256633,0.0741 -0.396854,0.0741 -0.04762,0 -0.105828,-0.003 -0.166679,-0.0106 -0.0635,-0.008 -0.113766,-0.0212 -0.148159,-0.0344 l 0.148159,-0.66936 h 0.272507 c 0,0.14815 0.05027,0.22223 0.153451,0.22223 0.132283,0 0.28838,-0.0847 0.465642,-0.25134 0.177261,-0.16668 0.383625,-0.41802 0.624383,-0.75402 -0.06614,-0.40215 -0.158742,-0.88895 -0.272505,-1.45778 -0.121703,-0.60586 -0.203719,-0.98155 -0.24076,-1.12707 -0.05027,-0.17461 -0.100537,-0.28838 -0.153451,-0.336 -0.03175,-0.0291 -0.07143,-0.045 -0.1217,-0.045 -0.07144,0 -0.140222,0.0318 -0.206365,0.09 -0.0635,0.0609 -0.142867,0.16403 -0.238111,0.31219 l -0.224884,-0.15081 c 0.158742,-0.23547 0.306901,-0.40215 0.447122,-0.50004 0.137576,-0.0979 0.291026,-0.14816 0.460351,-0.14816 z"
       id="path2746" />
    <path
       style="fill:#ff0000;fill-opacity:1;fill-rule:evenodd;stroke:none;stroke-width:0.264583"
       d="m 59.311778,131.53637 c 0,-0.57147 0.455059,-1.03711 1.015947,-1.03711 0.563533,0 1.015947,0.46564 1.015947,1.03711 0,0.57412 -0.452414,1.03712 -1.015947,1.03712 -0.560888,0 -1.015947,-0.463 -1.015947,-1.03712 z"
       id="path2748" />
    <path
       style="fill:none;stroke:#ff0000;stroke-width:0.338649px;stroke-linecap:butt;stroke-linejoin:miter;stroke-miterlimit:8;stroke-dasharray:none;stroke-opacity:1"
       d="m 59.311778,131.53637 c 0,-0.57147 0.455059,-1.03711 1.015947,-1.03711 0.563533,0 1.015947,0.46564 1.015947,1.03711 0,0.57412 -0.452414,1.03712 -1.015947,1.03712 -0.560888,0 -1.015947,-0.463 -1.015947,-1.03712"
       id="path2750" />
    <path
       style="fill:#000000;fill-opacity:1;fill-rule:evenodd;stroke:none;stroke-width:0.264583"
       d="m 68.206606,125.528 c 0.164034,0 0.285737,0.0423 0.357169,0.12964 0.07408,0.0873 0.11112,0.20107 0.11112,0.34658 0,0.11112 -0.01852,0.23812 -0.05821,0.38098 -0.03968,0.14023 -0.09524,0.29103 -0.166679,0.44977 -0.07143,0.15874 -0.156094,0.32278 -0.253987,0.48946 -0.100536,0.16667 -0.209008,0.32806 -0.328065,0.4868 -0.119057,0.15875 -0.248695,0.3069 -0.383627,0.44448 -0.13493,0.14022 -0.277797,0.26192 -0.42331,0.36511 -0.145512,0.10318 -0.293671,0.1852 -0.444478,0.24605 -0.150805,0.0608 -0.30161,0.0926 -0.449768,0.0926 -0.06879,0 -0.124346,-0.0159 -0.169323,-0.0503 -0.04498,-0.0344 -0.07937,-0.0794 -0.108474,-0.14287 -0.02646,-0.0609 -0.04762,-0.13229 -0.05821,-0.2143 -0.01058,-0.082 -0.01588,-0.17462 -0.01588,-0.27251 0,-0.13228 0.0079,-0.27251 0.02381,-0.42066 0.01587,-0.15081 0.03704,-0.30161 0.06085,-0.45242 l 0.145513,-0.95774 c 0.0079,-0.0556 0.01587,-0.10583 0.02116,-0.1561 0.0079,-0.0503 0.01058,-0.0847 0.01058,-0.10847 0,-0.0714 -0.01323,-0.12964 -0.03439,-0.17726 -0.02381,-0.045 -0.0635,-0.0688 -0.119058,-0.0688 -0.04233,0 -0.08995,0.0132 -0.140221,0.0397 -0.05027,0.0265 -0.103182,0.0608 -0.15345,0.10318 -0.05291,0.0397 -0.103183,0.0847 -0.150805,0.13229 -0.04762,0.0476 -0.0926,0.0926 -0.134932,0.13228 l -0.164031,-0.19314 c 0.07143,-0.0741 0.145513,-0.14551 0.227528,-0.21959 0.07937,-0.0714 0.164034,-0.13757 0.253987,-0.19578 0.08995,-0.0582 0.1852,-0.10583 0.283091,-0.14287 0.100536,-0.0344 0.201073,-0.0529 0.304255,-0.0529 0.08731,0 0.158742,0.0159 0.214299,0.045 0.05556,0.0265 0.09789,0.0661 0.129641,0.11377 0.03175,0.045 0.05291,0.0979 0.0635,0.15345 0.01058,0.0582 0.01587,0.11376 0.01587,0.16932 0,0.0318 0,0.0609 -0.0026,0.0926 -0.0026,0.0291 -0.0053,0.0582 -0.01058,0.082 l -0.193138,1.24877 c -0.02116,0.13229 -0.03704,0.25928 -0.05027,0.38627 -0.01587,0.12435 -0.02116,0.23547 -0.02116,0.33336 0,0.0952 0.0053,0.17462 0.01587,0.23547 0.01323,0.0582 0.03439,0.0873 0.06614,0.0873 0.07673,0 0.171972,-0.0291 0.285737,-0.09 0.116409,-0.0608 0.238112,-0.14552 0.362458,-0.25134 0.126995,-0.10848 0.25399,-0.23547 0.380982,-0.38098 0.126994,-0.14552 0.240757,-0.30426 0.341294,-0.47358 0.100536,-0.17197 0.182554,-0.35188 0.246049,-0.53973 0.0635,-0.18784 0.09525,-0.37833 0.09525,-0.56882 0,-0.082 -0.01852,-0.14816 -0.05291,-0.19314 -0.0344,-0.0423 -0.0926,-0.0661 -0.166679,-0.0661 -0.09789,0 -0.187844,0.037 -0.267216,0.11112 -0.08202,0.0767 -0.16668,0.17462 -0.253987,0.29632 l -0.198456,-0.17728 c 0.05556,-0.082 0.121703,-0.16139 0.195781,-0.23811 0.07408,-0.0741 0.15345,-0.14023 0.238115,-0.19843 0.08466,-0.0582 0.171968,-0.10318 0.261921,-0.13758 0.08996,-0.0344 0.177263,-0.0529 0.261924,-0.0529 z"
       id="path2752" />
    <path
       style="fill:#000000;fill-opacity:1;fill-rule:evenodd;stroke:none;stroke-width:0.264583"
       d="m 67.857375,123.33736 0.867788,0.74873 v 0.19843 l -0.867788,0.74873 -0.182552,-0.20636 0.55295,-0.47887 h -2.105975 v -0.32542 h 2.105975 l -0.55295,-0.47887 z"
       id="path2754" />
    <path
       style="fill:#000000;fill-opacity:1;fill-rule:evenodd;stroke:none;stroke-width:0.264583"
       d="m 70.238501,127.0916 h 0.15345 c -0.0053,0.0926 -0.0079,0.17462 -0.0079,0.2487 -0.0026,0.0741 -0.0026,0.14287 -0.0053,0.21166 0,0.0714 0,0.13757 0,0.20636 v 1.91548 c 0,0.0529 0.0026,0.0979 0.0053,0.13493 0.0026,0.037 0.0079,0.0688 0.01587,0.0952 0.0079,0.0265 0.01852,0.0503 0.02911,0.0688 0.01323,0.0185 0.0291,0.0344 0.04498,0.0476 0.02116,0.0185 0.04762,0.0344 0.08202,0.045 0.03175,0.0106 0.07673,0.0212 0.126994,0.0291 0.05291,0.008 0.116409,0.0132 0.187844,0.0159 0.07408,0.005 0.161388,0.008 0.26457,0.0106 v 0.2196 h -2.000193 v -0.21958 c 0.100537,-0.005 0.182552,-0.008 0.251341,-0.0132 0.06879,-0.003 0.129641,-0.008 0.177263,-0.0159 0.05027,-0.008 0.08731,-0.0159 0.116409,-0.0265 0.03175,-0.008 0.05556,-0.0212 0.07673,-0.0344 0.02381,-0.0132 0.04498,-0.0317 0.06085,-0.0476 0.01852,-0.0185 0.03175,-0.0397 0.04233,-0.0661 0.0079,-0.0291 0.01587,-0.0608 0.02381,-0.10054 0.0053,-0.037 0.0079,-0.0847 0.0079,-0.14287 v -1.80701 c 0,-0.0661 -0.01323,-0.11376 -0.03704,-0.14022 -0.02646,-0.0265 -0.06085,-0.0397 -0.108474,-0.0397 -0.05291,0 -0.129638,0.0265 -0.23282,0.0794 -0.103182,0.0556 -0.235469,0.13493 -0.399502,0.24076 -0.02116,-0.0397 -0.03968,-0.0767 -0.0582,-0.11641 -0.01852,-0.037 -0.03969,-0.0767 -0.05821,-0.11906 0.206364,-0.11376 0.412729,-0.22753 0.619093,-0.34129 0.203719,-0.11377 0.410083,-0.22489 0.621737,-0.33865 z"
       id="path2756" />
    <path
       style="fill:#000000;fill-opacity:1;fill-rule:nonzero;stroke:#000000;stroke-width:0.0026457px;stroke-linecap:butt;stroke-linejoin:round;stroke-miterlimit:10;stroke-dasharray:none;stroke-opacity:1"
       d="m 58.264081,133.68203 0.560887,0.58999 0.656135,0.72757 0.629674,0.74873 0.60851,0.76725 0.582054,0.78313 0.560888,0.80165 0.534429,0.81487 0.513265,0.83075 0.484164,0.84927 0.460351,0.85985 0.433893,0.87572 0.410083,0.88896 0.380981,0.89953 0.354524,0.91277 0.33071,0.92599 0.298964,0.93658 -0.161388,0.0503 -0.298964,-0.93393 v 0.003 l -0.328064,-0.92335 0.0026,0.003 -0.354523,-0.91012 v 0.003 L 64.542273,143.287 v 0.003 l -0.407437,-0.8863 0.0026,0.003 -0.433892,-0.87308 v 0.003 l -0.457706,-0.85721 h 0.0026 l -0.484164,-0.84662 v 0.003 l -0.510619,-0.82811 0.0026,0.003 -0.534429,-0.81487 v 0.003 l -0.558242,-0.799 0.0026,0.003 -0.582052,-0.78048 v 0 l -0.605864,-0.76461 0.0026,0.003 -0.629676,-0.74608 0.0026,0.003 -0.653486,-0.72757 v 0.003 l -0.558242,-0.58999 z m 0.420666,2.46315 -0.597927,-2.52664 2.494892,0.72492 c 0.04498,0.0106 0.06879,0.0582 0.05556,0.10318 -0.01323,0.045 -0.05821,0.0714 -0.103182,0.0582 l -2.35467,-0.68259 0.105828,-0.10054 0.56618,2.38378 c 0.01058,0.045 -0.01852,0.0926 -0.0635,0.10318 -0.04498,0.0106 -0.0926,-0.0185 -0.103182,-0.0635 z"
       id="path2758" />
    <path
       style="fill:#c55a11;fill-opacity:1;fill-rule:nonzero;stroke:#c55a11;stroke-width:0.00999948px;stroke-linecap:butt;stroke-linejoin:round;stroke-miterlimit:10;stroke-dasharray:none;stroke-opacity:1"
       clip-path="url(#clipEmfPath1)"
       d="m 239.79755,94.905071 -81.56577,-82.105736 -1.46992,1.469924 81.56576,82.105735 z m -78.52593,-83.245677 -8.47956,-2.859851 2.80986,8.499558 z"
       id="path2760"
       transform="matrix(0.26458333,0,0,0.26458333,-2.8938249,106.26469)" />
    <path
       style="fill:#ff0000;fill-opacity:1;fill-rule:evenodd;stroke:none;stroke-width:0.264583"
       d="m 67.270032,144.36271 c 0,-0.57147 0.46564,-1.03712 1.037111,-1.03712 0.574117,0 1.037114,0.46565 1.037114,1.03712 0,0.57411 -0.462997,1.03711 -1.037114,1.03711 -0.571471,0 -1.037111,-0.463 -1.037111,-1.03711 z"
       id="path2762" />
    <path
       style="fill:none;stroke:#ff0000;stroke-width:0.338649px;stroke-linecap:butt;stroke-linejoin:miter;stroke-miterlimit:8;stroke-dasharray:none;stroke-opacity:1"
       d="m 67.270032,144.36271 c 0,-0.57147 0.46564,-1.03712 1.037111,-1.03712 0.574117,0 1.037114,0.46565 1.037114,1.03712 0,0.57411 -0.462997,1.03711 -1.037114,1.03711 -0.571471,0 -1.037111,-0.463 -1.037111,-1.03711"
       id="path2764" />
    <path
       style="fill:#c55a11;fill-opacity:1;fill-rule:nonzero;stroke:#c55a11;stroke-width:0.0026457px;stroke-linecap:butt;stroke-linejoin:round;stroke-miterlimit:10;stroke-dasharray:none;stroke-opacity:1"
       d="m 68.600817,144.19074 -9.680601,-29.39368 -0.523849,0.17197 9.680602,29.39368 z m -8.826042,-29.30373 -1.669434,-1.68002 -0.341296,2.34144 z"
       id="path2766" />
    <path
       style="fill:#000000;fill-opacity:1;fill-rule:evenodd;stroke:none;stroke-width:0.264583"
       d="m 48.628458,112.20427 c 0.166677,0 0.285735,0.045 0.359815,0.12964 0.07408,0.0873 0.111117,0.20372 0.111117,0.34923 0,0.10848 -0.02116,0.23547 -0.06085,0.37834 -0.03704,0.14287 -0.0926,0.29367 -0.164033,0.45241 -0.07144,0.15875 -0.156097,0.32278 -0.256633,0.48946 -0.09789,0.16668 -0.206364,0.32806 -0.328067,0.48681 -0.119055,0.15609 -0.24605,0.30425 -0.380979,0.44447 -0.137578,0.13758 -0.2778,0.25928 -0.423312,0.36246 -0.148159,0.10583 -0.296318,0.18785 -0.447122,0.2487 -0.150805,0.0609 -0.298964,0.09 -0.449768,0.09 -0.06614,0 -0.121703,-0.0159 -0.16668,-0.0503 -0.04498,-0.0317 -0.08202,-0.0794 -0.108474,-0.14022 -0.0291,-0.0609 -0.04762,-0.13228 -0.05821,-0.21695 -0.01323,-0.082 -0.01852,-0.17197 -0.01852,-0.2725 0,-0.12964 0.0079,-0.26986 0.02381,-0.42067 0.01588,-0.14816 0.03704,-0.29896 0.0635,-0.45241 l 0.142867,-0.9551 c 0.01058,-0.0556 0.01852,-0.10847 0.02381,-0.15874 0.0053,-0.0476 0.0079,-0.0847 0.0079,-0.10847 0,-0.0714 -0.01058,-0.12964 -0.03439,-0.17462 -0.02381,-0.0476 -0.06085,-0.0688 -0.116412,-0.0688 -0.04498,0 -0.0926,0.0132 -0.142867,0.0397 -0.05027,0.0265 -0.100536,0.0609 -0.15345,0.10053 -0.05027,0.0423 -0.100536,0.0873 -0.148159,0.13229 -0.05027,0.0476 -0.09524,0.0926 -0.134929,0.13493 l -0.16668,-0.19314 c 0.07144,-0.0741 0.148159,-0.14815 0.227531,-0.21959 0.08202,-0.0741 0.166677,-0.13757 0.25663,-0.19843 0.08996,-0.0582 0.182555,-0.10582 0.283091,-0.14022 0.09789,-0.037 0.198427,-0.0529 0.301609,-0.0529 0.08995,0 0.158742,0.0132 0.214302,0.0423 0.05556,0.0291 0.100537,0.0661 0.129638,0.11376 0.03175,0.0476 0.05291,0.0979 0.0635,0.1561 0.01323,0.0556 0.01852,0.11112 0.01852,0.16668 0,0.0318 -0.0026,0.0635 -0.0026,0.0926 -0.0026,0.0318 -0.0079,0.0582 -0.01058,0.0847 l -0.193135,1.24877 c -0.02117,0.12964 -0.03969,0.25928 -0.05291,0.38362 -0.01323,0.127 -0.02117,0.23812 -0.02117,0.33336 0,0.0979 0.0053,0.17462 0.01852,0.23547 0.01058,0.0609 0.03175,0.09 0.06614,0.09 0.07408,0 0.169325,-0.0317 0.285736,-0.0926 0.113766,-0.0609 0.235466,-0.14286 0.362461,-0.25134 0.126992,-0.10582 0.253987,-0.23282 0.378333,-0.37833 0.126995,-0.14816 0.24076,-0.30426 0.343942,-0.47623 0.100537,-0.16932 0.182552,-0.34923 0.24605,-0.53707 0.0635,-0.19049 0.09524,-0.37834 0.09524,-0.57147 0,-0.082 -0.01852,-0.14552 -0.05556,-0.19049 -0.03439,-0.045 -0.08995,-0.0662 -0.16668,-0.0662 -0.09524,0 -0.185198,0.037 -0.267213,0.11112 -0.08202,0.0741 -0.16668,0.17197 -0.25399,0.29368 l -0.195781,-0.17462 c 0.05556,-0.082 0.119057,-0.16139 0.195781,-0.23811 0.07408,-0.0767 0.153451,-0.14287 0.238115,-0.20108 0.08201,-0.0582 0.169322,-0.10318 0.259278,-0.13757 0.08995,-0.0344 0.17726,-0.0529 0.261924,-0.0529 z"
       id="path2768" />
    <path
       style="fill:#000000;fill-opacity:1;fill-rule:evenodd;stroke:none;stroke-width:0.264583"
       d="m 48.28187,110.01364 0.865143,0.74873 v 0.20107 l -0.865143,0.74873 -0.182552,-0.20636 0.55295,-0.48152 h -2.105975 v -0.32277 h 2.105975 L 48.099318,110.22 Z"
       id="path2770" />
    <path
       style="fill:#000000;fill-opacity:1;fill-rule:evenodd;stroke:none;stroke-width:0.264583"
       d="m 50.633894,113.75201 c 0.174617,0 0.322776,0.0185 0.447122,0.0582 0.124349,0.0397 0.224885,0.0926 0.301612,0.16139 0.07672,0.0661 0.132284,0.14816 0.166677,0.24076 0.0344,0.0952 0.05291,0.19578 0.05291,0.3069 0,0.0635 -0.0053,0.12435 -0.01587,0.18255 -0.0079,0.0556 -0.02381,0.11112 -0.04763,0.16668 -0.02116,0.0529 -0.05291,0.10847 -0.08731,0.16403 -0.03704,0.0556 -0.08466,0.11377 -0.140221,0.17726 -0.04233,0.0529 -0.09525,0.11641 -0.164034,0.1852 -0.06614,0.0714 -0.140221,0.14816 -0.219593,0.22753 -0.07937,0.082 -0.164031,0.16404 -0.251341,0.25134 -0.08731,0.0873 -0.171969,0.17462 -0.253987,0.26193 -0.08466,0.0847 -0.158742,0.16668 -0.227528,0.24869 -0.06879,0.0794 -0.124349,0.15345 -0.169326,0.22224 h 0.933932 c 0.07937,0 0.140221,-0.003 0.187843,-0.0106 0.04762,-0.005 0.08731,-0.0185 0.116412,-0.037 0.03175,-0.0212 0.05821,-0.0529 0.07937,-0.0926 0.02381,-0.0423 0.04762,-0.0979 0.07673,-0.16932 h 0.235466 c -0.0079,0.11905 -0.01588,0.23811 -0.02381,0.35981 -0.0079,0.1217 -0.01588,0.24076 -0.02381,0.35982 h -2.137723 v -0.12964 c 0.04233,-0.0926 0.08731,-0.18256 0.142867,-0.26986 0.05291,-0.0873 0.113766,-0.17726 0.179909,-0.26722 0.06879,-0.0926 0.145513,-0.1852 0.230174,-0.28309 0.08466,-0.0952 0.179909,-0.19578 0.285737,-0.30161 0.156096,-0.15609 0.285734,-0.29102 0.386271,-0.40479 0.09789,-0.11112 0.177263,-0.20901 0.23282,-0.29896 0.05821,-0.0873 0.09789,-0.16668 0.119057,-0.24076 0.01852,-0.0741 0.0291,-0.15345 0.0291,-0.23811 0,-0.0847 -0.01058,-0.16404 -0.0344,-0.23547 -0.02645,-0.0741 -0.06085,-0.13493 -0.105828,-0.1852 -0.04498,-0.0503 -0.103182,-0.09 -0.171968,-0.11906 -0.07143,-0.0264 -0.150805,-0.0423 -0.24076,-0.0423 -0.156097,0 -0.28838,0.0423 -0.394208,0.127 -0.105829,0.0847 -0.187844,0.20901 -0.24605,0.37039 h -0.330702 v -0.4921 c 0.214302,-0.09 0.412729,-0.15345 0.592638,-0.19313 0.182551,-0.0423 0.343939,-0.0609 0.489452,-0.0609 z"
       id="path2772" />
    <path
       style="fill:#c55a11;fill-opacity:1;fill-rule:nonzero;stroke:#c55a11;stroke-width:0.00529139px;stroke-linecap:butt;stroke-linejoin:round;stroke-miterlimit:10;stroke-dasharray:none;stroke-opacity:1"
       d="m 107.75977,153.12525 -9.683255,-29.39368 -0.52385,0.16933 9.683255,29.39368 z m -8.826055,-29.30373 -1.67208,-1.68266 -0.338643,2.34409 z"
       id="path2774" />
    <path
       style="fill:#c55a11;fill-opacity:1;fill-rule:nonzero;stroke:#c55a11;stroke-width:0.00529139px;stroke-linecap:butt;stroke-linejoin:round;stroke-miterlimit:10;stroke-dasharray:none;stroke-opacity:1"
       d="m 107.50049,152.92418 -21.583593,-21.72646 -0.386274,0.39157 21.578307,21.72116 z m -20.779302,-22.02806 -2.243551,-0.75667 0.740794,2.24884 z"
       id="path2776" />
    <path
       style="fill:#00b050;fill-opacity:1;fill-rule:nonzero;stroke:#00b050;stroke-width:0.00529139px;stroke-linecap:butt;stroke-linejoin:round;stroke-miterlimit:10;stroke-dasharray:none;stroke-opacity:1"
       d="m 97.155815,122.05949 -11.286541,6.98464 0.179906,0.28573 11.286535,-6.97934 z m -11.455866,6.04277 -1.243478,2.01602 2.359961,-0.21695 z"
       id="path2778" />
    <path
       style="fill:#000000;fill-opacity:1;fill-rule:evenodd;stroke:none;stroke-width:0.264583"
       d="m 62.391366,144.8257 h 0.476227 l -0.19049,0.85456 h 1.05034 l -0.07672,0.34924 H 62.60038 l -0.306901,1.33872 c -0.05821,0.25928 -0.09789,0.44712 -0.113763,0.56089 -0.01587,0.11376 -0.02381,0.20371 -0.02381,0.2725 0,0.28574 0.119058,0.4286 0.354524,0.4286 0.103182,0 0.20901,-0.037 0.322775,-0.11376 0.113766,-0.0794 0.248695,-0.20901 0.407438,-0.39686 l 0.198426,0.20637 c -0.198426,0.24341 -0.391562,0.42067 -0.576762,0.53708 -0.185198,0.11376 -0.380979,0.17197 -0.582052,0.17197 -0.481518,0 -0.722275,-0.24341 -0.722275,-0.72757 0,-0.1561 0.02116,-0.31748 0.05821,-0.48681 l 0.407437,-1.79113 h -0.579409 l 0.05291,-0.24076 c 0.13493,0 0.238112,-0.0106 0.309547,-0.0291 0.06879,-0.0185 0.126992,-0.045 0.174614,-0.0767 0.04762,-0.0317 0.08996,-0.0794 0.129641,-0.13758 0.03968,-0.0609 0.07672,-0.13757 0.113765,-0.23017 0.03704,-0.0926 0.0926,-0.25664 0.166677,-0.48946 z"
       id="path2780" />
    <path
       style="fill:#000000;fill-opacity:1;fill-rule:evenodd;stroke:none;stroke-width:0.264583"
       d="m 65.283114,147.16979 h 0.15345 c -0.0026,0.0926 -0.0053,0.17726 -0.0079,0.2487 0,0.0741 -0.0026,0.14551 -0.0026,0.2143 -0.0026,0.0688 -0.0026,0.13757 -0.0026,0.20372 v 1.91548 c 0,0.0529 0.0026,0.0979 0.0053,0.13493 0.0026,0.0397 0.01058,0.0714 0.01587,0.0979 0.0079,0.0238 0.01852,0.0476 0.03175,0.0661 0.01323,0.0185 0.02646,0.0344 0.04233,0.0476 0.02117,0.0212 0.04762,0.0344 0.08202,0.0476 0.0344,0.0106 0.07673,0.0185 0.12964,0.0265 0.05027,0.008 0.113766,0.0132 0.187844,0.0185 0.07143,0.003 0.158742,0.005 0.261924,0.008 v 0.21959 h -2.000147 v -0.21959 c 0.100536,-0.003 0.1852,-0.008 0.253987,-0.0106 0.06879,-0.005 0.126995,-0.0106 0.174617,-0.0185 0.05027,-0.008 0.08995,-0.0159 0.119057,-0.0238 0.0291,-0.0106 0.05556,-0.0212 0.07672,-0.0344 0.02381,-0.0159 0.04233,-0.0318 0.06085,-0.0503 0.01587,-0.0185 0.0291,-0.0397 0.03968,-0.0661 0.01058,-0.0265 0.01852,-0.0608 0.02381,-0.0979 0.0053,-0.0397 0.0079,-0.0873 0.0079,-0.14551 V 147.945 c 0,-0.0661 -0.01058,-0.11112 -0.03704,-0.13758 -0.02646,-0.0291 -0.06085,-0.0423 -0.108474,-0.0423 -0.05291,0 -0.129638,0.0291 -0.23282,0.082 -0.100537,0.0529 -0.235469,0.13229 -0.396854,0.23811 -0.02381,-0.037 -0.04233,-0.0767 -0.06085,-0.11376 -0.01852,-0.0397 -0.03704,-0.0794 -0.0582,-0.11906 0.20901,-0.11376 0.415374,-0.23017 0.619093,-0.34129 0.203719,-0.11377 0.410083,-0.22753 0.621739,-0.3413 z"
       id="path2782" />
    <path
       style="fill:#000000;fill-opacity:1;fill-rule:evenodd;stroke:none;stroke-width:0.264583"
       d="m 52.800721,132.86187 h 0.476223 l -0.187843,0.85191 h 1.047694 l -0.07408,0.34923 h -1.05034 l -0.306901,1.33873 c -0.06085,0.25927 -0.09789,0.44712 -0.113766,0.56088 -0.01588,0.11377 -0.02381,0.20637 -0.02381,0.27516 0,0.28573 0.116411,0.42595 0.354523,0.42595 0.100536,0 0.20901,-0.037 0.322776,-0.11376 0.113765,-0.0767 0.248695,-0.20901 0.404791,-0.39686 l 0.201073,0.20901 c -0.201073,0.24076 -0.394208,0.41802 -0.579409,0.53443 -0.185197,0.11377 -0.378333,0.17197 -0.579405,0.17197 -0.481518,0 -0.722276,-0.2434 -0.722276,-0.72756 0,-0.15345 0.01852,-0.31749 0.05821,-0.48681 l 0.407437,-1.79114 H 51.85621 l 0.05027,-0.23811 c 0.137578,-0.003 0.24076,-0.0132 0.309547,-0.0318 0.07143,-0.0185 0.12964,-0.045 0.177262,-0.0767 0.04762,-0.0317 0.08995,-0.0767 0.129638,-0.13758 0.03704,-0.0609 0.07673,-0.13493 0.113766,-0.23017 0.03704,-0.0926 0.08995,-0.25399 0.164034,-0.48681 z"
       id="path2784" />
    <path
       style="fill:#000000;fill-opacity:1;fill-rule:evenodd;stroke:none;stroke-width:0.264583"
       d="m 55.666007,135.18743 c 0.174617,0 0.325422,0.0185 0.447125,0.0582 0.124346,0.0397 0.224883,0.0926 0.301609,0.16139 0.07937,0.0661 0.13493,0.14816 0.169323,0.24076 0.0344,0.0952 0.05027,0.19578 0.05027,0.3069 0,0.0635 -0.0053,0.12699 -0.01323,0.18255 -0.01058,0.0556 -0.02646,0.11112 -0.04762,0.16668 -0.02381,0.0529 -0.05291,0.10847 -0.08996,0.16403 -0.03704,0.0556 -0.08201,0.11377 -0.137575,0.17727 -0.04233,0.0529 -0.09789,0.11641 -0.164034,0.1852 -0.06879,0.0714 -0.142867,0.14815 -0.222236,0.22753 -0.07937,0.082 -0.164034,0.16403 -0.251341,0.25134 -0.08731,0.0899 -0.171972,0.17461 -0.253987,0.26192 -0.08202,0.0847 -0.158742,0.16932 -0.227531,0.2487 -0.06879,0.082 -0.124349,0.15345 -0.169326,0.22223 h 0.933932 c 0.07937,0 0.142867,-0.003 0.190489,-0.008 0.04498,-0.008 0.08466,-0.0212 0.116412,-0.0397 0.03175,-0.0212 0.05821,-0.0503 0.07937,-0.0926 0.02117,-0.0423 0.04763,-0.0979 0.07673,-0.16932 h 0.23282 c -0.0079,0.11906 -0.01587,0.23811 -0.02381,0.35981 -0.0079,0.12171 -0.01587,0.24076 -0.02381,0.35982 H 54.50455 v -0.12964 c 0.03968,-0.0926 0.08731,-0.17991 0.140222,-0.26986 0.05556,-0.0873 0.113765,-0.17726 0.182554,-0.26722 0.06614,-0.0926 0.142867,-0.1852 0.230174,-0.28309 0.08466,-0.0952 0.179909,-0.19578 0.283091,-0.29896 0.158742,-0.15874 0.28838,-0.29367 0.386271,-0.40479 0.100536,-0.11377 0.177263,-0.21166 0.235468,-0.29897 0.05556,-0.0873 0.09524,-0.16932 0.116409,-0.2434 0.02117,-0.0741 0.03175,-0.15345 0.03175,-0.23811 0,-0.0847 -0.01323,-0.16404 -0.03704,-0.23547 -0.02381,-0.0714 -0.0582,-0.13493 -0.103182,-0.1852 -0.04762,-0.0503 -0.103182,-0.0899 -0.174614,-0.11641 -0.06879,-0.0291 -0.148159,-0.045 -0.240758,-0.045 -0.156096,0 -0.285737,0.0423 -0.391565,0.127 -0.105828,0.0873 -0.190489,0.20901 -0.248695,0.37039 h -0.33071 v -0.4921 c 0.216945,-0.0873 0.412728,-0.15345 0.59528,-0.19313 0.179906,-0.0397 0.34394,-0.0609 0.486807,-0.0609 z"
       id="path2786" />
    <path
       style="fill:#000000;fill-opacity:1;fill-rule:evenodd;stroke:none;stroke-width:0.264583"
       d="m 87.583684,120.81072 c -0.232822,0 -0.449768,0.0952 -0.634968,0.28574 -0.190489,0.19049 -0.338648,0.44447 -0.444476,0.76725 -0.105828,0.32277 -0.158742,0.64026 -0.158742,0.96303 0,0.23812 0.03175,0.41802 0.100536,0.53443 0.0635,0.11641 0.174617,0.17991 0.328068,0.17991 0.15345,0 0.301609,-0.0688 0.449768,-0.19578 0.142867,-0.13229 0.296317,-0.32278 0.449767,-0.56089 0.153451,-0.2434 0.26457,-0.52385 0.328068,-0.84133 l 0.03175,-0.14816 c 0.02117,-0.0952 0.03704,-0.17991 0.04233,-0.24869 0.0053,-0.0688 0.01058,-0.14287 0.01058,-0.22224 0,-0.17991 -0.03704,-0.3069 -0.116411,-0.39157 -0.07408,-0.0794 -0.201073,-0.1217 -0.38627,-0.1217 z m -0.06879,-0.27515 c 0.153451,0 0.291029,0.0159 0.423312,0.0529 0.126993,0.0318 0.259279,0.09 0.402146,0.17462 l 0.317484,-0.22753 0.216948,0.0582 -0.507976,2.18534 c -0.04762,0.21695 -0.07408,0.39156 -0.07408,0.51327 0,0.09 0.01588,0.15874 0.04762,0.20107 0.02646,0.037 0.07408,0.0582 0.137575,0.0582 0.06879,0 0.14287,-0.0265 0.22224,-0.0847 0.07937,-0.0529 0.190489,-0.16403 0.333356,-0.32278 l 0.195784,0.19579 c -0.206364,0.22223 -0.386273,0.37568 -0.52914,0.47093 -0.148159,0.0952 -0.306901,0.13758 -0.476226,0.13758 -0.142867,0 -0.253987,-0.0476 -0.34394,-0.13758 -0.08466,-0.0952 -0.126992,-0.22224 -0.126992,-0.38098 0,-0.1217 0.02645,-0.25928 0.07937,-0.40215 l -0.04233,-0.0106 c -0.22224,0.31749 -0.433896,0.5556 -0.629677,0.70376 -0.195781,0.15345 -0.407437,0.22753 -0.629674,0.22753 -0.248698,0 -0.44977,-0.0953 -0.587346,-0.28574 -0.137575,-0.19578 -0.206364,-0.46035 -0.206364,-0.80429 0,-0.39685 0.07408,-0.77783 0.232823,-1.14294 0.15345,-0.3651 0.365103,-0.65084 0.640257,-0.8625 0.269862,-0.21165 0.571471,-0.31748 0.904827,-0.31748 z"
       id="path2788" />
    <path
       style="fill:#000000;fill-opacity:1;fill-rule:evenodd;stroke:none;stroke-width:0.264583"
       d="m 88.2504,118.32906 0.867788,0.75138 v 0.20107 l -0.867788,0.74609 -0.179909,-0.20637 0.550307,-0.48151 h -2.105975 v -0.32278 h 2.105975 l -0.550307,-0.48152 z"
       id="path2790" />
    <path
       style="fill:#000000;fill-opacity:1;fill-rule:evenodd;stroke:none;stroke-width:0.264583"
       d="m 89.594412,122.81087 h 2.100683 v 0.16932 l -1.486882,2.10069 h 0.71963 c 0.08466,0 0.15345,0 0.206364,-0.0106 0.04762,-0.005 0.08995,-0.0265 0.121703,-0.0635 0.03704,-0.037 0.0635,-0.09 0.08995,-0.15875 0.02645,-0.0688 0.0635,-0.16932 0.100536,-0.29631 h 0.26457 v 0.78312 h -2.137722 v -0.16403 l 1.492173,-2.10598 h -0.740792 c -0.05821,0 -0.11112,0.005 -0.158742,0.0212 -0.04233,0.0159 -0.08466,0.0423 -0.121701,0.0794 -0.03704,0.037 -0.06879,0.0847 -0.100536,0.14816 -0.03175,0.0635 -0.0635,0.14287 -0.08996,0.23812 h -0.259278 z"
       id="path2792" />
    <path
       style="fill:#000000;fill-opacity:1;fill-rule:evenodd;stroke:none;stroke-width:0.264583"
       d="m 106.6962,136.19809 c 0.16403,0 0.28044,0.0423 0.35452,0.12699 0.0741,0.0899 0.11112,0.20637 0.11112,0.34924 0,0.11111 -0.0159,0.23811 -0.0582,0.38098 -0.037,0.14286 -0.0952,0.29102 -0.16403,0.44976 -0.0741,0.15875 -0.15874,0.32278 -0.25399,0.4921 -0.10053,0.16404 -0.21165,0.32807 -0.32806,0.48152 -0.1217,0.15874 -0.2487,0.3069 -0.38627,0.44977 -0.13229,0.13757 -0.27516,0.25928 -0.42332,0.35981 -0.14286,0.10583 -0.29102,0.19049 -0.44447,0.2487 -0.14816,0.0635 -0.30161,0.09 -0.44977,0.09 -0.0688,0 -0.1217,-0.0159 -0.16933,-0.0476 -0.0423,-0.0317 -0.0794,-0.0794 -0.10582,-0.14287 -0.0265,-0.0582 -0.0476,-0.13228 -0.0582,-0.21695 -0.0106,-0.0794 -0.0212,-0.16932 -0.0212,-0.26986 0,-0.13228 0.0106,-0.26986 0.0264,-0.42331 0.0159,-0.14816 0.037,-0.29632 0.0635,-0.44977 l 0.14287,-0.95774 c 0.0106,-0.0529 0.0159,-0.10583 0.0212,-0.15874 0.0106,-0.0476 0.0106,-0.0847 0.0106,-0.10583 0,-0.0741 -0.0106,-0.13228 -0.0318,-0.17461 -0.0265,-0.0476 -0.0635,-0.0688 -0.1217,-0.0688 -0.0423,0 -0.09,0.0106 -0.13758,0.037 -0.0529,0.0265 -0.10583,0.0635 -0.15345,0.10053 -0.0529,0.0423 -0.10583,0.0899 -0.15345,0.13229 -0.0476,0.0476 -0.09,0.0952 -0.13229,0.13757 l -0.16932,-0.19578 c 0.0741,-0.0741 0.14816,-0.14816 0.23282,-0.21695 0.0794,-0.0741 0.16403,-0.13757 0.25399,-0.20107 0.09,-0.0582 0.1852,-0.10583 0.28044,-0.13758 0.10054,-0.037 0.20107,-0.0529 0.3069,-0.0529 0.0847,0 0.15874,0.0106 0.21166,0.0423 0.0582,0.0265 0.10053,0.0635 0.13228,0.11112 0.0265,0.0476 0.0476,0.10054 0.0635,0.15875 0.0106,0.0529 0.0159,0.11112 0.0159,0.16403 0,0.0317 0,0.0635 -0.005,0.0952 0,0.0318 -0.005,0.0582 -0.0106,0.0847 l -0.19049,1.24877 c -0.0212,0.12699 -0.037,0.25928 -0.0529,0.38098 -0.0159,0.12699 -0.0212,0.23811 -0.0212,0.33336 0,0.10053 0.005,0.17461 0.0159,0.23811 0.0159,0.0582 0.037,0.0899 0.0688,0.0899 0.0741,0 0.16932,-0.0317 0.28574,-0.0952 0.11641,-0.0582 0.23282,-0.14287 0.35981,-0.2487 0.12699,-0.10582 0.25399,-0.23282 0.38098,-0.38098 0.12699,-0.14816 0.24341,-0.3069 0.34394,-0.47622 0.10054,-0.16933 0.17991,-0.34923 0.24341,-0.53443 0.0635,-0.19049 0.0952,-0.38098 0.0952,-0.57147 0,-0.0847 -0.0159,-0.14816 -0.0529,-0.19049 -0.037,-0.0476 -0.09,-0.0688 -0.16404,-0.0688 -0.10053,0 -0.19049,0.037 -0.26986,0.11111 -0.0794,0.0741 -0.16403,0.17462 -0.25398,0.29632 l -0.19579,-0.17461 c 0.0529,-0.0847 0.12171,-0.16404 0.19579,-0.23812 0.0741,-0.0794 0.15345,-0.14286 0.23811,-0.20107 0.0847,-0.0582 0.16932,-0.10583 0.25928,-0.13758 0.09,-0.037 0.17461,-0.0529 0.26457,-0.0529 z"
       id="path2794" />
    <path
       style="fill:#000000;fill-opacity:1;fill-rule:evenodd;stroke:none;stroke-width:0.264583"
       d="m 106.34697,134.00745 0.86778,0.74609 v 0.20107 l -0.86778,0.75138 -0.1852,-0.20636 0.55559,-0.48152 h -2.10597 v -0.32277 h 2.10597 l -0.55559,-0.48152 z"
       id="path2796" />
    <path
       style="fill:#000000;fill-opacity:1;fill-rule:evenodd;stroke:none;stroke-width:0.264583"
       d="m 108.7228,137.75905 h 0.15874 c -0.005,0.0952 -0.0106,0.17991 -0.0106,0.2487 0,0.0741 0,0.14816 -0.005,0.21694 0,0.0688 0,0.13758 0,0.20108 v 1.91548 c 0,0.0529 0,0.10054 0.005,0.13758 0.005,0.037 0.0106,0.0688 0.0159,0.0952 0.0106,0.0265 0.0212,0.0476 0.0318,0.0688 0.0106,0.0159 0.0265,0.0317 0.0423,0.0476 0.0212,0.0212 0.0476,0.037 0.0847,0.0476 0.0317,0.0106 0.0741,0.0159 0.12699,0.0265 0.0529,0.005 0.11112,0.0106 0.1852,0.0159 0.0741,0.005 0.16403,0.0106 0.26457,0.0106 v 0.21694 h -2.00015 v -0.21694 c 0.10054,-0.005 0.1852,-0.0106 0.25399,-0.0106 0.0688,-0.005 0.12699,-0.0106 0.17461,-0.0212 0.0476,-0.005 0.09,-0.0159 0.11641,-0.0212 0.0318,-0.0106 0.0582,-0.0212 0.0794,-0.037 0.0212,-0.0159 0.0423,-0.0318 0.0582,-0.0476 0.0212,-0.0159 0.0318,-0.0423 0.0423,-0.0688 0.0106,-0.0265 0.0159,-0.0582 0.0265,-0.0952 0.005,-0.0423 0.005,-0.0899 0.005,-0.14816 v -1.80437 c 0,-0.0688 -0.0106,-0.11112 -0.037,-0.13757 -0.0265,-0.0318 -0.0635,-0.0423 -0.10583,-0.0423 -0.0529,0 -0.13228,0.0265 -0.23282,0.0794 -0.10583,0.0529 -0.23811,0.13228 -0.40215,0.23811 -0.0212,-0.037 -0.0423,-0.0741 -0.0582,-0.11112 -0.0212,-0.0423 -0.037,-0.0794 -0.0582,-0.1217 0.20637,-0.11112 0.41273,-0.22753 0.6191,-0.33865 0.20636,-0.11641 0.41273,-0.22753 0.61909,-0.34394 z"
       id="path2798" />
    <path
       style="fill:#000000;fill-opacity:1;fill-rule:evenodd;stroke:none;stroke-width:0.264583"
       d="m 92.896242,145.82313 c 0.164032,0 0.285735,0.0476 0.359815,0.13229 0.07408,0.0847 0.111117,0.20107 0.111117,0.34923 0,0.10583 -0.02116,0.23282 -0.05821,0.37569 -0.04233,0.14287 -0.09524,0.29632 -0.169323,0.45506 -0.06879,0.15874 -0.15345,0.31748 -0.253987,0.4868 -0.100536,0.16933 -0.206364,0.32807 -0.328067,0.48681 -0.116409,0.15874 -0.248695,0.30691 -0.380979,0.44448 -0.137578,0.13758 -0.280445,0.25928 -0.423312,0.36511 -0.148159,0.10582 -0.296318,0.18519 -0.444476,0.24869 -0.153451,0.0582 -0.30161,0.0899 -0.449768,0.0899 -0.06879,0 -0.126995,-0.0159 -0.169326,-0.0529 -0.04762,-0.0317 -0.07937,-0.0794 -0.111119,-0.13757 -0.02646,-0.0635 -0.04762,-0.13229 -0.05821,-0.21695 -0.01058,-0.0847 -0.01587,-0.17462 -0.01587,-0.27515 0,-0.127 0.01058,-0.26986 0.02645,-0.41802 0.01588,-0.14816 0.03704,-0.30161 0.05821,-0.45506 l 0.148159,-0.95245 c 0.0053,-0.0582 0.01587,-0.11112 0.02117,-0.15875 0.0053,-0.0476 0.01058,-0.0847 0.01058,-0.11111 0,-0.0688 -0.01587,-0.127 -0.03704,-0.17462 -0.02117,-0.0476 -0.0635,-0.0688 -0.116411,-0.0688 -0.04233,0 -0.08995,0.0159 -0.142867,0.0423 -0.04762,0.0265 -0.100537,0.0582 -0.153451,0.10054 -0.05291,0.0423 -0.100536,0.0847 -0.148159,0.13228 -0.04762,0.0476 -0.09524,0.0899 -0.137575,0.13228 l -0.164028,-0.19048 c 0.06879,-0.0741 0.148159,-0.14816 0.227531,-0.22224 0.07937,-0.0741 0.164031,-0.13758 0.253987,-0.19578 0.08995,-0.0582 0.185198,-0.10583 0.285734,-0.14287 0.09525,-0.037 0.201073,-0.0529 0.301609,-0.0529 0.08995,0 0.158742,0.0159 0.216948,0.0423 0.05291,0.0318 0.09524,0.0688 0.126992,0.11641 0.03175,0.0476 0.05291,0.0952 0.0635,0.15345 0.01058,0.0582 0.01588,0.11112 0.01588,0.16933 0,0.0318 0,0.0635 0,0.09 -0.0053,0.0317 -0.0053,0.0582 -0.01058,0.0847 l -0.195781,1.24877 c -0.02117,0.13228 -0.03704,0.25928 -0.05291,0.38627 -0.01058,0.12699 -0.01587,0.23811 -0.01587,0.33336 0,0.0952 0.0053,0.17461 0.01587,0.23282 0.01058,0.0635 0.03175,0.0899 0.0635,0.0899 0.07937,0 0.174615,-0.0317 0.285735,-0.0899 0.116411,-0.0635 0.238111,-0.14287 0.365106,-0.25399 0.126992,-0.10583 0.253987,-0.23282 0.380979,-0.37569 0.126995,-0.14816 0.238114,-0.3069 0.338651,-0.47622 0.100536,-0.16933 0.185197,-0.34924 0.248695,-0.53973 0.0635,-0.19049 0.09524,-0.37568 0.09524,-0.57147 0,-0.0794 -0.02117,-0.14287 -0.05291,-0.19049 -0.03704,-0.0423 -0.09524,-0.0688 -0.169325,-0.0688 -0.09524,0 -0.185198,0.0423 -0.269859,0.11641 -0.07937,0.0741 -0.164034,0.16933 -0.248698,0.29103 l -0.201073,-0.17462 c 0.05821,-0.0794 0.121703,-0.15874 0.195784,-0.23811 0.07408,-0.0741 0.153451,-0.14287 0.238112,-0.20107 0.08466,-0.0582 0.174614,-0.10054 0.259278,-0.13758 0.08995,-0.0317 0.179906,-0.0529 0.26457,-0.0529 z"
       id="path2800" />
    <path
       style="fill:#000000;fill-opacity:1;fill-rule:evenodd;stroke:none;stroke-width:0.264583"
       d="m 92.547008,143.63249 0.867789,0.75138 v 0.20108 l -0.867789,0.74608 -0.179906,-0.20636 0.550305,-0.48152 h -2.105973 v -0.32277 h 2.105973 l -0.550305,-0.48152 z"
       id="path2802" />
    <path
       style="fill:#000000;fill-opacity:1;fill-rule:evenodd;stroke:none;stroke-width:0.264583"
       d="m 94.901678,147.37351 c 0.174617,0 0.322776,0.0159 0.444477,0.0582 0.126994,0.037 0.227531,0.0899 0.301611,0.15874 0.07937,0.0688 0.137576,0.14816 0.169323,0.2434 0.03704,0.0953 0.05291,0.19579 0.05291,0.30691 0,0.0635 -0.0053,0.1217 -0.01587,0.1799 -0.01058,0.0582 -0.02646,0.11112 -0.04762,0.16933 -0.02116,0.0529 -0.05291,0.10583 -0.08995,0.16403 -0.03704,0.0529 -0.08466,0.11112 -0.137576,0.17462 -0.04233,0.0529 -0.09524,0.11641 -0.164033,0.1852 -0.06879,0.0741 -0.142868,0.14815 -0.22224,0.22752 -0.07937,0.0847 -0.164031,0.16404 -0.248695,0.25399 -0.08995,0.0847 -0.174614,0.17462 -0.253987,0.25928 -0.08466,0.0847 -0.158742,0.16932 -0.227528,0.24869 -0.06879,0.0794 -0.126995,0.15345 -0.169326,0.22224 h 0.931286 c 0.07937,0 0.142867,0 0.19049,-0.0106 0.04762,-0.005 0.08466,-0.0159 0.116411,-0.037 0.03175,-0.0212 0.05821,-0.0529 0.07937,-0.09 0.02117,-0.0423 0.04762,-0.10053 0.07408,-0.16932 h 0.238112 c -0.01058,0.11641 -0.01588,0.23811 -0.02646,0.35981 -0.0053,0.12171 -0.01587,0.23811 -0.02117,0.35982 h -2.137722 v -0.13229 c 0.04233,-0.09 0.08995,-0.1799 0.142867,-0.26986 0.05291,-0.0847 0.111119,-0.17461 0.179908,-0.26457 0.06879,-0.0952 0.142867,-0.1852 0.227529,-0.28573 0.08995,-0.0952 0.1852,-0.19579 0.285737,-0.30161 0.158742,-0.15345 0.285734,-0.29103 0.38627,-0.40215 0.100536,-0.11112 0.179909,-0.21165 0.238112,-0.30161 0.05291,-0.0847 0.09525,-0.16403 0.116411,-0.23811 0.02117,-0.0741 0.03175,-0.15345 0.03175,-0.23811 0,-0.0847 -0.01587,-0.16404 -0.03704,-0.23812 -0.02645,-0.0741 -0.05821,-0.13228 -0.105828,-0.18519 -0.04762,-0.0476 -0.100536,-0.0899 -0.174614,-0.11642 -0.06879,-0.0265 -0.148159,-0.0423 -0.238114,-0.0423 -0.15874,0 -0.291026,0.0423 -0.396854,0.127 -0.105828,0.0847 -0.185198,0.20636 -0.243404,0.37039 h -0.333356 v -0.4921 c 0.216945,-0.0899 0.412726,-0.15345 0.597926,-0.19578 0.179907,-0.0423 0.338649,-0.0582 0.486807,-0.0582 z"
       id="path2804" />
  </g>
</svg>
