<?xml version="1.0" encoding="UTF-8" standalone="no"?>
<svg
   xmlns:dc="http://purl.org/dc/elements/1.1/"
   xmlns:cc="http://creativecommons.org/ns#"
   xmlns:rdf="http://www.w3.org/1999/02/22-rdf-syntax-ns#"
   xmlns:svg="http://www.w3.org/2000/svg"
   xmlns="http://www.w3.org/2000/svg"
   id="svg53"
   version="1.1"
   viewBox="0 0 740.58771 441.6926"
   width="740.58771"
   height="441.6926">
  <metadata
     id="metadata59">
    <rdf:RDF>
      <cc:Work
         rdf:about="">
        <dc:format>image/svg+xml</dc:format>
        <dc:type
           rdf:resource="http://purl.org/dc/dcmitype/StillImage" />
        <dc:title></dc:title>
      </cc:Work>
    </rdf:RDF>
  </metadata>
  <defs
     id="defs57">
    <marker
       style="overflow:visible"
       id="Arrow1Mstart"
       refX="0"
       refY="0"
       orient="auto">
      <path
         transform="matrix(0.4,0,0,0.4,4,0)"
         style="fill:#000000;fill-opacity:1;fill-rule:evenodd;stroke:#000000;stroke-width:1pt;stroke-opacity:1"
         d="M 0,0 5,-5 -12.5,0 5,5 Z"
         id="path913" />
    </marker>
    <marker
       style="overflow:visible"
       id="Arrow1Mend"
       refX="0"
       refY="0"
       orient="auto">
      <path
         transform="matrix(-0.4,0,0,-0.4,-4,0)"
         style="fill:#000000;fill-opacity:1;fill-rule:evenodd;stroke:#000000;stroke-width:1pt;stroke-opacity:1"
         d="M 0,0 5,-5 -12.5,0 5,5 Z"
         id="path916" />
    </marker>
    <rect
       id="rect1231"
       height="390.76245"
       width="132.7957"
       y="-5.0830889"
       x="-164.565" />
    <marker
       style="overflow:visible"
       id="Arrow2Mend"
       refX="0"
       refY="0"
       orient="auto">
      <path
         transform="scale(-0.6)"
         d="M 8.7185878,4.0337352 -2.2072895,0.01601326 8.7185884,-4.0017078 c -1.7454984,2.3720609 -1.7354408,5.6174519 -6e-7,8.035443 z"
         style="fill:#000000;fill-opacity:1;fill-rule:evenodd;stroke:#000000;stroke-width:0.625;stroke-linejoin:round;stroke-opacity:1"
         id="path934" />
    </marker>
    <marker
       style="overflow:visible"
       id="Arrow2Lend"
       refX="0"
       refY="0"
       orient="auto">
      <path
         transform="matrix(-1.1,0,0,-1.1,-1.1,0)"
         d="M 8.7185878,4.0337352 -2.2072895,0.01601326 8.7185884,-4.0017078 c -1.7454984,2.3720609 -1.7354408,5.6174519 -6e-7,8.035443 z"
         style="fill:#000000;fill-opacity:1;fill-rule:evenodd;stroke:#000000;stroke-width:0.625;stroke-linejoin:round;stroke-opacity:1"
         id="path928" />
    </marker>
    <marker
       style="overflow:visible"
       id="Arrow1Lend"
       refX="0"
       refY="0"
       orient="auto">
      <path
         transform="matrix(-0.8,0,0,-0.8,-10,0)"
         style="fill:#000000;fill-opacity:1;fill-rule:evenodd;stroke:#000000;stroke-width:1pt;stroke-opacity:1"
         d="M 0,0 5,-5 -12.5,0 5,5 Z"
         id="path910" />
    </marker>
  </defs>
  <clipPath
     id="box">
    <rect
       id="rect2"
       style="fill:none;stroke:none"
       height="400"
       width="650"
       y="0"
       x="0" />
  </clipPath>
  <rect
     x="64.425873"
     y="7.5861921"
     width="650"
     height="400"
     style="fill:#ffffff;stroke:none"
     id="rect5" />
  <path
     d="M 64.425869,407.58619 H 714.42587 m -650.000001,-67 H 714.42587 m -650.000001,-67 H 714.42587 m -650.000001,-66 H 714.42587 m -650.000001,-67 H 714.42587 M 64.425869,73.586192 H 714.42587 m -650.000001,-66 H 714.42587 m -650.000001,0 V 407.58619 M 125.42587,7.586192 V 407.58619 m 62,-399.999998 V 407.58619 m 62,-399.999998 V 407.58619 m 62,-399.999998 V 407.58619 m 62,-399.999998 V 407.58619 m 62,-399.999998 V 407.58619 m 62,-399.999998 V 407.58619 m 62,-399.999998 V 407.58619 m 62,-399.999998 V 407.58619 m 62,-399.999998 V 407.58619"
     style="fill:#f80000;fill-opacity:1;stroke:#d0d0d0;stroke-width:1"
     id="path7" />
  <path
     d="M 64.425869,7.586192 V 407.58619"
     style="fill:none;stroke:#000000;stroke-width:2.83465;stroke-miterlimit:4;stroke-dasharray:none;marker-start:url(#Arrow1Mstart)"
     id="path9" />
  <path
     d="m 57.925869,407.58619 h 13 m -13,-66.67 h 13 m -13,-66.66 h 13 m -13,-66.67 h 13 m -13,-66.67 h 13 m -13,-66.659998 h 13 m -13,-66.67 h 13"
     style="fill:none;stroke:#000000;stroke-width:1"
     id="path11" />
  <path
     d="M 64.425869,407.58619 H 714.42587"
     style="fill:none;stroke:#000000;stroke-width:2.83465;stroke-miterlimit:4;stroke-dasharray:none;marker-end:url(#Arrow2Mend)"
     id="path13" />
  <path
     d="m 64.425869,401.08619 v 13 m 61.900001,-13 v 13 m 61.91,-13 v 13 m 61.9,-13 v 13 m 61.91,-13 v 13 m 61.9,-13 v 13 m 61.91,-13 v 13 m 61.9,-13 v 13 m 61.91,-13 v 13 m 61.9,-13 v 13 m 61.91,-13 v 13"
     style="fill:none;stroke:#000000;stroke-width:1"
     id="path15" />
  <text
     x="35.698475"
     y="347.86725"
     text-anchor="start"
     style="font-style:normal;font-variant:normal;font-weight:normal;font-stretch:normal;font-size:18.6667px;line-height:normal;font-family:'Droid Sans', 'Trebuchet MS', Arial, Helvetica, sans-serif;-inkscape-font-specification:'Droid Sans, Trebuchet MS, Arial, Helvetica, sans-serif, Normal';font-variant-ligatures:normal;font-variant-caps:normal;font-variant-numeric:normal;font-variant-east-asian:normal;fill:#000000;stroke:none"
     id="text17">5</text>
  <text
     x="35.698475"
     y="281.20056"
     text-anchor="start"
     style="font-style:normal;font-variant:normal;font-weight:normal;font-stretch:normal;font-size:18.6667px;line-height:normal;font-family:'Droid Sans', 'Trebuchet MS', Arial, Helvetica, sans-serif;-inkscape-font-specification:'Droid Sans, Trebuchet MS, Arial, Helvetica, sans-serif, Normal';font-variant-ligatures:normal;font-variant-caps:normal;font-variant-numeric:normal;font-variant-east-asian:normal;fill:#000000;stroke:none"
     id="text19">10</text>
  <text
     x="35.698475"
     y="214.53389"
     text-anchor="start"
     style="font-style:normal;font-variant:normal;font-weight:normal;font-stretch:normal;font-size:18.6667px;line-height:normal;font-family:'Droid Sans', 'Trebuchet MS', Arial, Helvetica, sans-serif;-inkscape-font-specification:'Droid Sans, Trebuchet MS, Arial, Helvetica, sans-serif, Normal';font-variant-ligatures:normal;font-variant-caps:normal;font-variant-numeric:normal;font-variant-east-asian:normal;fill:#000000;stroke:none"
     id="text21">15</text>
  <text
     x="35.698475"
     y="147.86722"
     text-anchor="start"
     style="font-style:normal;font-variant:normal;font-weight:normal;font-stretch:normal;font-size:18.6667px;line-height:normal;font-family:'Droid Sans', 'Trebuchet MS', Arial, Helvetica, sans-serif;-inkscape-font-specification:'Droid Sans, Trebuchet MS, Arial, Helvetica, sans-serif, Normal';font-variant-ligatures:normal;font-variant-caps:normal;font-variant-numeric:normal;font-variant-east-asian:normal;fill:#000000;stroke:none"
     id="text23">20</text>
  <text
     x="35.698475"
     y="81.200562"
     text-anchor="start"
     style="font-style:normal;font-variant:normal;font-weight:normal;font-stretch:normal;font-size:18.6667px;line-height:normal;font-family:'Droid Sans', 'Trebuchet MS', Arial, Helvetica, sans-serif;-inkscape-font-specification:'Droid Sans, Trebuchet MS, Arial, Helvetica, sans-serif, Normal';font-variant-ligatures:normal;font-variant-caps:normal;font-variant-numeric:normal;font-variant-east-asian:normal;fill:#000000;stroke:none"
     id="text25">25</text>
  <text
     x="126.33064"
     y="428.9805"
     text-anchor="middle"
     style="font-style:normal;font-variant:normal;font-weight:normal;font-stretch:normal;font-size:18.6667px;line-height:normal;font-family:'Droid Sans', 'Trebuchet MS', Arial, Helvetica, sans-serif;-inkscape-font-specification:'Droid Sans, Trebuchet MS, Arial, Helvetica, sans-serif, Normal';font-variant-ligatures:normal;font-variant-caps:normal;font-variant-numeric:normal;font-variant-east-asian:normal;fill:#000000;stroke:none"
     id="text27">0.1</text>
  <text
     x="188.23538"
     y="428.9805"
     text-anchor="middle"
     style="font-style:normal;font-variant:normal;font-weight:normal;font-stretch:normal;font-size:18.6667px;line-height:normal;font-family:'Droid Sans', 'Trebuchet MS', Arial, Helvetica, sans-serif;-inkscape-font-specification:'Droid Sans, Trebuchet MS, Arial, Helvetica, sans-serif, Normal';font-variant-ligatures:normal;font-variant-caps:normal;font-variant-numeric:normal;font-variant-east-asian:normal;fill:#000000;stroke:none"
     id="text29">0.2</text>
  <text
     x="250.14015"
     y="428.9805"
     text-anchor="middle"
     style="font-style:normal;font-variant:normal;font-weight:normal;font-stretch:normal;font-size:18.6667px;line-height:normal;font-family:'Droid Sans', 'Trebuchet MS', Arial, Helvetica, sans-serif;-inkscape-font-specification:'Droid Sans, Trebuchet MS, Arial, Helvetica, sans-serif, Normal';font-variant-ligatures:normal;font-variant-caps:normal;font-variant-numeric:normal;font-variant-east-asian:normal;fill:#000000;stroke:none"
     id="text31">0.3</text>
  <text
     x="312.04492"
     y="428.9805"
     text-anchor="middle"
     style="font-style:normal;font-variant:normal;font-weight:normal;font-stretch:normal;font-size:18.6667px;line-height:normal;font-family:'Droid Sans', 'Trebuchet MS', Arial, Helvetica, sans-serif;-inkscape-font-specification:'Droid Sans, Trebuchet MS, Arial, Helvetica, sans-serif, Normal';font-variant-ligatures:normal;font-variant-caps:normal;font-variant-numeric:normal;font-variant-east-asian:normal;fill:#000000;stroke:none"
     id="text33">0.4</text>
  <text
     x="373.94968"
     y="428.9805"
     text-anchor="middle"
     style="font-style:normal;font-variant:normal;font-weight:normal;font-stretch:normal;font-size:18.6667px;line-height:normal;font-family:'Droid Sans', 'Trebuchet MS', Arial, Helvetica, sans-serif;-inkscape-font-specification:'Droid Sans, Trebuchet MS, Arial, Helvetica, sans-serif, Normal';font-variant-ligatures:normal;font-variant-caps:normal;font-variant-numeric:normal;font-variant-east-asian:normal;fill:#000000;stroke:none"
     id="text35">0.5</text>
  <text
     x="435.85443"
     y="428.9805"
     text-anchor="middle"
     style="font-style:normal;font-variant:normal;font-weight:normal;font-stretch:normal;font-size:18.6667px;line-height:normal;font-family:'Droid Sans', 'Trebuchet MS', Arial, Helvetica, sans-serif;-inkscape-font-specification:'Droid Sans, Trebuchet MS, Arial, Helvetica, sans-serif, Normal';font-variant-ligatures:normal;font-variant-caps:normal;font-variant-numeric:normal;font-variant-east-asian:normal;fill:#000000;stroke:none"
     id="text37">0.6</text>
  <text
     x="497.75922"
     y="428.9805"
     text-anchor="middle"
     style="font-style:normal;font-variant:normal;font-weight:normal;font-stretch:normal;font-size:18.6667px;line-height:normal;font-family:'Droid Sans', 'Trebuchet MS', Arial, Helvetica, sans-serif;-inkscape-font-specification:'Droid Sans, Trebuchet MS, Arial, Helvetica, sans-serif, Normal';font-variant-ligatures:normal;font-variant-caps:normal;font-variant-numeric:normal;font-variant-east-asian:normal;fill:#000000;stroke:none"
     id="text39">0.7</text>
  <text
     x="559.66394"
     y="428.9805"
     text-anchor="middle"
     style="font-style:normal;font-variant:normal;font-weight:normal;font-stretch:normal;font-size:18.6667px;line-height:normal;font-family:'Droid Sans', 'Trebuchet MS', Arial, Helvetica, sans-serif;-inkscape-font-specification:'Droid Sans, Trebuchet MS, Arial, Helvetica, sans-serif, Normal';font-variant-ligatures:normal;font-variant-caps:normal;font-variant-numeric:normal;font-variant-east-asian:normal;fill:#000000;stroke:none"
     id="text41">0.8</text>
  <text
     x="621.56873"
     y="428.9805"
     text-anchor="middle"
     style="font-style:normal;font-variant:normal;font-weight:normal;font-stretch:normal;font-size:18.6667px;line-height:normal;font-family:'Droid Sans', 'Trebuchet MS', Arial, Helvetica, sans-serif;-inkscape-font-specification:'Droid Sans, Trebuchet MS, Arial, Helvetica, sans-serif, Normal';font-variant-ligatures:normal;font-variant-caps:normal;font-variant-numeric:normal;font-variant-east-asian:normal;fill:#000000;stroke:none"
     id="text43">0.9</text>
  <text
     x="683.47345"
     y="428.9805"
     text-anchor="middle"
     style="font-style:normal;font-variant:normal;font-weight:normal;font-stretch:normal;font-size:18.6667px;line-height:normal;font-family:'Droid Sans', 'Trebuchet MS', Arial, Helvetica, sans-serif;-inkscape-font-specification:'Droid Sans, Trebuchet MS, Arial, Helvetica, sans-serif, Normal';font-variant-ligatures:normal;font-variant-caps:normal;font-variant-numeric:normal;font-variant-east-asian:normal;fill:#000000;stroke:none"
     id="text45">1</text>
  <path
     d="m 115.89587,7.586192 v 0 l 0.13,1 0.13,1 0.13,0.99 0.13,1 0.13,0.99 0.13,1 0.13,0.99 0.13,1 0.14,0.99 0.13,1 0.14,0.99 0.13,1 0.14,0.99 0.14,0.99 0.13,1 0.14,0.99 0.14,1 0.14,0.99 0.14,1 0.14,0.99 0.14,1 0.15,0.99 0.14,1 0.15,0.99 0.14,1 0.15,0.99 0.14,1 0.15,0.99 0.15,1 0.15,0.99 0.15,1 0.15,0.99 0.15,0.99 0.15,1 0.16,0.99 0.15,1 0.15,0.99 0.16,1 0.16,0.99 0.15,1 0.16,0.99 0.16,1 0.16,0.99 0.16,0.99 0.16,1 0.17,0.99 0.16,1 0.16,0.99 0.17,1 0.17,0.99 0.16,1 0.17,0.99 0.17,0.99 0.17,1 0.17,0.99 0.18,1 0.17,0.99 0.17,1 0.18,0.99 0.17,0.99 0.18,1 0.18,0.99 0.18,1 0.18,0.99 0.18,0.99 0.18,1 0.19,0.99 0.18,1 0.19,0.99 0.18,0.99 0.19,1 0.19,0.99 0.19,1 0.19,0.99 0.2,0.99 0.19,1 0.19,0.99 0.2,1 0.2,0.99 0.2,0.99 0.2,1 0.2,0.99 0.2,1 0.2,0.99 0.21,0.99 0.21,1 0.2,0.99 0.21,0.99 0.21,1 0.21,0.99 0.22,0.99 0.21,1 0.22,0.989998 0.21,1 0.22,0.99 0.22,0.99 0.22,1 0.22,0.99 0.23,0.99 0.22,1 0.23,0.99 0.23,0.99 0.23,1 0.23,0.99 0.24,0.99 0.23,1 0.24,0.99 0.23,0.99 0.24,1 0.25,0.99 0.24,0.99 0.24,1 0.25,0.99 0.25,0.99 0.25,1 0.25,0.99 0.25,0.99 0.26,0.99 0.25,1 0.26,0.99 0.26,0.99 0.26,1 0.27,0.99 0.26,0.99 0.27,0.99 0.27,1 0.27,0.99 0.28,0.99 0.27,1 0.28,0.99 0.28,0.99 0.28,0.99 0.29,1 0.28,0.99 0.29,0.99 0.29,0.99 0.29,1 0.3,0.99 0.3,0.99 0.29,0.99 0.31,1 0.3,0.99 0.31,0.99 0.3,0.99 0.31,1 0.32,0.99 0.31,0.99 0.32,0.99 0.32,1 0.33,0.99 0.32,0.99 0.33,0.99 0.33,0.99 0.33,1 0.34,0.99 0.34,0.99 0.34,0.99 0.34,0.99 0.35,1 0.35,0.99 0.36,0.99 0.35,0.99 0.36,0.99 0.36,0.99 0.37,1 0.36,0.99 0.38,0.99 0.37,0.99 0.38,0.99 0.38,0.99 0.38,0.99 0.39,1 0.39,0.99 0.39,0.99 0.4,0.99 0.4,0.99 0.41,0.99 0.4,0.99 0.42,1 0.41,0.99 0.42,0.99 0.42,0.99 0.43,0.99 0.43,0.99 0.43,0.99 0.44,0.99 0.44,0.99 0.45,0.99 0.45,0.99 0.46,1 0.46,0.99 0.46,0.99 0.47,0.99 0.47,0.99 0.48,0.99 0.48,0.99 0.48,0.99 0.49,0.99 0.5,0.99 0.5,0.99 0.51,0.99 0.51,0.99 0.51,0.99 0.52,0.99 0.53,0.99 0.53,0.99 0.53,0.99 0.55,0.99 0.54,0.99 0.56,0.99 0.56,0.99 0.56,0.99 0.57,0.99 0.58,0.99 0.58,0.99 0.59,0.99 0.59,0.99 0.6,0.99 0.61,0.99 0.62,0.98 0.62,0.99 0.63,0.99 0.63,0.99 0.64,0.99 0.65,0.99 0.66,0.99 0.66,0.99 0.67,0.99 0.68,0.98 0.69,0.99 0.69,0.99 0.7,0.99 0.72,0.99 0.71,0.99 0.73,0.99 0.74,0.98 0.74,0.99 0.76,0.99 0.76,0.99 0.77,0.99 0.78,0.98 0.8,0.99 0.8,0.99 0.81,0.99 0.82,0.98 0.83,0.99 0.84,0.99 0.85,0.99 0.87,0.98 0.87,0.99 0.89,0.99 0.9,0.99 0.91,0.98 0.92,0.99 0.93,0.99 0.95,0.98 0.96,0.99 0.97,0.99 0.99,0.98 1,0.99 1.01,0.98 1.03,0.99 1.04,0.99 1.06,0.98 1.07,0.99 1.08,0.98 1.11,0.99 1.12,0.99 1.13,0.98 1.15,0.99 1.17,0.98 1.19,0.99 1.2,0.98 1.23,0.99 1.24,0.98 1.26,0.99 1.28,0.98 1.3,0.98 1.32,0.99 1.35,0.98 1.36,0.99 1.39,0.98 1.41,0.98 1.43,0.99 1.46,0.98 1.48,0.99 1.5,0.98 1.53,0.98 1.56,0.98 1.59,0.99 1.61,0.98 1.64,0.98 1.67,0.98 1.7,0.99 1.73,0.98 1.76,0.98 1.79,0.98 1.83,0.98 1.86,0.99 1.9,0.98 1.94,0.98 1.97,0.98 2,0.98 2,0.95 2,0.94 2,0.92 2,0.91 2,0.89 2,0.87 2,0.85 2,0.84 2,0.83 2,0.81 2,0.79 2,0.79 2,0.77 2,0.75 2,0.75 2,0.73 2,0.72 2,0.7 2,0.7 2,0.68 2,0.67 2,0.67 2,0.65 2,0.64 2,0.63 2,0.62 2,0.61 2,0.61 2,0.59 2,0.58 2,0.58 2,0.57 2,0.56 2,0.55 2,0.54 2,0.54 2,0.52 2,0.52 2,0.52 2,0.5 2,0.5 2,0.49 2,0.49 2,0.48 2,0.47 2,0.46 2,0.46 2,0.46 2,0.44 2,0.44 2,0.44 2,0.43 2,0.43 2,0.41 2,0.42 2,0.41 2,0.4 2,0.4 2,0.39 2,0.39 2,0.39 2,0.38 2,0.37 2,0.37 2,0.37 2,0.36 2,0.36 2,0.35 2,0.35 2,0.34 2,0.35 2,0.33 2,0.34 2,0.33 2,0.32 2,0.32 2,0.32 2,0.32 2,0.31 2,0.31 2,0.3 2,0.31 2,0.29 2,0.3 2,0.29 2,0.29 2,0.29 2,0.28 2,0.28 2,0.28 2,0.27 2,0.27 2,0.27 2,0.27 2,0.26 2,0.26 2,0.26 2,0.26 2,0.25 2,0.25 2,0.25 2,0.24 2,0.25 2,0.24 2,0.24 2,0.23 2,0.24 2,0.23 2,0.23 2,0.23 2,0.22 2,0.23 2,0.22 2,0.22 2,0.21 2,0.22 2,0.21 2,0.21 2,0.21 2,0.21 2,0.21 2,0.2 2,0.2 2,0.2 2,0.2 2,0.2 2,0.19 2,0.2 2,0.19 2,0.19 2,0.19 2,0.18 2,0.19 2,0.18 2,0.18 2,0.18 2,0.18 2,0.18 2,0.18 2,0.17 2,0.18 2,0.17 2,0.17 2,0.17 2,0.17 2,0.16 2,0.17 2,0.16 2,0.16 2,0.16 2,0.16 2,0.16 2,0.16 2,0.16 2,0.15 2,0.16 2,0.15 2,0.15 2,0.15 2,0.15 2,0.15 2,0.14 2,0.15 2,0.14 2,0.15 2,0.14 2,0.14 2,0.14 2,0.14 2,0.14 2,0.14 2,0.13 2,0.14 2,0.13 2,0.14 2,0.13 2,0.13 2,0.13 2,0.13 2,0.13 2,0.13 2,0.13 2,0.12 2,0.13 2,0.12 2,0.13 2,0.12 2,0.12 2,0.12 2,0.12 2,0.12 2,0.12 2,0.12 2,0.11 2,0.12 2,0.12 2,0.11 2,0.11 2,0.12 2,0.11 2,0.11 2,0.11 2,0.11 2,0.11 2,0.11 2,0.11 2,0.11 2,0.1 2,0.11 2,0.1 2,0.11 2,0.1 2,0.1 2,0.11 2,0.1 2,0.1 2,0.1 2,0.1 2,0.1 2,0.1 2,0.1"
     style="fill:none;stroke:#0000ff;stroke-width:1.88976;stroke-miterlimit:4;stroke-dasharray:none"
     id="path47" />
  <path
     d="m 150.20587,7.586192 v 0 l 0.21,1 0.22,1 0.22,0.99 0.21,1 0.22,0.99 0.22,1 0.22,0.99 0.22,1 0.22,0.99 0.23,1 0.22,0.99 0.23,1 0.23,0.99 0.23,0.99 0.23,1 0.23,0.99 0.23,1 0.23,0.99 0.24,1 0.23,0.99 0.24,1 0.24,0.99 0.24,1 0.24,0.99 0.24,1 0.24,0.99 0.25,1 0.24,0.99 0.25,1 0.25,0.99 0.25,1 0.25,0.99 0.25,0.99 0.25,1 0.26,0.99 0.26,1 0.25,0.99 0.26,1 0.26,0.99 0.27,1 0.26,0.99 0.27,1 0.26,0.99 0.27,0.99 0.27,1 0.27,0.99 0.27,1 0.28,0.99 0.27,1 0.28,0.99 0.28,1 0.28,0.99 0.28,0.99 0.29,1 0.28,0.99 0.29,1 0.29,0.99 0.29,1 0.29,0.99 0.29,0.99 0.3,1 0.3,0.99 0.29,1 0.31,0.99 0.3,0.99 0.3,1 0.31,0.99 0.31,1 0.31,0.99 0.31,0.99 0.31,1 0.32,0.99 0.31,1 0.32,0.99 0.32,0.99 0.33,1 0.32,0.99 0.33,1 0.33,0.99 0.33,0.99 0.33,1 0.34,0.99 0.33,1 0.34,0.99 0.34,0.99 0.35,1 0.34,0.99 0.35,0.99 0.35,1 0.36,0.99 0.35,0.99 0.36,1 0.36,0.989998 0.36,1 0.36,0.99 0.37,0.99 0.37,1 0.37,0.99 0.37,0.99 0.38,1 0.38,0.99 0.38,0.99 0.38,1 0.39,0.99 0.39,0.99 0.39,1 0.39,0.99 0.4,0.99 0.4,1 0.4,0.99 0.4,0.99 0.41,1 0.41,0.99 0.42,0.99 0.41,1 0.42,0.99 0.42,0.99 0.43,0.99 0.43,1 0.43,0.99 0.43,0.99 0.44,1 0.44,0.99 0.44,0.99 0.45,0.99 0.45,1 0.45,0.99 0.46,0.99 0.46,1 0.46,0.99 0.46,0.99 0.47,0.99 0.48,1 0.47,0.99 0.48,0.99 0.49,0.99 0.49,1 0.49,0.99 0.49,0.99 0.5,0.99 0.5,1 0.51,0.99 0.51,0.99 0.51,0.99 0.52,1 0.52,0.99 0.53,0.99 0.53,0.99 0.53,1 0.54,0.99 0.55,0.99 0.54,0.99 0.55,0.99 0.56,1 0.56,0.99 0.56,0.99 0.57,0.99 0.58,0.99 0.58,1 0.58,0.99 0.59,0.99 0.59,0.99 0.6,0.99 0.6,0.99 0.61,1 0.61,0.99 0.62,0.99 0.63,0.99 0.63,0.99 0.63,0.99 0.64,0.99 0.65,1 0.65,0.99 0.65,0.99 0.66,0.99 0.67,0.99 0.68,0.99 0.68,0.99 0.68,1 0.69,0.99 0.7,0.99 0.71,0.99 0.71,0.99 0.72,0.99 0.72,0.99 0.73,0.99 0.74,0.99 0.74,0.99 0.75,0.99 0.76,1 0.77,0.99 0.77,0.99 0.78,0.99 0.79,0.99 0.79,0.99 0.8,0.99 0.81,0.99 0.82,0.99 0.83,0.99 0.83,0.99 0.84,0.99 0.85,0.99 0.86,0.99 0.87,0.99 0.88,0.99 0.88,0.99 0.89,0.99 0.91,0.99 0.91,0.99 0.92,0.99 0.93,0.99 0.94,0.99 0.95,0.99 0.96,0.99 0.98,0.99 0.98,0.99 0.99,0.99 1,0.99 1.01,0.99 1.03,0.98 1.03,0.99 1.05,0.99 1.06,0.99 1.07,0.99 1.08,0.99 1.09,0.99 1.11,0.99 1.12,0.99 1.13,0.98 1.14,0.99 1.16,0.99 1.17,0.99 1.19,0.99 1.19,0.99 1.22,0.99 1.22,0.98 1.25,0.99 1.25,0.99 1.27,0.99 1.29,0.99 1.3,0.98 1.32,0.99 1.34,0.99 1.35,0.99 1.37,0.98 1.38,0.99 1.41,0.99 1.42,0.99 1.44,0.98 1.46,0.99 1.47,0.99 1.5,0.99 1.52,0.98 1.53,0.99 1.56,0.99 1.58,0.98 1.59,0.99 1.63,0.99 1.64,0.98 1.66,0.99 1.69,0.98 1.71,0.99 1.74,0.99 1.76,0.98 1.79,0.99 1.81,0.98 1.84,0.99 1.86,0.99 1.9,0.98 1.92,0.99 1.94,0.98 1.98,0.99 2,0.98 2,0.96 2,0.96 2,0.93 2,0.93 2,0.91 2,0.9 2,0.88 2,0.87 2,0.86 2,0.85 2,0.84 2,0.82 2,0.82 2,0.8 2,0.79 2,0.78 2,0.77 2,0.76 2,0.75 2,0.74 2,0.73 2,0.72 2,0.71 2,0.71 2,0.69 2,0.69 2,0.67 2,0.67 2,0.66 2,0.65 2,0.65 2,0.63 2,0.63 2,0.62 2,0.61 2,0.61 2,0.6 2,0.59 2,0.59 2,0.57 2,0.58 2,0.56 2,0.56 2,0.55 2,0.55 2,0.54 2,0.53 2,0.53 2,0.52 2,0.52 2,0.51 2,0.51 2,0.5 2,0.49 2,0.49 2,0.48 2,0.48 2,0.48 2,0.47 2,0.46 2,0.46 2,0.45 2,0.45 2,0.45 2,0.44 2,0.44 2,0.43 2,0.43 2,0.42 2,0.42 2,0.42 2,0.41 2,0.4 2,0.41 2,0.4 2,0.39 2,0.39 2,0.39 2,0.39 2,0.38 2,0.38 2,0.37 2,0.37 2,0.37 2,0.36 2,0.36 2,0.36 2,0.35 2,0.35 2,0.35 2,0.34 2,0.34 2,0.34 2,0.34 2,0.33 2,0.33 2,0.33 2,0.32 2,0.32 2,0.32 2,0.31 2,0.32 2,0.31 2,0.3 2,0.31 2,0.3 2,0.3 2,0.3 2,0.29 2,0.29 2,0.29 2,0.29 2,0.29 2,0.28 2,0.28 2,0.28 2,0.28 2,0.27 2,0.27 2,0.27 2,0.27 2,0.26 2,0.27 2,0.26 2,0.26 2,0.25 2,0.26 2,0.25 2,0.25 2,0.25 2,0.25 2,0.25 2,0.24 2,0.24 2,0.24 2,0.24 2,0.24 2,0.23 2,0.24 2,0.23 2,0.23 2,0.23 2,0.22 2,0.23 2,0.22 2,0.22 2,0.22 2,0.22 2,0.22 2,0.21 2,0.22 2,0.21 2,0.21 2,0.21 2,0.21 2,0.2 2,0.21 2,0.2 2,0.2 2,0.21 2,0.2 2,0.19 2,0.2 2,0.2 2,0.19 2,0.19 2,0.19 2,0.19 2,0.19 2,0.19 2,0.19 2,0.18 2,0.19 2,0.18 2,0.18 2,0.18 2,0.18 2,0.18 2,0.18 2,0.17 2,0.18 2,0.17 2,0.17 2,0.18 2,0.17 2,0.17 2,0.16 2,0.17 2,0.17 2,0.16 2,0.17 2,0.16"
     style="fill:none;stroke:#ff0000;stroke-width:1.88976;stroke-miterlimit:4;stroke-dasharray:none"
     id="path49" />
  <text
     style="font-style:normal;font-weight:normal;font-size:40px;line-height:1.25;font-family:sans-serif;white-space:pre;shape-inside:url(#rect1231);fill:#000000;fill-opacity:1;stroke:none;"
     id="text1229"
     xml:space="preserve"
     transform="translate(64.425869,7.586192)" />
  <text
     id="text25-4"
     style="font-style:normal;font-variant:normal;font-weight:normal;font-stretch:normal;font-size:18.6667px;line-height:normal;font-family:'Droid Sans', 'Trebuchet MS', Arial, Helvetica, sans-serif;-inkscape-font-specification:'Droid Sans, Trebuchet MS, Arial, Helvetica, sans-serif, Normal';font-variant-ligatures:normal;font-variant-caps:normal;font-variant-numeric:normal;font-variant-east-asian:normal;fill:#000000;stroke:none"
     text-anchor="start"
     y="27.633085"
     x="2.136719"><tspan
   id="tspan1250"
   style="font-style:italic;font-variant:normal;font-weight:normal;font-stretch:normal;font-family:'Droid Sans', 'Trebuchet MS', Arial, Helvetica, sans-serif;-inkscape-font-specification:'Droid Sans, Trebuchet MS, Arial, Helvetica, sans-serif Italic'">p</tspan>/kPa</text>
  <text
     x="696.09546"
     y="439.51031"
     text-anchor="start"
     style="font-style:normal;font-variant:normal;font-weight:normal;font-stretch:normal;font-size:18.6667px;line-height:normal;font-family:'Droid Sans', 'Trebuchet MS', Arial, Helvetica, sans-serif;-inkscape-font-specification:'Droid Sans, Trebuchet MS, Arial, Helvetica, sans-serif, Normal';font-variant-ligatures:normal;font-variant-caps:normal;font-variant-numeric:normal;font-variant-east-asian:normal;fill:#000000;stroke:none"
     id="text25-4-1"><tspan
   style="font-style:italic;font-variant:normal;font-weight:normal;font-stretch:normal;font-family:'Droid Sans', 'Trebuchet MS', Arial, Helvetica, sans-serif;-inkscape-font-specification:'Droid Sans, Trebuchet MS, Arial, Helvetica, sans-serif Italic'"
   id="tspan1250-4">V</tspan>/m³</text>
  <text
     id="text25-4-1-7"
     style="font-style:normal;font-variant:normal;font-weight:normal;font-stretch:normal;font-size:18.6667px;line-height:normal;font-family:'Droid Sans', 'Trebuchet MS', Arial, Helvetica, sans-serif;-inkscape-font-specification:'Droid Sans, Trebuchet MS, Arial, Helvetica, sans-serif, Normal';font-variant-ligatures:normal;font-variant-caps:normal;font-variant-numeric:normal;font-variant-east-asian:normal;fill:#0000ff;stroke:none"
     text-anchor="start"
     y="333.88464"
     x="180.86903"><tspan
       id="tspan1250-4-5"
       style="font-style:italic;font-variant:normal;font-weight:normal;font-stretch:normal;font-family:'Droid Sans', 'Trebuchet MS', Arial, Helvetica, sans-serif;-inkscape-font-specification:'Droid Sans, Trebuchet MS, Arial, Helvetica, sans-serif Italic';fill:#0000ff">T</tspan><tspan
       style="font-style:normal;font-variant:normal;font-weight:normal;font-stretch:normal;font-family:'Droid Sans', 'Trebuchet MS', Arial, Helvetica, sans-serif;-inkscape-font-specification:'Droid Sans, Trebuchet MS, Arial, Helvetica, sans-serif';fill:#0000ff"
       id="tspan1362"><tspan
   id="tspan1360"
   style="font-size:65%;baseline-shift:sub;fill:#0000ff">1</tspan> = 300 K</tspan></text>
  <text
     x="364.80786"
     y="275.5643"
     text-anchor="start"
     style="font-style:normal;font-variant:normal;font-weight:normal;font-stretch:normal;font-size:18.6667px;line-height:normal;font-family:'Droid Sans', 'Trebuchet MS', Arial, Helvetica, sans-serif;-inkscape-font-specification:'Droid Sans, Trebuchet MS, Arial, Helvetica, sans-serif, Normal';font-variant-ligatures:normal;font-variant-caps:normal;font-variant-numeric:normal;font-variant-east-asian:normal;fill:#ff0000;stroke:none"
     id="text25-4-1-7-1"><tspan
       style="font-style:italic;font-variant:normal;font-weight:normal;font-stretch:normal;font-family:'Droid Sans', 'Trebuchet MS', Arial, Helvetica, sans-serif;-inkscape-font-specification:'Droid Sans, Trebuchet MS, Arial, Helvetica, sans-serif Italic';fill:#ff0000"
       id="tspan1250-4-5-7">T</tspan><tspan
       id="tspan1362-6"
       style="font-style:normal;font-variant:normal;font-weight:normal;font-stretch:normal;font-family:'Droid Sans', 'Trebuchet MS', Arial, Helvetica, sans-serif;-inkscape-font-specification:'Droid Sans, Trebuchet MS, Arial, Helvetica, sans-serif';fill:#ff0000"><tspan
   style="font-size:65%;baseline-shift:sub;fill:#ff0000"
   id="tspan1360-6">2</tspan> = 500 K</tspan></text>
  <path
     style="fill:none;stroke:#00b500;stroke-width:1.9;stroke-linecap:butt;stroke-linejoin:miter;stroke-miterlimit:4;stroke-dasharray:none;stroke-opacity:1"
     d="M 65.061255,102.25872 H 716.33201"
     id="path908" />
  <text
     xml:space="preserve"
     style="font-style:normal;font-variant:normal;font-weight:normal;font-stretch:normal;font-size:18.6667px;line-height:1.25;font-family:'Droid Sans', 'Trebuchet MS', Arial, Helvetica, sans-serif;-inkscape-font-specification:'Droid Sans, Trebuchet MS, Arial, Helvetica, sans-serif, Normal';font-variant-ligatures:normal;font-variant-caps:normal;font-variant-numeric:normal;font-variant-east-asian:normal;fill:#00a800;fill-opacity:1;stroke:none;stroke-opacity:1"
     x="378.94199"
     y="92.727928"
     id="text912"><tspan
       id="tspan910"
       x="378.94199"
       y="92.727928">isobar</tspan></text>
  <text
     x="301.92877"
     y="252.6904"
     text-anchor="start"
     style="font-style:normal;font-variant:normal;font-weight:normal;font-stretch:normal;font-size:18.6667px;line-height:normal;font-family:'Droid Sans', 'Trebuchet MS', Arial, Helvetica, sans-serif;-inkscape-font-specification:'Droid Sans, Trebuchet MS, Arial, Helvetica, sans-serif, Normal';font-variant-ligatures:normal;font-variant-caps:normal;font-variant-numeric:normal;font-variant-east-asian:normal;fill:#ff0000;stroke:none"
     id="text25-4-1-7-1-2"><tspan
       id="tspan1362-6-6"
       style="font-style:normal;font-variant:normal;font-weight:normal;font-stretch:normal;font-family:'Droid Sans', 'Trebuchet MS', Arial, Helvetica, sans-serif;-inkscape-font-specification:'Droid Sans, Trebuchet MS, Arial, Helvetica, sans-serif';fill:#ff0000">isotherm</tspan></text>
  <text
     x="142.96777"
     y="292.04028"
     text-anchor="start"
     style="font-style:normal;font-variant:normal;font-weight:normal;font-stretch:normal;font-size:18.6667px;line-height:normal;font-family:'Droid Sans', 'Trebuchet MS', Arial, Helvetica, sans-serif;-inkscape-font-specification:'Droid Sans, Trebuchet MS, Arial, Helvetica, sans-serif, Normal';font-variant-ligatures:normal;font-variant-caps:normal;font-variant-numeric:normal;font-variant-east-asian:normal;fill:#0505ff;fill-opacity:1;stroke:none"
     id="text25-4-1-7-1-2-1"><tspan
       id="tspan1362-6-6-5"
       style="font-style:normal;font-variant:normal;font-weight:normal;font-stretch:normal;font-family:'Droid Sans', 'Trebuchet MS', Arial, Helvetica, sans-serif;-inkscape-font-specification:'Droid Sans, Trebuchet MS, Arial, Helvetica, sans-serif';fill:#0505ff;fill-opacity:1">isotherm</tspan></text>
  <path
     style="fill:none;stroke:#ec46ca;stroke-width:1.9;stroke-linecap:butt;stroke-linejoin:miter;stroke-miterlimit:4;stroke-dasharray:none;stroke-opacity:1"
     d="M 575.27629,7.586192 V 407.87943"
     id="path970" />
  <text
     x="584.56116"
     y="196.73239"
     text-anchor="start"
     style="font-style:normal;font-variant:normal;font-weight:normal;font-stretch:normal;font-size:18.6667px;line-height:normal;font-family:'Droid Sans', 'Trebuchet MS', Arial, Helvetica, sans-serif;-inkscape-font-specification:'Droid Sans, Trebuchet MS, Arial, Helvetica, sans-serif, Normal';font-variant-ligatures:normal;font-variant-caps:normal;font-variant-numeric:normal;font-variant-east-asian:normal;fill:#bf2ca6;fill-opacity:1;stroke:none"
     id="text25-4-1-7-1-2-8"><tspan
       id="tspan1362-6-6-9"
       style="font-style:normal;font-variant:normal;font-weight:normal;font-stretch:normal;font-family:'Droid Sans', 'Trebuchet MS', Arial, Helvetica, sans-serif;-inkscape-font-specification:'Droid Sans, Trebuchet MS, Arial, Helvetica, sans-serif';fill:#bf2ca6;fill-opacity:1">isochor</tspan></text>
</svg>
