<?xml version="1.0" encoding="UTF-8" standalone="no"?>
<svg
   xmlns:dc="http://purl.org/dc/elements/1.1/"
   xmlns:cc="http://creativecommons.org/ns#"
   xmlns:rdf="http://www.w3.org/1999/02/22-rdf-syntax-ns#"
   xmlns:svg="http://www.w3.org/2000/svg"
   xmlns="http://www.w3.org/2000/svg"
   width="98.716217mm"
   height="74.533569mm"
   viewBox="0 0 98.716217 74.533569"
   version="1.1"
   id="svg8">
  <defs
     id="defs2">
    <clipPath
       clipPathUnits="userSpaceOnUse"
       id="clipEmfPath1">
      <path
         d="M 2.079892,-7.8395928 H 384.62002 V 284.14524 H 2.079892 Z"
         id="path833" />
    </clipPath>
    <pattern
       id="EMFhbasepattern"
       patternUnits="userSpaceOnUse"
       width="6"
       height="6"
       x="0"
       y="0" />
  </defs>
  <metadata
     id="metadata5">
    <rdf:RDF>
      <cc:Work
         rdf:about="">
        <dc:format>image/svg+xml</dc:format>
        <dc:type
           rdf:resource="http://purl.org/dc/dcmitype/StillImage" />
        <dc:title></dc:title>
      </cc:Work>
    </rdf:RDF>
  </metadata>
  <g
     id="layer1"
     transform="translate(-18.110646,-111.27785)">
    <path
       style="fill:none;stroke:#ff0000;stroke-width:2.07989px;stroke-linecap:butt;stroke-linejoin:miter;stroke-miterlimit:8;stroke-dasharray:none;stroke-opacity:1"
       clip-path="url(#clipEmfPath1)"
       d="M 2.079892,188.31022 H 330.00286"
       id="path839"
       transform="matrix(0.26458333,0,0,0.26458333,18.560341,110.89994)" />
    <text
       xml:space="preserve"
       style="font-style:normal;font-variant:normal;font-weight:400;font-size:7.06107px;line-height:125%;font-family:'Roboto Condensed';text-align:start;letter-spacing:0px;word-spacing:0px;text-anchor:start;fill:#000000;fill-opacity:1;stroke:none;stroke-width:0.264583"
       x="108.50031"
       y="162.96111"
       id="text845"><tspan
         x="108.50031"
         y="162.96111"
         id="tspan843"
         style="stroke-width:0.264583"><tspan
           dx="0"
           dy="0"
           style="font-style:normal;font-variant:normal;font-weight:400;font-size:7.06107px;font-family:'Roboto Condensed';fill:#ff0000;stroke-width:0.264583"
           id="tspan841">GF</tspan></tspan></text>
    <path
       style="fill:#000000;fill-opacity:1;fill-rule:nonzero;stroke:#000000;stroke-width:0.00999948px;stroke-linecap:butt;stroke-linejoin:round;stroke-miterlimit:4;stroke-dasharray:none;stroke-opacity:1"
       clip-path="url(#clipEmfPath1)"
       d="m 162.79154,35.99813 v 16.639136 h -2.07989 V 35.99813 Z m 0,22.878812 v 2.079892 h -2.07989 v -2.079892 z m 0,8.319568 v 16.639136 h -2.07989 V 67.19651 Z m 0,22.878812 v 2.079892 h -2.07989 v -2.079892 z m 0,8.319567 v 16.639141 h -2.07989 V 98.394889 Z m 0,22.878811 v 2.07989 h -2.07989 v -2.07989 z m 0,8.31957 v 16.63913 h -2.07989 v -16.63913 z m 0,22.87881 v 2.07989 h -2.07989 v -2.07989 z m 0,8.31957 v 16.63913 h -2.07989 v -16.63913 z m 0,22.87881 v 2.07989 h -2.07989 v -2.07989 z m 0,8.31957 v 16.63913 h -2.07989 v -16.63913 z m 0,22.87881 v 2.07989 h -2.07989 v -2.07989 z m 0,8.31957 v 16.63913 h -2.07989 v -16.63913 z m 0,22.87881 v 2.07989 h -2.07989 v -2.07989 z m 0,8.31957 v 16.63913 h -2.07989 v -16.63913 z m 0,22.87881 v 2.07989 h -2.07989 v -2.07989 z"
       id="path847"
       transform="matrix(0.26458333,0,0,0.26458333,18.560341,110.89994)" />
    <path
       style="fill:none;stroke:#70ad47;stroke-width:0.550305px;stroke-linecap:butt;stroke-linejoin:miter;stroke-miterlimit:8;stroke-dasharray:none;stroke-opacity:1"
       d="M 61.190439,160.51732 26.984236,140.40474"
       id="path849" />
    <path
       style="fill:none;stroke:#009ee3;stroke-width:0.550305px;stroke-linecap:butt;stroke-linejoin:miter;stroke-miterlimit:8;stroke-dasharray:none;stroke-opacity:1"
       d="M 79.17588,181.01882 61.357118,160.30038"
       id="path851" />
    <path
       style="fill:#009ee3;fill-opacity:1;fill-rule:evenodd;stroke:none;stroke-width:0.264583"
       d="m 64.510788,168.17661 c -0.211656,0 -0.410083,0.0952 -0.589989,0.28309 -0.182555,0.18785 -0.328068,0.44448 -0.439187,0.76725 -0.108474,0.32278 -0.161388,0.65084 -0.161388,0.9895 0,0.23282 0.03439,0.40479 0.103182,0.51855 0.06879,0.11376 0.171971,0.16932 0.309546,0.16932 0.198427,0 0.402146,-0.11641 0.611156,-0.34923 0.20901,-0.23282 0.404792,-0.55559 0.582054,-0.97097 0.03969,-0.23811 0.06085,-0.44977 0.06085,-0.63497 0,-0.26192 -0.03969,-0.45506 -0.116411,-0.58205 -0.07673,-0.12699 -0.198427,-0.19049 -0.359815,-0.19049 z m 0.02381,-0.2725 c 0.256632,0 0.460351,0.0794 0.605866,0.24075 0.145513,0.16139 0.227529,0.39686 0.243404,0.70905 l 0.0291,-0.003 0.452414,-0.8916 h 0.597929 l -0.0344,0.17462 c -0.285734,0.38892 -0.621736,0.8625 -1.008009,1.42603 -0.05821,0.43918 -0.08731,0.75138 -0.08731,0.93393 0,0.1508 0.01852,0.25928 0.05291,0.32542 0.03439,0.0661 0.0926,0.0979 0.171968,0.0979 0.06614,0 0.137578,-0.0265 0.219594,-0.082 0.08202,-0.0529 0.169325,-0.13758 0.26457,-0.2487 l 0.201073,0.1852 c -0.193136,0.20902 -0.362461,0.34924 -0.505328,0.42596 -0.142867,0.0794 -0.28838,0.11641 -0.44183,0.11641 -0.306901,0 -0.457706,-0.22224 -0.457706,-0.66936 0,-0.0979 0.0053,-0.20901 0.01852,-0.32806 h -0.03439 c -0.235468,0.35452 -0.460351,0.60851 -0.672007,0.7646 -0.211656,0.1561 -0.439185,0.23282 -0.679945,0.23282 -0.169323,0 -0.309546,-0.0476 -0.425955,-0.14551 -0.113766,-0.0952 -0.198427,-0.22489 -0.253987,-0.38363 -0.05556,-0.16138 -0.08202,-0.336 -0.08202,-0.52384 0,-0.41273 0.07673,-0.80165 0.232823,-1.17205 0.156096,-0.36775 0.375687,-0.65878 0.653486,-0.87043 0.277797,-0.20901 0.589989,-0.31484 0.939221,-0.31484 z"
       id="path853" />
    <path
       style="fill:#009ee3;fill-opacity:1;fill-rule:evenodd;stroke:none;stroke-width:0.264583"
       d="m 68.085123,169.43332 c 0.174615,0 0.322774,0.0185 0.447122,0.0582 0.121703,0.0397 0.22224,0.0926 0.30161,0.16139 0.07673,0.0661 0.132283,0.14816 0.166679,0.24075 0.03439,0.0952 0.05291,0.19579 0.05291,0.30691 0,0.0635 -0.0053,0.12434 -0.01588,0.18255 -0.0079,0.0556 -0.02381,0.11112 -0.04762,0.16668 -0.02117,0.0529 -0.05291,0.10847 -0.08995,0.16403 -0.03704,0.0556 -0.08202,0.11377 -0.137578,0.17726 -0.04233,0.0529 -0.09789,0.11641 -0.164031,0.1852 -0.06614,0.0714 -0.140224,0.14816 -0.219594,0.22753 -0.08202,0.082 -0.164034,0.16403 -0.251341,0.25134 -0.08731,0.0873 -0.171971,0.17462 -0.253987,0.26192 -0.08466,0.0847 -0.158742,0.16668 -0.227531,0.2487 -0.06879,0.0794 -0.126992,0.15345 -0.169323,0.22224 h 0.933929 c 0.07673,0 0.140224,-0.003 0.187847,-0.008 0.04762,-0.008 0.08731,-0.0212 0.116408,-0.0397 0.03175,-0.0212 0.05821,-0.0503 0.07937,-0.0926 0.02381,-0.0423 0.04762,-0.0979 0.07672,-0.16933 h 0.235468 c -0.01058,0.11906 -0.01852,0.23812 -0.02381,0.35982 -0.0079,0.1217 -0.01587,0.24076 -0.02381,0.35981 h -2.137722 v -0.12964 c 0.03968,-0.0926 0.08731,-0.1799 0.142867,-0.26986 0.05291,-0.0873 0.113765,-0.17726 0.179906,-0.26721 0.06879,-0.0926 0.145513,-0.1852 0.230177,-0.28309 0.08466,-0.0952 0.179906,-0.19578 0.285734,-0.30161 0.156096,-0.1561 0.285737,-0.29103 0.383627,-0.40479 0.100536,-0.11112 0.179906,-0.20901 0.235466,-0.29632 0.05821,-0.0899 0.09789,-0.16932 0.116411,-0.2434 0.02116,-0.0741 0.03175,-0.15345 0.03175,-0.23812 0,-0.0847 -0.01058,-0.16403 -0.03439,-0.23546 -0.02646,-0.0714 -0.06085,-0.13493 -0.105828,-0.1852 -0.04498,-0.0503 -0.103183,-0.09 -0.171972,-0.11906 -0.07143,-0.0264 -0.150804,-0.0423 -0.240757,-0.0423 -0.156097,0 -0.28838,0.0423 -0.394208,0.12699 -0.105828,0.0847 -0.187847,0.20901 -0.24605,0.3704 h -0.330713 v -0.4921 c 0.214302,-0.0873 0.412729,-0.15345 0.592635,-0.19313 0.179909,-0.0397 0.343943,-0.0608 0.489455,-0.0608 z"
       id="path855" />
    <path
       style="fill:#70ad47;fill-opacity:1;fill-rule:evenodd;stroke:none;stroke-width:0.264583"
       d="m 55.695329,151.06161 c -0.211656,0 -0.407437,0.0926 -0.589989,0.28308 -0.182555,0.18785 -0.328068,0.44184 -0.436542,0.76461 -0.108473,0.32278 -0.164033,0.65349 -0.164033,0.99214 0,0.23282 0.0344,0.40479 0.103182,0.51591 0.06879,0.11376 0.174617,0.16932 0.312192,0.16932 0.198427,0 0.3995,-0.11641 0.611156,-0.34658 0.20901,-0.23283 0.402146,-0.55825 0.582054,-0.97097 0.03968,-0.24076 0.05821,-0.45242 0.05821,-0.63497 0,-0.26192 -0.03704,-0.45771 -0.113766,-0.5847 -0.07937,-0.12435 -0.198426,-0.18784 -0.36246,-0.18784 z m 0.02381,-0.27251 c 0.259276,0 0.460352,0.0794 0.605864,0.24076 0.148159,0.16138 0.227529,0.39685 0.243404,0.7064 l 0.03175,-0.003 0.452414,-0.8916 H 57.6505 l -0.0344,0.17726 c -0.285734,0.38627 -0.621736,0.8625 -1.008009,1.42603 -0.05821,0.43919 -0.08731,0.74873 -0.08731,0.93129 0,0.1508 0.01852,0.26192 0.05291,0.32542 0.03439,0.0661 0.08995,0.10053 0.171968,0.10053 0.0635,0 0.137578,-0.0291 0.219594,-0.082 0.08201,-0.0556 0.169325,-0.13757 0.26457,-0.25134 l 0.198427,0.18785 c -0.193136,0.20636 -0.359815,0.34923 -0.502682,0.42595 -0.142867,0.0767 -0.291026,0.11642 -0.441831,0.11642 -0.3069,0 -0.460351,-0.22489 -0.460351,-0.67201 0,-0.0979 0.0079,-0.20637 0.02116,-0.32542 h -0.03439 c -0.238112,0.35188 -0.460351,0.60851 -0.672007,0.76461 -0.211656,0.15345 -0.439185,0.23282 -0.679945,0.23282 -0.169323,0 -0.309547,-0.0503 -0.425955,-0.14552 -0.113766,-0.0979 -0.201073,-0.22488 -0.253987,-0.38627 -0.05556,-0.15874 -0.08466,-0.33336 -0.08466,-0.5212 0,-0.41273 0.07937,-0.80429 0.235469,-1.17204 0.156096,-0.3704 0.373041,-0.65878 0.653486,-0.87044 0.277797,-0.21165 0.589989,-0.31484 0.936577,-0.31484 z"
       id="path857" />
    <path
       style="fill:#70ad47;fill-opacity:1;fill-rule:evenodd;stroke:none;stroke-width:0.264583"
       d="m 59.298766,152.33419 h 0.15345 c -0.0053,0.0926 -0.0079,0.17461 -0.0079,0.24869 -0.0026,0.0741 -0.0026,0.14287 -0.0053,0.21166 0,0.0714 0,0.13757 0,0.20636 v 1.91548 c 0,0.0529 0.0026,0.0979 0.0053,0.13493 0.0026,0.037 0.0079,0.0688 0.01588,0.0952 0.0079,0.0265 0.01852,0.0503 0.0291,0.0688 0.01323,0.0185 0.0291,0.0344 0.04498,0.0476 0.02116,0.0185 0.04762,0.0344 0.08201,0.045 0.03175,0.0106 0.07673,0.0212 0.126995,0.0291 0.05291,0.008 0.116409,0.0132 0.187843,0.0159 0.07408,0.005 0.161388,0.008 0.264571,0.0106 v 0.2196 h -2.000147 v -0.2196 c 0.100536,-0.003 0.182552,-0.008 0.251341,-0.0132 0.06879,-0.003 0.129638,-0.008 0.177263,-0.0159 0.05027,-0.008 0.08731,-0.0159 0.116408,-0.0265 0.03175,-0.008 0.05556,-0.0185 0.07673,-0.0344 0.02381,-0.0132 0.04498,-0.0291 0.06085,-0.0476 0.01852,-0.0185 0.03175,-0.0397 0.04233,-0.0661 0.0079,-0.0291 0.01587,-0.0608 0.02381,-0.10053 0.0053,-0.037 0.0079,-0.0847 0.0079,-0.14287 v -1.80701 c 0,-0.0661 -0.01323,-0.11376 -0.03704,-0.14022 -0.02646,-0.0265 -0.06085,-0.0397 -0.108474,-0.0397 -0.05291,0 -0.12964,0.0265 -0.23282,0.082 -0.103182,0.0529 -0.235468,0.13228 -0.399502,0.23811 -0.02116,-0.0397 -0.03968,-0.0767 -0.05821,-0.11641 -0.01852,-0.037 -0.03969,-0.0767 -0.0582,-0.11906 0.206365,-0.11376 0.412729,-0.22753 0.619091,-0.34129 0.203718,-0.11377 0.410083,-0.22489 0.621739,-0.33865 z"
       id="path859" />
    <text
       xml:space="preserve"
       style="font-style:normal;font-variant:normal;font-weight:400;font-size:7.06107px;line-height:125%;font-family:'Roboto Condensed';text-align:start;letter-spacing:0px;word-spacing:0px;text-anchor:start;fill:#000000;fill-opacity:1;stroke:none;stroke-width:0.264583"
       x="44.796757"
       y="117.64606"
       id="text865"><tspan
         x="44.796757"
         y="117.64606"
         id="tspan863"
         style="stroke-width:0.264583"><tspan
           dx="0"
           dy="0"
           style="font-style:normal;font-variant:normal;font-weight:400;font-size:7.06107px;font-family:'Roboto Condensed';fill:#000000;stroke-width:0.264583"
           id="tspan861">Einfallslot</tspan></tspan></text>
    <path
       style="fill:none;stroke:#009ee3;stroke-width:0.550305px;stroke-linecap:butt;stroke-linejoin:miter;stroke-miterlimit:8;stroke-dasharray:none;stroke-opacity:1"
       d="m 71.339329,171.9335 c -2.283235,2.28059 -5.886675,3.77276 -9.886966,4.09289"
       id="path867" />
    <path
       style="fill:none;stroke:#70ad47;stroke-width:0.550305px;stroke-linecap:butt;stroke-linejoin:miter;stroke-miterlimit:8;stroke-dasharray:none;stroke-opacity:1"
       d="m 49.639331,153.73905 c 1.907545,-3.7172 6.442268,-6.31263 11.728371,-6.71742"
       id="path869" />
    <path
       style="fill:#000000;fill-opacity:1;fill-rule:evenodd;stroke:none;stroke-width:0.264583"
       d="m 102.92629,141.43656 c 0.14287,0 0.25928,0.0476 0.34394,0.14287 0.0847,0.0952 0.127,0.22224 0.127,0.37569 0,0.1217 -0.0265,0.25928 -0.0847,0.40744 l 0.0423,0.0159 c 0.22753,-0.31749 0.43918,-0.5556 0.64555,-0.70905 0.20107,-0.15345 0.41273,-0.22753 0.62967,-0.22753 0.21166,0 0.37569,0.0635 0.4921,0.1852 0.11641,0.1217 0.17462,0.29103 0.17462,0.51326 0,0.14287 -0.037,0.34924 -0.10054,0.6191 l -0.22753,0.89953 c -0.0635,0.25399 -0.09,0.42861 -0.09,0.53443 0,0.09 0.0106,0.15874 0.0423,0.20108 0.0318,0.0423 0.0794,0.0635 0.14287,0.0635 0.0688,0 0.14287,-0.0317 0.22224,-0.0847 0.0741,-0.0582 0.1852,-0.16404 0.32806,-0.32278 l 0.19579,0.19049 c -0.19579,0.21166 -0.3704,0.36511 -0.51327,0.46564 -0.14816,0.0952 -0.31748,0.14816 -0.50797,0.14816 -0.14816,0 -0.26986,-0.0582 -0.35982,-0.16403 -0.0847,-0.10583 -0.13228,-0.24341 -0.13228,-0.40744 0,-0.14816 0.037,-0.3704 0.11641,-0.66142 l 0.14816,-0.59793 c 0.0582,-0.21165 0.0952,-0.37569 0.11112,-0.47622 0.0159,-0.10583 0.0265,-0.1905 0.0265,-0.25399 0,-0.15874 -0.0265,-0.26986 -0.0794,-0.34394 -0.0529,-0.0688 -0.14287,-0.10583 -0.25928,-0.10583 -0.0952,0 -0.20107,0.0423 -0.31219,0.11641 -0.11112,0.0794 -0.23283,0.19578 -0.35453,0.34923 -0.12699,0.15345 -0.22753,0.3069 -0.3069,0.45506 -0.0741,0.14287 -0.13757,0.32278 -0.1852,0.53972 l -0.32806,1.49218 h -0.59793 l 0.50798,-2.18535 c 0.0476,-0.22224 0.0741,-0.39156 0.0741,-0.51326 0,-0.0899 -0.0159,-0.15874 -0.0423,-0.20107 -0.0318,-0.0423 -0.0794,-0.0635 -0.14287,-0.0635 -0.0741,0 -0.14816,0.0317 -0.22753,0.0899 -0.0794,0.0582 -0.19049,0.16403 -0.32807,0.31748 l -0.19578,-0.19049 c 0.21166,-0.22224 0.38627,-0.38098 0.52914,-0.47093 0.14287,-0.0952 0.30161,-0.14287 0.47623,-0.14287 z"
       id="path871" />
    <path
       style="fill:#000000;fill-opacity:1;fill-rule:evenodd;stroke:none;stroke-width:0.264583"
       d="m 107.43456,142.98694 h 0.15345 c 0,0.0952 -0.005,0.17462 -0.005,0.2487 0,0.0741 -0.005,0.14286 -0.005,0.21165 0,0.0741 0,0.13758 0,0.20637 v 1.91548 c 0,0.0529 0,0.10054 0.005,0.13758 0.005,0.037 0.0106,0.0688 0.0159,0.0952 0.005,0.0265 0.0159,0.0476 0.0318,0.0688 0.0106,0.0159 0.0265,0.0317 0.0423,0.0476 0.0212,0.0159 0.0476,0.0318 0.0794,0.0423 0.037,0.0106 0.0794,0.0212 0.13229,0.0318 0.0476,0.005 0.11111,0.0106 0.18519,0.0159 0.0741,0.005 0.16404,0.005 0.26457,0.0106 v 0.21694 h -2.00014 v -0.21694 c 0.10053,-0.005 0.18519,-0.0106 0.25398,-0.0159 0.0688,0 0.127,-0.005 0.17462,-0.0159 0.0476,-0.005 0.09,-0.0159 0.11641,-0.0265 0.0317,-0.005 0.0582,-0.0212 0.0794,-0.0317 0.0212,-0.0159 0.0423,-0.0317 0.0582,-0.0476 0.0159,-0.0212 0.0317,-0.0423 0.0423,-0.0688 0.0106,-0.0265 0.0159,-0.0582 0.0212,-0.10054 0.005,-0.037 0.0106,-0.0847 0.0106,-0.14287 v -1.80436 c 0,-0.0688 -0.0106,-0.11641 -0.037,-0.14287 -0.0265,-0.0265 -0.0635,-0.037 -0.11112,-0.037 -0.0529,0 -0.127,0.0265 -0.23282,0.0794 -0.10054,0.0529 -0.23282,0.13228 -0.39686,0.23811 -0.0212,-0.037 -0.0423,-0.0741 -0.0582,-0.11641 -0.0212,-0.037 -0.037,-0.0741 -0.0582,-0.11641 0.20637,-0.11641 0.41273,-0.22753 0.61909,-0.34394 0.20108,-0.11112 0.41273,-0.22224 0.6191,-0.33865 z"
       id="path873" />
    <path
       style="fill:#000000;fill-opacity:1;fill-rule:evenodd;stroke:none;stroke-width:0.264583"
       d="m 103.28082,172.48116 c 0.14286,0 0.25927,0.0476 0.34394,0.14287 0.0794,0.0952 0.1217,0.22224 0.1217,0.37569 0,0.1217 -0.0265,0.25927 -0.0794,0.40743 l 0.0423,0.0106 c 0.22224,-0.31748 0.43919,-0.5503 0.64026,-0.70375 0.20636,-0.15345 0.41273,-0.22753 0.62968,-0.22753 0.21694,0 0.38097,0.0582 0.49739,0.1852 0.11112,0.1217 0.16932,0.29102 0.16932,0.50797 0,0.14816 -0.0317,0.35452 -0.10054,0.61909 l -0.22223,0.90483 c -0.0635,0.25399 -0.0952,0.4286 -0.0952,0.53443 0,0.0899 0.0159,0.15874 0.0476,0.19578 0.0265,0.0423 0.0741,0.0635 0.14286,0.0635 0.0688,0 0.13758,-0.0265 0.21695,-0.0847 0.0794,-0.0529 0.19049,-0.16403 0.33336,-0.32277 l 0.19578,0.19578 c -0.19578,0.21165 -0.3704,0.3651 -0.51856,0.46035 -0.14816,0.10054 -0.31219,0.14816 -0.50268,0.14816 -0.14816,0 -0.26986,-0.0529 -0.35982,-0.15874 -0.09,-0.10583 -0.13228,-0.24341 -0.13228,-0.40744 0,-0.15345 0.037,-0.3704 0.11112,-0.66143 l 0.15345,-0.59792 c 0.0529,-0.21695 0.09,-0.37569 0.10583,-0.48152 0.0212,-0.10054 0.0265,-0.1852 0.0265,-0.24869 0,-0.15875 -0.0265,-0.27516 -0.0794,-0.34394 -0.0529,-0.0688 -0.13758,-0.10583 -0.25928,-0.10583 -0.0953,0 -0.20107,0.037 -0.31219,0.11641 -0.11112,0.0741 -0.22753,0.19049 -0.35453,0.34923 -0.1217,0.15345 -0.22753,0.3069 -0.3016,0.44977 -0.0741,0.14816 -0.13758,0.32807 -0.1852,0.53972 l -0.32807,1.49746 h -0.59793 l 0.50269,-2.19063 c 0.0529,-0.22224 0.0794,-0.39156 0.0794,-0.50798 0,-0.0952 -0.0159,-0.15874 -0.0476,-0.20107 -0.0265,-0.0423 -0.0741,-0.0635 -0.14287,-0.0635 -0.0688,0 -0.14287,0.0317 -0.22224,0.09 -0.0794,0.0582 -0.19049,0.16403 -0.32807,0.31748 l -0.19578,-0.19578 c 0.21166,-0.21695 0.38627,-0.37568 0.52914,-0.47093 0.13758,-0.0899 0.29632,-0.13758 0.47623,-0.13758 z"
       id="path875" />
    <path
       style="fill:#000000;fill-opacity:1;fill-rule:evenodd;stroke:none;stroke-width:0.264583"
       d="m 107.76263,174.01566 c 0.17461,0 0.32277,0.0159 0.44447,0.0582 0.127,0.037 0.22753,0.09 0.30161,0.15875 0.0794,0.0688 0.13229,0.14815 0.16933,0.2434 0.0318,0.0952 0.0529,0.19578 0.0529,0.30161 0,0.0688 -0.005,0.12699 -0.0159,0.1852 -0.0106,0.0582 -0.0265,0.11112 -0.0476,0.16403 -0.0212,0.0582 -0.0529,0.11112 -0.09,0.16933 -0.037,0.0529 -0.0847,0.11112 -0.13758,0.17461 -0.0423,0.0529 -0.0953,0.11641 -0.16403,0.1852 -0.0688,0.0741 -0.14287,0.14816 -0.22224,0.22753 -0.0794,0.0794 -0.16404,0.16403 -0.2487,0.25399 -0.0899,0.0847 -0.17461,0.17461 -0.25398,0.25927 -0.0847,0.0847 -0.15875,0.16933 -0.22753,0.2487 -0.0688,0.0794 -0.127,0.15345 -0.16933,0.22224 h 0.93129 c 0.0794,0 0.14287,0 0.19049,-0.0106 0.0476,-0.005 0.0847,-0.0159 0.11641,-0.037 0.0318,-0.0212 0.0582,-0.0529 0.0794,-0.0899 0.0212,-0.0423 0.0476,-0.10054 0.0741,-0.17462 h 0.23811 c -0.0106,0.1217 -0.0159,0.2434 -0.0265,0.36511 -0.005,0.11641 -0.0159,0.23811 -0.0212,0.35981 h -2.13772 v -0.13228 c 0.0423,-0.09 0.09,-0.17991 0.14287,-0.26986 0.0529,-0.0847 0.11112,-0.17462 0.1799,-0.26986 0.0688,-0.0899 0.14287,-0.17991 0.22753,-0.28045 0.09,-0.0952 0.1852,-0.19578 0.28574,-0.30161 0.15874,-0.15345 0.28573,-0.29102 0.38627,-0.40214 0.10054,-0.11112 0.17991,-0.21166 0.23282,-0.30161 0.0582,-0.0847 0.10054,-0.16403 0.1217,-0.23812 0.0212,-0.0741 0.0318,-0.15345 0.0318,-0.23811 0,-0.0847 -0.0159,-0.16403 -0.037,-0.23811 -0.0265,-0.0741 -0.0635,-0.13229 -0.10582,-0.1852 -0.0476,-0.0476 -0.10583,-0.0899 -0.17462,-0.11641 -0.0688,-0.0317 -0.14816,-0.0423 -0.23811,-0.0423 -0.15875,0 -0.29103,0.0423 -0.39686,0.12699 -0.10583,0.0847 -0.18519,0.20637 -0.2434,0.3704 h -0.33336 v -0.4921 c 0.21695,-0.09 0.41273,-0.15345 0.59793,-0.19578 0.17991,-0.0423 0.33865,-0.0582 0.48681,-0.0582 z"
       id="path877" />
    <path
       style="fill:none;stroke:#70ad47;stroke-width:0.550305px;stroke-linecap:butt;stroke-linejoin:miter;stroke-miterlimit:8;stroke-dasharray:none;stroke-opacity:1"
       d="M 61.187793,160.71575 95.386059,140.6164"
       id="path879" />
    <path
       style="fill:none;stroke:#70ad47;stroke-width:0.529139px;stroke-linecap:butt;stroke-linejoin:miter;stroke-miterlimit:8;stroke-dasharray:none;stroke-opacity:1"
       d="m 61.724871,144.43678 c 4.915701,-0.77519 10.633051,2.397 13.97721,7.75718"
       id="path881" />
    <path
       style="fill:#70ad47;fill-opacity:1;fill-rule:evenodd;stroke:none;stroke-width:0.264583"
       d="m 65.026699,150.8473 c -0.211656,0 -0.407437,0.0952 -0.589992,0.28309 -0.182552,0.1905 -0.328065,0.44448 -0.436539,0.76725 -0.111119,0.32278 -0.164033,0.65349 -0.164033,0.99214 0,0.23018 0.0344,0.40479 0.103182,0.51591 0.06879,0.11377 0.171971,0.16933 0.309547,0.16933 0.198426,0 0.402145,-0.11641 0.611155,-0.34924 0.209011,-0.23017 0.404792,-0.55559 0.5847,-0.96832 0.03968,-0.24076 0.0582,-0.45241 0.0582,-0.63497 0,-0.26192 -0.03968,-0.4577 -0.116408,-0.5847 -0.07673,-0.12699 -0.195781,-0.19049 -0.359815,-0.19049 z m 0.02381,-0.2725 c 0.256632,0 0.460351,0.082 0.605864,0.2434 0.145515,0.16139 0.227531,0.39686 0.243406,0.7064 l 0.03175,-0.003 0.452414,-0.8916 h 0.595283 l -0.0344,0.17727 c -0.283088,0.38627 -0.619093,0.86249 -1.008009,1.42603 -0.05556,0.43918 -0.08466,0.74873 -0.08466,0.93128 0,0.1508 0.01587,0.25928 0.05027,0.32542 0.03439,0.0661 0.0926,0.0979 0.174614,0.0979 0.0635,0 0.137578,-0.0265 0.216948,-0.0794 0.08201,-0.0556 0.171971,-0.13758 0.26457,-0.25134 l 0.201073,0.18784 c -0.193136,0.20637 -0.362461,0.34923 -0.505328,0.42596 -0.142867,0.0767 -0.288383,0.11376 -0.441833,0.11376 -0.304255,0 -0.457705,-0.22223 -0.457705,-0.66936 0,-0.0979 0.0079,-0.20636 0.02117,-0.32806 h -0.03439 c -0.238114,0.35452 -0.462997,0.61115 -0.674653,0.7646 -0.211656,0.1561 -0.436541,0.23282 -0.679945,0.23282 -0.166677,0 -0.309546,-0.0476 -0.423309,-0.14286 -0.116412,-0.0979 -0.201073,-0.22489 -0.256633,-0.38627 -0.05556,-0.15875 -0.08202,-0.33336 -0.08202,-0.52385 0,-0.41009 0.07673,-0.80165 0.235469,-1.1694 0.156096,-0.3704 0.373041,-0.66142 0.65084,-0.87043 0.277797,-0.21166 0.592635,-0.31749 0.939221,-0.31749 z"
       id="path883" />
    <path
       style="fill:#70ad47;fill-opacity:1;fill-rule:evenodd;stroke:none;stroke-width:0.264583"
       d="m 69.093133,152.79454 c 0.103182,0 0.203719,0.0106 0.296317,0.0317 v 0.62438 h -0.322773 c -0.01852,-0.0476 -0.03704,-0.0873 -0.05821,-0.1217 -0.01852,-0.0344 -0.04233,-0.0635 -0.06879,-0.0847 -0.02646,-0.0238 -0.05556,-0.0397 -0.08995,-0.0529 -0.0344,-0.0106 -0.07673,-0.0159 -0.121703,-0.0159 -0.05027,0 -0.105829,0.0159 -0.16668,0.0476 -0.06085,0.0318 -0.119055,0.0741 -0.171969,0.12699 -0.05291,0.0529 -0.09789,0.11641 -0.134932,0.18785 -0.03704,0.0688 -0.05556,0.14551 -0.05556,0.22224 v 0.96568 c 0,0.10847 0.0053,0.18784 0.01587,0.2434 0.0079,0.0582 0.02646,0.10054 0.05027,0.12964 0.02646,0.0265 0.06085,0.0476 0.103183,0.0609 0.04498,0.0132 0.100536,0.0291 0.171971,0.0503 v 0.16139 h -1.13765 v -0.16139 c 0.06614,-0.0238 0.119057,-0.0423 0.158742,-0.0556 0.03968,-0.0159 0.06879,-0.0344 0.08995,-0.0635 0.02117,-0.0265 0.0344,-0.0688 0.03969,-0.1217 0.0079,-0.0529 0.01058,-0.13229 0.01058,-0.23547 v -1.08474 c 0,-0.11376 0,-0.20901 -0.0026,-0.28309 0,-0.0741 -0.01058,-0.13493 -0.0291,-0.1799 -0.02117,-0.0476 -0.05291,-0.082 -0.09789,-0.10583 -0.04762,-0.0265 -0.116411,-0.045 -0.206364,-0.0609 v -0.17184 l 0.661424,-0.0265 h 0.17726 l -0.03439,0.44977 c 0.0053,0.003 0.0079,0.005 0.01323,0.005 0.0026,0 0.0079,0.003 0.01058,0.005 0.08202,-0.0873 0.156097,-0.16139 0.224883,-0.22224 0.06879,-0.0635 0.137578,-0.11376 0.206364,-0.15345 0.06879,-0.037 0.142867,-0.0661 0.216948,-0.0847 0.07408,-0.0159 0.158742,-0.0265 0.251341,-0.0265 z"
       id="path885" />
  </g>
</svg>
