<?xml version="1.0" encoding="UTF-8" standalone="no"?>
<svg
   xmlns:ooo="http://xml.openoffice.org/svg/export"
   xmlns:dc="http://purl.org/dc/elements/1.1/"
   xmlns:cc="http://creativecommons.org/ns#"
   xmlns:rdf="http://www.w3.org/1999/02/22-rdf-syntax-ns#"
   xmlns:svg="http://www.w3.org/2000/svg"
   xmlns="http://www.w3.org/2000/svg"
   version="1.2"
   width="89.041679mm"
   height="60.577831mm"
   viewBox="0 0 8904.168 6057.7831"
   preserveAspectRatio="xMidYMid"
   fill-rule="evenodd"
   stroke-width="28.222"
   stroke-linejoin="round"
   xml:space="preserve"
   id="svg130"><metadata
   id="metadata134"><rdf:RDF><cc:Work
       rdf:about=""><dc:format>image/svg+xml</dc:format><dc:type
         rdf:resource="http://purl.org/dc/dcmitype/StillImage" /><dc:title></dc:title></cc:Work></rdf:RDF></metadata>
 <defs
   class="ClipPathGroup"
   id="defs8"><marker
   style="overflow:visible"
   id="Arrow2Mend"
   refX="0"
   refY="0"
   orient="auto"><path
     transform="scale(-0.6)"
     d="M 8.7185878,4.0337352 -2.2072895,0.01601326 8.7185884,-4.0017078 c -1.7454984,2.3720609 -1.7354408,5.6174519 -6e-7,8.035443 z"
     style="fill:#0f0f0f;fill-opacity:1;fill-rule:evenodd;stroke:#0f0f0f;stroke-width:0.625;stroke-linejoin:round;stroke-opacity:1"
     id="path957" /></marker><marker
   style="overflow:visible"
   id="Arrow2Mstart"
   refX="0"
   refY="0"
   orient="auto"><path
     transform="scale(0.6)"
     d="M 8.7185878,4.0337352 -2.2072895,0.01601326 8.7185884,-4.0017078 c -1.7454984,2.3720609 -1.7354408,5.6174519 -6e-7,8.035443 z"
     style="fill:#0f0f0f;fill-opacity:1;fill-rule:evenodd;stroke:#0f0f0f;stroke-width:0.625;stroke-linejoin:round;stroke-opacity:1"
     id="path954" /></marker><marker
   style="overflow:visible"
   id="Arrow2Lstart"
   refX="0"
   refY="0"
   orient="auto"><path
     transform="matrix(1.1,0,0,1.1,1.1,0)"
     d="M 8.7185878,4.0337352 -2.2072895,0.01601326 8.7185884,-4.0017078 c -1.7454984,2.3720609 -1.7354408,5.6174519 -6e-7,8.035443 z"
     style="fill:#0f0f0f;fill-opacity:1;fill-rule:evenodd;stroke:#0f0f0f;stroke-width:0.625;stroke-linejoin:round;stroke-opacity:1"
     id="path948" /></marker><marker
   style="overflow:visible"
   id="Arrow1Lstart"
   refX="0"
   refY="0"
   orient="auto"><path
     transform="matrix(0.8,0,0,0.8,10,0)"
     style="fill:#0f0f0f;fill-opacity:1;fill-rule:evenodd;stroke:#0f0f0f;stroke-width:1pt;stroke-opacity:1"
     d="M 0,0 5,-5 -12.5,0 5,5 Z"
     id="path930" /></marker>
  <clipPath
   id="presentation_clip_path"
   clipPathUnits="userSpaceOnUse">
   <rect
   x="0"
   y="0"
   width="21000"
   height="29700"
   id="rect2" />
  </clipPath>
  <clipPath
   id="presentation_clip_path_shrink"
   clipPathUnits="userSpaceOnUse">
   <rect
   x="21"
   y="29"
   width="20958"
   height="29641"
   id="rect5" />
  </clipPath>
 
  
 
   
  
    
   
      
     
       
      
        
        
        
        
        
        
        
        
        
        
        
        
        
        
        
        
        
        
        
        
        
        
        
        
        
        
        
        
        
        
        
        
        
        
       
     
    </defs>
 <defs
   class="TextShapeIndex"
   id="defs12">
  <g
   ooo:slide="id1"
   ooo:id-list="id3"
   id="g10" />
 </defs>
 <defs
   class="EmbeddedBulletChars"
   id="defs44">
  <g
   id="bullet-char-template-57356"
   transform="matrix(4.8828125e-4,0,0,-4.8828125e-4,0,0)">
   <path
   d="M 580,1141 1163,571 580,0 -4,571 Z"
   id="path14" />
  </g>
  <g
   id="bullet-char-template-57354"
   transform="matrix(4.8828125e-4,0,0,-4.8828125e-4,0,0)">
   <path
   d="M 8,1128 H 1137 V 0 H 8 Z"
   id="path17" />
  </g>
  <g
   id="bullet-char-template-10146"
   transform="matrix(4.8828125e-4,0,0,-4.8828125e-4,0,0)">
   <path
   d="M 174,0 602,739 174,1481 1456,739 Z M 1358,739 309,1346 659,739 Z"
   id="path20" />
  </g>
  <g
   id="bullet-char-template-10132"
   transform="matrix(4.8828125e-4,0,0,-4.8828125e-4,0,0)">
   <path
   d="M 2015,739 1276,0 H 717 l 543,543 H 174 v 393 h 1086 l -543,545 h 557 z"
   id="path23" />
  </g>
  <g
   id="bullet-char-template-10007"
   transform="matrix(4.8828125e-4,0,0,-4.8828125e-4,0,0)">
   <path
   d="m 0,-2 c -7,16 -16,29 -25,39 l 381,530 c -94,256 -141,385 -141,387 0,25 13,38 40,38 9,0 21,-2 34,-5 21,4 42,12 65,25 l 27,-13 111,-251 280,301 64,-25 24,25 c 21,-10 41,-24 62,-43 C 886,937 835,863 770,784 769,783 710,716 594,584 L 774,223 c 0,-27 -21,-55 -63,-84 l 16,-20 C 717,90 699,76 672,76 641,76 570,178 457,381 L 164,-76 c -22,-34 -53,-51 -92,-51 -42,0 -63,17 -64,51 -7,9 -10,24 -10,44 0,9 1,19 2,30 z"
   id="path26" />
  </g>
  <g
   id="bullet-char-template-10004"
   transform="matrix(4.8828125e-4,0,0,-4.8828125e-4,0,0)">
   <path
   d="M 285,-33 C 182,-33 111,30 74,156 52,228 41,333 41,471 c 0,78 14,145 41,201 34,71 87,106 158,106 53,0 88,-31 106,-94 l 23,-176 c 8,-64 28,-97 59,-98 l 735,706 c 11,11 33,17 66,17 42,0 63,-15 63,-46 V 965 c 0,-36 -10,-64 -30,-84 L 442,47 C 390,-6 338,-33 285,-33 Z"
   id="path29" />
  </g>
  <g
   id="bullet-char-template-9679"
   transform="matrix(4.8828125e-4,0,0,-4.8828125e-4,0,0)">
   <path
   d="M 813,0 C 632,0 489,54 383,161 276,268 223,411 223,592 c 0,181 53,324 160,431 106,107 249,161 430,161 179,0 323,-54 432,-161 108,-107 162,-251 162,-431 0,-180 -54,-324 -162,-431 C 1136,54 992,0 813,0 Z"
   id="path32" />
  </g>
  <g
   id="bullet-char-template-8226"
   transform="matrix(4.8828125e-4,0,0,-4.8828125e-4,0,0)">
   <path
   d="m 346,457 c -73,0 -137,26 -191,78 -54,51 -81,114 -81,188 0,73 27,136 81,188 54,52 118,78 191,78 73,0 134,-26 185,-79 51,-51 77,-114 77,-187 0,-75 -25,-137 -76,-188 -50,-52 -112,-78 -186,-78 z"
   id="path35" />
  </g>
  <g
   id="bullet-char-template-8211"
   transform="matrix(4.8828125e-4,0,0,-4.8828125e-4,0,0)">
   <path
   d="M -4,459 H 1135 V 606 H -4 Z"
   id="path38" />
  </g>
  <g
   id="bullet-char-template-61548"
   transform="matrix(4.8828125e-4,0,0,-4.8828125e-4,0,0)">
   <path
   d="m 173,740 c 0,163 58,303 173,419 116,115 255,173 419,173 163,0 302,-58 418,-173 116,-116 174,-256 174,-419 0,-163 -58,-303 -174,-418 C 1067,206 928,148 765,148 601,148 462,206 346,322 231,437 173,577 173,740 Z"
   id="path41" />
  </g>
 </defs>
 <line
   fill="#0f0f0f"
   stroke="#0f0f0f"
   x1="205.20807"
   y1="2795.5649"
   x2="8804.167"
   y2="2795.5649"
   id="line101-2"
   style="stroke-width:26.1788;stroke-miterlimit:4;stroke-dasharray:209.43, 52.3576, 26.1788, 52.3576;stroke-dashoffset:73.3006" /><g
   id="g49"
   transform="translate(-5490.6669,-18367.946)">
  <g
   id="id2"
   class="Master_Slide">
   <g
   id="bg-id2"
   class="Background" />
   <g
   id="bo-id2"
   class="BackgroundObjects" />
  </g>
 </g>
 <line
   fill="#ff0000"
   stroke="#ff0000"
   x1="1619.874"
   y1="2489.646"
   x2="5099.9995"
   y2="3986.1899"
   id="line57"
   style="stroke-width:13.2292;stroke-miterlimit:4;stroke-dasharray:39.6875, 13.2292;stroke-dashoffset:0" /><line
   fill="#ff0000"
   stroke="#ff0000"
   x1="1627.3535"
   y1="2597.1313"
   x2="5099.9995"
   y2="3589.3149"
   id="line59"
   style="stroke-width:13.2292;stroke-miterlimit:4;stroke-dasharray:39.6875, 13.2292;stroke-dashoffset:0" /><line
   fill="#ff0000"
   stroke="#ff0000"
   x1="1627.9631"
   y1="2696.3452"
   x2="5100.625"
   y2="3192.4399"
   id="line63"
   style="stroke-width:13.2292;stroke-miterlimit:4;stroke-dasharray:39.6875, 13.2292;stroke-dashoffset:0" /><line
   fill="#ff0000"
   stroke="#ff0000"
   x1="1627.5289"
   y1="2896.1235"
   x2="5100.1909"
   y2="2400.0288"
   id="line67"
   style="stroke-width:13.2292;stroke-miterlimit:4;stroke-dasharray:39.6875, 13.2292;stroke-dashoffset:0" /><line
   fill="#ff0000"
   stroke="#ff0000"
   x1="1651.0385"
   y1="3096.9087"
   x2="5127.0835"
   y2="1604.9398"
   id="line73"
   style="stroke-width:13.2292;stroke-miterlimit:4;stroke-dasharray:39.6875, 13.2292;stroke-dashoffset:0" /><line
   fill="#ff0000"
   stroke="#ff0000"
   x1="1627.7246"
   y1="2995.2993"
   x2="5100.3711"
   y2="2003.1156"
   id="line99"
   style="stroke-width:13.2292;stroke-miterlimit:4;stroke-dasharray:39.6875, 13.2292;stroke-dashoffset:0" /><line
   fill="#0f0f0f"
   stroke="#0f0f0f"
   x1="2369.8413"
   y1="4875.6865"
   x2="5042.1851"
   y2="4875.6865"
   id="line113"
   style="stroke-width:36.3824;marker-start:url(#Arrow2Mstart);marker-end:url(#Arrow2Mend)" /><text
   xml:space="preserve"
   style="font-style:italic;font-variant:normal;font-weight:normal;font-stretch:normal;font-size:987.778px;line-height:1.25;font-family:serif;-inkscape-font-specification:'serif, Italic';font-variant-ligatures:normal;font-variant-caps:normal;font-variant-numeric:normal;font-variant-east-asian:normal;fill:#000000;fill-opacity:1;stroke:none;stroke-width:746.707"
   x="3434.7104"
   y="5752.3174"
   id="text1183"><tspan
     id="tspan1181"
     x="3434.7104"
     y="5752.3174"
     style="font-style:italic;font-variant:normal;font-weight:normal;font-stretch:normal;font-size:987.778px;font-family:serif;-inkscape-font-specification:'serif, Italic';font-variant-ligatures:normal;font-variant-caps:normal;font-variant-numeric:normal;font-variant-east-asian:normal;stroke-width:746.707">f</tspan></text><circle
   style="fill:none;stroke:#000000;stroke-width:28.231;stroke-miterlimit:4;stroke-dasharray:none;stroke-opacity:1"
   id="path1228"
   cx="-5490.667"
   cy="-18367.945"
   r="0" /><circle
   style="fill:none;stroke:#000000;stroke-width:28.231;stroke-miterlimit:4;stroke-dasharray:none;stroke-opacity:1"
   id="path1228-1"
   transform="scale(-1)"
   cx="5490.667"
   cy="18367.945"
   r="0" />
<line
   fill="#0f0f0f"
   stroke="#0f0f0f"
   x1="5099.9995"
   y1="282.02292"
   x2="5099.9995"
   y2="5309.106"
   id="line107-9"
   style="stroke-width:28.2983;stroke-miterlimit:4;stroke-dasharray:84.895, 28.2983;stroke-dashoffset:0" /><line
   fill="#ff0000"
   stroke="#ff0000"
   x1="100.00011"
   y1="1604.9398"
   x2="5099.9995"
   y2="1604.9398"
   id="line53-6" /><line
   fill="#ff0000"
   stroke="#ff0000"
   x1="100"
   y1="2001.8148"
   x2="5099.9995"
   y2="2001.8148"
   id="line55-7" /><line
   fill="#ff0000"
   stroke="#ff0000"
   x1="100"
   y1="2398.6899"
   x2="5099.9995"
   y2="2398.6899"
   id="line61-8" /><line
   fill="#ff0000"
   stroke="#ff0000"
   x1="100"
   y1="3192.4399"
   x2="5099.9995"
   y2="3192.4399"
   id="line65-6" /><line
   fill="#ff0000"
   stroke="#ff0000"
   x1="100"
   y1="3589.3149"
   x2="5099.9995"
   y2="3589.3149"
   id="line69-8" /><line
   fill="#ff0000"
   stroke="#ff0000"
   x1="100"
   y1="3986.1899"
   x2="5099.9995"
   y2="3986.1899"
   id="line71-6" /><path
   style="fill:none;stroke:#000000;stroke-width:26.4583;stroke-miterlimit:4;stroke-dasharray:none;stroke-dashoffset:0;stroke-opacity:1"
   id="path1075"
   d="m 5765.5402,4723.3341 a 4002.5149,4002.5149 0 0 1 4.5433,-3915.83578" /><path
   style="fill:none;stroke:#000000;stroke-width:26.4583;stroke-miterlimit:4;stroke-dasharray:none;stroke-dashoffset:0;stroke-opacity:1"
   id="path1075-5"
   d="M 4451.7102,4723.3341 A 4002.5149,4002.5149 0 0 0 4447.1669,807.49832" /><line
   fill="#ff0000"
   stroke="#ff0000"
   x1="5099.9995"
   y1="3986.1899"
   x2="8580.125"
   y2="5482.7334"
   id="line57-5"
   style="stroke-width:28.231;stroke-miterlimit:4;stroke-dasharray:none" /><line
   fill="#ff0000"
   stroke="#ff0000"
   x1="5099.9995"
   y1="3589.3149"
   x2="8572.6455"
   y2="4581.498"
   id="line59-5"
   style="stroke-width:28.231;stroke-miterlimit:4;stroke-dasharray:none" /><line
   fill="#ff0000"
   stroke="#ff0000"
   x1="5099.9995"
   y1="3192.4399"
   x2="8572.6602"
   y2="3688.5347"
   id="line63-3"
   style="stroke-width:28.231;stroke-miterlimit:4;stroke-dasharray:none" /><line
   fill="#ff0000"
   stroke="#ff0000"
   x1="5100.1909"
   y1="2400.0288"
   x2="8572.8525"
   y2="1903.934"
   id="line67-0"
   style="stroke-width:28.231;stroke-miterlimit:4;stroke-dasharray:none" /><line
   fill="#ff0000"
   stroke="#ff0000"
   x1="5099.9995"
   y1="1604.9398"
   x2="8576.0439"
   y2="112.97117"
   id="line73-3"
   style="stroke-width:28.231;stroke-miterlimit:4;stroke-dasharray:none" /><line
   fill="#ff0000"
   stroke="#ff0000"
   x1="5099.9995"
   y1="2001.8148"
   x2="8572.6455"
   y2="1009.6313"
   id="line99-4"
   style="stroke-width:28.231;stroke-miterlimit:4;stroke-dasharray:none" /><path
   style="fill:none;stroke:#000000;stroke-width:26.4583px;stroke-linecap:butt;stroke-linejoin:miter;stroke-opacity:1"
   d="m 4447.1669,807.49832 h 1322.9167 v 0"
   id="path978" /><path
   style="fill:none;stroke:#000000;stroke-width:26.4583px;stroke-linecap:butt;stroke-linejoin:miter;stroke-opacity:1"
   d="m 4451.7103,4723.3343 h 1313.8298 v 0"
   id="path980" /><text
   xml:space="preserve"
   style="font-style:normal;font-variant:normal;font-weight:normal;font-stretch:normal;font-size:987.778px;line-height:1.25;font-family:serif;-inkscape-font-specification:'serif, Normal';font-variant-ligatures:normal;font-variant-caps:normal;font-variant-numeric:normal;font-variant-east-asian:normal;fill:#000000;fill-opacity:1;stroke:none;stroke-width:746.707"
   x="2156.3545"
   y="2589.4575"
   id="text1183-5"><tspan
     id="tspan1181-4"
     x="2156.3545"
     y="2589.4575"
     style="font-style:normal;font-variant:normal;font-weight:normal;font-stretch:normal;font-size:987.778px;font-family:serif;-inkscape-font-specification:'serif, Normal';font-variant-ligatures:normal;font-variant-caps:normal;font-variant-numeric:normal;font-variant-east-asian:normal;stroke-width:746.707">F</tspan></text></svg>
