<?xml version="1.0" encoding="UTF-8" standalone="no"?>
<svg
   xmlns:ooo="http://xml.openoffice.org/svg/export"
   xmlns:dc="http://purl.org/dc/elements/1.1/"
   xmlns:cc="http://creativecommons.org/ns#"
   xmlns:rdf="http://www.w3.org/1999/02/22-rdf-syntax-ns#"
   xmlns:svg="http://www.w3.org/2000/svg"
   xmlns="http://www.w3.org/2000/svg"
   version="1.2"
   width="102.01mm"
   height="58.52948mm"
   viewBox="0 0 10201 5852.948"
   preserveAspectRatio="xMidYMid"
   fill-rule="evenodd"
   stroke-width="28.222"
   stroke-linejoin="round"
   xml:space="preserve"
   id="svg126"><metadata
   id="metadata130"><rdf:RDF><cc:Work
       rdf:about=""><dc:format>image/svg+xml</dc:format><dc:type
         rdf:resource="http://purl.org/dc/dcmitype/StillImage" /><dc:title></dc:title></cc:Work></rdf:RDF></metadata>
 <defs
   class="ClipPathGroup"
   id="defs8">
  <clipPath
   id="presentation_clip_path"
   clipPathUnits="userSpaceOnUse">
   <rect
   x="0"
   y="0"
   width="21000"
   height="29700"
   id="rect2" />
  </clipPath>
  <clipPath
   id="presentation_clip_path_shrink"
   clipPathUnits="userSpaceOnUse">
   <rect
   x="21"
   y="29"
   width="20958"
   height="29641"
   id="rect5" />
  </clipPath>
 
  
 
   
  
    
   
     
    
      
     
       
      
        
        
        
        
        
        
        
        
        
        
        
        
        
        
        
        
        
        
        
        
        
        
        
        
        
        
        
        
        
        
        
        
       </defs>
 <defs
   class="TextShapeIndex"
   id="defs12">
  <g
   ooo:slide="id1"
   ooo:id-list="id3"
   id="g10" />
 </defs>
 <defs
   class="EmbeddedBulletChars"
   id="defs44">
  <g
   id="bullet-char-template-57356"
   transform="matrix(4.8828125e-4,0,0,-4.8828125e-4,0,0)">
   <path
   d="M 580,1141 1163,571 580,0 -4,571 Z"
   id="path14" />
  </g>
  <g
   id="bullet-char-template-57354"
   transform="matrix(4.8828125e-4,0,0,-4.8828125e-4,0,0)">
   <path
   d="M 8,1128 H 1137 V 0 H 8 Z"
   id="path17" />
  </g>
  <g
   id="bullet-char-template-10146"
   transform="matrix(4.8828125e-4,0,0,-4.8828125e-4,0,0)">
   <path
   d="M 174,0 602,739 174,1481 1456,739 Z M 1358,739 309,1346 659,739 Z"
   id="path20" />
  </g>
  <g
   id="bullet-char-template-10132"
   transform="matrix(4.8828125e-4,0,0,-4.8828125e-4,0,0)">
   <path
   d="M 2015,739 1276,0 H 717 l 543,543 H 174 v 393 h 1086 l -543,545 h 557 z"
   id="path23" />
  </g>
  <g
   id="bullet-char-template-10007"
   transform="matrix(4.8828125e-4,0,0,-4.8828125e-4,0,0)">
   <path
   d="m 0,-2 c -7,16 -16,29 -25,39 l 381,530 c -94,256 -141,385 -141,387 0,25 13,38 40,38 9,0 21,-2 34,-5 21,4 42,12 65,25 l 27,-13 111,-251 280,301 64,-25 24,25 c 21,-10 41,-24 62,-43 C 886,937 835,863 770,784 769,783 710,716 594,584 L 774,223 c 0,-27 -21,-55 -63,-84 l 16,-20 C 717,90 699,76 672,76 641,76 570,178 457,381 L 164,-76 c -22,-34 -53,-51 -92,-51 -42,0 -63,17 -64,51 -7,9 -10,24 -10,44 0,9 1,19 2,30 z"
   id="path26" />
  </g>
  <g
   id="bullet-char-template-10004"
   transform="matrix(4.8828125e-4,0,0,-4.8828125e-4,0,0)">
   <path
   d="M 285,-33 C 182,-33 111,30 74,156 52,228 41,333 41,471 c 0,78 14,145 41,201 34,71 87,106 158,106 53,0 88,-31 106,-94 l 23,-176 c 8,-64 28,-97 59,-98 l 735,706 c 11,11 33,17 66,17 42,0 63,-15 63,-46 V 965 c 0,-36 -10,-64 -30,-84 L 442,47 C 390,-6 338,-33 285,-33 Z"
   id="path29" />
  </g>
  <g
   id="bullet-char-template-9679"
   transform="matrix(4.8828125e-4,0,0,-4.8828125e-4,0,0)">
   <path
   d="M 813,0 C 632,0 489,54 383,161 276,268 223,411 223,592 c 0,181 53,324 160,431 106,107 249,161 430,161 179,0 323,-54 432,-161 108,-107 162,-251 162,-431 0,-180 -54,-324 -162,-431 C 1136,54 992,0 813,0 Z"
   id="path32" />
  </g>
  <g
   id="bullet-char-template-8226"
   transform="matrix(4.8828125e-4,0,0,-4.8828125e-4,0,0)">
   <path
   d="m 346,457 c -73,0 -137,26 -191,78 -54,51 -81,114 -81,188 0,73 27,136 81,188 54,52 118,78 191,78 73,0 134,-26 185,-79 51,-51 77,-114 77,-187 0,-75 -25,-137 -76,-188 -50,-52 -112,-78 -186,-78 z"
   id="path35" />
  </g>
  <g
   id="bullet-char-template-8211"
   transform="matrix(4.8828125e-4,0,0,-4.8828125e-4,0,0)">
   <path
   d="M -4,459 H 1135 V 606 H -4 Z"
   id="path38" />
  </g>
  <g
   id="bullet-char-template-61548"
   transform="matrix(4.8828125e-4,0,0,-4.8828125e-4,0,0)">
   <path
   d="m 173,740 c 0,163 58,303 173,419 116,115 255,173 419,173 163,0 302,-58 418,-173 116,-116 174,-256 174,-419 0,-163 -58,-303 -174,-418 C 1067,206 928,148 765,148 601,148 462,206 346,322 231,437 173,577 173,740 Z"
   id="path41" />
  </g>
 </defs>
 <g
   id="g49"
   transform="translate(-5399,-12213)">
  <g
   id="id2"
   class="Master_Slide">
   <g
   id="bg-id2"
   class="Background" />
   <g
   id="bo-id2"
   class="BackgroundObjects" />
  </g>
 </g>
 <rect
   class="BoundingBox"
   stroke="none"
   fill="none"
   x="100"
   y="100"
   width="10001"
   height="5074"
   id="rect51" /><line
   fill="#0f0f0f"
   stroke="#0f0f0f"
   x1="100"
   y1="2600"
   x2="10100"
   y2="2600"
   id="line53"
   style="stroke-width:28.222;stroke-miterlimit:4;stroke-dasharray:225.776, 56.444, 28.222, 56.444;stroke-dashoffset:0" /><line
   fill="#ff0000"
   stroke="#ff0000"
   x1="596"
   y1="1484"
   x2="846"
   y2="1609"
   id="line55" /><line
   fill="#ff0000"
   stroke="#ff0000"
   x1="846"
   y1="1609"
   x2="596"
   y2="1734"
   id="line57" /><line
   fill="#ff0000"
   stroke="#ff0000"
   x1="596"
   y1="1984"
   x2="846"
   y2="2109"
   id="line59" /><line
   fill="#ff0000"
   stroke="#ff0000"
   x1="846"
   y1="2109"
   x2="596"
   y2="2234"
   id="line61" /><line
   fill="#ff0000"
   stroke="#ff0000"
   x1="596"
   y1="2984"
   x2="846"
   y2="3109"
   id="line63" /><line
   fill="#ff0000"
   stroke="#ff0000"
   x1="846"
   y1="3109"
   x2="596"
   y2="3234"
   id="line65" /><line
   fill="#ff0000"
   stroke="#ff0000"
   x1="596"
   y1="3484"
   x2="846"
   y2="3609"
   id="line67" /><line
   fill="#ff0000"
   stroke="#ff0000"
   x1="846"
   y1="3609"
   x2="596"
   y2="3734"
   id="line69" /><line
   fill="#ff0000"
   stroke="#ff0000"
   x1="100"
   y1="1600"
   x2="5100"
   y2="1600"
   id="line79" /><line
   fill="#ff0000"
   stroke="#ff0000"
   x1="100"
   y1="2100"
   x2="5100"
   y2="2100"
   id="line81" /><line
   fill="#ff0000"
   stroke="#ff0000"
   x1="100"
   y1="3100"
   x2="5100"
   y2="3100"
   id="line83" /><line
   fill="#ff0000"
   stroke="#ff0000"
   x1="100"
   y1="3600"
   x2="5100"
   y2="3600"
   id="line85" /><line
   fill="#0f0f0f"
   stroke="#0f0f0f"
   x1="5100"
   y1="100"
   x2="5100"
   y2="5100"
   id="line87"
   style="stroke-width:28.222;stroke-miterlimit:4;stroke-dasharray:56.444, 28.222;stroke-dashoffset:0" /><line
   fill="#ff0000"
   stroke="#ff0000"
   x1="5100"
   y1="2100"
   x2="1858"
   y2="2689"
   id="line89"
   style="stroke-width:28.222;stroke-miterlimit:4;stroke-dasharray:225.776, 112.888;stroke-dashoffset:0" /><line
   fill="#ff0000"
   stroke="#ff0000"
   x1="5100"
   y1="1600"
   x2="1880"
   y2="2771"
   id="line91"
   style="stroke-width:28.222;stroke-miterlimit:4;stroke-dasharray:225.776, 112.888;stroke-dashoffset:0" /><line
   fill="#ff0000"
   stroke="#ff0000"
   x1="5100"
   y1="3100"
   x2="1858"
   y2="2511"
   id="line93"
   style="stroke-width:28.222;stroke-miterlimit:4;stroke-dasharray:225.776, 112.888;stroke-dashoffset:0" /><line
   fill="#ff0000"
   stroke="#ff0000"
   x1="5100"
   y1="3600"
   x2="1880"
   y2="2429"
   id="line95"
   style="stroke-width:28.222;stroke-miterlimit:4;stroke-dasharray:225.776, 112.888;stroke-dashoffset:0" /><line
   fill="#ff0000"
   stroke="#ff0000"
   x1="8320"
   y1="429"
   x2="5100"
   y2="1600"
   id="line97" /><line
   fill="#ff0000"
   stroke="#ff0000"
   x1="8342"
   y1="1511"
   x2="5100"
   y2="2100"
   id="line99" /><line
   fill="#ff0000"
   stroke="#ff0000"
   x1="8342"
   y1="3689"
   x2="5100"
   y2="3100"
   id="line101" /><line
   fill="#ff0000"
   stroke="#ff0000"
   x1="8320"
   y1="4771"
   x2="5100"
   y2="3600"
   id="line103" /><line
   fill="#0f0f0f"
   stroke="#0f0f0f"
   x1="2350"
   y1="4600"
   x2="5100"
   y2="4600"
   id="line105" /><line
   fill="#0f0f0f"
   stroke="#0f0f0f"
   x1="2321"
   y1="4608"
   x2="2571"
   y2="4483"
   id="line107" /><line
   fill="#0f0f0f"
   stroke="#0f0f0f"
   x1="2571"
   y1="4733"
   x2="2321"
   y2="4608"
   id="line109" /><line
   fill="#0f0f0f"
   stroke="#0f0f0f"
   x1="4877"
   y1="4483"
   x2="5127"
   y2="4608"
   id="line111" /><line
   fill="#0f0f0f"
   stroke="#0f0f0f"
   x1="5127"
   y1="4608"
   x2="4877"
   y2="4733"
   id="line113" />
<circle
   style="fill:none;stroke:#000000;stroke-width:28.231;stroke-miterlimit:4;stroke-dasharray:none;stroke-opacity:1"
   id="path1228"
   d="M 4148.8483,894.09565 A 2793.5339,2793.5339 0 0 1 4122.1649,4329.5657" /><circle
   style="fill:none;stroke:#000000;stroke-width:28.231;stroke-miterlimit:4;stroke-dasharray:none;stroke-opacity:1"
   id="path1228-1"
   d="m -6083.6917,-4319.3448 a 2793.5339,2793.5339 0 0 1 -26.6835,3435.47006"
   transform="scale(-1)" /><path
   style="fill:none;stroke:#000000;stroke-width:26.4583px;stroke-linecap:butt;stroke-linejoin:miter;stroke-opacity:1"
   d="M 4125.9999,4323.458 H 6110.375"
   id="path1259" /><path
   style="fill:none;stroke:#000000;stroke-width:26.4583px;stroke-linecap:butt;stroke-linejoin:miter;stroke-opacity:1"
   d="M 4148.8482,894.095 6110.375,883.875"
   id="path1261" /><text
   xml:space="preserve"
   style="font-style:normal;font-variant:normal;font-weight:normal;font-stretch:normal;font-size:987.778px;line-height:1.25;font-family:serif;-inkscape-font-specification:'serif, Normal';font-variant-ligatures:normal;font-variant-caps:normal;font-variant-numeric:normal;font-variant-east-asian:normal;fill:#000000;fill-opacity:1;stroke:none;stroke-width:746.707"
   x="2163.7505"
   y="2467.208"
   id="text1183-5"><tspan
     id="tspan1181-4"
     x="2163.7505"
     y="2467.208"
     style="font-style:normal;font-variant:normal;font-weight:normal;font-stretch:normal;font-size:987.778px;font-family:serif;-inkscape-font-specification:'serif, Normal';font-variant-ligatures:normal;font-variant-caps:normal;font-variant-numeric:normal;font-variant-east-asian:normal;stroke-width:746.707">F</tspan></text><text
   xml:space="preserve"
   style="font-style:italic;font-variant:normal;font-weight:normal;font-stretch:normal;font-size:987.778px;line-height:1.25;font-family:serif;-inkscape-font-specification:'serif, Italic';font-variant-ligatures:normal;font-variant-caps:normal;font-variant-numeric:normal;font-variant-east-asian:normal;fill:#000000;fill-opacity:1;stroke:none;stroke-width:746.707"
   x="3415.7891"
   y="5547.4824"
   id="text1183"><tspan
     id="tspan1181"
     x="3415.7891"
     y="5547.4824"
     style="font-style:italic;font-variant:normal;font-weight:normal;font-stretch:normal;font-size:987.778px;font-family:serif;-inkscape-font-specification:'serif, Italic';font-variant-ligatures:normal;font-variant-caps:normal;font-variant-numeric:normal;font-variant-east-asian:normal;stroke-width:746.707">f</tspan></text></svg>
