<?xml version="1.0" encoding="UTF-8" standalone="no"?>
<svg
   xmlns:ooo="http://xml.openoffice.org/svg/export"
   xmlns:dc="http://purl.org/dc/elements/1.1/"
   xmlns:cc="http://creativecommons.org/ns#"
   xmlns:rdf="http://www.w3.org/1999/02/22-rdf-syntax-ns#"
   xmlns:svg="http://www.w3.org/2000/svg"
   xmlns="http://www.w3.org/2000/svg"
   version="1.2"
   width="102.0944mm"
   height="62.20977mm"
   viewBox="0 0 10209.44 6220.977"
   preserveAspectRatio="xMidYMid"
   fill-rule="evenodd"
   stroke-width="28.222"
   stroke-linejoin="round"
   xml:space="preserve"
   id="svg130"><metadata
   id="metadata134"><rdf:RDF><cc:Work
       rdf:about=""><dc:format>image/svg+xml</dc:format><dc:type
         rdf:resource="http://purl.org/dc/dcmitype/StillImage" /><dc:title></dc:title></cc:Work></rdf:RDF></metadata>
 <defs
   class="ClipPathGroup"
   id="defs8">
  <clipPath
   id="presentation_clip_path"
   clipPathUnits="userSpaceOnUse">
   <rect
   x="0"
   y="0"
   width="21000"
   height="29700"
   id="rect2" />
  </clipPath>
  <clipPath
   id="presentation_clip_path_shrink"
   clipPathUnits="userSpaceOnUse">
   <rect
   x="21"
   y="29"
   width="20958"
   height="29641"
   id="rect5" />
  </clipPath>
 
  
 
   
  
    
   
      
     
       
      
        
        
        
        
        
        
        
        
        
        
        
        
        
        
        
        
        
        
        
        
        
        
        
        
        
        
        
        
        
        
        
        
        
        
       </defs>
 <defs
   class="TextShapeIndex"
   id="defs12">
  <g
   ooo:slide="id1"
   ooo:id-list="id3"
   id="g10" />
 </defs>
 <defs
   class="EmbeddedBulletChars"
   id="defs44">
  <g
   id="bullet-char-template-57356"
   transform="matrix(4.8828125e-4,0,0,-4.8828125e-4,0,0)">
   <path
   d="M 580,1141 1163,571 580,0 -4,571 Z"
   id="path14" />
  </g>
  <g
   id="bullet-char-template-57354"
   transform="matrix(4.8828125e-4,0,0,-4.8828125e-4,0,0)">
   <path
   d="M 8,1128 H 1137 V 0 H 8 Z"
   id="path17" />
  </g>
  <g
   id="bullet-char-template-10146"
   transform="matrix(4.8828125e-4,0,0,-4.8828125e-4,0,0)">
   <path
   d="M 174,0 602,739 174,1481 1456,739 Z M 1358,739 309,1346 659,739 Z"
   id="path20" />
  </g>
  <g
   id="bullet-char-template-10132"
   transform="matrix(4.8828125e-4,0,0,-4.8828125e-4,0,0)">
   <path
   d="M 2015,739 1276,0 H 717 l 543,543 H 174 v 393 h 1086 l -543,545 h 557 z"
   id="path23" />
  </g>
  <g
   id="bullet-char-template-10007"
   transform="matrix(4.8828125e-4,0,0,-4.8828125e-4,0,0)">
   <path
   d="m 0,-2 c -7,16 -16,29 -25,39 l 381,530 c -94,256 -141,385 -141,387 0,25 13,38 40,38 9,0 21,-2 34,-5 21,4 42,12 65,25 l 27,-13 111,-251 280,301 64,-25 24,25 c 21,-10 41,-24 62,-43 C 886,937 835,863 770,784 769,783 710,716 594,584 L 774,223 c 0,-27 -21,-55 -63,-84 l 16,-20 C 717,90 699,76 672,76 641,76 570,178 457,381 L 164,-76 c -22,-34 -53,-51 -92,-51 -42,0 -63,17 -64,51 -7,9 -10,24 -10,44 0,9 1,19 2,30 z"
   id="path26" />
  </g>
  <g
   id="bullet-char-template-10004"
   transform="matrix(4.8828125e-4,0,0,-4.8828125e-4,0,0)">
   <path
   d="M 285,-33 C 182,-33 111,30 74,156 52,228 41,333 41,471 c 0,78 14,145 41,201 34,71 87,106 158,106 53,0 88,-31 106,-94 l 23,-176 c 8,-64 28,-97 59,-98 l 735,706 c 11,11 33,17 66,17 42,0 63,-15 63,-46 V 965 c 0,-36 -10,-64 -30,-84 L 442,47 C 390,-6 338,-33 285,-33 Z"
   id="path29" />
  </g>
  <g
   id="bullet-char-template-9679"
   transform="matrix(4.8828125e-4,0,0,-4.8828125e-4,0,0)">
   <path
   d="M 813,0 C 632,0 489,54 383,161 276,268 223,411 223,592 c 0,181 53,324 160,431 106,107 249,161 430,161 179,0 323,-54 432,-161 108,-107 162,-251 162,-431 0,-180 -54,-324 -162,-431 C 1136,54 992,0 813,0 Z"
   id="path32" />
  </g>
  <g
   id="bullet-char-template-8226"
   transform="matrix(4.8828125e-4,0,0,-4.8828125e-4,0,0)">
   <path
   d="m 346,457 c -73,0 -137,26 -191,78 -54,51 -81,114 -81,188 0,73 27,136 81,188 54,52 118,78 191,78 73,0 134,-26 185,-79 51,-51 77,-114 77,-187 0,-75 -25,-137 -76,-188 -50,-52 -112,-78 -186,-78 z"
   id="path35" />
  </g>
  <g
   id="bullet-char-template-8211"
   transform="matrix(4.8828125e-4,0,0,-4.8828125e-4,0,0)">
   <path
   d="M -4,459 H 1135 V 606 H -4 Z"
   id="path38" />
  </g>
  <g
   id="bullet-char-template-61548"
   transform="matrix(4.8828125e-4,0,0,-4.8828125e-4,0,0)">
   <path
   d="m 173,740 c 0,163 58,303 173,419 116,115 255,173 419,173 163,0 302,-58 418,-173 116,-116 174,-256 174,-419 0,-163 -58,-303 -174,-418 C 1067,206 928,148 765,148 601,148 462,206 346,322 231,437 173,577 173,740 Z"
   id="path41" />
  </g>
 </defs>
 <g
   id="g49"
   transform="translate(-5399,-11738.511)">
  <g
   id="id2"
   class="Master_Slide">
   <g
   id="bg-id2"
   class="Background" />
   <g
   id="bo-id2"
   class="BackgroundObjects" />
  </g>
 </g>
 <g
   id="id1"
   class="Slide"
   clip-path="url(#presentation_clip_path)"
   transform="translate(-5399,-11738.511)">
     <rect
   class="BoundingBox"
   stroke="none"
   fill="none"
   x="5499"
   y="11849"
   width="10001"
   height="6001"
   id="rect51" /><line
   fill="#ff0000"
   stroke="#ff0000"
   x1="5499"
   y1="13349"
   x2="10499"
   y2="13349"
   id="line53" /><line
   fill="#ff0000"
   stroke="#ff0000"
   x1="5499"
   y1="13849"
   x2="10499"
   y2="13849"
   id="line55" /><line
   fill="#ff0000"
   stroke="#ff0000"
   x1="10499"
   y1="13349"
   x2="15499"
   y2="17849"
   id="line57" /><line
   fill="#ff0000"
   stroke="#ff0000"
   x1="10499"
   y1="13849"
   x2="15499"
   y2="16849"
   id="line59" /><line
   fill="#ff0000"
   stroke="#ff0000"
   x1="5499"
   y1="14349"
   x2="10499"
   y2="14349"
   id="line61" /><line
   fill="#ff0000"
   stroke="#ff0000"
   x1="10499"
   y1="14349"
   x2="15499"
   y2="15849"
   id="line63" /><line
   fill="#ff0000"
   stroke="#ff0000"
   x1="5499"
   y1="15349"
   x2="10499"
   y2="15349"
   id="line65" /><line
   fill="#ff0000"
   stroke="#ff0000"
   x1="10499"
   y1="15349"
   x2="15499"
   y2="13849"
   id="line67" /><line
   fill="#ff0000"
   stroke="#ff0000"
   x1="5499"
   y1="15849"
   x2="10499"
   y2="15849"
   id="line69" /><line
   fill="#ff0000"
   stroke="#ff0000"
   x1="5499"
   y1="16349"
   x2="10499"
   y2="16349"
   id="line71" /><line
   fill="#ff0000"
   stroke="#ff0000"
   x1="10499"
   y1="16349"
   x2="15499"
   y2="11849"
   id="line73" /><line
   fill="#ff0000"
   stroke="#ff0000"
   x1="6999"
   y1="13224"
   x2="7249"
   y2="13349"
   id="line75" /><line
   fill="#ff0000"
   stroke="#ff0000"
   x1="7249"
   y1="13349"
   x2="6999"
   y2="13474"
   id="line77" /><line
   fill="#ff0000"
   stroke="#ff0000"
   x1="6999"
   y1="13724"
   x2="7249"
   y2="13849"
   id="line79" /><line
   fill="#ff0000"
   stroke="#ff0000"
   x1="7249"
   y1="13849"
   x2="6999"
   y2="13974"
   id="line81" /><line
   fill="#ff0000"
   stroke="#ff0000"
   x1="6999"
   y1="14224"
   x2="7249"
   y2="14349"
   id="line83" /><line
   fill="#ff0000"
   stroke="#ff0000"
   x1="7249"
   y1="14349"
   x2="6999"
   y2="14474"
   id="line85" /><line
   fill="#ff0000"
   stroke="#ff0000"
   x1="6999"
   y1="15224"
   x2="7249"
   y2="15349"
   id="line87" /><line
   fill="#ff0000"
   stroke="#ff0000"
   x1="7249"
   y1="15349"
   x2="6999"
   y2="15474"
   id="line89" /><line
   fill="#ff0000"
   stroke="#ff0000"
   x1="6999"
   y1="15724"
   x2="7249"
   y2="15849"
   id="line91" /><line
   fill="#ff0000"
   stroke="#ff0000"
   x1="7249"
   y1="15849"
   x2="6999"
   y2="15974"
   id="line93" /><line
   fill="#ff0000"
   stroke="#ff0000"
   x1="6999"
   y1="16224"
   x2="7249"
   y2="16349"
   id="line95" /><line
   fill="#ff0000"
   stroke="#ff0000"
   x1="7249"
   y1="16349"
   x2="6999"
   y2="16474"
   id="line97" /><line
   fill="#ff0000"
   stroke="#ff0000"
   x1="10499"
   y1="15849"
   x2="15499"
   y2="12849"
   id="line99" /><line
   fill="#0f0f0f"
   stroke="#0f0f0f"
   x1="5499"
   y1="14849"
   x2="15499"
   y2="14849"
   id="line101"
   style="stroke-width:28.231;stroke-miterlimit:4;stroke-dasharray:225.848, 56.4621, 28.231, 56.4621;stroke-dashoffset:79.0469" /><line
   fill="#0f0f0f"
   stroke="#0f0f0f"
   x1="10499"
   y1="12349"
   x2="10499"
   y2="17349"
   id="line107"
   style="stroke-width:28.222;stroke-miterlimit:4;stroke-dasharray:84.666, 28.222;stroke-dashoffset:0" /><line
   fill="#0f0f0f"
   stroke="#0f0f0f"
   x1="10499"
   y1="17099"
   x2="10749"
   y2="16974"
   id="line109" /><line
   fill="#0f0f0f"
   stroke="#0f0f0f"
   x1="10749"
   y1="17224"
   x2="10499"
   y2="17099"
   id="line111" /><line
   fill="#0f0f0f"
   stroke="#0f0f0f"
   x1="10502"
   y1="17119"
   x2="12110"
   y2="17119"
   id="line113" /><line
   fill="#0f0f0f"
   stroke="#0f0f0f"
   x1="11870"
   y1="16997"
   x2="12120"
   y2="17122"
   id="line115" /><line
   fill="#0f0f0f"
   stroke="#0f0f0f"
   x1="12120"
   y1="17122"
   x2="11870"
   y2="17247"
   id="line117" />
    <text
   xml:space="preserve"
   style="font-style:italic;font-variant:normal;font-weight:normal;font-stretch:normal;font-size:987.778px;line-height:1.25;font-family:serif;-inkscape-font-specification:'serif, Italic';font-variant-ligatures:normal;font-variant-caps:normal;font-variant-numeric:normal;font-variant-east-asian:normal;fill:#000000;fill-opacity:1;stroke:none;stroke-width:746.707"
   x="11183.703"
   y="16889.418"
   id="text1183"><tspan
     id="tspan1181"
     x="11183.703"
     y="16889.418"
     style="font-style:italic;font-variant:normal;font-weight:normal;font-stretch:normal;font-size:987.778px;font-family:serif;-inkscape-font-specification:'serif, Italic';font-variant-ligatures:normal;font-variant-caps:normal;font-variant-numeric:normal;font-variant-east-asian:normal;stroke-width:746.707">f</tspan></text><text
   xml:space="preserve"
   style="font-style:normal;font-variant:normal;font-weight:normal;font-stretch:normal;font-size:987.778px;line-height:1.25;font-family:serif;-inkscape-font-specification:'serif, Normal';font-variant-ligatures:normal;font-variant-caps:normal;font-variant-numeric:normal;font-variant-east-asian:normal;fill:#000000;fill-opacity:1;stroke:none;stroke-width:746.707"
   x="11951.492"
   y="14266.311"
   id="text1183-5"><tspan
     id="tspan1181-4"
     x="11951.492"
     y="14266.311"
     style="font-style:normal;font-variant:normal;font-weight:normal;font-stretch:normal;font-size:987.778px;font-family:serif;-inkscape-font-specification:'serif, Normal';font-variant-ligatures:normal;font-variant-caps:normal;font-variant-numeric:normal;font-variant-east-asian:normal;stroke-width:746.707">F</tspan></text><circle
   style="fill:none;stroke:#000000;stroke-width:28.231;stroke-miterlimit:4;stroke-dasharray:none;stroke-opacity:1"
   id="path1228"
   d="m 10499,13099 a 2793.5339,2793.5339 0 0 1 -26.684,3435.47" /><circle
   style="fill:none;stroke:#000000;stroke-width:28.231;stroke-miterlimit:4;stroke-dasharray:none;stroke-opacity:1"
   id="path1228-1"
   transform="scale(-1)"
   d="m -10472.316,-16534.47 a 2793.5339,2793.5339 0 0 1 -26.683,3435.47" /></g>
</svg>
