<?xml version="1.0" encoding="UTF-8" standalone="no"?>
<svg
   xmlns:dc="http://purl.org/dc/elements/1.1/"
   xmlns:cc="http://creativecommons.org/ns#"
   xmlns:rdf="http://www.w3.org/1999/02/22-rdf-syntax-ns#"
   xmlns:svg="http://www.w3.org/2000/svg"
   xmlns="http://www.w3.org/2000/svg"
   width="132.00421mm"
   height="120.57482mm"
   viewBox="0 0 132.00421 120.57482"
   version="1.1"
   id="svg8">
  <defs
     id="defs2">
    <clipPath
       clipPathUnits="userSpaceOnUse"
       id="clipEmfPath1">
      <path
         d="M 3.9997923,3.6798089 H 497.57416 V 460.29609 H 3.9997923 Z"
         id="path833" />
    </clipPath>
    <pattern
       id="EMFhbasepattern"
       patternUnits="userSpaceOnUse"
       width="6"
       height="6"
       x="0"
       y="0" />
  </defs>
  <metadata
     id="metadata5">
    <rdf:RDF>
      <cc:Work
         rdf:about="">
        <dc:format>image/svg+xml</dc:format>
        <dc:type
           rdf:resource="http://purl.org/dc/dcmitype/StillImage" />
        <dc:title></dc:title>
      </cc:Work>
    </rdf:RDF>
  </metadata>
  <g
     id="layer1"
     transform="translate(2.5021019,-89.391159)">
    <path
       style="fill:none;stroke:#000000;stroke-width:3.99979px;stroke-linecap:butt;stroke-linejoin:miter;stroke-miterlimit:8;stroke-dasharray:none;stroke-opacity:1"
       clip-path="url(#clipEmfPath1)"
       d="M 3.9997923,5.5997092 H 495.31427"
       id="path841"
       transform="matrix(0.26458333,0,0,0.26458333,-2.5603803,89.417543)" />
    <path
       style="fill:none;stroke:#000000;stroke-width:3.99979px;stroke-linecap:butt;stroke-linejoin:miter;stroke-miterlimit:8;stroke-dasharray:none;stroke-opacity:1"
       clip-path="url(#clipEmfPath1)"
       d="M 306.38409,311.02385 H 495.35427"
       id="path843"
       transform="matrix(0.26458333,0,0,0.26458333,-2.5603803,89.417543)" />
    <path
       style="fill:none;stroke:#000000;stroke-width:3.99979px;stroke-linecap:butt;stroke-linejoin:miter;stroke-miterlimit:8;stroke-dasharray:none;stroke-opacity:1"
       clip-path="url(#clipEmfPath1)"
       d="M 3.9997923,311.02385 H 192.96998"
       id="path845"
       transform="matrix(0.26458333,0,0,0.26458333,-2.5603803,89.417543)" />
    <path
       style="fill:none;stroke:#ff0000;stroke-width:2.07989px;stroke-linecap:butt;stroke-linejoin:miter;stroke-miterlimit:8;stroke-dasharray:none;stroke-opacity:1"
       clip-path="url(#clipEmfPath1)"
       d="M 3.9997923,330.70282 H 495.31427"
       id="path847"
       transform="matrix(0.26458333,0,0,0.26458333,-2.5603803,89.417543)" />
    <path
       style="fill:none;stroke:#ff0000;stroke-width:2.07989px;stroke-linecap:butt;stroke-linejoin:miter;stroke-miterlimit:8;stroke-dasharray:none;stroke-opacity:1"
       clip-path="url(#clipEmfPath1)"
       d="M 3.9997923,349.74183 H 495.31427"
       id="path849"
       transform="matrix(0.26458333,0,0,0.26458333,-2.5603803,89.417543)" />
    <path
       style="fill:none;stroke:#ff0000;stroke-width:2.07989px;stroke-linecap:butt;stroke-linejoin:miter;stroke-miterlimit:8;stroke-dasharray:none;stroke-opacity:1"
       clip-path="url(#clipEmfPath1)"
       d="M 3.9997923,368.62085 H 495.31427"
       id="path851"
       transform="matrix(0.26458333,0,0,0.26458333,-2.5603803,89.417543)" />
    <path
       style="fill:none;stroke:#ff0000;stroke-width:2.07989px;stroke-linecap:butt;stroke-linejoin:miter;stroke-miterlimit:8;stroke-dasharray:none;stroke-opacity:1"
       clip-path="url(#clipEmfPath1)"
       d="M 3.9997923,387.49987 H 495.31427"
       id="path853"
       transform="matrix(0.26458333,0,0,0.26458333,-2.5603803,89.417543)" />
    <path
       style="fill:#ff0000;fill-opacity:1;fill-rule:nonzero;stroke:#ff0000;stroke-width:0.00529139px;stroke-linecap:butt;stroke-linejoin:round;stroke-miterlimit:10;stroke-dasharray:none;stroke-opacity:1"
       d="m 63.878336,194.44108 v -22.31379 h -0.804291 v 22.31379 z m 1.354596,-20.10199 -1.756741,-3.0108 -1.751452,3.0108 c -0.111119,0.19049 -0.04762,0.43389 0.142867,0.55031 0.19049,0.11112 0.439188,0.0423 0.550305,-0.14816 l 1.407511,-2.41288 h -0.693173 l 1.407511,2.41288 c 0.11112,0.19049 0.359815,0.25928 0.550305,0.14816 0.190489,-0.11642 0.253986,-0.35982 0.142867,-0.55031 z"
       id="path855" />
    <path
       style="fill:none;stroke:#ff0000;stroke-width:1.27993px;stroke-linecap:butt;stroke-linejoin:miter;stroke-miterlimit:8;stroke-dasharray:none;stroke-opacity:1"
       clip-path="url(#clipEmfPath1)"
       d="M 192.86998,310.86385 323.58319,4.8797465"
       id="path857"
       transform="matrix(0.26458333,0,0,0.26458333,-2.5603803,89.417543)" />
    <path
       style="fill:none;stroke:#00b0f0;stroke-width:1.05828px;stroke-linecap:butt;stroke-linejoin:miter;stroke-miterlimit:8;stroke-dasharray:none;stroke-opacity:1"
       d="M 48.490969,171.68281 52.996588,160.8725"
       id="path839" />
    <path
       style="fill:none;stroke:#ff0000;stroke-width:0.338649px;stroke-linecap:butt;stroke-linejoin:miter;stroke-miterlimit:8;stroke-dasharray:none;stroke-opacity:1"
       d="M 78.397916,172.09025 112.98245,91.131954"
       id="path859" />
    <path
       style="fill:#000000;fill-opacity:1;fill-rule:nonzero;stroke:#000000;stroke-width:0.0026457px;stroke-linecap:butt;stroke-linejoin:round;stroke-miterlimit:10;stroke-dasharray:none;stroke-opacity:1"
       d="m 48.554466,91.131954 v 1.354597 h -0.169325 v -1.354597 z m 0,1.86257 v 1.354597 h -0.169325 v -1.354597 z m 0,1.86257 v 1.354596 h -0.169325 v -1.354596 z m 0,1.86257 v 1.354596 h -0.169325 v -1.354596 z m 0,1.86257 v 1.354596 h -0.169325 v -1.354596 z m 0,1.862566 v 1.3546 h -0.169325 v -1.3546 z m 0,1.86257 v 1.3546 h -0.169325 v -1.3546 z m 0,1.86257 v 1.3546 h -0.169325 v -1.3546 z m 0,1.86257 v 1.3546 h -0.169325 v -1.3546 z m 0,1.86257 v 1.3546 h -0.169325 v -1.3546 z m 0,1.86257 v 1.3546 h -0.169325 v -1.3546 z m 0,1.86257 v 1.3546 h -0.169325 v -1.3546 z m 0,1.86257 v 1.3546 h -0.169325 v -1.3546 z m 0,1.86257 v 1.3546 h -0.169325 v -1.3546 z m 0,1.86257 v 1.3546 h -0.169325 v -1.3546 z m 0,1.86257 v 1.3546 h -0.169325 v -1.3546 z m 0,1.86257 v 1.3546 h -0.169325 v -1.3546 z m 0,1.86257 v 1.3546 h -0.169325 v -1.3546 z m 0,1.86257 v 1.3546 h -0.169325 v -1.3546 z m 0,1.86257 v 1.3546 h -0.169325 v -1.3546 z m 0,1.86257 v 1.3546 h -0.169325 v -1.3546 z m 0,1.86257 v 1.3546 h -0.169325 v -1.3546 z m 0,1.86257 v 1.3546 h -0.169325 v -1.3546 z m 0,1.86257 v 1.3546 h -0.169325 v -1.3546 z m 0,1.86257 v 1.3546 h -0.169325 v -1.3546 z m 0,1.86257 v 1.3546 h -0.169325 v -1.3546 z m 0,1.86257 v 1.3546 h -0.169325 v -1.3546 z m 0,1.86257 v 1.3546 h -0.169325 v -1.3546 z m 0,1.86257 v 1.3546 h -0.169325 v -1.3546 z m 0,1.86257 v 1.3546 h -0.169325 v -1.3546 z m 0,1.86257 v 1.3546 h -0.169325 v -1.3546 z m 0,1.86257 v 1.3546 h -0.169325 v -1.3546 z m 0,1.86257 v 1.3546 h -0.169325 v -1.3546 z m 0,1.86257 v 1.3546 h -0.169325 v -1.3546 z m 0,1.86257 v 1.3546 h -0.169325 v -1.3546 z m 0,1.86257 v 1.3546 h -0.169325 v -1.3546 z m 0,1.86257 v 1.3546 h -0.169325 v -1.3546 z m 0,1.86257 v 1.3546 h -0.169325 v -1.3546 z m 0,1.86257 v 1.3546 h -0.169325 v -1.3546 z m 0,1.86257 v 1.3546 h -0.169325 v -1.3546 z m 0,1.86257 v 1.3546 h -0.169325 v -1.3546 z m 0,1.86257 v 1.3546 h -0.169325 v -1.3546 z m 0,1.86257 v 1.3546 h -0.169325 v -1.3546 z m 0,1.86257 v 0.40744 h -0.169325 v -0.40744 z"
       id="path861" />
    <path
       style="fill:#00b0f0;fill-opacity:1;fill-rule:nonzero;stroke:#00b0f0;stroke-width:0.0026457px;stroke-linecap:butt;stroke-linejoin:round;stroke-miterlimit:10;stroke-dasharray:none;stroke-opacity:1"
       d="m 78.310606,171.92092 -2.021311,-0.87043 0.219594,-0.50533 2.02131,0.87044 z m -3.537294,-1.52392 -2.021311,-0.87043 0.219591,-0.50533 2.021314,0.87044 z m -3.537297,-1.52392 -2.02131,-0.87043 0.216947,-0.50533 2.023957,0.87043 z m -3.537294,-1.52392 -2.021313,-0.87308 0.216948,-0.50533 2.021313,0.87308 z m -3.537296,-1.52656 -2.021311,-0.87044 0.216948,-0.50533 2.021311,0.87044 z m -3.537294,-1.52393 -2.021314,-0.87043 0.216948,-0.50533 2.021311,0.87044 z m -3.537297,-1.52392 -2.021311,-0.87043 0.216948,-0.50533 2.021311,0.87044 z m -3.537294,-1.52392 -0.976262,-0.42066 0.219591,-0.50533 0.973616,0.42067 z"
       id="path863" />
    <path
       style="fill:none;stroke:#000000;stroke-width:0.253987px;stroke-linecap:butt;stroke-linejoin:miter;stroke-miterlimit:8;stroke-dasharray:none;stroke-opacity:1"
       d="m 48.469802,196.11316 v 5.95811"
       id="path865" />
    <path
       style="fill:none;stroke:#000000;stroke-width:0.253987px;stroke-linecap:butt;stroke-linejoin:miter;stroke-miterlimit:8;stroke-dasharray:none;stroke-opacity:1"
       d="m 78.440246,196.11316 v 5.95811"
       id="path867" />
    <path
       style="fill:#000000;fill-opacity:1;fill-rule:nonzero;stroke:#000000;stroke-width:0.00529139px;stroke-linecap:butt;stroke-linejoin:round;stroke-miterlimit:10;stroke-dasharray:none;stroke-opacity:1"
       d="m 48.723789,199.24567 h 29.38839 v 0.25399 h -29.38839 z m 2.053061,1.4763 -2.307048,-1.34931 2.307048,-1.34401 c 0.05821,-0.0318 0.137575,-0.0106 0.174617,0.0476 0.03175,0.0582 0.01587,0.13758 -0.04763,0.17462 l -2.116556,1.23289 v -0.21694 l 2.116556,1.23289 c 0.0635,0.037 0.07937,0.11112 0.04763,0.17461 -0.03704,0.0582 -0.116412,0.0794 -0.174617,0.0476 z m 25.282271,-2.69332 2.301753,1.34401 -2.301753,1.34931 c -0.0635,0.0317 -0.137578,0.0106 -0.174617,-0.0476 -0.03704,-0.0635 -0.01588,-0.13757 0.04762,-0.17461 l 2.116558,-1.23289 v 0.21694 l -2.116558,-1.23289 c -0.0635,-0.037 -0.08466,-0.11641 -0.04762,-0.17462 0.03704,-0.0582 0.111119,-0.0794 0.174617,-0.0476 z"
       id="path869" />
    <path
       style="fill:#000000;fill-opacity:1;fill-rule:evenodd;stroke:none;stroke-width:0.264583"
       d="m 64.624422,205.16145 c -0.253987,0 -0.481515,0.13228 -0.677299,0.39156 -0.201073,0.25398 -0.359815,0.60322 -0.481515,1.03711 -0.121703,0.43389 -0.179909,0.82546 -0.179909,1.1694 0,0.20107 0.02646,0.35452 0.08466,0.44977 0.06349,0.10053 0.15345,0.14816 0.275151,0.14816 0.1852,0 0.370398,-0.0847 0.555596,-0.26457 0.190492,-0.17991 0.343942,-0.38628 0.460351,-0.62439 0.116411,-0.2434 0.216948,-0.57147 0.306901,-0.9842 l 0.03704,-0.15345 c 0.04233,-0.20636 0.0635,-0.40743 0.0635,-0.60851 0,-0.1852 -0.03175,-0.32277 -0.100536,-0.41802 -0.06879,-0.0952 -0.185198,-0.14286 -0.34394,-0.14286 z m 1.777907,-2.18006 h 0.465643 l -1.047694,4.62997 c -0.04233,0.17991 -0.05821,0.33865 -0.05821,0.47093 0,0.09 0.01058,0.16404 0.04233,0.21166 0.03175,0.0476 0.08466,0.0741 0.158742,0.0741 0.08466,0 0.174614,-0.037 0.27515,-0.11641 0.100537,-0.0794 0.216948,-0.19049 0.349235,-0.34394 l 0.296317,0.29631 c -0.291028,0.29103 -0.539723,0.4921 -0.746088,0.59793 -0.211653,0.11112 -0.433893,0.16404 -0.661424,0.16404 -0.23282,0 -0.418018,-0.0635 -0.550304,-0.19049 -0.137575,-0.127 -0.206364,-0.29632 -0.206364,-0.50798 0,-0.0688 0.01058,-0.13228 0.02646,-0.19578 l -0.05291,-0.0159 c -0.259279,0.31748 -0.507974,0.5503 -0.735505,0.69317 -0.227528,0.14816 -0.49739,0.21695 -0.814874,0.21695 -0.312193,0 -0.555596,-0.11112 -0.724921,-0.33865 -0.174615,-0.22753 -0.259276,-0.55031 -0.259276,-0.97891 0,-0.3704 0.05291,-0.74079 0.164031,-1.1059 0.105828,-0.3704 0.259278,-0.68259 0.460351,-0.95245 0.201073,-0.26457 0.45506,-0.47623 0.756669,-0.62439 0.3069,-0.15345 0.650843,-0.23282 1.031822,-0.23282 0.248695,0 0.481518,0.0423 0.714338,0.127 l 0.137575,-0.62968 c 0.01587,-0.0688 0.03704,-0.16933 0.05821,-0.29632 0.02117,-0.13228 0.03175,-0.22753 0.03175,-0.29632 0,-0.0582 -0.0053,-0.10582 -0.01587,-0.14286 -0.01058,-0.0317 -0.03175,-0.0635 -0.05821,-0.0847 -0.02116,-0.0212 -0.05821,-0.037 -0.09524,-0.0529 -0.04233,-0.0106 -0.126994,-0.0265 -0.243403,-0.0423 l 0.0635,-0.26986 z"
       id="path871" />
    <path
       style="fill:#00b0f0;fill-opacity:1;fill-rule:evenodd;stroke:none;stroke-width:0.264583"
       d="m 37.061562,160.65291 -1.388992,3.62989 h 2.529287 z m -0.171969,-1.12442 h 1.058278 l 1.777907,5.38399 v 0.29631 h -4.99772 v -0.30425 z"
       id="path873" />
    <path
       style="fill:#00b0f0;fill-opacity:1;fill-rule:evenodd;stroke:none;stroke-width:0.264583"
       d="m 42.60694,161.04182 c 0.214302,0 0.441833,0.0185 0.685236,0.0529 0.243404,0.0344 0.465643,0.0794 0.666716,0.13758 l -0.214302,0.98949 h -0.523849 c -0.02645,-0.25663 -0.0926,-0.44712 -0.198427,-0.56882 -0.105828,-0.11906 -0.256632,-0.17991 -0.455059,-0.17991 -0.185198,0 -0.333357,0.0476 -0.444476,0.14287 -0.11112,0.0952 -0.169326,0.22223 -0.169326,0.38627 0,0.14286 0.04762,0.26721 0.142867,0.37569 0.0926,0.10847 0.275154,0.2434 0.545016,0.40479 0.291025,0.17461 0.500036,0.35188 0.627028,0.53707 0.126994,0.1852 0.190492,0.40215 0.190492,0.6482 0,0.28309 -0.07408,0.5212 -0.224885,0.71963 -0.150805,0.19843 -0.354524,0.34659 -0.616448,0.44448 -0.259278,0.0952 -0.555596,0.14286 -0.888952,0.14286 -0.537078,0 -1.047697,-0.0661 -1.539796,-0.19842 l 0.23282,-1.02389 h 0.523849 c 0.01323,0.24605 0.07937,0.44183 0.193135,0.58205 0.113766,0.14023 0.291026,0.21166 0.526494,0.21166 0.216948,0 0.386271,-0.0529 0.505328,-0.15874 0.119057,-0.10847 0.17726,-0.25664 0.17726,-0.44977 0,-0.11641 -0.01852,-0.2143 -0.0582,-0.29367 -0.03969,-0.0794 -0.103182,-0.15874 -0.190492,-0.23282 -0.08731,-0.0767 -0.230174,-0.17462 -0.428601,-0.29632 -0.277799,-0.16403 -0.476226,-0.336 -0.603218,-0.51327 -0.124349,-0.1799 -0.187846,-0.37833 -0.187846,-0.59792 0,-0.4048 0.15345,-0.71699 0.455059,-0.93393 0.304255,-0.2196 0.727567,-0.32807 1.27258,-0.32807 z"
       id="path875" />
    <path
       style="fill:#00b0f0;fill-opacity:1;fill-rule:evenodd;stroke:none;stroke-width:0.264583"
       d="m 46.287103,162.7774 h 0.386274 c -0.01323,0.19314 -0.01852,0.46035 -0.01852,0.80165 v 2.52399 c 0,0.11641 0.0053,0.20372 0.01852,0.26457 0.01323,0.0582 0.03704,0.10583 0.06879,0.14551 0.03439,0.037 0.08202,0.0661 0.145513,0.0873 0.06085,0.0212 0.140224,0.037 0.235468,0.0476 0.0926,0.0106 0.216946,0.0185 0.373042,0.0212 v 0.27516 h -2.603365 v -0.27516 c 0.222239,-0.008 0.380981,-0.0238 0.476226,-0.0397 0.09789,-0.0159 0.169325,-0.0423 0.219594,-0.0767 0.05027,-0.0344 0.08731,-0.082 0.111119,-0.14551 0.02381,-0.0608 0.03439,-0.16403 0.03439,-0.30425 v -2.18271 c 0,-0.082 -0.01588,-0.14022 -0.04762,-0.17726 -0.03175,-0.037 -0.07408,-0.0556 -0.126995,-0.0556 -0.05027,0 -0.1217,0.0238 -0.214299,0.0714 -0.08996,0.045 -0.24076,0.14023 -0.44977,0.28309 l -0.185198,-0.32013 z"
       id="path877" />
    <path
       style="fill:#000000;fill-opacity:1;fill-rule:nonzero;stroke:#000000;stroke-width:0.0026457px;stroke-linecap:butt;stroke-linejoin:round;stroke-miterlimit:10;stroke-dasharray:none;stroke-opacity:1"
       d="m 78.993197,171.64577 h -1.354596 v 0.16933 h 1.354596 z m -1.862569,0 H 75.77603 v 0.16933 h 1.354598 z m -1.862572,0 h -1.354595 v 0.16933 h 1.354595 z m -1.862568,0 H 72.05089 v 0.16933 h 1.354598 z m -1.862572,0 h -1.354595 v 0.16933 h 1.354595 z m -1.862569,0 h -1.354598 v 0.16933 h 1.354598 z m -1.862571,0 h -1.354595 v 0.16933 h 1.354595 z"
       id="path879" />
    <path
       style="fill:none;stroke:#ff0000;stroke-width:0.338649px;stroke-linecap:butt;stroke-linejoin:miter;stroke-miterlimit:8;stroke-dasharray:none;stroke-opacity:1"
       d="m 48.025326,143.02993 c 3.899755,0 7.669871,1.31755 10.643635,3.71191"
       id="path881" />
    <path
       style="fill:#ff0000;fill-opacity:1;fill-rule:evenodd;stroke:none;stroke-width:0.264583"
       d="m 53.049502,149.63358 c -0.108474,0 -0.211657,0.0238 -0.309547,0.0688 -0.100536,0.045 -0.198427,0.11641 -0.296318,0.2143 -0.09789,0.0979 -0.193135,0.23282 -0.288379,0.40479 -0.0926,0.17197 -0.174618,0.36246 -0.240758,0.57412 -0.06879,0.20901 -0.121703,0.42596 -0.158742,0.65084 -0.03969,0.22224 -0.05821,0.42596 -0.05821,0.60586 0,0.44978 0.129638,0.6773 0.388917,0.6773 0.219593,0 0.455059,-0.14022 0.703754,-0.41537 0.248698,-0.2778 0.465643,-0.66142 0.650843,-1.15088 0.05556,-0.26457 0.08466,-0.54501 0.08466,-0.84133 0,-0.26986 -0.04233,-0.46829 -0.124349,-0.59528 -0.08466,-0.12964 -0.201073,-0.19314 -0.351877,-0.19314 z m -0.07937,-0.43125 c 0.328065,0 0.589989,0.0847 0.783127,0.25134 0.195781,0.16668 0.314835,0.41802 0.357169,0.75403 h 0.05556 l 0.391565,-0.93922 h 1.121775 l -0.05027,0.27515 c -0.105828,0.12964 -0.283091,0.36511 -0.531786,0.70905 -0.248695,0.34129 -0.489453,0.69052 -0.722276,1.0424 -0.0026,0.0873 -0.01058,0.24869 -0.0291,0.47887 -0.01588,0.22488 -0.02381,0.38627 -0.02381,0.48416 0,0.23018 0.02117,0.38363 0.0635,0.46035 0.03968,0.0794 0.111119,0.11906 0.20901,0.11906 0.07408,0 0.156096,-0.0318 0.240757,-0.09 0.08466,-0.0608 0.195782,-0.17197 0.330714,-0.32807 l 0.296317,0.29897 c -0.243403,0.24869 -0.476226,0.43125 -0.695817,0.54766 -0.219593,0.11376 -0.457705,0.16932 -0.716984,0.16932 -0.222239,0 -0.391565,-0.0661 -0.507973,-0.19843 -0.116412,-0.13228 -0.174617,-0.32806 -0.174617,-0.58469 0,-0.0979 0.0079,-0.19843 0.02646,-0.30691 l -0.0635,-0.008 c -0.261925,0.33071 -0.473581,0.56354 -0.637614,0.70111 -0.161386,0.13493 -0.328065,0.23547 -0.500036,0.30161 -0.174615,0.0635 -0.367753,0.0952 -0.584698,0.0952 -0.222239,0 -0.410083,-0.0476 -0.566179,-0.14816 -0.156096,-0.0979 -0.272508,-0.24869 -0.351877,-0.44712 -0.07673,-0.19842 -0.116412,-0.43125 -0.116412,-0.69846 0,-0.55824 0.100537,-1.06357 0.301609,-1.51599 0.201073,-0.45241 0.484164,-0.80164 0.851914,-1.05034 0.365106,-0.24869 0.780481,-0.37304 1.243478,-0.37304 z"
       id="path883" />
    <path
       style="fill:none;stroke:#00b0f0;stroke-width:0.338649px;stroke-linecap:butt;stroke-linejoin:miter;stroke-miterlimit:8;stroke-dasharray:none;stroke-opacity:1"
       d="m 66.164217,171.92092 c 0,-1.67472 0.373044,-3.32299 1.082091,-4.79929"
       id="path885" />
    <path
       style="fill:#00b0f0;fill-opacity:1;fill-rule:evenodd;stroke:none;stroke-width:0.264583"
       d="m 74.926762,163.61344 c -0.108474,0 -0.211656,0.0238 -0.309546,0.0688 -0.100537,0.045 -0.198427,0.11641 -0.296318,0.2143 -0.09789,0.0979 -0.193135,0.23282 -0.288382,0.40479 -0.0926,0.17197 -0.174615,0.36511 -0.240758,0.57412 -0.06879,0.20901 -0.1217,0.42595 -0.158742,0.65084 -0.03969,0.22488 -0.05821,0.42596 -0.05821,0.60586 0,0.45242 0.129641,0.6773 0.388919,0.6773 0.219591,0 0.45506,-0.13758 0.703755,-0.41537 0.248695,-0.2778 0.465643,-0.66143 0.650841,-1.15088 0.05556,-0.26457 0.08466,-0.54501 0.08466,-0.83869 0,-0.26986 -0.04233,-0.47093 -0.124349,-0.59792 -0.08466,-0.12964 -0.201073,-0.19314 -0.351878,-0.19314 z m -0.07937,-0.4286 c 0.328067,0 0.589992,0.082 0.783127,0.24869 0.195781,0.16668 0.314838,0.41802 0.357169,0.75403 h 0.05556 l 0.391562,-0.93658 h 1.121775 l -0.05027,0.27251 c -0.105828,0.12964 -0.283088,0.3651 -0.531783,0.70904 -0.248696,0.3413 -0.489456,0.69053 -0.722276,1.04241 -0.0026,0.09 -0.01058,0.24869 -0.0291,0.48151 -0.01587,0.22224 -0.02381,0.38363 -0.02381,0.48152 0,0.23017 0.02116,0.38362 0.0635,0.463 0.03969,0.0767 0.111117,0.11641 0.209011,0.11641 0.07408,0 0.156093,-0.0291 0.240757,-0.09 0.08466,-0.0608 0.195781,-0.16932 0.330711,-0.32807 l 0.29632,0.29897 c -0.243406,0.25134 -0.476226,0.43389 -0.69582,0.54766 -0.219593,0.11376 -0.457705,0.17197 -0.716984,0.17197 -0.222236,0 -0.391562,-0.0661 -0.507973,-0.19843 -0.116411,-0.13229 -0.174615,-0.32807 -0.174615,-0.58735 0,-0.0979 0.0079,-0.19842 0.02646,-0.3069 l -0.0635,-0.008 c -0.261922,0.33072 -0.473578,0.56354 -0.637612,0.70112 -0.161388,0.13492 -0.328067,0.23546 -0.500036,0.3016 -0.171971,0.0635 -0.367752,0.0979 -0.5847,0.0979 -0.222237,0 -0.410083,-0.0503 -0.566179,-0.1508 -0.156096,-0.0979 -0.272505,-0.24605 -0.351877,-0.44448 -0.07672,-0.19843 -0.116412,-0.43125 -0.116412,-0.69846 0,-0.56089 0.100539,-1.06622 0.301612,-1.51863 0.201073,-0.45241 0.484161,-0.80165 0.851913,-1.05034 0.365107,-0.24605 0.780482,-0.3704 1.243476,-0.3704 z"
       id="path887" />
    <path
       style="fill:#00b0f0;fill-opacity:1;fill-rule:evenodd;stroke:none;stroke-width:0.264583"
       d="m 53.676532,164.53414 c 0,-0.34923 0.285734,-0.63496 0.634969,-0.63496 0.351877,0 0.634965,0.28573 0.634965,0.63496 0,0.35188 -0.283088,0.63497 -0.634965,0.63497 -0.349235,0 -0.634969,-0.28309 -0.634969,-0.63497 z"
       id="path891" />
    <path
       style="fill:none;stroke:#00b0f0;stroke-width:0.338649px;stroke-linecap:butt;stroke-linejoin:miter;stroke-miterlimit:8;stroke-dasharray:none;stroke-opacity:1"
       d="m 53.676532,164.53414 c 0,-0.34923 0.285734,-0.63496 0.634969,-0.63496 0.351877,0 0.634965,0.28573 0.634965,0.63496 0,0.35188 -0.283088,0.63497 -0.634965,0.63497 -0.349235,0 -0.634969,-0.28309 -0.634969,-0.63497"
       id="path893" />
    <path
       style="fill:none;stroke:#5b9bd5;stroke-width:0.338649px;stroke-linecap:butt;stroke-linejoin:miter;stroke-miterlimit:8;stroke-dasharray:none;stroke-opacity:1"
       d="m 59.49971,163.72985 c -1.854634,2.9817 -5.346951,4.52149 -8.796941,3.87859"
       id="path889" />
  </g>
</svg>
